M48
;GenerationSoftware,Autodesk,EAGLE,9.6.1*%
;CreationDate,2024-12-18T12:38:34Z*%
FMAT,2
ICI,OFF
METRIC,TZ,000.000
T7C0.250
T6C0.300
T5C0.350
T4C0.400
T3C0.940
T2C1.016
T1C1.500
%
G90
M71
T1
X-11451Y-4604
X-6371Y-4604
X6191Y-4604
X11271Y-4604
T2
X9684Y33496
X-9049Y41116
X9684Y38576
X9684Y36036
T3
X-15507Y11563
X-10528Y9074
T4
X7620Y16510
X-18733Y12065
X-23177Y1746
X-21590Y1746
X-20161Y1746
X-18733Y1746
X-17463Y1746
X-23336Y159
X-21590Y-318
X-20161Y-318
X-18733Y-318
X-17463Y-318
X-17463Y3810
X7620Y25717
X7620Y24130
X7620Y22542
X7620Y21114
X7620Y19526
X7620Y17939
X26352Y12065
X7620Y15081
X7620Y13811
X-7461Y13970
X-7461Y15557
X-7461Y17145
X-7461Y18574
X-7461Y20161
X-7461Y21749
X-7461Y23177
X-7461Y24606
X-7461Y25876
X15716Y14129
X17304Y14129
X18891Y14129
X20320Y14129
X21907Y14129
X23495Y14129
X24924Y14129
X26352Y14129
X27622Y14129
X15716Y12065
X17304Y12065
X18891Y12065
X20320Y12065
X21907Y12065
X23495Y12065
X24924Y12065
X27622Y12065
X15716Y10001
X17304Y10001
X18891Y10001
X20320Y10001
X21907Y10001
X23495Y10001
X24924Y10001
X26352Y10001
X27622Y10001
X15716Y7937
X17304Y7937
X18891Y7937
X20320Y7937
X21907Y7937
X23495Y7937
X24924Y7937
X26352Y7937
X27622Y7937
X15716Y5874
X17304Y5874
X18891Y5874
X20320Y5874
X21907Y5874
X23495Y5874
X24924Y5874
X26352Y5874
X27622Y5874
X15716Y3810
X17304Y3810
X18891Y3810
X20320Y3810
X21907Y3810
X23495Y3810
X24924Y3810
X26352Y3810
X27622Y3810
X15716Y1746
X17304Y1746
X18891Y1746
X20320Y1746
X21907Y1746
X23495Y1746
X24924Y1746
X26352Y1746
X15716Y-318
X17304Y-318
X18891Y-318
X20320Y-318
X21907Y-318
X23495Y-318
X24924Y-318
X26352Y-318
X15716Y20161
X17304Y20161
X15716Y18098
X17304Y18098
X18891Y18098
X20320Y18098
X15716Y16034
X17304Y16034
X18891Y16034
X20320Y16034
X21907Y16034
X23495Y16034
X24924Y15716
X21749Y17463
X18415Y19368
X-4445Y18256
X-2857Y18256
X-1270Y18256
X159Y18256
X1746Y18256
X3334Y18256
X4763Y18256
X-4445Y16192
X-2857Y16192
X-1270Y16192
X159Y16192
X1746Y16192
X3334Y16192
X4763Y16192
X-4445Y22384
X-2857Y22384
X-1270Y22384
X159Y22384
X1746Y22384
X3334Y22384
X4763Y22384
X-4445Y20320
X-2857Y20320
X-1270Y20320
X159Y20320
X1746Y20320
X3334Y20320
X4763Y20320
X-4445Y24447
X-2857Y24447
X-1270Y24447
X159Y24447
X1746Y24447
X3334Y24447
X4763Y24447
X-24765Y14129
X-23177Y14129
X-21590Y14129
X-20161Y14129
X-18733Y14129
X-17463Y14129
X-26194Y12065
X-24765Y12065
X-23177Y12065
X-21590Y12065
X-20161Y12065
X-17463Y12065
X-26194Y10001
X-24765Y10001
X-23177Y10001
X-21590Y10001
X-20161Y10001
X-18733Y10001
X-17463Y10001
X-26194Y7937
X-24765Y7937
X-23177Y7937
X-21590Y7937
X-20161Y7937
X-18733Y7937
X-17463Y7937
X-26194Y5874
X-24765Y5874
X-23177Y5874
X-21590Y5874
X-20161Y5874
X-18733Y5874
X-17463Y5874
X-24765Y3810
X-23177Y3810
X-21590Y3810
X-20161Y3810
X-18733Y3810
T5
X2699Y42386
X9366Y41910
X13176Y39211
X-10636Y39211
X-10319Y42704
X-9049Y33338
X-476Y32861
X8096Y32544
X7302Y36513
X-1111Y48736
X1587Y48736
X-7200Y35878
X2064Y28422
X2540Y9751
X-5420Y28207
X-7479Y28711
X-2880Y28207
X-2540Y9369
X2223Y43974
T6
X13150Y27781
X-802Y37306
X159Y46990
X8052Y41593
T7
X-2785Y37941
X-6945Y37783
X-1534Y37465
X6264Y44777
X11746Y34683
X-3291Y45029
X-4564Y46128
M30