G04 EAGLE Gerber RS-274X export*
G75*
%MOMM*%
%FSLAX34Y34*%
%LPD*%
%INTop Copper*%
%IPPOS*%
%AMOC8*
5,1,8,0,0,1.08239X$1,22.5*%
G01*
%ADD10R,0.800000X0.800000*%
%ADD11P,1.649562X8X22.500000*%
%ADD12R,1.000000X1.100000*%
%ADD13C,1.524000*%
%ADD14C,0.112000*%
%ADD15C,0.200000*%
%ADD16R,1.100000X1.000000*%
%ADD17R,1.400000X1.000000*%
%ADD18C,1.000000*%
%ADD19R,2.250000X13.500000*%
%ADD20C,1.447800*%
%ADD21R,2.500000X2.500000*%
%ADD22C,2.500000*%
%ADD23R,1.300000X3.700000*%
%ADD24R,10.300000X8.900000*%
%ADD25C,0.750000*%
%ADD26C,0.812800*%
%ADD27C,0.609600*%
%ADD28C,0.304800*%
%ADD29C,0.177800*%
%ADD30C,0.554800*%
%ADD31C,0.203200*%
%ADD32C,0.604800*%
%ADD33C,1.270000*%
%ADD34C,0.900000*%
%ADD35C,0.254000*%

G36*
X150074Y-83633D02*
X150074Y-83633D01*
X150187Y-83614D01*
X150300Y-83599D01*
X150310Y-83594D01*
X150317Y-83593D01*
X150338Y-83582D01*
X150454Y-83531D01*
X273481Y-12712D01*
X273541Y-12663D01*
X273607Y-12621D01*
X273636Y-12586D01*
X273672Y-12556D01*
X273713Y-12491D01*
X273762Y-12430D01*
X273778Y-12387D01*
X273803Y-12348D01*
X273821Y-12273D01*
X273848Y-12200D01*
X273850Y-12154D01*
X273861Y-12109D01*
X273854Y-12032D01*
X273856Y-11954D01*
X273843Y-11910D01*
X273839Y-11864D01*
X273808Y-11793D01*
X273786Y-11718D01*
X273753Y-11667D01*
X273741Y-11639D01*
X273723Y-11619D01*
X273696Y-11577D01*
X273291Y-11070D01*
X272957Y-9919D01*
X272943Y-9889D01*
X272914Y-9804D01*
X272400Y-8721D01*
X272360Y-7930D01*
X272359Y-7926D01*
X272359Y-7922D01*
X272331Y-7757D01*
X272217Y-7364D01*
X272215Y-7360D01*
X272215Y-7356D01*
X272149Y-7202D01*
X271760Y-6512D01*
X271615Y-5322D01*
X271606Y-5291D01*
X271591Y-5202D01*
X271257Y-4051D01*
X271345Y-3264D01*
X271345Y-3260D01*
X271346Y-3256D01*
X271344Y-3088D01*
X271295Y-2682D01*
X271294Y-2678D01*
X271294Y-2674D01*
X271254Y-2511D01*
X270980Y-1768D01*
X271028Y-570D01*
X271024Y-537D01*
X271024Y-448D01*
X270879Y742D01*
X271065Y1408D01*
X271092Y1505D01*
X271092Y1509D01*
X271094Y1513D01*
X271119Y1679D01*
X271136Y2087D01*
X271135Y2092D01*
X271136Y2096D01*
X271122Y2263D01*
X270972Y3040D01*
X271211Y4215D01*
X271213Y4247D01*
X271226Y4336D01*
X271274Y5534D01*
X271607Y6253D01*
X271608Y6257D01*
X271610Y6260D01*
X271662Y6420D01*
X271743Y6821D01*
X271744Y6825D01*
X271745Y6829D01*
X271758Y6996D01*
X271734Y7788D01*
X272160Y8908D01*
X272166Y8940D01*
X272194Y9026D01*
X272433Y10200D01*
X272877Y10856D01*
X272878Y10860D01*
X272881Y10863D01*
X272958Y11012D01*
X273103Y11395D01*
X273103Y11399D01*
X273106Y11403D01*
X273146Y11565D01*
X273249Y12351D01*
X273848Y13389D01*
X273860Y13419D01*
X273901Y13499D01*
X274326Y14620D01*
X274869Y15197D01*
X274871Y15200D01*
X274874Y15203D01*
X274973Y15338D01*
X275178Y15692D01*
X275180Y15696D01*
X275182Y15699D01*
X275248Y15853D01*
X275476Y16612D01*
X276234Y17540D01*
X276250Y17569D01*
X276303Y17641D01*
X276903Y18679D01*
X277531Y19161D01*
X277534Y19164D01*
X277537Y19166D01*
X277657Y19284D01*
X277916Y19601D01*
X277918Y19604D01*
X277921Y19607D01*
X278011Y19749D01*
X278357Y20461D01*
X279254Y21255D01*
X279275Y21281D01*
X279339Y21344D01*
X280097Y22272D01*
X280795Y22647D01*
X280798Y22650D01*
X280802Y22651D01*
X280939Y22748D01*
X281245Y23019D01*
X281248Y23022D01*
X281251Y23025D01*
X281363Y23150D01*
X281819Y23798D01*
X282832Y24438D01*
X282856Y24460D01*
X282930Y24512D01*
X283827Y25306D01*
X284576Y25565D01*
X284579Y25567D01*
X284583Y25567D01*
X284734Y25641D01*
X285080Y25860D01*
X285083Y25862D01*
X285087Y25864D01*
X285217Y25970D01*
X285771Y26536D01*
X286874Y27006D01*
X286901Y27023D01*
X286982Y27062D01*
X287995Y27703D01*
X288775Y27838D01*
X288779Y27839D01*
X288784Y27839D01*
X288944Y27888D01*
X289321Y28048D01*
X289324Y28050D01*
X289328Y28051D01*
X289473Y28135D01*
X290111Y28605D01*
X291275Y28891D01*
X291305Y28904D01*
X291391Y28930D01*
X292494Y29400D01*
X293286Y29408D01*
X293290Y29409D01*
X293294Y29408D01*
X293460Y29430D01*
X293857Y29528D01*
X293861Y29530D01*
X293865Y29530D01*
X294022Y29589D01*
X294727Y29950D01*
X295922Y30047D01*
X295954Y30055D01*
X296043Y30067D01*
X297206Y30353D01*
X297936Y30242D01*
X298013Y30243D01*
X298090Y30235D01*
X298135Y30245D01*
X298182Y30245D01*
X298255Y30270D01*
X298330Y30287D01*
X298370Y30311D01*
X298414Y30326D01*
X298475Y30373D01*
X298541Y30413D01*
X298572Y30448D01*
X298608Y30477D01*
X298651Y30541D01*
X298701Y30600D01*
X298719Y30643D01*
X298744Y30682D01*
X298764Y30756D01*
X298793Y30828D01*
X298800Y30890D01*
X298808Y30919D01*
X298806Y30946D01*
X298812Y30995D01*
X298812Y143458D01*
X298799Y143534D01*
X298796Y143612D01*
X298780Y143655D01*
X298772Y143701D01*
X298736Y143769D01*
X298708Y143841D01*
X298679Y143877D01*
X298657Y143918D01*
X298601Y143972D01*
X298552Y144031D01*
X298512Y144056D01*
X298479Y144088D01*
X298409Y144120D01*
X298343Y144161D01*
X298298Y144172D01*
X298256Y144191D01*
X298179Y144200D01*
X298104Y144218D01*
X298041Y144215D01*
X298011Y144218D01*
X297985Y144213D01*
X297936Y144211D01*
X297245Y144106D01*
X296081Y144392D01*
X296048Y144395D01*
X295960Y144412D01*
X294765Y144508D01*
X294060Y144869D01*
X294057Y144871D01*
X294053Y144873D01*
X293896Y144931D01*
X293499Y145029D01*
X293494Y145029D01*
X293491Y145031D01*
X293324Y145051D01*
X292532Y145059D01*
X291429Y145529D01*
X291397Y145537D01*
X291313Y145568D01*
X290150Y145854D01*
X289512Y146324D01*
X289508Y146326D01*
X289505Y146328D01*
X289359Y146411D01*
X288983Y146571D01*
X288979Y146572D01*
X288975Y146574D01*
X288814Y146621D01*
X288033Y146756D01*
X287021Y147396D01*
X286990Y147409D01*
X286912Y147453D01*
X285809Y147923D01*
X285255Y148489D01*
X285252Y148491D01*
X285249Y148495D01*
X285118Y148599D01*
X284773Y148818D01*
X284769Y148820D01*
X284766Y148822D01*
X284614Y148894D01*
X283865Y149153D01*
X282968Y149947D01*
X282940Y149965D01*
X282870Y150021D01*
X281857Y150661D01*
X281401Y151309D01*
X281398Y151312D01*
X281396Y151315D01*
X281284Y151440D01*
X280978Y151711D01*
X280974Y151713D01*
X280971Y151716D01*
X280833Y151812D01*
X280136Y152187D01*
X279378Y153115D01*
X279353Y153137D01*
X279293Y153204D01*
X278396Y153998D01*
X278049Y154710D01*
X278047Y154714D01*
X278045Y154718D01*
X277954Y154858D01*
X277696Y155175D01*
X277692Y155178D01*
X277690Y155182D01*
X277569Y155298D01*
X276941Y155780D01*
X276342Y156818D01*
X276321Y156843D01*
X276272Y156919D01*
X275514Y157847D01*
X275286Y158605D01*
X275284Y158609D01*
X275284Y158613D01*
X275216Y158767D01*
X275012Y159121D01*
X275009Y159124D01*
X275008Y159128D01*
X274907Y159262D01*
X274364Y159839D01*
X273939Y160960D01*
X273923Y160988D01*
X273922Y160990D01*
X273921Y160994D01*
X273917Y161001D01*
X273887Y161070D01*
X273287Y162108D01*
X273184Y162893D01*
X273183Y162897D01*
X273183Y162902D01*
X273141Y163064D01*
X272996Y163447D01*
X272994Y163450D01*
X272993Y163454D01*
X272915Y163603D01*
X272472Y164259D01*
X272232Y165433D01*
X272220Y165464D01*
X272198Y165551D01*
X271773Y166671D01*
X271797Y167463D01*
X271796Y167467D01*
X271797Y167471D01*
X271782Y167638D01*
X271700Y168039D01*
X271698Y168043D01*
X271698Y168047D01*
X271645Y168206D01*
X271313Y168925D01*
X271265Y170123D01*
X271258Y170155D01*
X271250Y170244D01*
X271010Y171419D01*
X271161Y172196D01*
X271161Y172200D01*
X271162Y172204D01*
X271174Y172372D01*
X271157Y172780D01*
X271157Y172784D01*
X271157Y172789D01*
X271130Y172954D01*
X270917Y173717D01*
X271062Y174907D01*
X271061Y174939D01*
X271067Y175029D01*
X271019Y176227D01*
X271292Y176970D01*
X271293Y176974D01*
X271295Y176978D01*
X271333Y177141D01*
X271383Y177547D01*
X271382Y177551D01*
X271383Y177555D01*
X271383Y177723D01*
X271296Y178510D01*
X271629Y179661D01*
X271633Y179694D01*
X271654Y179781D01*
X271798Y180971D01*
X272187Y181661D01*
X272189Y181665D01*
X272191Y181668D01*
X272255Y181823D01*
X272369Y182216D01*
X272370Y182220D01*
X272371Y182224D01*
X272398Y182389D01*
X272438Y183180D01*
X272952Y184263D01*
X272961Y184295D01*
X272995Y184378D01*
X273329Y185529D01*
X273804Y186123D01*
X273818Y186148D01*
X273838Y186169D01*
X273876Y186250D01*
X273924Y186336D01*
X273924Y186337D01*
X273925Y186337D01*
X273925Y186341D01*
X273934Y186375D01*
X273942Y186392D01*
X273945Y186419D01*
X273964Y186498D01*
X273972Y186555D01*
X273968Y186671D01*
X273966Y186789D01*
X273964Y186795D01*
X273964Y186801D01*
X273923Y186911D01*
X273884Y187021D01*
X273881Y187026D01*
X273879Y187032D01*
X273804Y187124D01*
X273733Y187215D01*
X273727Y187219D01*
X273724Y187223D01*
X273709Y187233D01*
X273598Y187314D01*
X258350Y196117D01*
X258243Y196158D01*
X258137Y196201D01*
X258128Y196201D01*
X258120Y196204D01*
X258006Y196208D01*
X257892Y196215D01*
X257883Y196213D01*
X257874Y196213D01*
X257765Y196181D01*
X257654Y196151D01*
X257647Y196146D01*
X257638Y196143D01*
X257544Y196078D01*
X257450Y196014D01*
X257443Y196006D01*
X257437Y196002D01*
X257423Y195983D01*
X257341Y195887D01*
X256888Y195223D01*
X256884Y195216D01*
X256878Y195209D01*
X256803Y195059D01*
X256550Y194379D01*
X255690Y193453D01*
X255672Y193425D01*
X255619Y193364D01*
X254906Y192319D01*
X254299Y191922D01*
X254293Y191916D01*
X254285Y191913D01*
X254158Y191803D01*
X253310Y190889D01*
X253305Y190882D01*
X253298Y190876D01*
X253201Y190739D01*
X252850Y190105D01*
X251861Y189317D01*
X251839Y189292D01*
X251778Y189239D01*
X250917Y188312D01*
X250258Y188010D01*
X250251Y188005D01*
X250243Y188003D01*
X250101Y187914D01*
X249126Y187136D01*
X249120Y187130D01*
X249112Y187126D01*
X248996Y187005D01*
X248554Y186429D01*
X247459Y185797D01*
X247433Y185776D01*
X247365Y185733D01*
X246376Y184945D01*
X245679Y184745D01*
X245671Y184741D01*
X245663Y184740D01*
X245509Y184672D01*
X244429Y184049D01*
X244422Y184044D01*
X244414Y184040D01*
X244281Y183938D01*
X243759Y183435D01*
X242582Y182973D01*
X242553Y182957D01*
X242479Y182924D01*
X241384Y182292D01*
X240664Y182198D01*
X240656Y182195D01*
X240647Y182195D01*
X240485Y182152D01*
X239324Y181696D01*
X239317Y181692D01*
X239309Y181690D01*
X239162Y181609D01*
X238570Y181189D01*
X237337Y180908D01*
X237307Y180896D01*
X237229Y180875D01*
X236051Y180413D01*
X235326Y180427D01*
X235318Y180426D01*
X235309Y180427D01*
X235142Y180408D01*
X233926Y180131D01*
X233918Y180127D01*
X233910Y180127D01*
X233753Y180068D01*
X233105Y179741D01*
X231844Y179647D01*
X231812Y179640D01*
X231731Y179630D01*
X230498Y179349D01*
X229783Y179471D01*
X229775Y179471D01*
X229767Y179474D01*
X229599Y179480D01*
X228355Y179387D01*
X228347Y179385D01*
X228338Y179386D01*
X228174Y179351D01*
X227485Y179125D01*
X226224Y179219D01*
X226191Y179217D01*
X226110Y179220D01*
X224849Y179125D01*
X224160Y179352D01*
X224152Y179354D01*
X224144Y179358D01*
X223979Y179388D01*
X222736Y179482D01*
X222727Y179481D01*
X222719Y179483D01*
X222551Y179473D01*
X221836Y179352D01*
X220603Y179634D01*
X220570Y179636D01*
X220491Y179651D01*
X219230Y179746D01*
X218582Y180073D01*
X218574Y180076D01*
X218567Y180080D01*
X218409Y180136D01*
X217193Y180414D01*
X217184Y180414D01*
X217176Y180417D01*
X217009Y180433D01*
X216284Y180419D01*
X215107Y180882D01*
X215075Y180889D01*
X214998Y180915D01*
X213765Y181197D01*
X213174Y181617D01*
X213166Y181621D01*
X213160Y181627D01*
X213012Y181705D01*
X211851Y182161D01*
X211842Y182163D01*
X211835Y182167D01*
X211672Y182207D01*
X210953Y182302D01*
X209858Y182934D01*
X209827Y182946D01*
X209755Y182984D01*
X208578Y183446D01*
X208056Y183950D01*
X208049Y183955D01*
X208044Y183961D01*
X207909Y184061D01*
X206829Y184685D01*
X206821Y184688D01*
X206814Y184693D01*
X206659Y184757D01*
X205962Y184958D01*
X204974Y185747D01*
X204945Y185763D01*
X204880Y185811D01*
X203785Y186444D01*
X203343Y187019D01*
X203337Y187025D01*
X203333Y187032D01*
X203214Y187151D01*
X202239Y187929D01*
X202232Y187933D01*
X202226Y187939D01*
X202082Y188026D01*
X201423Y188328D01*
X200563Y189256D01*
X200537Y189276D01*
X200480Y189333D01*
X199491Y190122D01*
X199140Y190757D01*
X199135Y190764D01*
X199132Y190771D01*
X199047Y190886D01*
X199042Y190894D01*
X199039Y190897D01*
X199032Y190906D01*
X198184Y191821D01*
X198177Y191826D01*
X198173Y191833D01*
X198043Y191940D01*
X197436Y192338D01*
X196724Y193383D01*
X196702Y193407D01*
X196653Y193472D01*
X195794Y194399D01*
X195542Y195079D01*
X195537Y195086D01*
X195536Y195095D01*
X195457Y195243D01*
X194755Y196274D01*
X194749Y196280D01*
X194745Y196288D01*
X194633Y196413D01*
X194092Y196896D01*
X193544Y198036D01*
X193525Y198063D01*
X193487Y198134D01*
X192775Y199179D01*
X192627Y199889D01*
X192624Y199897D01*
X192624Y199906D01*
X192568Y200064D01*
X192027Y201188D01*
X192022Y201195D01*
X192020Y201203D01*
X191927Y201344D01*
X191465Y201902D01*
X191092Y203111D01*
X191078Y203140D01*
X191051Y203217D01*
X190503Y204356D01*
X190462Y205080D01*
X190460Y205089D01*
X190461Y205097D01*
X190430Y205262D01*
X190062Y206454D01*
X190059Y206462D01*
X190057Y206470D01*
X189987Y206623D01*
X189613Y207244D01*
X189425Y208494D01*
X189415Y208526D01*
X189400Y208605D01*
X189027Y209814D01*
X189095Y210536D01*
X189095Y210545D01*
X189097Y210553D01*
X189090Y210721D01*
X188905Y211954D01*
X188902Y211962D01*
X188902Y211971D01*
X188855Y212132D01*
X188578Y212802D01*
X188578Y214067D01*
X188573Y214099D01*
X188570Y214180D01*
X188382Y215431D01*
X188556Y216135D01*
X188557Y216143D01*
X188560Y216151D01*
X188579Y216318D01*
X188579Y217565D01*
X188578Y217574D01*
X188579Y217582D01*
X188557Y217748D01*
X188383Y218452D01*
X188571Y219703D01*
X188571Y219736D01*
X188580Y219816D01*
X188580Y221081D01*
X188858Y221751D01*
X188860Y221759D01*
X188865Y221767D01*
X188908Y221929D01*
X189094Y223162D01*
X189094Y223171D01*
X189096Y223179D01*
X189099Y223347D01*
X189032Y224069D01*
X189405Y225277D01*
X189409Y225310D01*
X189430Y225388D01*
X189619Y226638D01*
X189994Y227259D01*
X189997Y227267D01*
X190002Y227274D01*
X190069Y227428D01*
X190437Y228620D01*
X190438Y228628D01*
X190442Y228636D01*
X190470Y228801D01*
X190511Y229525D01*
X191060Y230665D01*
X191069Y230696D01*
X191101Y230771D01*
X191475Y231979D01*
X191937Y232537D01*
X191942Y232545D01*
X191948Y232550D01*
X191976Y232595D01*
X191986Y232605D01*
X191996Y232626D01*
X192037Y232693D01*
X192375Y233393D01*
X192407Y233502D01*
X192442Y233612D01*
X192442Y233621D01*
X192444Y233629D01*
X192440Y233743D01*
X192438Y233858D01*
X192436Y233866D01*
X192435Y233875D01*
X192395Y233983D01*
X192357Y234090D01*
X192351Y234097D01*
X192348Y234105D01*
X192275Y234194D01*
X192205Y234284D01*
X192196Y234290D01*
X192192Y234295D01*
X192173Y234307D01*
X192070Y234383D01*
X150453Y258410D01*
X150346Y258450D01*
X150239Y258493D01*
X150229Y258494D01*
X150223Y258497D01*
X150201Y258498D01*
X150072Y258512D01*
X149984Y258512D01*
X149655Y258841D01*
X149642Y258850D01*
X149632Y258862D01*
X149497Y258962D01*
X149094Y259194D01*
X149072Y259280D01*
X149024Y259384D01*
X148979Y259490D01*
X148973Y259498D01*
X148970Y259504D01*
X148955Y259520D01*
X148874Y259621D01*
X148812Y259684D01*
X148812Y260149D01*
X148809Y260164D01*
X148811Y260180D01*
X148786Y260346D01*
X148665Y260795D01*
X148710Y260872D01*
X148750Y260979D01*
X148793Y261086D01*
X148794Y261096D01*
X148797Y261102D01*
X148798Y261124D01*
X148812Y261253D01*
X148812Y271463D01*
X148809Y271482D01*
X148811Y271502D01*
X148789Y271603D01*
X148772Y271705D01*
X148763Y271723D01*
X148758Y271742D01*
X148705Y271831D01*
X148657Y271923D01*
X148643Y271936D01*
X148632Y271953D01*
X148554Y272021D01*
X148479Y272092D01*
X148461Y272100D01*
X148445Y272113D01*
X148349Y272152D01*
X148256Y272196D01*
X148236Y272198D01*
X148217Y272205D01*
X148051Y272224D01*
X143966Y272224D01*
X143851Y272205D01*
X143735Y272188D01*
X143729Y272185D01*
X143723Y272184D01*
X143620Y272130D01*
X143516Y272076D01*
X143511Y272072D01*
X143506Y272069D01*
X143426Y271985D01*
X143343Y271901D01*
X143340Y271894D01*
X143336Y271891D01*
X143328Y271874D01*
X143262Y271754D01*
X142678Y270344D01*
X138970Y266635D01*
X134124Y264628D01*
X128878Y264628D01*
X124032Y266635D01*
X120324Y270344D01*
X119740Y271754D01*
X119678Y271853D01*
X119618Y271953D01*
X119613Y271958D01*
X119610Y271963D01*
X119520Y272037D01*
X119431Y272113D01*
X119425Y272116D01*
X119420Y272120D01*
X119312Y272161D01*
X119203Y272205D01*
X119195Y272206D01*
X119191Y272208D01*
X119173Y272209D01*
X119036Y272224D01*
X59721Y272224D01*
X59606Y272205D01*
X59490Y272188D01*
X59484Y272185D01*
X59478Y272184D01*
X59375Y272130D01*
X59270Y272076D01*
X59266Y272072D01*
X59260Y272069D01*
X59181Y271985D01*
X59098Y271901D01*
X59094Y271894D01*
X59091Y271891D01*
X59083Y271874D01*
X59017Y271754D01*
X58499Y270503D01*
X55360Y267363D01*
X51258Y265664D01*
X40817Y265664D01*
X36715Y267363D01*
X33876Y270203D01*
X33860Y270215D01*
X33847Y270230D01*
X33760Y270286D01*
X33676Y270347D01*
X33657Y270352D01*
X33640Y270363D01*
X33540Y270389D01*
X33441Y270419D01*
X33421Y270418D01*
X33402Y270423D01*
X33299Y270415D01*
X33195Y270413D01*
X33176Y270406D01*
X33156Y270404D01*
X33062Y270364D01*
X32964Y270328D01*
X32948Y270316D01*
X32930Y270308D01*
X32799Y270203D01*
X29960Y267363D01*
X25858Y265664D01*
X15417Y265664D01*
X11315Y267363D01*
X8176Y270503D01*
X7658Y271754D01*
X7596Y271854D01*
X7536Y271953D01*
X7532Y271957D01*
X7528Y271963D01*
X7438Y272038D01*
X7349Y272113D01*
X7343Y272116D01*
X7339Y272120D01*
X7230Y272161D01*
X7121Y272205D01*
X7114Y272206D01*
X7109Y272208D01*
X7091Y272209D01*
X6954Y272224D01*
X-15075Y272224D01*
X-15190Y272205D01*
X-15306Y272188D01*
X-15311Y272185D01*
X-15318Y272184D01*
X-15420Y272130D01*
X-15525Y272076D01*
X-15529Y272072D01*
X-15535Y272069D01*
X-15615Y271985D01*
X-15697Y271901D01*
X-15701Y271894D01*
X-15704Y271891D01*
X-15712Y271874D01*
X-15778Y271754D01*
X-16272Y270562D01*
X-19287Y267546D01*
X-23228Y265914D01*
X-34373Y265914D01*
X-38313Y267546D01*
X-40962Y270195D01*
X-40978Y270207D01*
X-40991Y270223D01*
X-41078Y270279D01*
X-41162Y270339D01*
X-41181Y270345D01*
X-41198Y270356D01*
X-41298Y270381D01*
X-41397Y270411D01*
X-41417Y270411D01*
X-41436Y270416D01*
X-41539Y270408D01*
X-41643Y270405D01*
X-41662Y270398D01*
X-41681Y270396D01*
X-41776Y270356D01*
X-41874Y270320D01*
X-41889Y270308D01*
X-41908Y270300D01*
X-42039Y270195D01*
X-44687Y267546D01*
X-48628Y265914D01*
X-59773Y265914D01*
X-63713Y267546D01*
X-66729Y270562D01*
X-67222Y271754D01*
X-67284Y271853D01*
X-67344Y271953D01*
X-67349Y271958D01*
X-67352Y271963D01*
X-67442Y272037D01*
X-67531Y272113D01*
X-67537Y272116D01*
X-67542Y272120D01*
X-67650Y272161D01*
X-67759Y272205D01*
X-67767Y272206D01*
X-67771Y272208D01*
X-67789Y272209D01*
X-67926Y272224D01*
X-146418Y272224D01*
X-146437Y272221D01*
X-146457Y272223D01*
X-146558Y272201D01*
X-146660Y272184D01*
X-146678Y272175D01*
X-146697Y272170D01*
X-146786Y272117D01*
X-146878Y272069D01*
X-146891Y272055D01*
X-146908Y272044D01*
X-146976Y271966D01*
X-147047Y271891D01*
X-147055Y271873D01*
X-147068Y271857D01*
X-147107Y271761D01*
X-147151Y271668D01*
X-147153Y271648D01*
X-147160Y271629D01*
X-147179Y271463D01*
X-147179Y261239D01*
X-147160Y261126D01*
X-147144Y261012D01*
X-147140Y261002D01*
X-147139Y260996D01*
X-147129Y260976D01*
X-147077Y260858D01*
X-147040Y260795D01*
X-147153Y260376D01*
X-147154Y260360D01*
X-147160Y260345D01*
X-147179Y260179D01*
X-147179Y259680D01*
X-147254Y259606D01*
X-147321Y259512D01*
X-147390Y259421D01*
X-147393Y259411D01*
X-147397Y259406D01*
X-147404Y259384D01*
X-147451Y259264D01*
X-147469Y259194D01*
X-147845Y258977D01*
X-147858Y258967D01*
X-147872Y258961D01*
X-148003Y258856D01*
X-148355Y258504D01*
X-148461Y258504D01*
X-148574Y258485D01*
X-148688Y258469D01*
X-148698Y258465D01*
X-148704Y258464D01*
X-148724Y258454D01*
X-148842Y258402D01*
X-189637Y234849D01*
X-189728Y234775D01*
X-189818Y234704D01*
X-189822Y234698D01*
X-189827Y234694D01*
X-189889Y234595D01*
X-189953Y234498D01*
X-189954Y234491D01*
X-189958Y234485D01*
X-189985Y234372D01*
X-190014Y234259D01*
X-190014Y234251D01*
X-190016Y234246D01*
X-190014Y234227D01*
X-190011Y234092D01*
X-190007Y234057D01*
X-189996Y234021D01*
X-189993Y233984D01*
X-189938Y233825D01*
X-189586Y233094D01*
X-189581Y233087D01*
X-189578Y233079D01*
X-189486Y232939D01*
X-189024Y232380D01*
X-188651Y231172D01*
X-188637Y231142D01*
X-188610Y231066D01*
X-188061Y229926D01*
X-188021Y229202D01*
X-188019Y229194D01*
X-188020Y229185D01*
X-187988Y229020D01*
X-187621Y227828D01*
X-187617Y227821D01*
X-187616Y227812D01*
X-187546Y227660D01*
X-187172Y227038D01*
X-186984Y225788D01*
X-186974Y225757D01*
X-186958Y225677D01*
X-186586Y224468D01*
X-186654Y223746D01*
X-186653Y223738D01*
X-186655Y223729D01*
X-186649Y223562D01*
X-186463Y222328D01*
X-186461Y222320D01*
X-186461Y222312D01*
X-186414Y222150D01*
X-186137Y221480D01*
X-186137Y220216D01*
X-186132Y220183D01*
X-186129Y220102D01*
X-185940Y218852D01*
X-186115Y218148D01*
X-186116Y218139D01*
X-186119Y218131D01*
X-186138Y217964D01*
X-186138Y216717D01*
X-186137Y216709D01*
X-186138Y216700D01*
X-186116Y216534D01*
X-185941Y215830D01*
X-186130Y214580D01*
X-186130Y214547D01*
X-186139Y214466D01*
X-186139Y213202D01*
X-186417Y212531D01*
X-186419Y212523D01*
X-186423Y212516D01*
X-186467Y212354D01*
X-186653Y211120D01*
X-186653Y211112D01*
X-186655Y211104D01*
X-186658Y210936D01*
X-186591Y210214D01*
X-186964Y209005D01*
X-186968Y208973D01*
X-186989Y208894D01*
X-187178Y207644D01*
X-187553Y207023D01*
X-187556Y207015D01*
X-187561Y207008D01*
X-187628Y206854D01*
X-187996Y205663D01*
X-187997Y205654D01*
X-188001Y205646D01*
X-188029Y205481D01*
X-188070Y204757D01*
X-188619Y203618D01*
X-188628Y203586D01*
X-188660Y203512D01*
X-189033Y202303D01*
X-189496Y201745D01*
X-189501Y201738D01*
X-189507Y201732D01*
X-189596Y201590D01*
X-190138Y200466D01*
X-190140Y200458D01*
X-190145Y200451D01*
X-190197Y200291D01*
X-190345Y199581D01*
X-190602Y199205D01*
X-191058Y198537D01*
X-191072Y198507D01*
X-191115Y198438D01*
X-191664Y197299D01*
X-192205Y196816D01*
X-192210Y196809D01*
X-192218Y196804D01*
X-192327Y196677D01*
X-193030Y195647D01*
X-193033Y195639D01*
X-193039Y195633D01*
X-193114Y195483D01*
X-193367Y194803D01*
X-194227Y193876D01*
X-194246Y193849D01*
X-194298Y193787D01*
X-195011Y192743D01*
X-195618Y192346D01*
X-195624Y192340D01*
X-195632Y192336D01*
X-195759Y192226D01*
X-196608Y191312D01*
X-196612Y191305D01*
X-196619Y191300D01*
X-196716Y191163D01*
X-197067Y190528D01*
X-198056Y189740D01*
X-198078Y189716D01*
X-198139Y189663D01*
X-199000Y188736D01*
X-199659Y188434D01*
X-199666Y188429D01*
X-199675Y188427D01*
X-199817Y188337D01*
X-200792Y187560D01*
X-200798Y187553D01*
X-200805Y187549D01*
X-200921Y187428D01*
X-201363Y186853D01*
X-202458Y186221D01*
X-202484Y186200D01*
X-202553Y186157D01*
X-203541Y185369D01*
X-204238Y185168D01*
X-204246Y185164D01*
X-204255Y185163D01*
X-204408Y185096D01*
X-205489Y184472D01*
X-205495Y184467D01*
X-205503Y184464D01*
X-205636Y184362D01*
X-206159Y183858D01*
X-207336Y183397D01*
X-207364Y183380D01*
X-207439Y183348D01*
X-208534Y182716D01*
X-209253Y182621D01*
X-209261Y182619D01*
X-209270Y182619D01*
X-209432Y182575D01*
X-210593Y182120D01*
X-210600Y182115D01*
X-210609Y182113D01*
X-210755Y182032D01*
X-211347Y181613D01*
X-212580Y181332D01*
X-212611Y181319D01*
X-212689Y181298D01*
X-213866Y180836D01*
X-214591Y180850D01*
X-214600Y180849D01*
X-214608Y180850D01*
X-214775Y180831D01*
X-215991Y180554D01*
X-215999Y180551D01*
X-216008Y180550D01*
X-216165Y180492D01*
X-216812Y180165D01*
X-218074Y180071D01*
X-218105Y180063D01*
X-218186Y180054D01*
X-219419Y179773D01*
X-220134Y179895D01*
X-220143Y179895D01*
X-220151Y179897D01*
X-220318Y179903D01*
X-221562Y179811D01*
X-221570Y179809D01*
X-221579Y179809D01*
X-221743Y179775D01*
X-222432Y179548D01*
X-223693Y179643D01*
X-223726Y179640D01*
X-223807Y179643D01*
X-225068Y179549D01*
X-225757Y179776D01*
X-225766Y179777D01*
X-225773Y179781D01*
X-225938Y179812D01*
X-227182Y179906D01*
X-227190Y179905D01*
X-227199Y179907D01*
X-227366Y179897D01*
X-228081Y179776D01*
X-229314Y180058D01*
X-229347Y180060D01*
X-229427Y180074D01*
X-230688Y180169D01*
X-231335Y180496D01*
X-231343Y180499D01*
X-231350Y180504D01*
X-231509Y180559D01*
X-232725Y180837D01*
X-232733Y180838D01*
X-232741Y180841D01*
X-232908Y180856D01*
X-233634Y180843D01*
X-234810Y181305D01*
X-234843Y181312D01*
X-234919Y181339D01*
X-236152Y181621D01*
X-236743Y182040D01*
X-236751Y182044D01*
X-236757Y182050D01*
X-236906Y182128D01*
X-238067Y182584D01*
X-238075Y182586D01*
X-238083Y182590D01*
X-238245Y182630D01*
X-238965Y182725D01*
X-240060Y183358D01*
X-240090Y183370D01*
X-240162Y183407D01*
X-241339Y183870D01*
X-241861Y184373D01*
X-241868Y184378D01*
X-241874Y184385D01*
X-242009Y184484D01*
X-243089Y185108D01*
X-243097Y185111D01*
X-243103Y185117D01*
X-243258Y185180D01*
X-243956Y185382D01*
X-244944Y186170D01*
X-244973Y186186D01*
X-245038Y186234D01*
X-246133Y186867D01*
X-246574Y187443D01*
X-246580Y187448D01*
X-246585Y187456D01*
X-246703Y187574D01*
X-247678Y188352D01*
X-247686Y188357D01*
X-247692Y188363D01*
X-247836Y188449D01*
X-248495Y188752D01*
X-249355Y189679D01*
X-249381Y189699D01*
X-249438Y189757D01*
X-250426Y190545D01*
X-250777Y191180D01*
X-250782Y191187D01*
X-250785Y191195D01*
X-250885Y191330D01*
X-251733Y192244D01*
X-251740Y192250D01*
X-251745Y192257D01*
X-251874Y192364D01*
X-252481Y192761D01*
X-253193Y193806D01*
X-253216Y193830D01*
X-253264Y193895D01*
X-254124Y194822D01*
X-254376Y195502D01*
X-254380Y195510D01*
X-254382Y195518D01*
X-254461Y195667D01*
X-254917Y196337D01*
X-254943Y196364D01*
X-254961Y196395D01*
X-255079Y196509D01*
X-255081Y196511D01*
X-255082Y196512D01*
X-255090Y196518D01*
X-255192Y196573D01*
X-255296Y196630D01*
X-255301Y196631D01*
X-255306Y196634D01*
X-255422Y196654D01*
X-255537Y196675D01*
X-255543Y196675D01*
X-255549Y196676D01*
X-255664Y196658D01*
X-255781Y196641D01*
X-255787Y196638D01*
X-255792Y196638D01*
X-255807Y196630D01*
X-255935Y196574D01*
X-271924Y187343D01*
X-272015Y187268D01*
X-272106Y187195D01*
X-272109Y187191D01*
X-272114Y187187D01*
X-272177Y187087D01*
X-272240Y186989D01*
X-272242Y186983D01*
X-272245Y186978D01*
X-272272Y186864D01*
X-272301Y186751D01*
X-272301Y186744D01*
X-272302Y186739D01*
X-272301Y186722D01*
X-272298Y186583D01*
X-272275Y186412D01*
X-272275Y186410D01*
X-272240Y186294D01*
X-272204Y186177D01*
X-272204Y186176D01*
X-272203Y186175D01*
X-272201Y186172D01*
X-272115Y186035D01*
X-271640Y185441D01*
X-271306Y184290D01*
X-271292Y184260D01*
X-271263Y184175D01*
X-270749Y183092D01*
X-270709Y182301D01*
X-270708Y182297D01*
X-270708Y182293D01*
X-270680Y182128D01*
X-270566Y181735D01*
X-270564Y181731D01*
X-270564Y181727D01*
X-270498Y181573D01*
X-270109Y180883D01*
X-269964Y179693D01*
X-269955Y179662D01*
X-269940Y179573D01*
X-269606Y178422D01*
X-269694Y177635D01*
X-269694Y177631D01*
X-269695Y177627D01*
X-269693Y177459D01*
X-269644Y177053D01*
X-269643Y177049D01*
X-269643Y177045D01*
X-269603Y176882D01*
X-269329Y176139D01*
X-269377Y174941D01*
X-269373Y174908D01*
X-269373Y174819D01*
X-269228Y173629D01*
X-269441Y172866D01*
X-269441Y172862D01*
X-269443Y172858D01*
X-269468Y172692D01*
X-269485Y172284D01*
X-269484Y172279D01*
X-269485Y172275D01*
X-269471Y172108D01*
X-269321Y171331D01*
X-269560Y170156D01*
X-269562Y170124D01*
X-269575Y170035D01*
X-269623Y168837D01*
X-269956Y168118D01*
X-269957Y168114D01*
X-269959Y168111D01*
X-270011Y167951D01*
X-270092Y167550D01*
X-270093Y167546D01*
X-270094Y167542D01*
X-270107Y167375D01*
X-270083Y166583D01*
X-270509Y165463D01*
X-270515Y165431D01*
X-270543Y165345D01*
X-270782Y164171D01*
X-271226Y163515D01*
X-271227Y163511D01*
X-271230Y163508D01*
X-271307Y163359D01*
X-271452Y162976D01*
X-271452Y162972D01*
X-271455Y162968D01*
X-271495Y162805D01*
X-271598Y162020D01*
X-272197Y160982D01*
X-272209Y160952D01*
X-272250Y160872D01*
X-272675Y159751D01*
X-273218Y159174D01*
X-273220Y159171D01*
X-273223Y159168D01*
X-273323Y159033D01*
X-273527Y158679D01*
X-273529Y158675D01*
X-273531Y158672D01*
X-273597Y158518D01*
X-273825Y157759D01*
X-274583Y156831D01*
X-274599Y156802D01*
X-274652Y156730D01*
X-275252Y155692D01*
X-275880Y155210D01*
X-275883Y155207D01*
X-275886Y155205D01*
X-276006Y155087D01*
X-276265Y154770D01*
X-276267Y154767D01*
X-276270Y154764D01*
X-276360Y154622D01*
X-276706Y153910D01*
X-277603Y153116D01*
X-277624Y153090D01*
X-277688Y153027D01*
X-278446Y152099D01*
X-279144Y151724D01*
X-279147Y151721D01*
X-279151Y151720D01*
X-279288Y151623D01*
X-279594Y151352D01*
X-279597Y151349D01*
X-279600Y151346D01*
X-279712Y151221D01*
X-280168Y150573D01*
X-281181Y149933D01*
X-281203Y149914D01*
X-281224Y149902D01*
X-281237Y149889D01*
X-281279Y149859D01*
X-282176Y149065D01*
X-282925Y148806D01*
X-282928Y148804D01*
X-282932Y148804D01*
X-283083Y148730D01*
X-283429Y148511D01*
X-283432Y148509D01*
X-283436Y148507D01*
X-283566Y148401D01*
X-284120Y147835D01*
X-285223Y147365D01*
X-285250Y147348D01*
X-285331Y147309D01*
X-286344Y146668D01*
X-287124Y146533D01*
X-287128Y146532D01*
X-287133Y146532D01*
X-287293Y146483D01*
X-287670Y146323D01*
X-287673Y146321D01*
X-287677Y146320D01*
X-287822Y146236D01*
X-288460Y145766D01*
X-289624Y145480D01*
X-289654Y145467D01*
X-289707Y145451D01*
X-289713Y145450D01*
X-289717Y145448D01*
X-289740Y145441D01*
X-290843Y144971D01*
X-291635Y144963D01*
X-291639Y144962D01*
X-291643Y144963D01*
X-291809Y144941D01*
X-292206Y144843D01*
X-292210Y144841D01*
X-292214Y144841D01*
X-292371Y144782D01*
X-293076Y144421D01*
X-294271Y144324D01*
X-294303Y144316D01*
X-294392Y144304D01*
X-295555Y144018D01*
X-296307Y144132D01*
X-296400Y144131D01*
X-296465Y144138D01*
X-296502Y144130D01*
X-296550Y144130D01*
X-296552Y144129D01*
X-296553Y144129D01*
X-296558Y144128D01*
X-296695Y144088D01*
X-296705Y144086D01*
X-296708Y144085D01*
X-296712Y144083D01*
X-296715Y144082D01*
X-296749Y144061D01*
X-296785Y144048D01*
X-296843Y144004D01*
X-296916Y143960D01*
X-296920Y143956D01*
X-296925Y143953D01*
X-296954Y143917D01*
X-296980Y143897D01*
X-297014Y143846D01*
X-297076Y143773D01*
X-297078Y143768D01*
X-297082Y143764D01*
X-297100Y143715D01*
X-297116Y143692D01*
X-297130Y143641D01*
X-297168Y143545D01*
X-297169Y143538D01*
X-297171Y143534D01*
X-297171Y143517D01*
X-297178Y143462D01*
X-297179Y143455D01*
X-297179Y143449D01*
X-297187Y143378D01*
X-297187Y30909D01*
X-297174Y30833D01*
X-297171Y30755D01*
X-297155Y30712D01*
X-297147Y30666D01*
X-297111Y30598D01*
X-297083Y30526D01*
X-297054Y30490D01*
X-297032Y30449D01*
X-296976Y30396D01*
X-296927Y30336D01*
X-296887Y30311D01*
X-296854Y30279D01*
X-296784Y30247D01*
X-296718Y30206D01*
X-296673Y30195D01*
X-296631Y30176D01*
X-296554Y30167D01*
X-296479Y30149D01*
X-296416Y30152D01*
X-296386Y30149D01*
X-296360Y30154D01*
X-296311Y30156D01*
X-295594Y30265D01*
X-294430Y29979D01*
X-294397Y29976D01*
X-294309Y29959D01*
X-293114Y29863D01*
X-292409Y29502D01*
X-292406Y29500D01*
X-292402Y29498D01*
X-292245Y29440D01*
X-291848Y29342D01*
X-291843Y29342D01*
X-291840Y29340D01*
X-291673Y29320D01*
X-290881Y29312D01*
X-289778Y28842D01*
X-289746Y28834D01*
X-289662Y28803D01*
X-288499Y28517D01*
X-287861Y28047D01*
X-287857Y28045D01*
X-287854Y28043D01*
X-287708Y27960D01*
X-287332Y27800D01*
X-287328Y27799D01*
X-287324Y27797D01*
X-287163Y27750D01*
X-286382Y27615D01*
X-285370Y26975D01*
X-285339Y26962D01*
X-285261Y26918D01*
X-284158Y26448D01*
X-283604Y25882D01*
X-283601Y25880D01*
X-283598Y25876D01*
X-283467Y25772D01*
X-283122Y25553D01*
X-283118Y25551D01*
X-283115Y25549D01*
X-282963Y25477D01*
X-282214Y25218D01*
X-281317Y24424D01*
X-281289Y24406D01*
X-281219Y24350D01*
X-280206Y23710D01*
X-279750Y23062D01*
X-279747Y23059D01*
X-279745Y23056D01*
X-279633Y22931D01*
X-279326Y22660D01*
X-279323Y22658D01*
X-279320Y22655D01*
X-279182Y22559D01*
X-278485Y22184D01*
X-277727Y21256D01*
X-277702Y21234D01*
X-277642Y21168D01*
X-276745Y20373D01*
X-276398Y19661D01*
X-276396Y19657D01*
X-276394Y19653D01*
X-276303Y19513D01*
X-276045Y19196D01*
X-276041Y19193D01*
X-276039Y19189D01*
X-275918Y19073D01*
X-275290Y18591D01*
X-274691Y17553D01*
X-274670Y17528D01*
X-274621Y17452D01*
X-273863Y16524D01*
X-273635Y15766D01*
X-273633Y15762D01*
X-273633Y15758D01*
X-273565Y15604D01*
X-273361Y15250D01*
X-273358Y15247D01*
X-273357Y15243D01*
X-273256Y15109D01*
X-272713Y14532D01*
X-272288Y13411D01*
X-272272Y13383D01*
X-272236Y13301D01*
X-271636Y12263D01*
X-271533Y11478D01*
X-271532Y11474D01*
X-271532Y11469D01*
X-271490Y11307D01*
X-271345Y10924D01*
X-271343Y10921D01*
X-271342Y10917D01*
X-271264Y10768D01*
X-270821Y10112D01*
X-270581Y8938D01*
X-270569Y8907D01*
X-270547Y8820D01*
X-270122Y7700D01*
X-270146Y6908D01*
X-270145Y6904D01*
X-270146Y6900D01*
X-270131Y6733D01*
X-270049Y6332D01*
X-270047Y6328D01*
X-270047Y6324D01*
X-269994Y6165D01*
X-269662Y5446D01*
X-269614Y4248D01*
X-269607Y4216D01*
X-269599Y4127D01*
X-269359Y2952D01*
X-269510Y2175D01*
X-269510Y2171D01*
X-269511Y2167D01*
X-269523Y1999D01*
X-269506Y1591D01*
X-269506Y1587D01*
X-269506Y1582D01*
X-269479Y1417D01*
X-269266Y654D01*
X-269411Y-535D01*
X-269410Y-568D01*
X-269416Y-658D01*
X-269368Y-1856D01*
X-269641Y-2599D01*
X-269642Y-2603D01*
X-269644Y-2607D01*
X-269682Y-2770D01*
X-269732Y-3176D01*
X-269731Y-3180D01*
X-269732Y-3184D01*
X-269732Y-3352D01*
X-269645Y-4139D01*
X-269978Y-5290D01*
X-269982Y-5323D01*
X-270003Y-5410D01*
X-270147Y-6600D01*
X-270536Y-7290D01*
X-270538Y-7294D01*
X-270540Y-7297D01*
X-270604Y-7452D01*
X-270718Y-7845D01*
X-270719Y-7849D01*
X-270721Y-7853D01*
X-270747Y-8018D01*
X-270787Y-8809D01*
X-271301Y-9892D01*
X-271310Y-9924D01*
X-271345Y-10007D01*
X-271678Y-11158D01*
X-272031Y-11600D01*
X-272069Y-11667D01*
X-272115Y-11730D01*
X-272129Y-11774D01*
X-272152Y-11814D01*
X-272166Y-11890D01*
X-272190Y-11964D01*
X-272189Y-12010D01*
X-272198Y-12056D01*
X-272187Y-12133D01*
X-272186Y-12210D01*
X-272171Y-12254D01*
X-272164Y-12299D01*
X-272130Y-12369D01*
X-272104Y-12442D01*
X-272075Y-12478D01*
X-272055Y-12519D01*
X-272000Y-12574D01*
X-271952Y-12636D01*
X-271902Y-12672D01*
X-271881Y-12693D01*
X-271857Y-12705D01*
X-271817Y-12735D01*
X-161289Y-76359D01*
X-161200Y-76392D01*
X-161114Y-76432D01*
X-161085Y-76436D01*
X-161059Y-76446D01*
X-160964Y-76449D01*
X-160870Y-76459D01*
X-160842Y-76453D01*
X-160813Y-76454D01*
X-160722Y-76427D01*
X-160629Y-76407D01*
X-160604Y-76392D01*
X-160577Y-76384D01*
X-160500Y-76330D01*
X-160418Y-76281D01*
X-160399Y-76259D01*
X-160376Y-76243D01*
X-160320Y-76166D01*
X-160258Y-76094D01*
X-160247Y-76067D01*
X-160230Y-76044D01*
X-160202Y-75954D01*
X-160166Y-75866D01*
X-160162Y-75830D01*
X-160156Y-75810D01*
X-160156Y-75777D01*
X-160148Y-75699D01*
X-160148Y118060D01*
X-158485Y122075D01*
X-155412Y125147D01*
X-151398Y126810D01*
X-1002Y126810D01*
X3012Y125147D01*
X6085Y122075D01*
X7546Y118548D01*
X7584Y118487D01*
X7613Y118421D01*
X7647Y118384D01*
X7665Y118355D01*
X7666Y118353D01*
X7675Y118339D01*
X7731Y118293D01*
X7779Y118240D01*
X7825Y118215D01*
X7865Y118182D01*
X7932Y118156D01*
X7995Y118122D01*
X8046Y118112D01*
X8094Y118094D01*
X8166Y118091D01*
X8237Y118078D01*
X8288Y118086D01*
X8340Y118083D01*
X8409Y118103D01*
X8480Y118114D01*
X8526Y118137D01*
X8576Y118152D01*
X8635Y118193D01*
X8699Y118225D01*
X8736Y118263D01*
X8778Y118292D01*
X8821Y118350D01*
X8871Y118401D01*
X8880Y118416D01*
X8881Y118418D01*
X8884Y118424D01*
X8906Y118464D01*
X8925Y118490D01*
X8932Y118512D01*
X8952Y118548D01*
X10286Y121768D01*
X13144Y124626D01*
X16879Y126173D01*
X33921Y126173D01*
X37656Y124626D01*
X40514Y121768D01*
X42061Y118034D01*
X42061Y76991D01*
X40514Y73257D01*
X37656Y70399D01*
X33921Y68852D01*
X16879Y68852D01*
X13144Y70399D01*
X12114Y71429D01*
X12040Y71482D01*
X11971Y71541D01*
X11941Y71554D01*
X11914Y71572D01*
X11828Y71599D01*
X11743Y71633D01*
X11702Y71638D01*
X11679Y71645D01*
X11647Y71644D01*
X11576Y71652D01*
X8509Y71652D01*
X8489Y71649D01*
X8470Y71651D01*
X8368Y71629D01*
X8266Y71612D01*
X8249Y71603D01*
X8229Y71598D01*
X8140Y71545D01*
X8049Y71497D01*
X8035Y71483D01*
X8018Y71472D01*
X7951Y71394D01*
X7879Y71319D01*
X7871Y71301D01*
X7858Y71285D01*
X7819Y71189D01*
X7776Y71096D01*
X7774Y71076D01*
X7766Y71057D01*
X7748Y70891D01*
X7748Y64502D01*
X6085Y60488D01*
X3012Y57415D01*
X-1002Y55752D01*
X-70866Y55752D01*
X-70886Y55749D01*
X-70905Y55751D01*
X-71007Y55729D01*
X-71109Y55713D01*
X-71126Y55703D01*
X-71146Y55699D01*
X-71235Y55646D01*
X-71326Y55597D01*
X-71340Y55583D01*
X-71357Y55573D01*
X-71424Y55494D01*
X-71496Y55419D01*
X-71504Y55401D01*
X-71517Y55386D01*
X-71556Y55290D01*
X-71599Y55196D01*
X-71601Y55176D01*
X-71609Y55158D01*
X-71627Y54991D01*
X-71627Y-22616D01*
X-71624Y-22635D01*
X-71626Y-22655D01*
X-71604Y-22756D01*
X-71588Y-22858D01*
X-71578Y-22876D01*
X-71574Y-22895D01*
X-71521Y-22984D01*
X-71472Y-23076D01*
X-71458Y-23089D01*
X-71448Y-23106D01*
X-71369Y-23174D01*
X-71294Y-23245D01*
X-71276Y-23253D01*
X-71261Y-23266D01*
X-71165Y-23305D01*
X-71071Y-23349D01*
X-71051Y-23351D01*
X-71033Y-23358D01*
X-70866Y-23377D01*
X-49192Y-23377D01*
X-45457Y-24924D01*
X-42599Y-27782D01*
X-41052Y-31516D01*
X-41052Y-60559D01*
X-42599Y-64293D01*
X-45457Y-67151D01*
X-49192Y-68698D01*
X-70866Y-68698D01*
X-70886Y-68701D01*
X-70905Y-68699D01*
X-71007Y-68721D01*
X-71109Y-68738D01*
X-71126Y-68747D01*
X-71146Y-68752D01*
X-71235Y-68805D01*
X-71326Y-68853D01*
X-71340Y-68867D01*
X-71357Y-68878D01*
X-71424Y-68956D01*
X-71496Y-69031D01*
X-71504Y-69049D01*
X-71517Y-69065D01*
X-71556Y-69161D01*
X-71599Y-69254D01*
X-71601Y-69274D01*
X-71609Y-69293D01*
X-71627Y-69459D01*
X-71627Y-82879D01*
X-71624Y-82898D01*
X-71626Y-82918D01*
X-71604Y-83020D01*
X-71588Y-83122D01*
X-71578Y-83139D01*
X-71574Y-83159D01*
X-71521Y-83248D01*
X-71472Y-83339D01*
X-71458Y-83353D01*
X-71448Y-83370D01*
X-71369Y-83437D01*
X-71294Y-83508D01*
X-71276Y-83517D01*
X-71261Y-83530D01*
X-71165Y-83568D01*
X-71071Y-83612D01*
X-71051Y-83614D01*
X-71033Y-83622D01*
X-70866Y-83640D01*
X823Y-83647D01*
X150074Y-83633D01*
G37*
G36*
X138650Y318334D02*
X138650Y318334D01*
X138698Y318332D01*
X138771Y318354D01*
X138846Y318366D01*
X138888Y318388D01*
X138934Y318402D01*
X138996Y318446D01*
X139063Y318481D01*
X139096Y318516D01*
X139135Y318543D01*
X139180Y318604D01*
X139233Y318659D01*
X139253Y318703D01*
X139281Y318741D01*
X139304Y318814D01*
X139336Y318883D01*
X139342Y318930D01*
X139356Y318976D01*
X139355Y319051D01*
X139363Y319127D01*
X139353Y319174D01*
X139353Y319222D01*
X139327Y319293D01*
X139311Y319367D01*
X139287Y319408D01*
X139271Y319454D01*
X139224Y319513D01*
X139185Y319578D01*
X139149Y319610D01*
X139119Y319647D01*
X139015Y319724D01*
X138998Y319738D01*
X138992Y319741D01*
X138984Y319747D01*
X138219Y320188D01*
X138188Y320200D01*
X138117Y320238D01*
X137521Y320472D01*
X137477Y320528D01*
X137428Y320603D01*
X137401Y320625D01*
X137380Y320652D01*
X137245Y320752D01*
X135336Y321854D01*
X135304Y321866D01*
X135275Y321886D01*
X135189Y321910D01*
X135106Y321941D01*
X135072Y321942D01*
X135038Y321952D01*
X134959Y321952D01*
X134456Y322353D01*
X134427Y322369D01*
X134362Y322417D01*
X133807Y322738D01*
X133772Y322800D01*
X133735Y322881D01*
X133712Y322907D01*
X133695Y322937D01*
X133576Y323055D01*
X131853Y324430D01*
X131823Y324447D01*
X131797Y324470D01*
X131716Y324507D01*
X131639Y324550D01*
X131605Y324557D01*
X131573Y324571D01*
X131494Y324583D01*
X131057Y325055D01*
X131031Y325075D01*
X130973Y325132D01*
X130473Y325531D01*
X130447Y325598D01*
X130423Y325684D01*
X130404Y325713D01*
X130391Y325745D01*
X130291Y325880D01*
X128793Y327496D01*
X128766Y327517D01*
X128744Y327544D01*
X128669Y327593D01*
X128599Y327647D01*
X128566Y327659D01*
X128537Y327677D01*
X128461Y327701D01*
X128098Y328233D01*
X128076Y328256D01*
X128027Y328322D01*
X127592Y328791D01*
X127577Y328861D01*
X127566Y328949D01*
X127551Y328981D01*
X127543Y329014D01*
X127465Y329163D01*
X126224Y330984D01*
X126200Y331009D01*
X126182Y331039D01*
X126115Y331098D01*
X126054Y331162D01*
X126024Y331179D01*
X125997Y331202D01*
X125926Y331236D01*
X125647Y331816D01*
X125628Y331843D01*
X125590Y331914D01*
X125229Y332444D01*
X125225Y332515D01*
X125227Y332604D01*
X125217Y332637D01*
X125214Y332672D01*
X125159Y332830D01*
X124203Y334816D01*
X124183Y334845D01*
X124170Y334877D01*
X124113Y334945D01*
X124062Y335018D01*
X124034Y335038D01*
X124012Y335065D01*
X123946Y335109D01*
X123756Y335725D01*
X123742Y335754D01*
X123715Y335831D01*
X123437Y336408D01*
X123443Y336479D01*
X123459Y336567D01*
X123454Y336601D01*
X123457Y336635D01*
X123425Y336800D01*
X122776Y338907D01*
X122761Y338938D01*
X122753Y338971D01*
X122706Y339047D01*
X122667Y339127D01*
X122642Y339151D01*
X122624Y339181D01*
X122566Y339235D01*
X122470Y339871D01*
X122460Y339903D01*
X122445Y339982D01*
X122256Y340594D01*
X122273Y340664D01*
X122301Y340748D01*
X122301Y340783D01*
X122309Y340817D01*
X122303Y340984D01*
X121975Y343162D01*
X121949Y343244D01*
X121930Y343329D01*
X121911Y343361D01*
X121900Y343396D01*
X121848Y343466D01*
X121804Y343540D01*
X121776Y343564D01*
X121754Y343594D01*
X121683Y343644D01*
X121617Y343700D01*
X121582Y343714D01*
X121552Y343735D01*
X121469Y343759D01*
X121389Y343792D01*
X121341Y343797D01*
X121316Y343804D01*
X121285Y343803D01*
X121222Y343810D01*
X120828Y343810D01*
X120738Y343795D01*
X120647Y343788D01*
X120618Y343776D01*
X120586Y343770D01*
X120505Y343728D01*
X120421Y343692D01*
X120389Y343666D01*
X120368Y343655D01*
X120346Y343632D01*
X120290Y343587D01*
X119236Y342533D01*
X115675Y342533D01*
X113157Y345052D01*
X113157Y348613D01*
X115675Y351131D01*
X119236Y351131D01*
X120750Y349617D01*
X120762Y349609D01*
X120771Y349597D01*
X120862Y349537D01*
X120950Y349474D01*
X120964Y349470D01*
X120976Y349461D01*
X121081Y349434D01*
X121185Y349402D01*
X121199Y349402D01*
X121214Y349398D01*
X121322Y349405D01*
X121431Y349408D01*
X121444Y349413D01*
X121459Y349414D01*
X121559Y349455D01*
X121662Y349492D01*
X121673Y349502D01*
X121687Y349507D01*
X121769Y349578D01*
X121854Y349646D01*
X121862Y349659D01*
X121873Y349668D01*
X121928Y349761D01*
X121987Y349853D01*
X121990Y349867D01*
X121998Y349880D01*
X122041Y350042D01*
X122306Y351798D01*
X122306Y351832D01*
X122313Y351866D01*
X122304Y351955D01*
X122303Y352044D01*
X122292Y352076D01*
X122288Y352111D01*
X122259Y352185D01*
X122449Y352800D01*
X122453Y352832D01*
X122474Y352911D01*
X122570Y353544D01*
X122615Y353599D01*
X122677Y353663D01*
X122683Y353675D01*
X122685Y353677D01*
X122694Y353696D01*
X122714Y353721D01*
X122781Y353875D01*
X123431Y355981D01*
X123436Y356015D01*
X123449Y356048D01*
X123453Y356137D01*
X123465Y356225D01*
X123458Y356259D01*
X123460Y356293D01*
X123442Y356371D01*
X123722Y356951D01*
X123731Y356982D01*
X123763Y357057D01*
X123952Y357668D01*
X124005Y357717D01*
X124076Y357770D01*
X124096Y357799D01*
X124121Y357822D01*
X124210Y357965D01*
X125167Y359950D01*
X125177Y359983D01*
X125194Y360013D01*
X125212Y360101D01*
X125237Y360186D01*
X125236Y360221D01*
X125242Y360255D01*
X125236Y360334D01*
X125599Y360866D01*
X125613Y360896D01*
X125656Y360964D01*
X125934Y361541D01*
X125994Y361581D01*
X126072Y361623D01*
X126095Y361649D01*
X126124Y361668D01*
X126234Y361795D01*
X126408Y362051D01*
X127476Y363616D01*
X127490Y363647D01*
X127512Y363675D01*
X127542Y363758D01*
X127580Y363839D01*
X127584Y363873D01*
X127595Y363906D01*
X127601Y363985D01*
X128039Y364457D01*
X128057Y364484D01*
X128110Y364546D01*
X128471Y365075D01*
X128536Y365105D01*
X128619Y365136D01*
X128647Y365157D01*
X128678Y365172D01*
X128805Y365282D01*
X130305Y366897D01*
X130324Y366926D01*
X130349Y366950D01*
X130391Y367028D01*
X130441Y367102D01*
X130450Y367135D01*
X130466Y367166D01*
X130484Y367243D01*
X130987Y367644D01*
X131009Y367669D01*
X131070Y367722D01*
X131506Y368191D01*
X131575Y368212D01*
X131662Y368229D01*
X131692Y368247D01*
X131725Y368256D01*
X131867Y368346D01*
X133591Y369720D01*
X133614Y369745D01*
X133643Y369765D01*
X133696Y369836D01*
X133756Y369902D01*
X133770Y369934D01*
X133791Y369962D01*
X133820Y370035D01*
X134377Y370357D01*
X134403Y370378D01*
X134471Y370421D01*
X134972Y370820D01*
X135043Y370830D01*
X135132Y370835D01*
X135164Y370847D01*
X135198Y370852D01*
X135352Y370920D01*
X137261Y372021D01*
X137288Y372043D01*
X137319Y372058D01*
X137383Y372121D01*
X137452Y372177D01*
X137470Y372206D01*
X137495Y372230D01*
X137534Y372299D01*
X138134Y372534D01*
X138162Y372551D01*
X138236Y372583D01*
X138791Y372903D01*
X138863Y372903D01*
X138951Y372894D01*
X138985Y372902D01*
X139020Y372901D01*
X139182Y372945D01*
X141234Y373750D01*
X141263Y373767D01*
X141297Y373778D01*
X141368Y373830D01*
X141445Y373875D01*
X141468Y373902D01*
X141496Y373922D01*
X141545Y373984D01*
X142173Y374127D01*
X142203Y374139D01*
X142281Y374160D01*
X142878Y374394D01*
X142949Y374383D01*
X143035Y374361D01*
X143069Y374364D01*
X143103Y374358D01*
X143270Y374377D01*
X145419Y374867D01*
X145451Y374880D01*
X145486Y374885D01*
X145565Y374926D01*
X145647Y374960D01*
X145673Y374982D01*
X145704Y374998D01*
X145762Y375052D01*
X146404Y375100D01*
X146436Y375108D01*
X146517Y375117D01*
X147141Y375259D01*
X147209Y375238D01*
X147291Y375203D01*
X147326Y375200D01*
X147359Y375190D01*
X147526Y375184D01*
X148107Y375227D01*
X148218Y375254D01*
X148330Y375278D01*
X148338Y375283D01*
X148346Y375285D01*
X148443Y375346D01*
X148541Y375404D01*
X148547Y375411D01*
X148555Y375416D01*
X148627Y375504D01*
X148701Y375591D01*
X148705Y375600D01*
X148710Y375606D01*
X148750Y375713D01*
X148793Y375820D01*
X148794Y375830D01*
X148797Y375836D01*
X148798Y375859D01*
X148812Y375986D01*
X148812Y411965D01*
X148809Y411982D01*
X148811Y411999D01*
X148804Y412031D01*
X148805Y412067D01*
X148784Y412136D01*
X148772Y412207D01*
X148761Y412228D01*
X148758Y412240D01*
X148745Y412262D01*
X148733Y412302D01*
X148691Y412361D01*
X148657Y412425D01*
X148636Y412445D01*
X148632Y412451D01*
X148617Y412464D01*
X148590Y412502D01*
X148531Y412544D01*
X148479Y412594D01*
X148449Y412608D01*
X148445Y412611D01*
X148430Y412617D01*
X148390Y412646D01*
X148280Y412686D01*
X148256Y412698D01*
X148246Y412699D01*
X148233Y412704D01*
X147540Y412875D01*
X147507Y412877D01*
X147419Y412894D01*
X146803Y412944D01*
X146730Y412996D01*
X146659Y413057D01*
X146631Y413068D01*
X146606Y413086D01*
X146449Y413143D01*
X145217Y413447D01*
X145187Y413449D01*
X145159Y413459D01*
X145065Y413459D01*
X144972Y413466D01*
X144943Y413459D01*
X144913Y413459D01*
X144817Y413432D01*
X144242Y413677D01*
X144210Y413685D01*
X144126Y413716D01*
X143526Y413864D01*
X143462Y413927D01*
X143402Y413998D01*
X143376Y414014D01*
X143354Y414035D01*
X143208Y414118D01*
X142042Y414615D01*
X142012Y414622D01*
X141985Y414636D01*
X141893Y414651D01*
X141803Y414673D01*
X141773Y414671D01*
X141743Y414676D01*
X141644Y414665D01*
X141116Y414998D01*
X141086Y415011D01*
X141008Y415055D01*
X140439Y415298D01*
X140386Y415370D01*
X140338Y415450D01*
X140315Y415470D01*
X140297Y415494D01*
X140166Y415599D01*
X139094Y416277D01*
X139067Y416289D01*
X139042Y416307D01*
X138954Y416337D01*
X138868Y416373D01*
X138838Y416375D01*
X138809Y416385D01*
X138710Y416390D01*
X138242Y416804D01*
X138215Y416821D01*
X138144Y416878D01*
X137622Y417208D01*
X137582Y417288D01*
X137547Y417375D01*
X137527Y417398D01*
X137514Y417425D01*
X137401Y417549D01*
X136452Y418390D01*
X136426Y418406D01*
X136405Y418428D01*
X136323Y418472D01*
X136244Y418521D01*
X136214Y418529D01*
X136188Y418543D01*
X136090Y418564D01*
X135696Y419047D01*
X135671Y419069D01*
X135611Y419136D01*
X135148Y419545D01*
X135121Y419631D01*
X135101Y419722D01*
X135085Y419748D01*
X135076Y419777D01*
X134985Y419918D01*
X134933Y419981D01*
X134890Y420019D01*
X134853Y420065D01*
X134798Y420100D01*
X134749Y420144D01*
X134695Y420166D01*
X134646Y420198D01*
X134583Y420214D01*
X134522Y420239D01*
X134464Y420244D01*
X134408Y420258D01*
X134343Y420253D01*
X134277Y420258D01*
X134221Y420243D01*
X134163Y420239D01*
X134102Y420213D01*
X134039Y420197D01*
X133990Y420165D01*
X133936Y420142D01*
X133859Y420080D01*
X133832Y420063D01*
X133823Y420052D01*
X133805Y420037D01*
X107150Y393382D01*
X103989Y393382D01*
X103918Y393370D01*
X103846Y393368D01*
X103797Y393350D01*
X103746Y393342D01*
X103683Y393308D01*
X103615Y393284D01*
X103575Y393251D01*
X103529Y393227D01*
X103479Y393175D01*
X103423Y393130D01*
X103395Y393086D01*
X103359Y393049D01*
X103329Y392984D01*
X103290Y392923D01*
X103277Y392873D01*
X103256Y392826D01*
X103248Y392754D01*
X103230Y392685D01*
X103234Y392633D01*
X103228Y392581D01*
X103244Y392511D01*
X103249Y392440D01*
X103270Y392392D01*
X103281Y392341D01*
X103317Y392279D01*
X103346Y392213D01*
X103390Y392157D01*
X103407Y392130D01*
X103425Y392114D01*
X103450Y392082D01*
X104590Y390943D01*
X105982Y387581D01*
X105982Y383944D01*
X104590Y380582D01*
X102018Y378010D01*
X98656Y376618D01*
X95019Y376618D01*
X91657Y378010D01*
X89085Y380582D01*
X87693Y383944D01*
X87693Y387143D01*
X87681Y387213D01*
X87679Y387285D01*
X87661Y387334D01*
X87653Y387386D01*
X87619Y387449D01*
X87595Y387516D01*
X87562Y387557D01*
X87538Y387603D01*
X87486Y387652D01*
X87441Y387708D01*
X87397Y387736D01*
X87360Y387772D01*
X87295Y387802D01*
X87234Y387841D01*
X87184Y387854D01*
X87137Y387876D01*
X87065Y387884D01*
X86996Y387901D01*
X86944Y387897D01*
X86892Y387903D01*
X86822Y387888D01*
X86751Y387882D01*
X86703Y387862D01*
X86652Y387851D01*
X86590Y387814D01*
X86524Y387786D01*
X86468Y387741D01*
X86441Y387725D01*
X86425Y387707D01*
X86393Y387681D01*
X78813Y380101D01*
X56998Y380101D01*
X56979Y380098D01*
X56959Y380100D01*
X56858Y380078D01*
X56756Y380062D01*
X56738Y380052D01*
X56719Y380048D01*
X56630Y379995D01*
X56538Y379946D01*
X56525Y379932D01*
X56508Y379922D01*
X56440Y379843D01*
X56369Y379768D01*
X56361Y379750D01*
X56348Y379735D01*
X56309Y379639D01*
X56265Y379545D01*
X56263Y379525D01*
X56256Y379507D01*
X56237Y379340D01*
X56237Y377518D01*
X55344Y376625D01*
X43081Y376625D01*
X42188Y377518D01*
X42188Y388782D01*
X43081Y389675D01*
X55344Y389675D01*
X56237Y388782D01*
X56237Y386960D01*
X56240Y386940D01*
X56238Y386921D01*
X56260Y386819D01*
X56277Y386717D01*
X56286Y386700D01*
X56291Y386680D01*
X56344Y386591D01*
X56392Y386500D01*
X56406Y386486D01*
X56417Y386469D01*
X56495Y386402D01*
X56570Y386330D01*
X56588Y386322D01*
X56604Y386309D01*
X56700Y386270D01*
X56793Y386227D01*
X56813Y386225D01*
X56832Y386217D01*
X56998Y386199D01*
X75972Y386199D01*
X76063Y386213D01*
X76153Y386221D01*
X76183Y386233D01*
X76215Y386238D01*
X76296Y386281D01*
X76380Y386317D01*
X76412Y386343D01*
X76433Y386354D01*
X76455Y386377D01*
X76511Y386422D01*
X89568Y399479D01*
X104309Y399479D01*
X104399Y399494D01*
X104490Y399501D01*
X104519Y399514D01*
X104551Y399519D01*
X104632Y399562D01*
X104716Y399597D01*
X104748Y399623D01*
X104769Y399634D01*
X104791Y399657D01*
X104847Y399702D01*
X130914Y425769D01*
X130976Y425855D01*
X131041Y425938D01*
X131047Y425955D01*
X131058Y425969D01*
X131089Y426070D01*
X131124Y426169D01*
X131125Y426187D01*
X131130Y426204D01*
X131127Y426310D01*
X131129Y426415D01*
X131124Y426436D01*
X131124Y426450D01*
X131113Y426479D01*
X131088Y426578D01*
X130988Y426841D01*
X130973Y426867D01*
X130964Y426896D01*
X130911Y426973D01*
X130864Y427054D01*
X130842Y427074D01*
X130825Y427099D01*
X130748Y427162D01*
X130623Y427774D01*
X130612Y427805D01*
X130589Y427892D01*
X130370Y428470D01*
X130374Y428492D01*
X130379Y428503D01*
X130383Y428542D01*
X130386Y428558D01*
X130410Y428648D01*
X130408Y428678D01*
X130414Y428708D01*
X130398Y428875D01*
X130145Y430118D01*
X130134Y430146D01*
X130130Y430176D01*
X130090Y430260D01*
X130057Y430348D01*
X130038Y430371D01*
X130025Y430398D01*
X129960Y430473D01*
X129935Y431097D01*
X129928Y431129D01*
X129920Y431219D01*
X129738Y432110D01*
X129738Y432112D01*
X129737Y432115D01*
X129734Y432129D01*
X129714Y432181D01*
X129702Y432244D01*
X129675Y432292D01*
X129656Y432344D01*
X129649Y432353D01*
X129647Y432359D01*
X129612Y432401D01*
X129580Y432457D01*
X129539Y432494D01*
X129505Y432538D01*
X129493Y432546D01*
X129490Y432549D01*
X129481Y432555D01*
X129419Y432601D01*
X129396Y432621D01*
X129385Y432626D01*
X129369Y432637D01*
X124178Y435634D01*
X124070Y435675D01*
X123964Y435718D01*
X123954Y435719D01*
X123948Y435721D01*
X123925Y435722D01*
X123797Y435736D01*
X70649Y435736D01*
X70559Y435722D01*
X70468Y435714D01*
X70438Y435702D01*
X70406Y435697D01*
X70326Y435654D01*
X70242Y435618D01*
X70210Y435592D01*
X70189Y435581D01*
X70167Y435558D01*
X70111Y435513D01*
X69269Y434672D01*
X67215Y433821D01*
X58065Y433821D01*
X56010Y434672D01*
X55169Y435513D01*
X55095Y435566D01*
X55025Y435626D01*
X54995Y435638D01*
X54969Y435657D01*
X54882Y435684D01*
X54797Y435718D01*
X54756Y435722D01*
X54734Y435729D01*
X54702Y435728D01*
X54631Y435736D01*
X49688Y435736D01*
X47634Y436587D01*
X36537Y447684D01*
X35686Y449738D01*
X35686Y484732D01*
X35672Y484822D01*
X35664Y484913D01*
X35652Y484943D01*
X35647Y484975D01*
X35604Y485055D01*
X35568Y485140D01*
X35542Y485172D01*
X35531Y485192D01*
X35508Y485214D01*
X35463Y485271D01*
X31792Y488942D01*
X31779Y488951D01*
X31770Y488963D01*
X31635Y489063D01*
X11696Y500574D01*
X10629Y501190D01*
X10522Y501230D01*
X10417Y501273D01*
X10407Y501274D01*
X10399Y501277D01*
X10285Y501281D01*
X10171Y501288D01*
X10160Y501286D01*
X10153Y501286D01*
X10130Y501279D01*
X10007Y501253D01*
X9135Y500962D01*
X9106Y500946D01*
X9022Y500913D01*
X8475Y500626D01*
X8385Y500632D01*
X8293Y500645D01*
X8263Y500639D01*
X8233Y500641D01*
X8069Y500606D01*
X6930Y500225D01*
X6866Y500204D01*
X6839Y500190D01*
X6810Y500183D01*
X6731Y500133D01*
X6648Y500089D01*
X6627Y500068D01*
X6602Y500051D01*
X6535Y499978D01*
X5919Y499877D01*
X5888Y499867D01*
X5800Y499848D01*
X5213Y499652D01*
X5126Y499672D01*
X5037Y499700D01*
X5007Y499699D01*
X4977Y499706D01*
X4809Y499697D01*
X3558Y499494D01*
X3529Y499484D01*
X3499Y499482D01*
X3469Y499469D01*
X3438Y499464D01*
X3385Y499436D01*
X3325Y499416D01*
X3300Y499397D01*
X3273Y499385D01*
X3239Y499358D01*
X3221Y499349D01*
X3202Y499329D01*
X3195Y499323D01*
X2570Y499323D01*
X2538Y499318D01*
X2448Y499313D01*
X1838Y499214D01*
X1755Y499248D01*
X1671Y499289D01*
X1641Y499293D01*
X1613Y499305D01*
X1447Y499323D01*
X178Y499323D01*
X149Y499318D01*
X118Y499321D01*
X28Y499299D01*
X-64Y499284D01*
X-91Y499269D01*
X-121Y499262D01*
X-207Y499213D01*
X-823Y499313D01*
X-856Y499313D01*
X-945Y499323D01*
X-1564Y499323D01*
X-1616Y499355D01*
X-1661Y499393D01*
X-1689Y499405D01*
X-1716Y499424D01*
X-1745Y499433D01*
X-1771Y499449D01*
X-1860Y499473D01*
X-1889Y499485D01*
X-1911Y499488D01*
X-1933Y499494D01*
X-3184Y499697D01*
X-3215Y499697D01*
X-3244Y499704D01*
X-3337Y499697D01*
X-3430Y499697D01*
X-3459Y499687D01*
X-3489Y499685D01*
X-3583Y499650D01*
X-4175Y499848D01*
X-4207Y499853D01*
X-4294Y499877D01*
X-4904Y499977D01*
X-4972Y500035D01*
X-5038Y500101D01*
X-5066Y500114D01*
X-5089Y500134D01*
X-5241Y500204D01*
X-6444Y500606D01*
X-6474Y500610D01*
X-6502Y500622D01*
X-6595Y500630D01*
X-6687Y500645D01*
X-6717Y500640D01*
X-6747Y500642D01*
X-6844Y500623D01*
X-7397Y500913D01*
X-7428Y500924D01*
X-7510Y500962D01*
X-8372Y501249D01*
X-8484Y501267D01*
X-8597Y501288D01*
X-8606Y501287D01*
X-8615Y501288D01*
X-8727Y501270D01*
X-8840Y501254D01*
X-8850Y501249D01*
X-8857Y501248D01*
X-8878Y501237D01*
X-8994Y501187D01*
X-26364Y491158D01*
X-26377Y491148D01*
X-26391Y491142D01*
X-26522Y491037D01*
X-31461Y486097D01*
X-31515Y486023D01*
X-31574Y485954D01*
X-31586Y485924D01*
X-31605Y485898D01*
X-31632Y485811D01*
X-31666Y485726D01*
X-31670Y485685D01*
X-31677Y485663D01*
X-31676Y485630D01*
X-31684Y485559D01*
X-31684Y482416D01*
X-31665Y482299D01*
X-31647Y482181D01*
X-31645Y482177D01*
X-31645Y482173D01*
X-31589Y482069D01*
X-31534Y481962D01*
X-31531Y481959D01*
X-31530Y481956D01*
X-31444Y481874D01*
X-31358Y481791D01*
X-31354Y481789D01*
X-31351Y481786D01*
X-31244Y481736D01*
X-31136Y481685D01*
X-31132Y481684D01*
X-31128Y481683D01*
X-31011Y481670D01*
X-30892Y481655D01*
X-30887Y481656D01*
X-30884Y481656D01*
X-30870Y481658D01*
X-30741Y481678D01*
X-26923Y481678D01*
X-26923Y474400D01*
X-26920Y474380D01*
X-26922Y474360D01*
X-26900Y474259D01*
X-26883Y474157D01*
X-26874Y474139D01*
X-26870Y474120D01*
X-26817Y474031D01*
X-26768Y473939D01*
X-26754Y473926D01*
X-26744Y473909D01*
X-26665Y473841D01*
X-26590Y473770D01*
X-26572Y473762D01*
X-26557Y473749D01*
X-26461Y473710D01*
X-26367Y473666D01*
X-26347Y473664D01*
X-26329Y473657D01*
X-26162Y473638D01*
X-25399Y473638D01*
X-25399Y473637D01*
X-26162Y473637D01*
X-26182Y473633D01*
X-26201Y473636D01*
X-26303Y473614D01*
X-26405Y473597D01*
X-26422Y473588D01*
X-26442Y473583D01*
X-26531Y473530D01*
X-26622Y473482D01*
X-26636Y473467D01*
X-26653Y473457D01*
X-26720Y473378D01*
X-26791Y473303D01*
X-26800Y473285D01*
X-26813Y473270D01*
X-26852Y473174D01*
X-26895Y473080D01*
X-26897Y473061D01*
X-26905Y473042D01*
X-26923Y472875D01*
X-26923Y465597D01*
X-30749Y465597D01*
X-30845Y465606D01*
X-30963Y465619D01*
X-30967Y465619D01*
X-30971Y465619D01*
X-31087Y465592D01*
X-31203Y465567D01*
X-31206Y465565D01*
X-31210Y465564D01*
X-31313Y465502D01*
X-31414Y465441D01*
X-31417Y465438D01*
X-31420Y465436D01*
X-31497Y465344D01*
X-31574Y465254D01*
X-31575Y465250D01*
X-31578Y465247D01*
X-31621Y465137D01*
X-31666Y465026D01*
X-31666Y465021D01*
X-31668Y465018D01*
X-31668Y465005D01*
X-31684Y464859D01*
X-31684Y464423D01*
X-31681Y464404D01*
X-31683Y464384D01*
X-31661Y464283D01*
X-31645Y464181D01*
X-31635Y464163D01*
X-31631Y464144D01*
X-31578Y464055D01*
X-31530Y463963D01*
X-31515Y463950D01*
X-31505Y463933D01*
X-31426Y463865D01*
X-31351Y463794D01*
X-31333Y463786D01*
X-31318Y463773D01*
X-31222Y463734D01*
X-31128Y463690D01*
X-31108Y463688D01*
X-31090Y463681D01*
X-30923Y463662D01*
X-19768Y463662D01*
X-18875Y462769D01*
X-18875Y450506D01*
X-19768Y449613D01*
X-27851Y449613D01*
X-27870Y449610D01*
X-27890Y449612D01*
X-27991Y449590D01*
X-28093Y449573D01*
X-28111Y449564D01*
X-28130Y449559D01*
X-28219Y449506D01*
X-28311Y449458D01*
X-28324Y449444D01*
X-28341Y449433D01*
X-28409Y449355D01*
X-28480Y449280D01*
X-28488Y449262D01*
X-28501Y449246D01*
X-28540Y449150D01*
X-28584Y449057D01*
X-28586Y449037D01*
X-28593Y449018D01*
X-28612Y448852D01*
X-28612Y448507D01*
X-31130Y445989D01*
X-34691Y445989D01*
X-34890Y446187D01*
X-34906Y446199D01*
X-34918Y446214D01*
X-35006Y446271D01*
X-35089Y446331D01*
X-35108Y446337D01*
X-35125Y446347D01*
X-35226Y446373D01*
X-35324Y446403D01*
X-35344Y446403D01*
X-35364Y446408D01*
X-35467Y446399D01*
X-35570Y446397D01*
X-35589Y446390D01*
X-35609Y446388D01*
X-35704Y446348D01*
X-35801Y446312D01*
X-35817Y446300D01*
X-35835Y446292D01*
X-35966Y446187D01*
X-46674Y435479D01*
X-48386Y433768D01*
X-63974Y433768D01*
X-64064Y433753D01*
X-64155Y433746D01*
X-64185Y433733D01*
X-64217Y433728D01*
X-64297Y433685D01*
X-64381Y433650D01*
X-64413Y433624D01*
X-64434Y433613D01*
X-64456Y433590D01*
X-64512Y433545D01*
X-81686Y416370D01*
X-81698Y416354D01*
X-81714Y416342D01*
X-81770Y416255D01*
X-81830Y416171D01*
X-81836Y416152D01*
X-81847Y416135D01*
X-81872Y416035D01*
X-81902Y415936D01*
X-81902Y415916D01*
X-81907Y415896D01*
X-81899Y415793D01*
X-81896Y415690D01*
X-81889Y415671D01*
X-81887Y415651D01*
X-81847Y415556D01*
X-81811Y415459D01*
X-81799Y415443D01*
X-81791Y415425D01*
X-81686Y415294D01*
X-81343Y414950D01*
X-81343Y407375D01*
X-86700Y402018D01*
X-94275Y402018D01*
X-99632Y407375D01*
X-99632Y414950D01*
X-94275Y420307D01*
X-86700Y420307D01*
X-86356Y419964D01*
X-86340Y419952D01*
X-86327Y419936D01*
X-86240Y419880D01*
X-86156Y419820D01*
X-86137Y419814D01*
X-86121Y419803D01*
X-86020Y419778D01*
X-85921Y419748D01*
X-85901Y419748D01*
X-85882Y419743D01*
X-85779Y419751D01*
X-85675Y419754D01*
X-85657Y419761D01*
X-85637Y419763D01*
X-85542Y419803D01*
X-85444Y419839D01*
X-85429Y419851D01*
X-85410Y419859D01*
X-85280Y419964D01*
X-69219Y436024D01*
X-69177Y436082D01*
X-69128Y436134D01*
X-69106Y436182D01*
X-69075Y436224D01*
X-69054Y436292D01*
X-69024Y436358D01*
X-69018Y436409D01*
X-69003Y436459D01*
X-69005Y436531D01*
X-68997Y436602D01*
X-69008Y436653D01*
X-69009Y436705D01*
X-69034Y436772D01*
X-69049Y436842D01*
X-69076Y436887D01*
X-69094Y436936D01*
X-69139Y436992D01*
X-69175Y437053D01*
X-69215Y437087D01*
X-69248Y437128D01*
X-69308Y437167D01*
X-69362Y437213D01*
X-69411Y437233D01*
X-69454Y437261D01*
X-69524Y437278D01*
X-69590Y437305D01*
X-69662Y437313D01*
X-69693Y437321D01*
X-69716Y437319D01*
X-69757Y437324D01*
X-119406Y437324D01*
X-119520Y437305D01*
X-119633Y437289D01*
X-119643Y437285D01*
X-119649Y437284D01*
X-119669Y437274D01*
X-119787Y437222D01*
X-127619Y432700D01*
X-127708Y432627D01*
X-127797Y432558D01*
X-127802Y432550D01*
X-127810Y432544D01*
X-127871Y432447D01*
X-127933Y432353D01*
X-127937Y432342D01*
X-127940Y432336D01*
X-127946Y432313D01*
X-127985Y432193D01*
X-128157Y431350D01*
X-128158Y431318D01*
X-128171Y431229D01*
X-128196Y430611D01*
X-128246Y430536D01*
X-128303Y430463D01*
X-128313Y430434D01*
X-128330Y430409D01*
X-128381Y430249D01*
X-128635Y429007D01*
X-128636Y428976D01*
X-128645Y428947D01*
X-128641Y428854D01*
X-128645Y428761D01*
X-128636Y428732D01*
X-128635Y428702D01*
X-128604Y428607D01*
X-128826Y428023D01*
X-128832Y427991D01*
X-128860Y427906D01*
X-128984Y427300D01*
X-129044Y427234D01*
X-129113Y427170D01*
X-129127Y427144D01*
X-129148Y427122D01*
X-129224Y426972D01*
X-129674Y425787D01*
X-129680Y425757D01*
X-129693Y425730D01*
X-129704Y425637D01*
X-129723Y425546D01*
X-129719Y425516D01*
X-129723Y425485D01*
X-129708Y425387D01*
X-130020Y424846D01*
X-130032Y424816D01*
X-130073Y424736D01*
X-130292Y424158D01*
X-130363Y424102D01*
X-130440Y424051D01*
X-130459Y424027D01*
X-130483Y424008D01*
X-130582Y423873D01*
X-131216Y422775D01*
X-131227Y422746D01*
X-131244Y422722D01*
X-131270Y422632D01*
X-131303Y422545D01*
X-131304Y422514D01*
X-131313Y422485D01*
X-131314Y422386D01*
X-131708Y421902D01*
X-131725Y421874D01*
X-131778Y421801D01*
X-132087Y421266D01*
X-132166Y421223D01*
X-132251Y421184D01*
X-132273Y421164D01*
X-132300Y421149D01*
X-132419Y421032D01*
X-133221Y420049D01*
X-133236Y420023D01*
X-133258Y420001D01*
X-133298Y419917D01*
X-133344Y419836D01*
X-133350Y419807D01*
X-133363Y419779D01*
X-133380Y419681D01*
X-133847Y419267D01*
X-133868Y419242D01*
X-133932Y419179D01*
X-134323Y418700D01*
X-134408Y418670D01*
X-134498Y418645D01*
X-134523Y418629D01*
X-134551Y418619D01*
X-134689Y418522D01*
X-135638Y417681D01*
X-135657Y417657D01*
X-135681Y417639D01*
X-135734Y417562D01*
X-135793Y417490D01*
X-135804Y417462D01*
X-135821Y417437D01*
X-135853Y417343D01*
X-136381Y417009D01*
X-136406Y416987D01*
X-136479Y416936D01*
X-136942Y416526D01*
X-137030Y416509D01*
X-137123Y416500D01*
X-137151Y416487D01*
X-137180Y416482D01*
X-137331Y416408D01*
X-138403Y415731D01*
X-138426Y415711D01*
X-138452Y415697D01*
X-138517Y415629D01*
X-138587Y415567D01*
X-138602Y415541D01*
X-138623Y415519D01*
X-138670Y415432D01*
X-139244Y415187D01*
X-139272Y415169D01*
X-139353Y415130D01*
X-139875Y414799D01*
X-139965Y414798D01*
X-140058Y414803D01*
X-140087Y414795D01*
X-140118Y414795D01*
X-140278Y414746D01*
X-140951Y414460D01*
X-141046Y414399D01*
X-141143Y414341D01*
X-141150Y414334D01*
X-141159Y414328D01*
X-141230Y414240D01*
X-141303Y414154D01*
X-141307Y414145D01*
X-141314Y414137D01*
X-141353Y414031D01*
X-141395Y413926D01*
X-141397Y413914D01*
X-141399Y413907D01*
X-141400Y413882D01*
X-141414Y413759D01*
X-141414Y406391D01*
X-141399Y406301D01*
X-141392Y406210D01*
X-141379Y406180D01*
X-141374Y406148D01*
X-141331Y406067D01*
X-141296Y405983D01*
X-141270Y405951D01*
X-141259Y405931D01*
X-141236Y405908D01*
X-141191Y405852D01*
X-97385Y362047D01*
X-97311Y361994D01*
X-97242Y361934D01*
X-97212Y361922D01*
X-97185Y361903D01*
X-97098Y361876D01*
X-97014Y361842D01*
X-96973Y361838D01*
X-96950Y361831D01*
X-96918Y361832D01*
X-96847Y361824D01*
X-79286Y361824D01*
X-79266Y361827D01*
X-79247Y361825D01*
X-79145Y361847D01*
X-79043Y361863D01*
X-79026Y361873D01*
X-79006Y361877D01*
X-78917Y361930D01*
X-78826Y361979D01*
X-78812Y361993D01*
X-78795Y362003D01*
X-78728Y362082D01*
X-78656Y362157D01*
X-78648Y362175D01*
X-78635Y362190D01*
X-78596Y362286D01*
X-78553Y362380D01*
X-78551Y362400D01*
X-78543Y362418D01*
X-78525Y362585D01*
X-78525Y364907D01*
X-77632Y365800D01*
X-66221Y365800D01*
X-66217Y365799D01*
X-66118Y365768D01*
X-66098Y365769D01*
X-66079Y365764D01*
X-65976Y365772D01*
X-65872Y365774D01*
X-65853Y365781D01*
X-65833Y365783D01*
X-65739Y365823D01*
X-65641Y365859D01*
X-65626Y365871D01*
X-65607Y365879D01*
X-65476Y365984D01*
X-57476Y373985D01*
X-57434Y374043D01*
X-57384Y374095D01*
X-57362Y374142D01*
X-57332Y374184D01*
X-57311Y374253D01*
X-57281Y374318D01*
X-57275Y374370D01*
X-57260Y374420D01*
X-57261Y374491D01*
X-57254Y374562D01*
X-57265Y374613D01*
X-57266Y374665D01*
X-57291Y374733D01*
X-57306Y374803D01*
X-57333Y374847D01*
X-57350Y374896D01*
X-57395Y374952D01*
X-57432Y375014D01*
X-57472Y375048D01*
X-57504Y375088D01*
X-57564Y375127D01*
X-57619Y375174D01*
X-57667Y375193D01*
X-57711Y375221D01*
X-57781Y375239D01*
X-57847Y375266D01*
X-57918Y375274D01*
X-57950Y375282D01*
X-57973Y375280D01*
X-58014Y375284D01*
X-65594Y375284D01*
X-65684Y375270D01*
X-65775Y375262D01*
X-65805Y375250D01*
X-65837Y375245D01*
X-65918Y375202D01*
X-66001Y375166D01*
X-66034Y375140D01*
X-66054Y375129D01*
X-66076Y375106D01*
X-66132Y375061D01*
X-67667Y373526D01*
X-71229Y373526D01*
X-73747Y376044D01*
X-73747Y379606D01*
X-71229Y382124D01*
X-67667Y382124D01*
X-66132Y380589D01*
X-66058Y380536D01*
X-65989Y380476D01*
X-65959Y380464D01*
X-65933Y380445D01*
X-65846Y380418D01*
X-65761Y380384D01*
X-65720Y380380D01*
X-65698Y380373D01*
X-65665Y380374D01*
X-65594Y380366D01*
X-32912Y380366D01*
X-32892Y380369D01*
X-32873Y380367D01*
X-32771Y380389D01*
X-32669Y380405D01*
X-32652Y380415D01*
X-32632Y380419D01*
X-32543Y380472D01*
X-32452Y380521D01*
X-32438Y380535D01*
X-32421Y380545D01*
X-32354Y380624D01*
X-32282Y380699D01*
X-32274Y380717D01*
X-32261Y380732D01*
X-32222Y380828D01*
X-32179Y380922D01*
X-32177Y380942D01*
X-32169Y380960D01*
X-32151Y381127D01*
X-32151Y381193D01*
X-29633Y383711D01*
X-26071Y383711D01*
X-23553Y381193D01*
X-23553Y377632D01*
X-23746Y377439D01*
X-23788Y377381D01*
X-23838Y377329D01*
X-23860Y377281D01*
X-23890Y377239D01*
X-23911Y377171D01*
X-23941Y377105D01*
X-23947Y377054D01*
X-23962Y377004D01*
X-23960Y376932D01*
X-23968Y376861D01*
X-23957Y376810D01*
X-23956Y376758D01*
X-23931Y376691D01*
X-23916Y376621D01*
X-23889Y376576D01*
X-23872Y376527D01*
X-23827Y376471D01*
X-23790Y376410D01*
X-23750Y376376D01*
X-23718Y376335D01*
X-23658Y376296D01*
X-23603Y376250D01*
X-23555Y376230D01*
X-23511Y376202D01*
X-23442Y376185D01*
X-23375Y376158D01*
X-23304Y376150D01*
X-23272Y376142D01*
X-23249Y376144D01*
X-23208Y376139D01*
X-20248Y376139D01*
X-20158Y376154D01*
X-20067Y376161D01*
X-20038Y376174D01*
X-20006Y376179D01*
X-19925Y376222D01*
X-19841Y376257D01*
X-19809Y376283D01*
X-19788Y376294D01*
X-19766Y376317D01*
X-19710Y376362D01*
X-19286Y376787D01*
X-19218Y376882D01*
X-19146Y376979D01*
X-19145Y376983D01*
X-19142Y376986D01*
X-19108Y377099D01*
X-19071Y377213D01*
X-19071Y377217D01*
X-19070Y377221D01*
X-19073Y377340D01*
X-19075Y377459D01*
X-19076Y377463D01*
X-19076Y377467D01*
X-19117Y377580D01*
X-19157Y377691D01*
X-19159Y377694D01*
X-19161Y377698D01*
X-19236Y377792D01*
X-19308Y377885D01*
X-19312Y377888D01*
X-19314Y377890D01*
X-19326Y377898D01*
X-19443Y377984D01*
X-19760Y378167D01*
X-20233Y378640D01*
X-20568Y379219D01*
X-20741Y379866D01*
X-20741Y383677D01*
X-13462Y383677D01*
X-13442Y383680D01*
X-13423Y383678D01*
X-13321Y383700D01*
X-13219Y383717D01*
X-13202Y383726D01*
X-13182Y383730D01*
X-13093Y383783D01*
X-13002Y383832D01*
X-12988Y383846D01*
X-12971Y383856D01*
X-12904Y383935D01*
X-12833Y384010D01*
X-12824Y384028D01*
X-12811Y384043D01*
X-12772Y384139D01*
X-12729Y384233D01*
X-12727Y384253D01*
X-12719Y384271D01*
X-12701Y384438D01*
X-12701Y385201D01*
X-12699Y385201D01*
X-12699Y384438D01*
X-12696Y384418D01*
X-12698Y384399D01*
X-12676Y384297D01*
X-12659Y384195D01*
X-12650Y384178D01*
X-12646Y384158D01*
X-12593Y384069D01*
X-12544Y383978D01*
X-12530Y383964D01*
X-12520Y383947D01*
X-12441Y383880D01*
X-12366Y383809D01*
X-12348Y383800D01*
X-12333Y383787D01*
X-12237Y383748D01*
X-12143Y383705D01*
X-12123Y383703D01*
X-12105Y383695D01*
X-11938Y383677D01*
X-4659Y383677D01*
X-4659Y383438D01*
X-4656Y383418D01*
X-4658Y383399D01*
X-4636Y383297D01*
X-4620Y383195D01*
X-4610Y383178D01*
X-4606Y383158D01*
X-4553Y383069D01*
X-4504Y382978D01*
X-4490Y382964D01*
X-4480Y382947D01*
X-4401Y382880D01*
X-4326Y382809D01*
X-4308Y382800D01*
X-4293Y382787D01*
X-4197Y382748D01*
X-4103Y382705D01*
X-4083Y382703D01*
X-4065Y382695D01*
X-3898Y382677D01*
X-2998Y382677D01*
X-2998Y376659D01*
X-3347Y376659D01*
X-3418Y376648D01*
X-3490Y376646D01*
X-3538Y376628D01*
X-3590Y376620D01*
X-3653Y376586D01*
X-3721Y376561D01*
X-3761Y376529D01*
X-3807Y376504D01*
X-3857Y376453D01*
X-3913Y376408D01*
X-3941Y376364D01*
X-3977Y376326D01*
X-4007Y376261D01*
X-4046Y376201D01*
X-4058Y376150D01*
X-4080Y376103D01*
X-4088Y376032D01*
X-4106Y375962D01*
X-4102Y375910D01*
X-4107Y375859D01*
X-4092Y375788D01*
X-4086Y375717D01*
X-4066Y375669D01*
X-4055Y375618D01*
X-4018Y375557D01*
X-3990Y375491D01*
X-3945Y375435D01*
X-3929Y375407D01*
X-3911Y375392D01*
X-3885Y375360D01*
X-3472Y374947D01*
X-3472Y371178D01*
X-6137Y368514D01*
X-9337Y368514D01*
X-9427Y368499D01*
X-9518Y368492D01*
X-9548Y368479D01*
X-9580Y368474D01*
X-9661Y368431D01*
X-9744Y368396D01*
X-9777Y368370D01*
X-9797Y368359D01*
X-9819Y368336D01*
X-9875Y368291D01*
X-11879Y366287D01*
X-19711Y366287D01*
X-19805Y366272D01*
X-19900Y366263D01*
X-19926Y366252D01*
X-19953Y366248D01*
X-20038Y366203D01*
X-20125Y366165D01*
X-20146Y366146D01*
X-20171Y366132D01*
X-20236Y366063D01*
X-20307Y365999D01*
X-20321Y365975D01*
X-20340Y365954D01*
X-20380Y365868D01*
X-20427Y365784D01*
X-20432Y365757D01*
X-20444Y365731D01*
X-20454Y365636D01*
X-20472Y365543D01*
X-20468Y365515D01*
X-20471Y365487D01*
X-20451Y365393D01*
X-20437Y365299D01*
X-20423Y365267D01*
X-20419Y365246D01*
X-20417Y365244D01*
X-20402Y365218D01*
X-20370Y365145D01*
X-20145Y364756D01*
X-19972Y364109D01*
X-19972Y360298D01*
X-27250Y360298D01*
X-27270Y360295D01*
X-27290Y360297D01*
X-27391Y360275D01*
X-27493Y360258D01*
X-27511Y360249D01*
X-27530Y360245D01*
X-27619Y360192D01*
X-27711Y360143D01*
X-27724Y360129D01*
X-27741Y360119D01*
X-27809Y360040D01*
X-27880Y359965D01*
X-27888Y359947D01*
X-27901Y359932D01*
X-27940Y359836D01*
X-27984Y359742D01*
X-27986Y359722D01*
X-27993Y359704D01*
X-28012Y359537D01*
X-28012Y358774D01*
X-28013Y358774D01*
X-28013Y359537D01*
X-28017Y359557D01*
X-28014Y359576D01*
X-28036Y359678D01*
X-28053Y359780D01*
X-28062Y359797D01*
X-28067Y359817D01*
X-28120Y359906D01*
X-28168Y359997D01*
X-28183Y360011D01*
X-28193Y360028D01*
X-28272Y360095D01*
X-28347Y360166D01*
X-28365Y360175D01*
X-28380Y360188D01*
X-28476Y360227D01*
X-28570Y360270D01*
X-28589Y360272D01*
X-28608Y360280D01*
X-28775Y360298D01*
X-36053Y360298D01*
X-36053Y361944D01*
X-36065Y362015D01*
X-36067Y362087D01*
X-36085Y362136D01*
X-36093Y362187D01*
X-36126Y362250D01*
X-36151Y362318D01*
X-36184Y362358D01*
X-36208Y362404D01*
X-36260Y362454D01*
X-36305Y362510D01*
X-36349Y362538D01*
X-36386Y362574D01*
X-36451Y362604D01*
X-36512Y362643D01*
X-36562Y362655D01*
X-36609Y362677D01*
X-36681Y362685D01*
X-36750Y362703D01*
X-36802Y362699D01*
X-36854Y362704D01*
X-36924Y362689D01*
X-36995Y362684D01*
X-37043Y362663D01*
X-37094Y362652D01*
X-37156Y362615D01*
X-37222Y362587D01*
X-37278Y362542D01*
X-37305Y362526D01*
X-37321Y362508D01*
X-37353Y362482D01*
X-37765Y362070D01*
X-37818Y361996D01*
X-37877Y361927D01*
X-37890Y361897D01*
X-37908Y361871D01*
X-37935Y361784D01*
X-37969Y361699D01*
X-37974Y361658D01*
X-37981Y361636D01*
X-37980Y361603D01*
X-37988Y361532D01*
X-37988Y353143D01*
X-38881Y352250D01*
X-47914Y352250D01*
X-47934Y352247D01*
X-47954Y352249D01*
X-48055Y352227D01*
X-48157Y352211D01*
X-48175Y352201D01*
X-48194Y352197D01*
X-48283Y352144D01*
X-48374Y352095D01*
X-48388Y352081D01*
X-48405Y352071D01*
X-48473Y351992D01*
X-48544Y351917D01*
X-48552Y351899D01*
X-48565Y351884D01*
X-48604Y351788D01*
X-48647Y351694D01*
X-48650Y351674D01*
X-48657Y351656D01*
X-48676Y351489D01*
X-48676Y338771D01*
X-49897Y337550D01*
X-58504Y337550D01*
X-59725Y338771D01*
X-59725Y350989D01*
X-59728Y351009D01*
X-59726Y351028D01*
X-59748Y351130D01*
X-59765Y351232D01*
X-59774Y351249D01*
X-59778Y351269D01*
X-59832Y351358D01*
X-59880Y351449D01*
X-59894Y351463D01*
X-59905Y351480D01*
X-59983Y351547D01*
X-60058Y351619D01*
X-60076Y351627D01*
X-60091Y351640D01*
X-60188Y351679D01*
X-60281Y351722D01*
X-60301Y351724D01*
X-60320Y351732D01*
X-60486Y351750D01*
X-60636Y351750D01*
X-60678Y351780D01*
X-60730Y351830D01*
X-60777Y351852D01*
X-60819Y351882D01*
X-60888Y351903D01*
X-60953Y351933D01*
X-61005Y351939D01*
X-61054Y351954D01*
X-61126Y351952D01*
X-61197Y351960D01*
X-61248Y351949D01*
X-61300Y351948D01*
X-61368Y351923D01*
X-61438Y351908D01*
X-61483Y351881D01*
X-61531Y351864D01*
X-61587Y351819D01*
X-61649Y351782D01*
X-61683Y351742D01*
X-61723Y351710D01*
X-61762Y351650D01*
X-61809Y351595D01*
X-61828Y351547D01*
X-61856Y351503D01*
X-61874Y351434D01*
X-61901Y351367D01*
X-61909Y351296D01*
X-61917Y351264D01*
X-61915Y351241D01*
X-61919Y351200D01*
X-61919Y351170D01*
X-64895Y348194D01*
X-119178Y348194D01*
X-119197Y348191D01*
X-119217Y348193D01*
X-119319Y348171D01*
X-119421Y348155D01*
X-119438Y348145D01*
X-119457Y348141D01*
X-119547Y348088D01*
X-119638Y348039D01*
X-119651Y348025D01*
X-119669Y348015D01*
X-119736Y347936D01*
X-119807Y347861D01*
X-119816Y347843D01*
X-119828Y347828D01*
X-119867Y347732D01*
X-119911Y347638D01*
X-119913Y347618D01*
X-119920Y347600D01*
X-119939Y347433D01*
X-119939Y345948D01*
X-119934Y345914D01*
X-119936Y345879D01*
X-119914Y345793D01*
X-119900Y345705D01*
X-119884Y345674D01*
X-119875Y345641D01*
X-119835Y345572D01*
X-119931Y344936D01*
X-119931Y344903D01*
X-119940Y344822D01*
X-119940Y344182D01*
X-119976Y344120D01*
X-120028Y344048D01*
X-120039Y344015D01*
X-120056Y343985D01*
X-120099Y343823D01*
X-120429Y341643D01*
X-120428Y341609D01*
X-120436Y341575D01*
X-120427Y341487D01*
X-120426Y341398D01*
X-120414Y341365D01*
X-120411Y341330D01*
X-120381Y341256D01*
X-120571Y340642D01*
X-120575Y340618D01*
X-120579Y340608D01*
X-120582Y340588D01*
X-120597Y340531D01*
X-120692Y339897D01*
X-120738Y339842D01*
X-120800Y339778D01*
X-120815Y339747D01*
X-120837Y339720D01*
X-120903Y339566D01*
X-121554Y337460D01*
X-121559Y337426D01*
X-121571Y337393D01*
X-121575Y337304D01*
X-121587Y337216D01*
X-121581Y337182D01*
X-121583Y337148D01*
X-121565Y337070D01*
X-121844Y336490D01*
X-121854Y336459D01*
X-121886Y336384D01*
X-122075Y335773D01*
X-122128Y335724D01*
X-122199Y335671D01*
X-122218Y335642D01*
X-122244Y335619D01*
X-122333Y335477D01*
X-123290Y333491D01*
X-123300Y333458D01*
X-123317Y333428D01*
X-123334Y333340D01*
X-123360Y333255D01*
X-123358Y333220D01*
X-123365Y333186D01*
X-123359Y333107D01*
X-123722Y332576D01*
X-123736Y332546D01*
X-123779Y332477D01*
X-124057Y331900D01*
X-124116Y331860D01*
X-124194Y331818D01*
X-124218Y331792D01*
X-124247Y331773D01*
X-124356Y331646D01*
X-125598Y329825D01*
X-125613Y329794D01*
X-125635Y329766D01*
X-125665Y329683D01*
X-125702Y329602D01*
X-125706Y329568D01*
X-125718Y329535D01*
X-125724Y329456D01*
X-126162Y328984D01*
X-126180Y328957D01*
X-126233Y328895D01*
X-126594Y328366D01*
X-126659Y328336D01*
X-126742Y328305D01*
X-126769Y328284D01*
X-126800Y328269D01*
X-126927Y328159D01*
X-128427Y326544D01*
X-128446Y326515D01*
X-128472Y326492D01*
X-128514Y326413D01*
X-128563Y326339D01*
X-128572Y326306D01*
X-128589Y326275D01*
X-128606Y326198D01*
X-129110Y325797D01*
X-129132Y325772D01*
X-129193Y325719D01*
X-129629Y325250D01*
X-129698Y325230D01*
X-129785Y325212D01*
X-129815Y325195D01*
X-129848Y325185D01*
X-129990Y325095D01*
X-131714Y323721D01*
X-131737Y323696D01*
X-131765Y323676D01*
X-131819Y323605D01*
X-131879Y323539D01*
X-131892Y323507D01*
X-131913Y323480D01*
X-131942Y323406D01*
X-132500Y323084D01*
X-132525Y323063D01*
X-132594Y323020D01*
X-133095Y322621D01*
X-133165Y322611D01*
X-133254Y322606D01*
X-133287Y322594D01*
X-133321Y322589D01*
X-133475Y322522D01*
X-135384Y321420D01*
X-135411Y321398D01*
X-135442Y321383D01*
X-135506Y321321D01*
X-135574Y321264D01*
X-135593Y321235D01*
X-135617Y321211D01*
X-135657Y321142D01*
X-136256Y320907D01*
X-136285Y320890D01*
X-136359Y320858D01*
X-136913Y320538D01*
X-136985Y320538D01*
X-137074Y320547D01*
X-137107Y320540D01*
X-137142Y320540D01*
X-137304Y320496D01*
X-139089Y319796D01*
X-139179Y319743D01*
X-139271Y319694D01*
X-139284Y319680D01*
X-139301Y319671D01*
X-139369Y319591D01*
X-139441Y319516D01*
X-139449Y319498D01*
X-139461Y319484D01*
X-139500Y319387D01*
X-139544Y319293D01*
X-139547Y319274D01*
X-139554Y319256D01*
X-139560Y319152D01*
X-139572Y319048D01*
X-139568Y319030D01*
X-139569Y319011D01*
X-139542Y318910D01*
X-139519Y318808D01*
X-139510Y318791D01*
X-139505Y318773D01*
X-139447Y318686D01*
X-139393Y318597D01*
X-139379Y318584D01*
X-139368Y318569D01*
X-139286Y318505D01*
X-139206Y318437D01*
X-139189Y318430D01*
X-139174Y318418D01*
X-139075Y318384D01*
X-138978Y318345D01*
X-138955Y318342D01*
X-138941Y318337D01*
X-138910Y318337D01*
X-138811Y318326D01*
X138603Y318326D01*
X138650Y318334D01*
G37*
G36*
X-82530Y-83636D02*
X-82530Y-83636D01*
X-82511Y-83638D01*
X-82409Y-83616D01*
X-82307Y-83599D01*
X-82290Y-83590D01*
X-82270Y-83586D01*
X-82181Y-83533D01*
X-82090Y-83484D01*
X-82076Y-83470D01*
X-82059Y-83460D01*
X-81992Y-83381D01*
X-81921Y-83306D01*
X-81912Y-83288D01*
X-81899Y-83273D01*
X-81860Y-83176D01*
X-81817Y-83083D01*
X-81815Y-83063D01*
X-81807Y-83044D01*
X-81789Y-82878D01*
X-81789Y-67646D01*
X-81792Y-67629D01*
X-81790Y-67613D01*
X-81804Y-67547D01*
X-81811Y-67465D01*
X-81823Y-67435D01*
X-81829Y-67403D01*
X-81840Y-67381D01*
X-81842Y-67373D01*
X-81865Y-67334D01*
X-81871Y-67323D01*
X-81907Y-67239D01*
X-81933Y-67207D01*
X-81944Y-67186D01*
X-81967Y-67164D01*
X-81968Y-67162D01*
X-81969Y-67161D01*
X-82012Y-67108D01*
X-84827Y-64293D01*
X-86373Y-60559D01*
X-86373Y-31516D01*
X-84827Y-27782D01*
X-82012Y-24967D01*
X-81959Y-24893D01*
X-81899Y-24824D01*
X-81887Y-24794D01*
X-81868Y-24767D01*
X-81841Y-24680D01*
X-81807Y-24596D01*
X-81803Y-24555D01*
X-81796Y-24532D01*
X-81797Y-24500D01*
X-81789Y-24429D01*
X-81789Y65914D01*
X-3175Y65914D01*
X-3155Y65917D01*
X-3136Y65915D01*
X-3034Y65937D01*
X-2932Y65954D01*
X-2915Y65963D01*
X-2895Y65967D01*
X-2806Y66020D01*
X-2715Y66069D01*
X-2701Y66083D01*
X-2684Y66093D01*
X-2617Y66172D01*
X-2546Y66247D01*
X-2537Y66265D01*
X-2524Y66280D01*
X-2485Y66376D01*
X-2442Y66470D01*
X-2440Y66490D01*
X-2432Y66508D01*
X-2414Y66675D01*
X-2414Y72098D01*
X-2432Y72212D01*
X-2450Y72329D01*
X-2453Y72335D01*
X-2454Y72341D01*
X-2508Y72443D01*
X-2561Y72548D01*
X-2566Y72553D01*
X-2569Y72558D01*
X-2653Y72638D01*
X-2737Y72720D01*
X-2743Y72724D01*
X-2747Y72727D01*
X-2764Y72735D01*
X-2884Y72801D01*
X-3843Y73199D01*
X-6701Y76057D01*
X-8248Y79791D01*
X-8248Y88458D01*
X-8259Y88523D01*
X-8259Y88588D01*
X-8283Y88668D01*
X-8288Y88701D01*
X-8297Y88718D01*
X-8306Y88749D01*
X-8748Y89816D01*
X-8748Y103859D01*
X-7201Y107593D01*
X-4343Y110451D01*
X-2884Y111056D01*
X-2784Y111117D01*
X-2684Y111177D01*
X-2680Y111182D01*
X-2675Y111185D01*
X-2600Y111276D01*
X-2524Y111364D01*
X-2522Y111370D01*
X-2518Y111375D01*
X-2476Y111484D01*
X-2432Y111592D01*
X-2431Y111600D01*
X-2430Y111605D01*
X-2429Y111623D01*
X-2414Y111759D01*
X-2414Y115888D01*
X-2417Y115907D01*
X-2415Y115927D01*
X-2437Y116028D01*
X-2454Y116130D01*
X-2463Y116148D01*
X-2467Y116167D01*
X-2520Y116256D01*
X-2569Y116348D01*
X-2583Y116361D01*
X-2593Y116378D01*
X-2672Y116446D01*
X-2747Y116517D01*
X-2765Y116525D01*
X-2780Y116538D01*
X-2876Y116577D01*
X-2970Y116621D01*
X-2990Y116623D01*
X-3008Y116630D01*
X-3175Y116649D01*
X-136906Y116649D01*
X-136926Y116646D01*
X-136945Y116648D01*
X-137047Y116626D01*
X-137149Y116609D01*
X-137166Y116600D01*
X-137186Y116595D01*
X-137275Y116542D01*
X-137366Y116494D01*
X-137380Y116480D01*
X-137397Y116469D01*
X-137464Y116391D01*
X-137536Y116316D01*
X-137544Y116298D01*
X-137557Y116282D01*
X-137596Y116186D01*
X-137639Y116093D01*
X-137641Y116073D01*
X-137649Y116054D01*
X-137667Y115888D01*
X-137667Y112172D01*
X-140316Y105777D01*
X-145211Y100883D01*
X-149516Y99099D01*
X-149616Y99038D01*
X-149716Y98978D01*
X-149720Y98973D01*
X-149725Y98970D01*
X-149800Y98880D01*
X-149876Y98791D01*
X-149878Y98785D01*
X-149882Y98780D01*
X-149924Y98672D01*
X-149968Y98563D01*
X-149969Y98555D01*
X-149970Y98551D01*
X-149971Y98532D01*
X-149986Y98396D01*
X-149986Y-82425D01*
X-149975Y-82492D01*
X-149974Y-82560D01*
X-149956Y-82613D01*
X-149947Y-82668D01*
X-149915Y-82728D01*
X-149892Y-82792D01*
X-149857Y-82836D01*
X-149831Y-82885D01*
X-149782Y-82932D01*
X-149740Y-82986D01*
X-149677Y-83032D01*
X-149653Y-83055D01*
X-149634Y-83063D01*
X-149605Y-83085D01*
X-148829Y-83531D01*
X-148722Y-83571D01*
X-148616Y-83614D01*
X-148605Y-83616D01*
X-148599Y-83618D01*
X-148576Y-83619D01*
X-148449Y-83633D01*
X-82550Y-83639D01*
X-82530Y-83636D01*
G37*
%LPC*%
G36*
X57405Y-68698D02*
X57405Y-68698D01*
X49076Y-65248D01*
X42702Y-58874D01*
X39252Y-50545D01*
X39252Y-41530D01*
X42702Y-33201D01*
X49076Y-26827D01*
X57405Y-23377D01*
X66420Y-23377D01*
X74749Y-26827D01*
X81123Y-33201D01*
X84573Y-41530D01*
X84573Y-50545D01*
X81123Y-58874D01*
X74749Y-65248D01*
X66420Y-68698D01*
X57405Y-68698D01*
G37*
%LPD*%
G36*
X230234Y189717D02*
X230234Y189717D01*
X230265Y189726D01*
X230308Y189728D01*
X234245Y190625D01*
X234274Y190638D01*
X234316Y190647D01*
X238075Y192121D01*
X238102Y192138D01*
X238142Y192154D01*
X241640Y194171D01*
X241664Y194192D01*
X241701Y194213D01*
X244859Y196730D01*
X244879Y196754D01*
X244914Y196780D01*
X247661Y199739D01*
X247678Y199767D01*
X247708Y199798D01*
X249983Y203133D01*
X249994Y203158D01*
X250011Y203179D01*
X250021Y203211D01*
X250023Y203215D01*
X250024Y203223D01*
X250032Y203249D01*
X250060Y203316D01*
X250060Y203344D01*
X250068Y203370D01*
X250060Y203442D01*
X250060Y203515D01*
X250049Y203540D01*
X250046Y203567D01*
X250010Y203631D01*
X249982Y203698D01*
X249962Y203717D01*
X249949Y203741D01*
X249868Y203808D01*
X249838Y203836D01*
X249829Y203839D01*
X249820Y203847D01*
X203038Y230877D01*
X203012Y230885D01*
X202990Y230901D01*
X202918Y230917D01*
X202849Y230940D01*
X202822Y230938D01*
X202795Y230944D01*
X202724Y230930D01*
X202651Y230925D01*
X202627Y230912D01*
X202600Y230907D01*
X202539Y230867D01*
X202474Y230833D01*
X202457Y230812D01*
X202434Y230797D01*
X202373Y230711D01*
X202348Y230680D01*
X202345Y230671D01*
X202338Y230661D01*
X200585Y227024D01*
X200577Y226993D01*
X200558Y226954D01*
X199367Y223097D01*
X199363Y223065D01*
X199350Y223024D01*
X198747Y219031D01*
X198748Y219000D01*
X198741Y218957D01*
X198740Y214919D01*
X198746Y214888D01*
X198746Y214845D01*
X199346Y210852D01*
X199357Y210822D01*
X199363Y210779D01*
X200551Y206921D01*
X200567Y206893D01*
X200579Y206851D01*
X202329Y203213D01*
X202349Y203188D01*
X202367Y203148D01*
X204640Y199812D01*
X204663Y199789D01*
X204687Y199753D01*
X207432Y196792D01*
X207458Y196774D01*
X207487Y196742D01*
X210643Y194223D01*
X210671Y194209D01*
X210704Y194181D01*
X214200Y192161D01*
X214231Y192151D01*
X214268Y192129D01*
X218026Y190652D01*
X218057Y190647D01*
X218097Y190630D01*
X222033Y189731D01*
X222065Y189730D01*
X222107Y189720D01*
X226133Y189417D01*
X226165Y189421D01*
X226208Y189417D01*
X230234Y189717D01*
G37*
G36*
X150859Y318885D02*
X150859Y318885D01*
X150932Y318894D01*
X150955Y318908D01*
X150982Y318914D01*
X151041Y318957D01*
X151104Y318994D01*
X151120Y319016D01*
X151142Y319032D01*
X151179Y319094D01*
X151223Y319153D01*
X151230Y319179D01*
X151244Y319203D01*
X151261Y319306D01*
X151271Y319346D01*
X151269Y319355D01*
X151271Y319367D01*
X151289Y373397D01*
X151283Y373423D01*
X151286Y373451D01*
X151264Y373520D01*
X151249Y373592D01*
X151234Y373614D01*
X151225Y373640D01*
X151178Y373695D01*
X151137Y373756D01*
X151114Y373770D01*
X151096Y373791D01*
X151031Y373823D01*
X150969Y373863D01*
X150942Y373867D01*
X150918Y373879D01*
X150813Y373889D01*
X150773Y373896D01*
X150764Y373894D01*
X150752Y373895D01*
X146726Y373594D01*
X146695Y373586D01*
X146652Y373583D01*
X142715Y372686D01*
X142686Y372673D01*
X142644Y372664D01*
X138885Y371190D01*
X138858Y371173D01*
X138818Y371158D01*
X135320Y369140D01*
X135296Y369119D01*
X135259Y369098D01*
X132101Y366582D01*
X132081Y366557D01*
X132046Y366531D01*
X129299Y363572D01*
X129282Y363545D01*
X129253Y363514D01*
X126977Y360178D01*
X126965Y360149D01*
X126940Y360114D01*
X125187Y356476D01*
X125179Y356446D01*
X125159Y356407D01*
X123968Y352549D01*
X123965Y352517D01*
X123951Y352476D01*
X123348Y348484D01*
X123350Y348452D01*
X123343Y348410D01*
X123341Y344372D01*
X123348Y344341D01*
X123347Y344297D01*
X123947Y340305D01*
X123958Y340275D01*
X123964Y340232D01*
X125153Y336373D01*
X125168Y336345D01*
X125180Y336304D01*
X126931Y332665D01*
X126950Y332640D01*
X126968Y332601D01*
X129242Y329264D01*
X129264Y329242D01*
X129288Y329206D01*
X132033Y326245D01*
X132059Y326226D01*
X132088Y326194D01*
X135244Y323676D01*
X135272Y323661D01*
X135306Y323634D01*
X138802Y321614D01*
X138832Y321604D01*
X138869Y321581D01*
X142627Y320105D01*
X142659Y320099D01*
X142698Y320083D01*
X146635Y319183D01*
X146666Y319182D01*
X146708Y319172D01*
X150735Y318869D01*
X150762Y318872D01*
X150788Y318868D01*
X150859Y318885D01*
G37*
G36*
X-148886Y319547D02*
X-148886Y319547D01*
X-148875Y319546D01*
X-144848Y319847D01*
X-144818Y319855D01*
X-144775Y319858D01*
X-140838Y320755D01*
X-140809Y320768D01*
X-140767Y320777D01*
X-137008Y322251D01*
X-136981Y322268D01*
X-136940Y322283D01*
X-133443Y324301D01*
X-133419Y324322D01*
X-133381Y324343D01*
X-130224Y326860D01*
X-130203Y326884D01*
X-130169Y326910D01*
X-127422Y329869D01*
X-127405Y329896D01*
X-127375Y329928D01*
X-125100Y333263D01*
X-125087Y333292D01*
X-125062Y333328D01*
X-123309Y336965D01*
X-123301Y336996D01*
X-123282Y337034D01*
X-122091Y340892D01*
X-122087Y340924D01*
X-122074Y340965D01*
X-121471Y344957D01*
X-121472Y344989D01*
X-121465Y345032D01*
X-121464Y349069D01*
X-121470Y349101D01*
X-121470Y349144D01*
X-122070Y353136D01*
X-122081Y353166D01*
X-122087Y353209D01*
X-123275Y357068D01*
X-123291Y357096D01*
X-123303Y357137D01*
X-125053Y360776D01*
X-125073Y360801D01*
X-125091Y360840D01*
X-127364Y364177D01*
X-127387Y364199D01*
X-127411Y364236D01*
X-130156Y367196D01*
X-130182Y367215D01*
X-130211Y367247D01*
X-133367Y369765D01*
X-133395Y369780D01*
X-133428Y369808D01*
X-136924Y371827D01*
X-136955Y371838D01*
X-136992Y371860D01*
X-140750Y373336D01*
X-140781Y373342D01*
X-140821Y373358D01*
X-144757Y374258D01*
X-144789Y374259D01*
X-144831Y374269D01*
X-148857Y374572D01*
X-148884Y374569D01*
X-148911Y374573D01*
X-148982Y374556D01*
X-149054Y374547D01*
X-149078Y374534D01*
X-149104Y374527D01*
X-149163Y374484D01*
X-149226Y374447D01*
X-149243Y374426D01*
X-149265Y374409D01*
X-149302Y374347D01*
X-149346Y374288D01*
X-149352Y374262D01*
X-149366Y374238D01*
X-149384Y374135D01*
X-149393Y374095D01*
X-149392Y374086D01*
X-149394Y374074D01*
X-149411Y320044D01*
X-149406Y320018D01*
X-149408Y319991D01*
X-149386Y319921D01*
X-149372Y319850D01*
X-149356Y319827D01*
X-149348Y319801D01*
X-149301Y319746D01*
X-149259Y319686D01*
X-149236Y319671D01*
X-149219Y319650D01*
X-149153Y319618D01*
X-149092Y319578D01*
X-149065Y319574D01*
X-149040Y319562D01*
X-148935Y319552D01*
X-148896Y319545D01*
X-148886Y319547D01*
G37*
G36*
X75816Y449304D02*
X75816Y449304D01*
X75859Y449300D01*
X79885Y449603D01*
X79916Y449611D01*
X79959Y449614D01*
X83895Y450514D01*
X83924Y450527D01*
X83966Y450536D01*
X87724Y452012D01*
X87751Y452029D01*
X87791Y452044D01*
X91288Y454064D01*
X91311Y454085D01*
X91349Y454106D01*
X94505Y456625D01*
X94526Y456649D01*
X94560Y456676D01*
X97305Y459636D01*
X97322Y459664D01*
X97352Y459695D01*
X99625Y463031D01*
X99636Y463057D01*
X99653Y463077D01*
X99674Y463147D01*
X99702Y463215D01*
X99702Y463242D01*
X99710Y463268D01*
X99702Y463341D01*
X99701Y463414D01*
X99691Y463439D01*
X99688Y463466D01*
X99652Y463529D01*
X99623Y463596D01*
X99604Y463615D01*
X99590Y463639D01*
X99509Y463706D01*
X99480Y463734D01*
X99471Y463738D01*
X99462Y463745D01*
X52662Y490745D01*
X52636Y490754D01*
X52614Y490769D01*
X52543Y490785D01*
X52473Y490808D01*
X52446Y490806D01*
X52420Y490812D01*
X52348Y490798D01*
X52275Y490793D01*
X52251Y490780D01*
X52224Y490775D01*
X52164Y490734D01*
X52099Y490701D01*
X52081Y490680D01*
X52059Y490665D01*
X51998Y490579D01*
X51972Y490548D01*
X51969Y490538D01*
X51963Y490529D01*
X50212Y486891D01*
X50204Y486860D01*
X50185Y486821D01*
X48996Y482962D01*
X48993Y482931D01*
X48979Y482890D01*
X48379Y478897D01*
X48380Y478865D01*
X48373Y478823D01*
X48374Y474785D01*
X48380Y474755D01*
X48378Y474743D01*
X48380Y474735D01*
X48380Y474710D01*
X48983Y470718D01*
X48994Y470688D01*
X49000Y470645D01*
X50191Y466787D01*
X50206Y466759D01*
X50218Y466718D01*
X51971Y463081D01*
X51991Y463055D01*
X52009Y463016D01*
X54284Y459681D01*
X54307Y459659D01*
X54331Y459622D01*
X57078Y456664D01*
X57104Y456645D01*
X57133Y456613D01*
X60290Y454096D01*
X60319Y454082D01*
X60352Y454054D01*
X63849Y452037D01*
X63880Y452027D01*
X63917Y452004D01*
X67676Y450530D01*
X67707Y450525D01*
X67747Y450508D01*
X71684Y449611D01*
X71716Y449610D01*
X71758Y449600D01*
X75784Y449300D01*
X75816Y449304D01*
G37*
G36*
X-69633Y450000D02*
X-69633Y450000D01*
X-69602Y450009D01*
X-69559Y450011D01*
X-65622Y450908D01*
X-65593Y450922D01*
X-65551Y450930D01*
X-61792Y452404D01*
X-61765Y452422D01*
X-61724Y452437D01*
X-58227Y454454D01*
X-58203Y454475D01*
X-58165Y454496D01*
X-55008Y457013D01*
X-54987Y457037D01*
X-54953Y457064D01*
X-52206Y460022D01*
X-52189Y460050D01*
X-52159Y460081D01*
X-49884Y463416D01*
X-49871Y463445D01*
X-49846Y463481D01*
X-48093Y467118D01*
X-48086Y467149D01*
X-48066Y467187D01*
X-46875Y471045D01*
X-46872Y471077D01*
X-46858Y471118D01*
X-46255Y475110D01*
X-46257Y475142D01*
X-46249Y475185D01*
X-46248Y479223D01*
X-46255Y479254D01*
X-46254Y479297D01*
X-46854Y483290D01*
X-46865Y483320D01*
X-46871Y483362D01*
X-48060Y487221D01*
X-48075Y487249D01*
X-48087Y487291D01*
X-49838Y490929D01*
X-49854Y490951D01*
X-49864Y490976D01*
X-49914Y491029D01*
X-49958Y491087D01*
X-49981Y491101D01*
X-50000Y491121D01*
X-50067Y491150D01*
X-50130Y491186D01*
X-50157Y491190D01*
X-50182Y491201D01*
X-50255Y491201D01*
X-50328Y491210D01*
X-50354Y491203D01*
X-50381Y491203D01*
X-50480Y491166D01*
X-50519Y491155D01*
X-50526Y491149D01*
X-50537Y491145D01*
X-97337Y464145D01*
X-97357Y464127D01*
X-97382Y464116D01*
X-97431Y464062D01*
X-97486Y464013D01*
X-97498Y463989D01*
X-97516Y463969D01*
X-97540Y463900D01*
X-97572Y463834D01*
X-97573Y463807D01*
X-97582Y463781D01*
X-97577Y463708D01*
X-97581Y463635D01*
X-97571Y463610D01*
X-97570Y463583D01*
X-97526Y463487D01*
X-97511Y463449D01*
X-97505Y463442D01*
X-97500Y463431D01*
X-95227Y460095D01*
X-95204Y460072D01*
X-95180Y460036D01*
X-92435Y457076D01*
X-92409Y457057D01*
X-92380Y457025D01*
X-89224Y454506D01*
X-89196Y454492D01*
X-89163Y454464D01*
X-85666Y452444D01*
X-85636Y452434D01*
X-85599Y452412D01*
X-81841Y450936D01*
X-81810Y450930D01*
X-81770Y450914D01*
X-77834Y450014D01*
X-77802Y450013D01*
X-77760Y450003D01*
X-73734Y449700D01*
X-73702Y449704D01*
X-73659Y449700D01*
X-69633Y450000D01*
G37*
G36*
X-219683Y190140D02*
X-219683Y190140D01*
X-219653Y190149D01*
X-219609Y190152D01*
X-215673Y191049D01*
X-215644Y191062D01*
X-215601Y191071D01*
X-211842Y192545D01*
X-211816Y192562D01*
X-211775Y192577D01*
X-208278Y194595D01*
X-208254Y194616D01*
X-208216Y194637D01*
X-205058Y197153D01*
X-205038Y197178D01*
X-205004Y197204D01*
X-202256Y200163D01*
X-202240Y200190D01*
X-202210Y200221D01*
X-199934Y203557D01*
X-199922Y203586D01*
X-199897Y203621D01*
X-198144Y207258D01*
X-198136Y207289D01*
X-198117Y207328D01*
X-196925Y211186D01*
X-196922Y211217D01*
X-196909Y211259D01*
X-196306Y215251D01*
X-196307Y215283D01*
X-196300Y215325D01*
X-196299Y219363D01*
X-196305Y219394D01*
X-196304Y219437D01*
X-196905Y223430D01*
X-196916Y223460D01*
X-196921Y223503D01*
X-198110Y227362D01*
X-198126Y227390D01*
X-198138Y227431D01*
X-199888Y231069D01*
X-199905Y231091D01*
X-199914Y231117D01*
X-199964Y231170D01*
X-200008Y231228D01*
X-200032Y231241D01*
X-200051Y231261D01*
X-200118Y231290D01*
X-200181Y231327D01*
X-200208Y231330D01*
X-200233Y231341D01*
X-200306Y231342D01*
X-200378Y231351D01*
X-200404Y231343D01*
X-200432Y231343D01*
X-200530Y231307D01*
X-200569Y231295D01*
X-200577Y231289D01*
X-200588Y231285D01*
X-247388Y204285D01*
X-247408Y204267D01*
X-247433Y204256D01*
X-247482Y204202D01*
X-247537Y204154D01*
X-247548Y204129D01*
X-247567Y204109D01*
X-247591Y204040D01*
X-247622Y203974D01*
X-247624Y203947D01*
X-247633Y203921D01*
X-247628Y203849D01*
X-247631Y203776D01*
X-247622Y203750D01*
X-247620Y203723D01*
X-247576Y203627D01*
X-247562Y203589D01*
X-247556Y203582D01*
X-247551Y203572D01*
X-245277Y200235D01*
X-245254Y200213D01*
X-245231Y200177D01*
X-242485Y197216D01*
X-242460Y197197D01*
X-242431Y197165D01*
X-239275Y194647D01*
X-239246Y194632D01*
X-239213Y194605D01*
X-235717Y192585D01*
X-235687Y192575D01*
X-235650Y192552D01*
X-231892Y191076D01*
X-231860Y191070D01*
X-231820Y191054D01*
X-227884Y190154D01*
X-227853Y190153D01*
X-227811Y190143D01*
X-223784Y189840D01*
X-223753Y189844D01*
X-223710Y189840D01*
X-219683Y190140D01*
G37*
%LPC*%
G36*
X-18832Y395675D02*
X-18832Y395675D01*
X-19725Y396568D01*
X-19725Y407832D01*
X-19448Y408109D01*
X-19394Y408183D01*
X-19335Y408252D01*
X-19323Y408282D01*
X-19304Y408308D01*
X-19277Y408395D01*
X-19243Y408480D01*
X-19239Y408521D01*
X-19232Y408543D01*
X-19233Y408576D01*
X-19225Y408647D01*
X-19225Y418319D01*
X-18332Y419212D01*
X-7068Y419212D01*
X-6175Y418319D01*
X-6175Y410486D01*
X-6172Y410466D01*
X-6174Y410447D01*
X-6152Y410345D01*
X-6136Y410243D01*
X-6126Y410226D01*
X-6122Y410206D01*
X-6069Y410117D01*
X-6020Y410026D01*
X-6006Y410012D01*
X-5996Y409995D01*
X-5917Y409928D01*
X-5842Y409856D01*
X-5824Y409848D01*
X-5809Y409835D01*
X-5713Y409796D01*
X-5619Y409753D01*
X-5599Y409751D01*
X-5581Y409743D01*
X-5414Y409725D01*
X-4611Y409725D01*
X-4591Y409728D01*
X-4572Y409726D01*
X-4470Y409748D01*
X-4368Y409764D01*
X-4351Y409774D01*
X-4331Y409778D01*
X-4242Y409831D01*
X-4151Y409880D01*
X-4137Y409894D01*
X-4120Y409904D01*
X-4053Y409983D01*
X-3981Y410058D01*
X-3973Y410076D01*
X-3960Y410091D01*
X-3921Y410187D01*
X-3878Y410281D01*
X-3876Y410301D01*
X-3868Y410319D01*
X-3850Y410486D01*
X-3850Y417819D01*
X-2957Y418712D01*
X9307Y418712D01*
X10200Y417819D01*
X10200Y406556D01*
X9307Y405663D01*
X7811Y405663D01*
X7791Y405660D01*
X7772Y405662D01*
X7670Y405640D01*
X7568Y405623D01*
X7551Y405614D01*
X7531Y405609D01*
X7442Y405556D01*
X7351Y405508D01*
X7337Y405494D01*
X7320Y405483D01*
X7253Y405405D01*
X7181Y405330D01*
X7173Y405312D01*
X7160Y405296D01*
X7121Y405200D01*
X7078Y405107D01*
X7076Y405087D01*
X7068Y405068D01*
X7050Y404902D01*
X7050Y397568D01*
X6157Y396675D01*
X-5253Y396675D01*
X-5343Y396661D01*
X-5434Y396653D01*
X-5464Y396641D01*
X-5496Y396636D01*
X-5577Y396593D01*
X-5660Y396557D01*
X-5693Y396531D01*
X-5713Y396520D01*
X-5735Y396497D01*
X-5791Y396452D01*
X-6568Y395675D01*
X-18832Y395675D01*
G37*
%LPD*%
%LPC*%
G36*
X95019Y325818D02*
X95019Y325818D01*
X91657Y327210D01*
X89085Y329782D01*
X87693Y333144D01*
X87693Y336781D01*
X89085Y340143D01*
X91657Y342715D01*
X93827Y343614D01*
X93926Y343675D01*
X94026Y343735D01*
X94031Y343740D01*
X94036Y343743D01*
X94110Y343833D01*
X94186Y343922D01*
X94189Y343928D01*
X94193Y343933D01*
X94234Y344041D01*
X94278Y344150D01*
X94279Y344158D01*
X94281Y344162D01*
X94282Y344181D01*
X94297Y344317D01*
X94297Y351008D01*
X94278Y351123D01*
X94261Y351239D01*
X94258Y351245D01*
X94257Y351251D01*
X94203Y351353D01*
X94149Y351458D01*
X94145Y351463D01*
X94142Y351468D01*
X94058Y351548D01*
X93974Y351631D01*
X93967Y351634D01*
X93964Y351638D01*
X93947Y351645D01*
X93827Y351711D01*
X91657Y352610D01*
X89085Y355182D01*
X87693Y358544D01*
X87693Y362181D01*
X89085Y365543D01*
X91657Y368115D01*
X95019Y369507D01*
X98656Y369507D01*
X102018Y368115D01*
X104590Y365543D01*
X105982Y362181D01*
X105982Y358544D01*
X104590Y355182D01*
X102018Y352610D01*
X99848Y351711D01*
X99749Y351650D01*
X99649Y351590D01*
X99644Y351585D01*
X99639Y351582D01*
X99565Y351492D01*
X99489Y351403D01*
X99486Y351397D01*
X99482Y351392D01*
X99440Y351283D01*
X99397Y351175D01*
X99396Y351167D01*
X99394Y351163D01*
X99393Y351144D01*
X99378Y351008D01*
X99378Y344317D01*
X99397Y344202D01*
X99414Y344086D01*
X99417Y344080D01*
X99418Y344074D01*
X99472Y343972D01*
X99526Y343867D01*
X99530Y343862D01*
X99533Y343857D01*
X99617Y343777D01*
X99701Y343694D01*
X99708Y343691D01*
X99711Y343687D01*
X99728Y343680D01*
X99848Y343614D01*
X102018Y342715D01*
X104590Y340143D01*
X105982Y336781D01*
X105982Y333144D01*
X104590Y329782D01*
X102018Y327210D01*
X98656Y325818D01*
X95019Y325818D01*
G37*
%LPD*%
%LPC*%
G36*
X16592Y337300D02*
X16592Y337300D01*
X15113Y338779D01*
X15113Y352871D01*
X16592Y354350D01*
X16910Y354350D01*
X17000Y354364D01*
X17091Y354372D01*
X17121Y354384D01*
X17153Y354389D01*
X17234Y354432D01*
X17318Y354468D01*
X17350Y354494D01*
X17370Y354505D01*
X17393Y354528D01*
X17449Y354573D01*
X20702Y357826D01*
X20744Y357884D01*
X20793Y357936D01*
X20815Y357983D01*
X20845Y358025D01*
X20866Y358094D01*
X20897Y358159D01*
X20902Y358211D01*
X20918Y358261D01*
X20916Y358332D01*
X20924Y358403D01*
X20913Y358454D01*
X20911Y358506D01*
X20887Y358574D01*
X20871Y358644D01*
X20845Y358689D01*
X20827Y358737D01*
X20782Y358793D01*
X20745Y358855D01*
X20706Y358889D01*
X20673Y358929D01*
X20613Y358968D01*
X20558Y359015D01*
X20510Y359034D01*
X20466Y359062D01*
X20397Y359080D01*
X20330Y359107D01*
X20259Y359115D01*
X20228Y359123D01*
X20204Y359121D01*
X20163Y359125D01*
X18181Y359125D01*
X17288Y360018D01*
X17288Y372282D01*
X18181Y373175D01*
X29444Y373175D01*
X29721Y372898D01*
X29795Y372845D01*
X29865Y372785D01*
X29895Y372773D01*
X29921Y372754D01*
X30008Y372727D01*
X30093Y372693D01*
X30134Y372689D01*
X30156Y372682D01*
X30188Y372683D01*
X30259Y372675D01*
X39469Y372675D01*
X40362Y371782D01*
X40362Y360518D01*
X39469Y359625D01*
X31440Y359625D01*
X31350Y359611D01*
X31259Y359603D01*
X31229Y359591D01*
X31197Y359586D01*
X31116Y359543D01*
X31032Y359507D01*
X31000Y359481D01*
X30980Y359470D01*
X30957Y359447D01*
X30901Y359402D01*
X25804Y354305D01*
X25793Y354289D01*
X25777Y354277D01*
X25721Y354189D01*
X25661Y354105D01*
X25655Y354086D01*
X25644Y354070D01*
X25619Y353969D01*
X25588Y353870D01*
X25589Y353850D01*
X25584Y353831D01*
X25592Y353728D01*
X25595Y353625D01*
X25602Y353606D01*
X25603Y353586D01*
X25644Y353491D01*
X25679Y353394D01*
X25692Y353378D01*
X25700Y353360D01*
X25804Y353229D01*
X26162Y352871D01*
X26162Y338779D01*
X24683Y337300D01*
X16592Y337300D01*
G37*
%LPD*%
%LPC*%
G36*
X-2957Y422663D02*
X-2957Y422663D01*
X-3850Y423556D01*
X-3850Y434819D01*
X-3010Y435659D01*
X-2957Y435733D01*
X-2898Y435802D01*
X-2886Y435832D01*
X-2867Y435858D01*
X-2840Y435945D01*
X-2806Y436030D01*
X-2801Y436071D01*
X-2794Y436093D01*
X-2795Y436126D01*
X-2787Y436197D01*
X-2787Y445869D01*
X-1894Y446762D01*
X182Y446762D01*
X201Y446765D01*
X221Y446763D01*
X322Y446785D01*
X424Y446802D01*
X442Y446811D01*
X461Y446816D01*
X550Y446869D01*
X642Y446917D01*
X655Y446931D01*
X672Y446942D01*
X740Y447020D01*
X811Y447095D01*
X819Y447113D01*
X832Y447129D01*
X871Y447225D01*
X915Y447318D01*
X917Y447338D01*
X924Y447357D01*
X943Y447523D01*
X943Y464590D01*
X940Y464610D01*
X942Y464629D01*
X920Y464731D01*
X903Y464833D01*
X894Y464850D01*
X889Y464870D01*
X836Y464959D01*
X788Y465050D01*
X774Y465064D01*
X763Y465081D01*
X685Y465148D01*
X610Y465220D01*
X592Y465228D01*
X576Y465241D01*
X480Y465280D01*
X387Y465323D01*
X367Y465325D01*
X348Y465333D01*
X182Y465351D01*
X-297Y465351D01*
X-2961Y468016D01*
X-2961Y471784D01*
X-297Y474449D01*
X3472Y474449D01*
X6136Y471784D01*
X6136Y469619D01*
X6151Y469529D01*
X6158Y469438D01*
X6171Y469408D01*
X6176Y469376D01*
X6219Y469296D01*
X6254Y469212D01*
X6280Y469180D01*
X6291Y469159D01*
X6314Y469137D01*
X6359Y469081D01*
X6532Y468908D01*
X6532Y447523D01*
X6535Y447504D01*
X6533Y447484D01*
X6555Y447383D01*
X6572Y447281D01*
X6581Y447263D01*
X6586Y447244D01*
X6639Y447155D01*
X6687Y447063D01*
X6701Y447050D01*
X6712Y447033D01*
X6790Y446965D01*
X6865Y446894D01*
X6883Y446886D01*
X6899Y446873D01*
X6995Y446834D01*
X7088Y446790D01*
X7108Y446788D01*
X7127Y446781D01*
X7293Y446762D01*
X9369Y446762D01*
X10262Y445869D01*
X10262Y433512D01*
X10252Y433480D01*
X10218Y433395D01*
X10214Y433354D01*
X10207Y433332D01*
X10208Y433299D01*
X10200Y433228D01*
X10200Y423556D01*
X9307Y422663D01*
X-2957Y422663D01*
G37*
%LPD*%
%LPC*%
G36*
X18181Y376125D02*
X18181Y376125D01*
X17288Y377018D01*
X17288Y386414D01*
X17285Y386434D01*
X17287Y386453D01*
X17265Y386555D01*
X17248Y386657D01*
X17239Y386674D01*
X17234Y386694D01*
X17181Y386783D01*
X17133Y386874D01*
X17119Y386888D01*
X17108Y386905D01*
X17030Y386972D01*
X16955Y387044D01*
X16937Y387052D01*
X16921Y387065D01*
X16825Y387104D01*
X16732Y387147D01*
X16712Y387149D01*
X16693Y387157D01*
X16527Y387175D01*
X12893Y387175D01*
X12000Y388068D01*
X12000Y399332D01*
X12893Y400225D01*
X28157Y400225D01*
X29050Y399332D01*
X29050Y390884D01*
X29064Y390794D01*
X29072Y390703D01*
X29084Y390674D01*
X29089Y390642D01*
X29132Y390561D01*
X29168Y390477D01*
X29194Y390445D01*
X29205Y390424D01*
X29228Y390402D01*
X29273Y390346D01*
X29721Y389898D01*
X29795Y389844D01*
X29865Y389785D01*
X29895Y389773D01*
X29921Y389754D01*
X30008Y389727D01*
X30093Y389693D01*
X30134Y389689D01*
X30156Y389682D01*
X30188Y389683D01*
X30259Y389675D01*
X39469Y389675D01*
X40362Y388782D01*
X40362Y377518D01*
X39469Y376625D01*
X30259Y376625D01*
X30169Y376611D01*
X30078Y376603D01*
X30049Y376591D01*
X30017Y376586D01*
X29936Y376543D01*
X29852Y376507D01*
X29820Y376481D01*
X29799Y376470D01*
X29777Y376447D01*
X29721Y376402D01*
X29444Y376125D01*
X18181Y376125D01*
G37*
%LPD*%
G36*
X150949Y414165D02*
X150949Y414165D01*
X151020Y414174D01*
X151045Y414188D01*
X151073Y414195D01*
X151130Y414237D01*
X151192Y414273D01*
X151210Y414296D01*
X151233Y414313D01*
X151269Y414374D01*
X151312Y414431D01*
X151319Y414459D01*
X151334Y414484D01*
X151351Y414583D01*
X151361Y414624D01*
X151359Y414635D01*
X151362Y414648D01*
X151339Y433688D01*
X151323Y433763D01*
X151315Y433839D01*
X151304Y433860D01*
X151299Y433882D01*
X151255Y433946D01*
X151218Y434013D01*
X151198Y434029D01*
X151186Y434046D01*
X151149Y434070D01*
X151090Y434119D01*
X134613Y443658D01*
X134585Y443668D01*
X134561Y443684D01*
X134492Y443699D01*
X134424Y443722D01*
X134395Y443720D01*
X134367Y443726D01*
X134297Y443712D01*
X134226Y443707D01*
X134200Y443693D01*
X134172Y443688D01*
X134112Y443648D01*
X134049Y443615D01*
X134031Y443593D01*
X134007Y443577D01*
X133949Y443495D01*
X133922Y443462D01*
X133919Y443452D01*
X133911Y443440D01*
X132597Y440670D01*
X132589Y440637D01*
X132568Y440595D01*
X131715Y437650D01*
X131713Y437616D01*
X131699Y437571D01*
X131330Y434527D01*
X131332Y434494D01*
X131326Y434447D01*
X131450Y431383D01*
X131458Y431351D01*
X131460Y431304D01*
X132073Y428299D01*
X132086Y428268D01*
X132095Y428222D01*
X133183Y425355D01*
X133201Y425327D01*
X133217Y425283D01*
X134750Y422627D01*
X134773Y422602D01*
X134796Y422561D01*
X136735Y420186D01*
X136761Y420165D01*
X136791Y420128D01*
X139086Y418095D01*
X139115Y418078D01*
X139150Y418047D01*
X141741Y416408D01*
X141773Y416396D01*
X141813Y416371D01*
X144633Y415169D01*
X144667Y415162D01*
X144710Y415143D01*
X147687Y414410D01*
X147721Y414408D01*
X147766Y414397D01*
X150822Y414150D01*
X150851Y414153D01*
X150880Y414149D01*
X150949Y414165D01*
G37*
G36*
X284320Y-9327D02*
X284320Y-9327D01*
X284349Y-9327D01*
X284443Y-9292D01*
X284484Y-9281D01*
X284492Y-9274D01*
X284505Y-9269D01*
X300982Y270D01*
X301040Y321D01*
X301102Y367D01*
X301114Y387D01*
X301131Y402D01*
X301164Y472D01*
X301203Y538D01*
X301208Y563D01*
X301216Y582D01*
X301218Y626D01*
X301231Y702D01*
X301254Y19741D01*
X301248Y19769D01*
X301251Y19798D01*
X301229Y19866D01*
X301215Y19936D01*
X301198Y19960D01*
X301189Y19987D01*
X301143Y20041D01*
X301102Y20100D01*
X301078Y20116D01*
X301059Y20138D01*
X300995Y20169D01*
X300935Y20207D01*
X300906Y20212D01*
X300880Y20225D01*
X300781Y20234D01*
X300739Y20241D01*
X300728Y20238D01*
X300715Y20239D01*
X297658Y19993D01*
X297626Y19983D01*
X297579Y19980D01*
X294602Y19246D01*
X294571Y19231D01*
X294526Y19220D01*
X291705Y18019D01*
X291677Y17999D01*
X291634Y17981D01*
X289042Y16343D01*
X289018Y16319D01*
X288978Y16294D01*
X286683Y14261D01*
X286663Y14234D01*
X286627Y14203D01*
X284688Y11828D01*
X284672Y11798D01*
X284642Y11762D01*
X283109Y9106D01*
X283099Y9074D01*
X283075Y9034D01*
X281988Y6167D01*
X281982Y6133D01*
X281965Y6090D01*
X281352Y3086D01*
X281352Y3052D01*
X281342Y3006D01*
X281219Y-58D01*
X281224Y-91D01*
X281222Y-138D01*
X281592Y-3182D01*
X281602Y-3214D01*
X281608Y-3261D01*
X282461Y-6206D01*
X282477Y-6236D01*
X282489Y-6281D01*
X283804Y-9051D01*
X283821Y-9074D01*
X283831Y-9102D01*
X283880Y-9153D01*
X283923Y-9210D01*
X283948Y-9225D01*
X283968Y-9246D01*
X284033Y-9274D01*
X284095Y-9310D01*
X284124Y-9314D01*
X284150Y-9325D01*
X284221Y-9326D01*
X284292Y-9335D01*
X284320Y-9327D01*
G37*
G36*
X-299077Y154133D02*
X-299077Y154133D01*
X-299064Y154132D01*
X-296007Y154378D01*
X-295975Y154388D01*
X-295928Y154391D01*
X-292951Y155125D01*
X-292920Y155140D01*
X-292875Y155151D01*
X-290054Y156352D01*
X-290026Y156372D01*
X-289983Y156390D01*
X-287391Y158029D01*
X-287367Y158052D01*
X-287327Y158077D01*
X-285032Y160110D01*
X-285012Y160137D01*
X-284976Y160168D01*
X-283037Y162543D01*
X-283021Y162573D01*
X-282991Y162609D01*
X-281458Y165265D01*
X-281448Y165297D01*
X-281424Y165337D01*
X-280337Y168204D01*
X-280331Y168238D01*
X-280314Y168281D01*
X-279701Y171286D01*
X-279701Y171319D01*
X-279691Y171365D01*
X-279568Y174429D01*
X-279573Y174462D01*
X-279571Y174509D01*
X-279941Y177553D01*
X-279951Y177585D01*
X-279957Y177632D01*
X-280810Y180577D01*
X-280825Y180607D01*
X-280838Y180652D01*
X-282153Y183422D01*
X-282170Y183445D01*
X-282180Y183473D01*
X-282229Y183524D01*
X-282272Y183581D01*
X-282297Y183596D01*
X-282317Y183617D01*
X-282382Y183645D01*
X-282444Y183681D01*
X-282473Y183685D01*
X-282499Y183696D01*
X-282570Y183697D01*
X-282641Y183706D01*
X-282669Y183698D01*
X-282698Y183698D01*
X-282792Y183663D01*
X-282833Y183652D01*
X-282841Y183645D01*
X-282854Y183640D01*
X-299331Y174101D01*
X-299389Y174050D01*
X-299451Y174004D01*
X-299463Y173984D01*
X-299480Y173969D01*
X-299513Y173899D01*
X-299552Y173833D01*
X-299557Y173808D01*
X-299565Y173789D01*
X-299567Y173745D01*
X-299580Y173669D01*
X-299603Y154630D01*
X-299597Y154602D01*
X-299600Y154573D01*
X-299578Y154505D01*
X-299564Y154435D01*
X-299547Y154411D01*
X-299538Y154384D01*
X-299492Y154330D01*
X-299451Y154271D01*
X-299427Y154255D01*
X-299408Y154233D01*
X-299344Y154202D01*
X-299284Y154164D01*
X-299255Y154159D01*
X-299229Y154146D01*
X-299130Y154138D01*
X-299088Y154130D01*
X-299077Y154133D01*
G37*
G36*
X-149072Y414283D02*
X-149072Y414283D01*
X-149059Y414281D01*
X-146003Y414528D01*
X-145970Y414538D01*
X-145923Y414541D01*
X-142946Y415275D01*
X-142916Y415289D01*
X-142870Y415300D01*
X-140049Y416502D01*
X-140021Y416521D01*
X-139978Y416539D01*
X-137387Y418178D01*
X-137362Y418202D01*
X-137322Y418227D01*
X-135027Y420260D01*
X-135007Y420287D01*
X-134972Y420318D01*
X-133032Y422693D01*
X-133017Y422723D01*
X-132987Y422759D01*
X-131454Y425414D01*
X-131443Y425447D01*
X-131419Y425487D01*
X-131004Y426581D01*
X-131004Y426582D01*
X-130815Y427081D01*
X-130625Y427580D01*
X-130436Y428079D01*
X-130332Y428354D01*
X-130326Y428387D01*
X-130310Y428431D01*
X-129696Y431435D01*
X-129696Y431469D01*
X-129687Y431515D01*
X-129563Y434579D01*
X-129569Y434612D01*
X-129566Y434659D01*
X-129936Y437703D01*
X-129947Y437735D01*
X-129952Y437782D01*
X-130805Y440727D01*
X-130821Y440757D01*
X-130834Y440802D01*
X-132148Y443572D01*
X-132165Y443595D01*
X-132175Y443622D01*
X-132225Y443674D01*
X-132267Y443731D01*
X-132292Y443746D01*
X-132312Y443767D01*
X-132378Y443795D01*
X-132439Y443831D01*
X-132468Y443835D01*
X-132495Y443846D01*
X-132566Y443847D01*
X-132637Y443856D01*
X-132664Y443848D01*
X-132693Y443848D01*
X-132787Y443813D01*
X-132828Y443802D01*
X-132836Y443795D01*
X-132849Y443790D01*
X-149326Y434251D01*
X-149384Y434199D01*
X-149446Y434154D01*
X-149458Y434134D01*
X-149475Y434119D01*
X-149508Y434049D01*
X-149548Y433983D01*
X-149552Y433958D01*
X-149561Y433939D01*
X-149563Y433895D01*
X-149576Y433819D01*
X-149598Y414780D01*
X-149593Y414751D01*
X-149595Y414722D01*
X-149573Y414655D01*
X-149559Y414585D01*
X-149543Y414561D01*
X-149534Y414533D01*
X-149487Y414480D01*
X-149447Y414421D01*
X-149422Y414405D01*
X-149403Y414383D01*
X-149339Y414352D01*
X-149279Y414313D01*
X-149251Y414309D01*
X-149225Y414296D01*
X-149125Y414287D01*
X-149083Y414280D01*
X-149072Y414283D01*
G37*
G36*
X-282577Y-9411D02*
X-282577Y-9411D01*
X-282506Y-9405D01*
X-282480Y-9392D01*
X-282451Y-9387D01*
X-282392Y-9347D01*
X-282329Y-9314D01*
X-282311Y-9292D01*
X-282286Y-9275D01*
X-282229Y-9193D01*
X-282202Y-9161D01*
X-282199Y-9150D01*
X-282191Y-9139D01*
X-280877Y-6369D01*
X-280869Y-6336D01*
X-280848Y-6294D01*
X-279995Y-3349D01*
X-279992Y-3315D01*
X-279979Y-3270D01*
X-279609Y-226D01*
X-279612Y-192D01*
X-279606Y-146D01*
X-279730Y2918D01*
X-279738Y2951D01*
X-279739Y2998D01*
X-280353Y6002D01*
X-280366Y6033D01*
X-280375Y6079D01*
X-281462Y8946D01*
X-281480Y8975D01*
X-281497Y9018D01*
X-283030Y11674D01*
X-283052Y11699D01*
X-283076Y11740D01*
X-285015Y14115D01*
X-285041Y14137D01*
X-285070Y14173D01*
X-287365Y16206D01*
X-287395Y16223D01*
X-287430Y16255D01*
X-290021Y17893D01*
X-290053Y17905D01*
X-290092Y17931D01*
X-292913Y19133D01*
X-292946Y19139D01*
X-292989Y19158D01*
X-295966Y19892D01*
X-296000Y19893D01*
X-296046Y19905D01*
X-299102Y20151D01*
X-299131Y20148D01*
X-299159Y20153D01*
X-299229Y20136D01*
X-299299Y20128D01*
X-299325Y20113D01*
X-299353Y20106D01*
X-299410Y20064D01*
X-299472Y20029D01*
X-299489Y20006D01*
X-299513Y19988D01*
X-299549Y19927D01*
X-299592Y19870D01*
X-299599Y19842D01*
X-299614Y19817D01*
X-299630Y19719D01*
X-299641Y19677D01*
X-299639Y19667D01*
X-299641Y19653D01*
X-299619Y614D01*
X-299603Y538D01*
X-299595Y462D01*
X-299583Y442D01*
X-299579Y419D01*
X-299535Y356D01*
X-299498Y288D01*
X-299478Y272D01*
X-299466Y255D01*
X-299429Y231D01*
X-299370Y182D01*
X-282892Y-9357D01*
X-282865Y-9366D01*
X-282841Y-9383D01*
X-282772Y-9398D01*
X-282704Y-9421D01*
X-282675Y-9418D01*
X-282647Y-9424D01*
X-282577Y-9411D01*
G37*
G36*
X300880Y154235D02*
X300880Y154235D01*
X300950Y154243D01*
X300976Y154258D01*
X301004Y154265D01*
X301061Y154307D01*
X301123Y154342D01*
X301140Y154365D01*
X301164Y154383D01*
X301200Y154444D01*
X301243Y154501D01*
X301250Y154529D01*
X301265Y154554D01*
X301281Y154652D01*
X301292Y154694D01*
X301290Y154705D01*
X301292Y154718D01*
X301270Y173757D01*
X301254Y173833D01*
X301246Y173909D01*
X301234Y173929D01*
X301230Y173952D01*
X301186Y174016D01*
X301149Y174083D01*
X301129Y174099D01*
X301117Y174116D01*
X301080Y174140D01*
X301021Y174189D01*
X284543Y183728D01*
X284516Y183737D01*
X284492Y183754D01*
X284423Y183769D01*
X284355Y183792D01*
X284326Y183789D01*
X284298Y183795D01*
X284228Y183782D01*
X284157Y183776D01*
X284131Y183763D01*
X284102Y183758D01*
X284043Y183718D01*
X283980Y183685D01*
X283962Y183663D01*
X283937Y183646D01*
X283880Y183564D01*
X283853Y183532D01*
X283850Y183521D01*
X283842Y183510D01*
X282528Y180740D01*
X282520Y180707D01*
X282499Y180665D01*
X281646Y177720D01*
X281643Y177686D01*
X281630Y177641D01*
X281260Y174597D01*
X281263Y174563D01*
X281257Y174517D01*
X281381Y171453D01*
X281389Y171420D01*
X281390Y171373D01*
X282004Y168369D01*
X282017Y168338D01*
X282026Y168292D01*
X283113Y165425D01*
X283131Y165396D01*
X283148Y165353D01*
X284681Y162697D01*
X284703Y162672D01*
X284727Y162631D01*
X286666Y160256D01*
X286692Y160234D01*
X286721Y160198D01*
X289016Y158165D01*
X289046Y158148D01*
X289081Y158116D01*
X291672Y156478D01*
X291704Y156466D01*
X291743Y156440D01*
X294564Y155238D01*
X294597Y155232D01*
X294640Y155213D01*
X297617Y154479D01*
X297651Y154478D01*
X297697Y154466D01*
X300753Y154220D01*
X300782Y154223D01*
X300810Y154218D01*
X300880Y154235D01*
G37*
G36*
X2379Y500856D02*
X2379Y500856D01*
X2426Y500855D01*
X5452Y501347D01*
X5484Y501359D01*
X5530Y501366D01*
X8439Y502337D01*
X8468Y502354D01*
X8512Y502369D01*
X11227Y503794D01*
X11254Y503815D01*
X11295Y503837D01*
X13747Y505679D01*
X13769Y505704D01*
X13807Y505732D01*
X15931Y507943D01*
X15949Y507972D01*
X15982Y508005D01*
X17723Y510529D01*
X17735Y510556D01*
X17753Y510578D01*
X17774Y510646D01*
X17801Y510712D01*
X17802Y510741D01*
X17810Y510768D01*
X17802Y510840D01*
X17802Y510911D01*
X17791Y510937D01*
X17788Y510966D01*
X17753Y511028D01*
X17725Y511094D01*
X17704Y511114D01*
X17690Y511139D01*
X17613Y511203D01*
X17582Y511233D01*
X17572Y511237D01*
X17562Y511245D01*
X1062Y520745D01*
X989Y520769D01*
X918Y520800D01*
X895Y520801D01*
X873Y520808D01*
X796Y520802D01*
X719Y520803D01*
X695Y520794D01*
X675Y520792D01*
X635Y520772D01*
X563Y520745D01*
X-15937Y511245D01*
X-15958Y511226D01*
X-15985Y511214D01*
X-16032Y511161D01*
X-16086Y511114D01*
X-16098Y511088D01*
X-16118Y511066D01*
X-16141Y510999D01*
X-16172Y510934D01*
X-16173Y510905D01*
X-16182Y510878D01*
X-16178Y510807D01*
X-16181Y510736D01*
X-16171Y510709D01*
X-16169Y510680D01*
X-16126Y510589D01*
X-16112Y510549D01*
X-16104Y510541D01*
X-16098Y510529D01*
X-14357Y508005D01*
X-14332Y507982D01*
X-14306Y507943D01*
X-12182Y505732D01*
X-12154Y505713D01*
X-12122Y505679D01*
X-9670Y503837D01*
X-9640Y503822D01*
X-9602Y503794D01*
X-6887Y502369D01*
X-6855Y502359D01*
X-6814Y502337D01*
X-3905Y501366D01*
X-3871Y501362D01*
X-3827Y501347D01*
X-801Y500855D01*
X-767Y500857D01*
X-721Y500849D01*
X2346Y500849D01*
X2379Y500856D01*
G37*
%LPC*%
G36*
X41992Y337300D02*
X41992Y337300D01*
X40513Y338779D01*
X40513Y352871D01*
X41992Y354350D01*
X42228Y354350D01*
X42247Y354353D01*
X42267Y354351D01*
X42368Y354373D01*
X42470Y354389D01*
X42488Y354399D01*
X42507Y354403D01*
X42596Y354456D01*
X42688Y354505D01*
X42701Y354519D01*
X42718Y354529D01*
X42786Y354608D01*
X42857Y354683D01*
X42865Y354701D01*
X42878Y354716D01*
X42917Y354812D01*
X42961Y354906D01*
X42963Y354926D01*
X42970Y354944D01*
X42989Y355111D01*
X42989Y359402D01*
X42974Y359492D01*
X42967Y359583D01*
X42954Y359613D01*
X42949Y359645D01*
X42906Y359726D01*
X42871Y359809D01*
X42845Y359842D01*
X42834Y359862D01*
X42811Y359884D01*
X42766Y359940D01*
X42188Y360518D01*
X42188Y371782D01*
X43081Y372675D01*
X55344Y372675D01*
X56237Y371782D01*
X56237Y360518D01*
X55344Y359625D01*
X49847Y359625D01*
X49828Y359622D01*
X49808Y359624D01*
X49707Y359602D01*
X49605Y359586D01*
X49587Y359576D01*
X49568Y359572D01*
X49479Y359519D01*
X49387Y359470D01*
X49374Y359456D01*
X49357Y359446D01*
X49289Y359367D01*
X49218Y359292D01*
X49210Y359274D01*
X49197Y359259D01*
X49158Y359163D01*
X49114Y359069D01*
X49112Y359049D01*
X49105Y359031D01*
X49086Y358864D01*
X49086Y355111D01*
X49089Y355091D01*
X49087Y355072D01*
X49109Y354970D01*
X49126Y354868D01*
X49135Y354851D01*
X49140Y354831D01*
X49193Y354742D01*
X49241Y354651D01*
X49255Y354637D01*
X49266Y354620D01*
X49344Y354553D01*
X49419Y354481D01*
X49437Y354473D01*
X49453Y354460D01*
X49549Y354421D01*
X49642Y354378D01*
X49662Y354376D01*
X49681Y354368D01*
X49847Y354350D01*
X50083Y354350D01*
X51562Y352871D01*
X51562Y338779D01*
X50083Y337300D01*
X41992Y337300D01*
G37*
%LPD*%
%LPC*%
G36*
X-18332Y422163D02*
X-18332Y422163D01*
X-19225Y423056D01*
X-19225Y432728D01*
X-19239Y432818D01*
X-19247Y432909D01*
X-19259Y432939D01*
X-19264Y432971D01*
X-19307Y433051D01*
X-19343Y433135D01*
X-19369Y433168D01*
X-19380Y433188D01*
X-19403Y433210D01*
X-19448Y433266D01*
X-19787Y433606D01*
X-19787Y445869D01*
X-18894Y446762D01*
X-7631Y446762D01*
X-6738Y445869D01*
X-6738Y436197D01*
X-6723Y436107D01*
X-6716Y436016D01*
X-6703Y435986D01*
X-6698Y435954D01*
X-6655Y435873D01*
X-6620Y435790D01*
X-6594Y435757D01*
X-6583Y435737D01*
X-6560Y435715D01*
X-6515Y435659D01*
X-6175Y435319D01*
X-6175Y423056D01*
X-7068Y422163D01*
X-18332Y422163D01*
G37*
%LPD*%
%LPC*%
G36*
X75893Y410400D02*
X75893Y410400D01*
X75000Y411293D01*
X75000Y420557D01*
X75893Y421450D01*
X85157Y421450D01*
X86050Y420557D01*
X86050Y411293D01*
X85157Y410400D01*
X75893Y410400D01*
G37*
%LPD*%
%LPC*%
G36*
X-27277Y346598D02*
X-27277Y346598D01*
X-27277Y353616D01*
X-27251Y353616D01*
X-27231Y353619D01*
X-27211Y353617D01*
X-27110Y353639D01*
X-27008Y353655D01*
X-26990Y353665D01*
X-26971Y353669D01*
X-26882Y353722D01*
X-26790Y353771D01*
X-26777Y353785D01*
X-26760Y353795D01*
X-26692Y353874D01*
X-26621Y353949D01*
X-26613Y353967D01*
X-26600Y353982D01*
X-26561Y354078D01*
X-26517Y354172D01*
X-26515Y354192D01*
X-26508Y354210D01*
X-26489Y354377D01*
X-26489Y357252D01*
X-19972Y357252D01*
X-19972Y353441D01*
X-20145Y352794D01*
X-20479Y352215D01*
X-20952Y351742D01*
X-21532Y351407D01*
X-21695Y351364D01*
X-21735Y351346D01*
X-21778Y351336D01*
X-21847Y351295D01*
X-21920Y351262D01*
X-21952Y351233D01*
X-21989Y351210D01*
X-22041Y351149D01*
X-22100Y351095D01*
X-22121Y351057D01*
X-22149Y351023D01*
X-22179Y350949D01*
X-22217Y350879D01*
X-22225Y350836D01*
X-22241Y350795D01*
X-22257Y350650D01*
X-22260Y350637D01*
X-22259Y350633D01*
X-22260Y350628D01*
X-22260Y346598D01*
X-27277Y346598D01*
G37*
%LPD*%
%LPC*%
G36*
X-35341Y346598D02*
X-35341Y346598D01*
X-35341Y350923D01*
X-35225Y351356D01*
X-35218Y351423D01*
X-35202Y351489D01*
X-35206Y351545D01*
X-35201Y351601D01*
X-35216Y351667D01*
X-35221Y351734D01*
X-35243Y351786D01*
X-35255Y351841D01*
X-35291Y351898D01*
X-35317Y351960D01*
X-35367Y352022D01*
X-35384Y352050D01*
X-35400Y352064D01*
X-35422Y352091D01*
X-35546Y352215D01*
X-35880Y352794D01*
X-36053Y353441D01*
X-36053Y357252D01*
X-29536Y357252D01*
X-29536Y351234D01*
X-29562Y351234D01*
X-29582Y351231D01*
X-29602Y351233D01*
X-29703Y351211D01*
X-29805Y351195D01*
X-29823Y351185D01*
X-29842Y351181D01*
X-29931Y351128D01*
X-30022Y351079D01*
X-30036Y351065D01*
X-30053Y351055D01*
X-30121Y350976D01*
X-30192Y350901D01*
X-30200Y350883D01*
X-30213Y350868D01*
X-30252Y350772D01*
X-30295Y350678D01*
X-30298Y350658D01*
X-30305Y350640D01*
X-30323Y350473D01*
X-30323Y346598D01*
X-35341Y346598D01*
G37*
%LPD*%
%LPC*%
G36*
X-11016Y385723D02*
X-11016Y385723D01*
X-11016Y385962D01*
X-11019Y385982D01*
X-11017Y386001D01*
X-11039Y386103D01*
X-11055Y386205D01*
X-11065Y386222D01*
X-11069Y386242D01*
X-11122Y386331D01*
X-11171Y386422D01*
X-11177Y386428D01*
X-11177Y392741D01*
X-6866Y392741D01*
X-6219Y392568D01*
X-5640Y392233D01*
X-5371Y391964D01*
X-5297Y391911D01*
X-5227Y391851D01*
X-5197Y391839D01*
X-5171Y391820D01*
X-5084Y391793D01*
X-4999Y391759D01*
X-4958Y391755D01*
X-4936Y391748D01*
X-4904Y391749D01*
X-4832Y391741D01*
X-2998Y391741D01*
X-2998Y385723D01*
X-11016Y385723D01*
G37*
%LPD*%
%LPC*%
G36*
X48Y385723D02*
X48Y385723D01*
X48Y391741D01*
X5859Y391741D01*
X6506Y391568D01*
X7085Y391233D01*
X7558Y390760D01*
X7893Y390181D01*
X8066Y389534D01*
X8066Y385723D01*
X48Y385723D01*
G37*
%LPD*%
%LPC*%
G36*
X48Y376659D02*
X48Y376659D01*
X48Y382677D01*
X8066Y382677D01*
X8066Y378866D01*
X7893Y378219D01*
X7558Y377640D01*
X7085Y377167D01*
X6506Y376832D01*
X5859Y376659D01*
X48Y376659D01*
G37*
%LPD*%
%LPC*%
G36*
X-20741Y386723D02*
X-20741Y386723D01*
X-20741Y390534D01*
X-20568Y391181D01*
X-20233Y391760D01*
X-19760Y392233D01*
X-19181Y392568D01*
X-18534Y392741D01*
X-14223Y392741D01*
X-14223Y386723D01*
X-20741Y386723D01*
G37*
%LPD*%
%LPC*%
G36*
X-23877Y475161D02*
X-23877Y475161D01*
X-23877Y481678D01*
X-20065Y481678D01*
X-19419Y481505D01*
X-18840Y481171D01*
X-18367Y480698D01*
X-18032Y480118D01*
X-17859Y479472D01*
X-17859Y475161D01*
X-23877Y475161D01*
G37*
%LPD*%
%LPC*%
G36*
X-23877Y465597D02*
X-23877Y465597D01*
X-23877Y472114D01*
X-17859Y472114D01*
X-17859Y467803D01*
X-18032Y467157D01*
X-18367Y466577D01*
X-18840Y466104D01*
X-19419Y465770D01*
X-20066Y465597D01*
X-23877Y465597D01*
G37*
%LPD*%
%LPC*%
G36*
X-32649Y336534D02*
X-32649Y336534D01*
X-33437Y336746D01*
X-34144Y337154D01*
X-34722Y337731D01*
X-35130Y338438D01*
X-35341Y339227D01*
X-35341Y343552D01*
X-30323Y343552D01*
X-30323Y336534D01*
X-32649Y336534D01*
G37*
%LPD*%
%LPC*%
G36*
X-27277Y336534D02*
X-27277Y336534D01*
X-27277Y343552D01*
X-22260Y343552D01*
X-22260Y339227D01*
X-22471Y338438D01*
X-22879Y337731D01*
X-23456Y337154D01*
X-24163Y336746D01*
X-24952Y336534D01*
X-27277Y336534D01*
G37*
%LPD*%
%LPC*%
G36*
X67048Y417448D02*
X67048Y417448D01*
X67048Y422466D01*
X69859Y422466D01*
X70506Y422293D01*
X71085Y421958D01*
X71558Y421485D01*
X71893Y420906D01*
X72066Y420259D01*
X72066Y417448D01*
X67048Y417448D01*
G37*
%LPD*%
%LPC*%
G36*
X67048Y414402D02*
X67048Y414402D01*
X72066Y414402D01*
X72066Y411591D01*
X71893Y410944D01*
X71558Y410365D01*
X71085Y409892D01*
X70506Y409557D01*
X69859Y409384D01*
X67048Y409384D01*
X67048Y414402D01*
G37*
%LPD*%
%LPC*%
G36*
X58984Y417448D02*
X58984Y417448D01*
X58984Y420259D01*
X59157Y420906D01*
X59492Y421485D01*
X59965Y421958D01*
X60544Y422293D01*
X61191Y422466D01*
X64002Y422466D01*
X64002Y417448D01*
X58984Y417448D01*
G37*
%LPD*%
%LPC*%
G36*
X61191Y409384D02*
X61191Y409384D01*
X60544Y409557D01*
X59965Y409892D01*
X59492Y410365D01*
X59157Y410944D01*
X58984Y411591D01*
X58984Y414402D01*
X64002Y414402D01*
X64002Y409384D01*
X61191Y409384D01*
G37*
%LPD*%
%LPC*%
G36*
X-1476Y384199D02*
X-1476Y384199D01*
X-1476Y384201D01*
X-1474Y384201D01*
X-1474Y384199D01*
X-1476Y384199D01*
G37*
%LPD*%
%LPC*%
G36*
X-28801Y345074D02*
X-28801Y345074D01*
X-28801Y345076D01*
X-28799Y345076D01*
X-28799Y345074D01*
X-28801Y345074D01*
G37*
%LPD*%
%LPC*%
G36*
X65524Y415924D02*
X65524Y415924D01*
X65524Y415926D01*
X65526Y415926D01*
X65526Y415924D01*
X65524Y415924D01*
G37*
%LPD*%
D10*
X80525Y415925D03*
X65525Y415925D03*
D11*
X-90488Y411163D03*
D12*
X-25400Y456638D03*
X-25400Y473638D03*
D13*
X96838Y334963D03*
X96838Y360363D03*
X96838Y385763D03*
D12*
X-10088Y87313D03*
X6913Y87313D03*
D14*
X-50760Y276635D02*
X-50760Y287515D01*
X-50760Y276635D02*
X-57640Y276635D01*
X-57640Y287515D01*
X-50760Y287515D01*
X-50760Y277699D02*
X-57640Y277699D01*
X-57640Y278763D02*
X-50760Y278763D01*
X-50760Y279827D02*
X-57640Y279827D01*
X-57640Y280891D02*
X-50760Y280891D01*
X-50760Y281955D02*
X-57640Y281955D01*
X-57640Y283019D02*
X-50760Y283019D01*
X-50760Y284083D02*
X-57640Y284083D01*
X-57640Y285147D02*
X-50760Y285147D01*
X-50760Y286211D02*
X-57640Y286211D01*
X-57640Y287275D02*
X-50760Y287275D01*
X-25360Y287515D02*
X-25360Y276635D01*
X-32240Y276635D01*
X-32240Y287515D01*
X-25360Y287515D01*
X-25360Y277699D02*
X-32240Y277699D01*
X-32240Y278763D02*
X-25360Y278763D01*
X-25360Y279827D02*
X-32240Y279827D01*
X-32240Y280891D02*
X-25360Y280891D01*
X-25360Y281955D02*
X-32240Y281955D01*
X-32240Y283019D02*
X-25360Y283019D01*
X-25360Y284083D02*
X-32240Y284083D01*
X-32240Y285147D02*
X-25360Y285147D01*
X-25360Y286211D02*
X-32240Y286211D01*
X-32240Y287275D02*
X-25360Y287275D01*
X-25360Y339635D02*
X-25360Y350515D01*
X-25360Y339635D02*
X-32240Y339635D01*
X-32240Y350515D01*
X-25360Y350515D01*
X-25360Y340699D02*
X-32240Y340699D01*
X-32240Y341763D02*
X-25360Y341763D01*
X-25360Y342827D02*
X-32240Y342827D01*
X-32240Y343891D02*
X-25360Y343891D01*
X-25360Y344955D02*
X-32240Y344955D01*
X-32240Y346019D02*
X-25360Y346019D01*
X-25360Y347083D02*
X-32240Y347083D01*
X-32240Y348147D02*
X-25360Y348147D01*
X-25360Y349211D02*
X-32240Y349211D01*
X-32240Y350275D02*
X-25360Y350275D01*
X-50760Y350515D02*
X-50760Y339635D01*
X-57640Y339635D01*
X-57640Y350515D01*
X-50760Y350515D01*
X-50760Y340699D02*
X-57640Y340699D01*
X-57640Y341763D02*
X-50760Y341763D01*
X-50760Y342827D02*
X-57640Y342827D01*
X-57640Y343891D02*
X-50760Y343891D01*
X-50760Y344955D02*
X-57640Y344955D01*
X-57640Y346019D02*
X-50760Y346019D01*
X-50760Y347083D02*
X-57640Y347083D01*
X-57640Y348147D02*
X-50760Y348147D01*
X-50760Y349211D02*
X-57640Y349211D01*
X-57640Y350275D02*
X-50760Y350275D01*
D15*
X43038Y351825D02*
X43038Y339825D01*
X43038Y351825D02*
X49038Y351825D01*
X49038Y339825D01*
X43038Y339825D01*
X43038Y341725D02*
X49038Y341725D01*
X49038Y343625D02*
X43038Y343625D01*
X43038Y345525D02*
X49038Y345525D01*
X49038Y347425D02*
X43038Y347425D01*
X43038Y349325D02*
X49038Y349325D01*
X49038Y351225D02*
X43038Y351225D01*
X17638Y351825D02*
X17638Y339825D01*
X17638Y351825D02*
X23638Y351825D01*
X23638Y339825D01*
X17638Y339825D01*
X17638Y341725D02*
X23638Y341725D01*
X23638Y343625D02*
X17638Y343625D01*
X17638Y345525D02*
X23638Y345525D01*
X23638Y347425D02*
X17638Y347425D01*
X17638Y349325D02*
X23638Y349325D01*
X23638Y351225D02*
X17638Y351225D01*
X17638Y288825D02*
X17638Y276825D01*
X17638Y288825D02*
X23638Y288825D01*
X23638Y276825D01*
X17638Y276825D01*
X17638Y278725D02*
X23638Y278725D01*
X23638Y280625D02*
X17638Y280625D01*
X17638Y282525D02*
X23638Y282525D01*
X23638Y284425D02*
X17638Y284425D01*
X17638Y286325D02*
X23638Y286325D01*
X23638Y288225D02*
X17638Y288225D01*
X43038Y288825D02*
X43038Y276825D01*
X43038Y288825D02*
X49038Y288825D01*
X49038Y276825D01*
X43038Y276825D01*
X43038Y278725D02*
X49038Y278725D01*
X49038Y280625D02*
X43038Y280625D01*
X43038Y282525D02*
X49038Y282525D01*
X49038Y284425D02*
X43038Y284425D01*
X43038Y286325D02*
X49038Y286325D01*
X49038Y288225D02*
X43038Y288225D01*
D16*
X6913Y96838D03*
X-10088Y96838D03*
D12*
X-12700Y412188D03*
X-12700Y429188D03*
D17*
X20525Y393700D03*
X-1475Y384200D03*
X-1475Y403200D03*
D16*
X33338Y383150D03*
X33338Y366150D03*
X3175Y412188D03*
X3175Y429188D03*
D12*
X23813Y366150D03*
X23813Y383150D03*
X-72000Y358775D03*
X-55000Y358775D03*
D16*
X-45013Y358775D03*
X-28013Y358775D03*
X49213Y366150D03*
X49213Y383150D03*
D12*
X-13263Y439738D03*
X3738Y439738D03*
D18*
X813Y512313D03*
X143911Y429687D03*
X-70188Y471213D03*
X72313Y470813D03*
X143835Y346351D03*
X-142148Y429819D03*
X-141957Y347090D03*
X-292153Y169669D03*
X-292191Y4614D03*
X-220238Y211353D03*
X293804Y4702D03*
X293842Y169757D03*
X222733Y210898D03*
D19*
X-76200Y198438D03*
X76300Y198438D03*
D20*
X-105283Y90742D03*
X-155067Y115634D03*
D21*
X112713Y-46038D03*
D22*
X61913Y-46038D03*
D21*
X-63713Y-46038D03*
D22*
X-114513Y-46038D03*
D16*
X-12700Y402200D03*
X-12700Y385200D03*
D23*
X-25400Y97513D03*
D24*
X0Y203513D03*
D23*
X25400Y97513D03*
D25*
X22225Y439738D03*
X26988Y423863D03*
X93663Y419100D03*
X131763Y392113D03*
X-106363Y392113D03*
X-103188Y427038D03*
X-90488Y333375D03*
X-4763Y328613D03*
X80963Y325438D03*
X73025Y365125D03*
X-11113Y487363D03*
X15875Y487363D03*
D26*
X-12700Y385200D02*
X-21814Y385200D01*
X-24388Y387775D01*
X-27412Y387775D01*
X-46038Y406400D01*
X-1475Y384200D02*
X6350Y376375D01*
X6350Y357188D01*
X-11700Y384200D02*
X-12700Y385200D01*
X-11700Y384200D02*
X-1475Y384200D01*
D27*
X-28013Y358775D02*
X-28013Y345863D01*
X-28800Y345075D01*
D26*
X-900Y512313D02*
X2541Y512313D01*
X8456Y508898D01*
X13403Y506042D01*
X35153Y493485D01*
X41275Y487363D01*
X41275Y450850D01*
X50800Y441325D01*
X125499Y441325D02*
X141527Y432071D01*
X143911Y429687D01*
X-900Y512313D02*
X-29883Y495580D01*
X-121108Y442913D02*
X-139908Y432059D01*
X-142148Y429819D01*
X-37273Y488189D02*
X-29883Y495580D01*
D28*
X-72000Y358775D02*
X-98425Y358775D01*
X-144463Y404813D01*
X-144463Y427504D01*
X-142148Y429819D01*
X90831Y396431D02*
X105887Y396431D01*
X141527Y432071D01*
X77551Y383150D02*
X49213Y383150D01*
X77551Y383150D02*
X90831Y396431D01*
D26*
X-37273Y457813D02*
X-37273Y488189D01*
X-37273Y457813D02*
X-52174Y442913D01*
X-121108Y442913D01*
X50800Y441325D02*
X57261Y441325D01*
X59176Y439410D01*
X66104Y439410D01*
X68019Y441325D01*
X125499Y441325D01*
D25*
X-72000Y358775D03*
D29*
X813Y512313D02*
X7132Y512313D01*
X13403Y506042D01*
D30*
X-45635Y461277D03*
D31*
X-60252Y461277D01*
X-70188Y471213D01*
D32*
X80525Y415925D03*
D31*
X-25400Y456638D02*
X-26561Y456638D01*
X-32911Y450288D01*
X-35459Y450288D01*
X-49438Y436309D01*
X-65342Y436309D02*
X-90488Y411163D01*
X-65342Y436309D02*
X-49438Y436309D01*
D30*
X-32911Y450288D03*
D31*
X96838Y360363D02*
X96838Y334963D01*
X117937Y346351D02*
X143835Y346351D01*
X117937Y346351D02*
X117456Y346832D01*
D30*
X117456Y346832D03*
X62640Y447772D03*
D31*
X72313Y457444D01*
X72313Y470813D01*
X-64460Y352223D02*
X-65948Y350735D01*
X-138313Y350735D02*
X-141957Y347090D01*
X-138313Y350735D02*
X-65948Y350735D01*
X-64460Y352223D02*
X-64460Y363407D01*
X-54269Y373599D01*
D30*
X-15343Y374650D03*
D31*
X-16395Y373599D01*
X-54269Y373599D01*
D30*
X-69448Y377825D03*
D31*
X-29440Y377825D01*
X-27852Y379413D01*
D30*
X-27852Y379413D03*
D25*
X-25400Y93688D03*
D33*
X-25400Y97513D01*
D34*
X76200Y257175D03*
X76200Y241300D03*
X76200Y225425D03*
X76200Y211138D03*
X76200Y195263D03*
X76200Y179388D03*
X76200Y165100D03*
X76200Y150813D03*
X76200Y138113D03*
X-74613Y139700D03*
X-74613Y155575D03*
X-74613Y171450D03*
X-74613Y185738D03*
X-74613Y201613D03*
X-74613Y217488D03*
X-74613Y231775D03*
X-74613Y246063D03*
X-74613Y258763D03*
X157163Y141288D03*
X173038Y141288D03*
X188913Y141288D03*
X203200Y141288D03*
X219075Y141288D03*
X234950Y141288D03*
X249238Y141288D03*
X263525Y141288D03*
X276225Y141288D03*
X157163Y120650D03*
X173038Y120650D03*
X188913Y120650D03*
X203200Y120650D03*
X219075Y120650D03*
X234950Y120650D03*
X249238Y120650D03*
X263525Y120650D03*
X276225Y120650D03*
X157163Y100013D03*
X173038Y100013D03*
X188913Y100013D03*
X203200Y100013D03*
X219075Y100013D03*
X234950Y100013D03*
X249238Y100013D03*
X263525Y100013D03*
X276225Y100013D03*
X157163Y79375D03*
X173038Y79375D03*
X188913Y79375D03*
X203200Y79375D03*
X219075Y79375D03*
X234950Y79375D03*
X249238Y79375D03*
X263525Y79375D03*
X276225Y79375D03*
X157163Y58738D03*
X173038Y58738D03*
X188913Y58738D03*
X203200Y58738D03*
X219075Y58738D03*
X234950Y58738D03*
X249238Y58738D03*
X263525Y58738D03*
X276225Y58738D03*
X157163Y38100D03*
X173038Y38100D03*
X188913Y38100D03*
X203200Y38100D03*
X219075Y38100D03*
X234950Y38100D03*
X249238Y38100D03*
X263525Y38100D03*
X276225Y38100D03*
X157163Y17463D03*
X173038Y17463D03*
X188913Y17463D03*
X203200Y17463D03*
X219075Y17463D03*
X234950Y17463D03*
X249238Y17463D03*
X263525Y17463D03*
X157163Y-3175D03*
X173038Y-3175D03*
X188913Y-3175D03*
X203200Y-3175D03*
X219075Y-3175D03*
X234950Y-3175D03*
X249238Y-3175D03*
X263525Y-3175D03*
X157163Y201613D03*
X173038Y201613D03*
X157163Y180975D03*
X173038Y180975D03*
X188913Y180975D03*
X203200Y180975D03*
X157163Y160338D03*
X173038Y160338D03*
X188913Y160338D03*
X203200Y160338D03*
X219075Y160338D03*
X234950Y160338D03*
X249238Y157163D03*
X217488Y174625D03*
X184150Y193675D03*
X-44450Y182563D03*
X-28575Y182563D03*
X-12700Y182563D03*
X1588Y182563D03*
X17463Y182563D03*
X33338Y182563D03*
X47625Y182563D03*
X-44450Y161925D03*
X-28575Y161925D03*
X-12700Y161925D03*
X1588Y161925D03*
X17463Y161925D03*
X33338Y161925D03*
X47625Y161925D03*
X-44450Y223838D03*
X-28575Y223838D03*
X-12700Y223838D03*
X1588Y223838D03*
X17463Y223838D03*
X33338Y223838D03*
X47625Y223838D03*
X-44450Y203200D03*
X-28575Y203200D03*
X-12700Y203200D03*
X1588Y203200D03*
X17463Y203200D03*
X33338Y203200D03*
X47625Y203200D03*
X-44450Y244475D03*
X-28575Y244475D03*
X-12700Y244475D03*
X1588Y244475D03*
X17463Y244475D03*
X33338Y244475D03*
X47625Y244475D03*
X-247650Y141288D03*
X-231775Y141288D03*
X-215900Y141288D03*
X-201613Y141288D03*
X-187325Y141288D03*
X-174625Y141288D03*
X-261938Y120650D03*
X-247650Y120650D03*
X-231775Y120650D03*
X-215900Y120650D03*
X-201613Y120650D03*
X-187325Y120650D03*
X-174625Y120650D03*
X-261938Y100013D03*
X-247650Y100013D03*
X-231775Y100013D03*
X-215900Y100013D03*
X-201613Y100013D03*
X-187325Y100013D03*
X-174625Y100013D03*
X-261938Y79375D03*
X-247650Y79375D03*
X-231775Y79375D03*
X-215900Y79375D03*
X-201613Y79375D03*
X-187325Y79375D03*
X-174625Y79375D03*
X-261938Y58738D03*
X-247650Y58738D03*
X-231775Y58738D03*
X-215900Y58738D03*
X-201613Y58738D03*
X-187325Y58738D03*
X-174625Y58738D03*
X-247650Y38100D03*
X-231775Y38100D03*
X-215900Y38100D03*
X-201613Y38100D03*
X-187325Y38100D03*
X-174625Y38100D03*
X-231775Y17463D03*
X-215900Y17463D03*
X-201613Y17463D03*
X-187325Y17463D03*
X-174625Y17463D03*
X-233363Y1588D03*
X-215900Y-3175D03*
X-201613Y-3175D03*
X-187325Y-3175D03*
X-174625Y-3175D03*
D25*
X20638Y284225D03*
D27*
X6913Y96838D02*
X6913Y87313D01*
X6913Y96838D02*
X24725Y96838D01*
X25400Y97513D01*
D25*
X25400Y97513D03*
D27*
X20638Y282825D02*
X20638Y284225D01*
D35*
X46038Y284225D02*
X125089Y284225D01*
X131501Y277813D01*
D32*
X131501Y277813D03*
D27*
X46038Y282825D02*
X46038Y284225D01*
D28*
X23813Y390413D02*
X20525Y393700D01*
X23813Y390413D02*
X23813Y384175D01*
X23813Y383150D01*
X24838Y383150D02*
X33338Y383150D01*
X24838Y383150D02*
X23813Y384175D01*
X-12700Y402200D02*
X-12700Y412188D01*
X-2475Y402200D02*
X-1475Y403200D01*
X-2475Y402200D02*
X-12700Y402200D01*
X-1475Y407538D02*
X3175Y412188D01*
X-1475Y407538D02*
X-1475Y403200D01*
X20638Y353450D02*
X20638Y344425D01*
X20638Y353450D02*
X33338Y366150D01*
X23813Y366150D01*
D27*
X20638Y345825D02*
X20638Y344425D01*
D35*
X-54200Y346075D02*
X-55000Y346875D01*
X-55000Y358775D01*
X-45013Y358775D01*
D32*
X-8021Y373063D03*
D35*
X-9056Y373063D01*
X-13037Y369082D01*
X-34706Y369082D02*
X-45013Y358775D01*
X-34706Y369082D02*
X-13037Y369082D01*
D27*
X-54200Y346075D02*
X-54200Y345075D01*
D25*
X-54200Y282075D03*
X-74790Y287112D03*
D28*
X-65040Y296863D01*
X-43588Y296863D01*
D25*
X-28800Y282075D03*
D28*
X-43588Y296863D01*
X3175Y439175D02*
X3738Y439738D01*
X3175Y439175D02*
X3175Y429188D01*
D32*
X1588Y469900D03*
D35*
X3738Y467750D01*
X3738Y439738D01*
D28*
X49213Y366150D02*
X46038Y362975D01*
X46038Y345825D01*
X46038Y344425D01*
X-13263Y429750D02*
X-13263Y439738D01*
X-13263Y429750D02*
X-12700Y429188D01*
M02*
