G04 EAGLE Gerber RS-274X export*
G75*
%MOMM*%
%FSLAX34Y34*%
%LPD*%
%INSilkscreen Bottom*%
%IPPOS*%
%AMOC8*
5,1,8,0,0,1.08239X$1,22.5*%
G01*
%ADD10C,0.101600*%
%ADD11C,0.152400*%
%ADD12R,3.644900X0.012700*%
%ADD13R,3.695700X0.012700*%
%ADD14R,3.721100X0.012700*%
%ADD15R,3.746500X0.012700*%
%ADD16R,3.771900X0.012700*%
%ADD17R,3.784600X0.012700*%
%ADD18R,3.797300X0.012700*%
%ADD19R,3.733800X0.012700*%
%ADD20R,3.670300X0.012700*%
%ADD21R,3.657600X0.012700*%
%ADD22R,3.632200X0.012700*%
%ADD23R,0.279400X0.012700*%
%ADD24R,0.266700X0.012700*%
%ADD25R,0.292100X0.012700*%
%ADD26R,0.012700X0.012700*%
%ADD27R,0.038100X0.012700*%
%ADD28R,0.063500X0.012700*%
%ADD29R,0.076200X0.012700*%
%ADD30R,0.101600X0.012700*%
%ADD31R,0.114300X0.012700*%
%ADD32R,0.139700X0.012700*%
%ADD33R,0.165100X0.012700*%
%ADD34R,0.177800X0.012700*%
%ADD35R,0.190500X0.012700*%
%ADD36R,0.215900X0.012700*%
%ADD37R,0.241300X0.012700*%
%ADD38R,0.254000X0.012700*%
%ADD39R,0.228600X0.012700*%
%ADD40R,0.152400X0.012700*%
%ADD41R,0.127000X0.012700*%
%ADD42R,0.203200X0.012700*%
%ADD43R,0.317500X0.012700*%
%ADD44R,0.355600X0.012700*%
%ADD45R,0.381000X0.012700*%
%ADD46R,0.533400X0.012700*%
%ADD47R,0.546100X0.012700*%
%ADD48R,0.368300X0.012700*%
%ADD49R,0.330200X0.012700*%
%ADD50R,0.304800X0.012700*%
%ADD51R,0.050800X0.012700*%
%ADD52R,0.508000X0.012700*%
%ADD53R,0.495300X0.012700*%
%ADD54R,0.469900X0.012700*%
%ADD55R,0.457200X0.012700*%
%ADD56R,0.444500X0.012700*%
%ADD57R,0.431800X0.012700*%
%ADD58R,0.419100X0.012700*%
%ADD59R,0.406400X0.012700*%
%ADD60R,0.393700X0.012700*%
%ADD61R,0.342900X0.012700*%
%ADD62C,0.076200*%
%ADD63C,0.254000*%
%ADD64C,0.050800*%
%ADD65C,0.150000*%
%ADD66C,0.304800*%
%ADD67C,0.200000*%

G36*
X17347Y468632D02*
X17347Y468632D01*
X17349Y468631D01*
X17392Y468651D01*
X17435Y468669D01*
X17436Y468671D01*
X17438Y468672D01*
X17471Y468757D01*
X17471Y471297D01*
X17470Y471299D01*
X17471Y471301D01*
X17451Y471344D01*
X17432Y471388D01*
X17430Y471388D01*
X17429Y471390D01*
X17345Y471423D01*
X13535Y471423D01*
X13533Y471422D01*
X13530Y471423D01*
X13487Y471403D01*
X13444Y471385D01*
X13443Y471383D01*
X13441Y471382D01*
X13408Y471297D01*
X13408Y468757D01*
X13409Y468755D01*
X13408Y468753D01*
X13428Y468710D01*
X13447Y468666D01*
X13449Y468666D01*
X13450Y468664D01*
X13535Y468631D01*
X17345Y468631D01*
X17347Y468632D01*
G37*
G36*
X-32193Y444099D02*
X-32193Y444099D01*
X-32190Y444098D01*
X-32147Y444118D01*
X-32104Y444136D01*
X-32103Y444138D01*
X-32101Y444139D01*
X-32068Y444224D01*
X-32068Y448034D01*
X-32069Y448036D01*
X-32068Y448038D01*
X-32088Y448081D01*
X-32107Y448125D01*
X-32109Y448125D01*
X-32110Y448127D01*
X-32195Y448160D01*
X-34735Y448160D01*
X-34737Y448159D01*
X-34739Y448160D01*
X-34782Y448140D01*
X-34825Y448122D01*
X-34826Y448120D01*
X-34828Y448119D01*
X-34861Y448034D01*
X-34861Y444224D01*
X-34860Y444222D01*
X-34861Y444220D01*
X-34841Y444177D01*
X-34822Y444133D01*
X-34820Y444133D01*
X-34819Y444131D01*
X-34735Y444098D01*
X-32195Y444098D01*
X-32193Y444099D01*
G37*
G36*
X50612Y429096D02*
X50612Y429096D01*
X50614Y429095D01*
X50657Y429115D01*
X50700Y429133D01*
X50701Y429135D01*
X50703Y429136D01*
X50736Y429221D01*
X50736Y433031D01*
X50735Y433033D01*
X50736Y433035D01*
X50716Y433078D01*
X50697Y433122D01*
X50695Y433122D01*
X50694Y433124D01*
X50610Y433157D01*
X48070Y433157D01*
X48068Y433156D01*
X48065Y433157D01*
X48022Y433137D01*
X47979Y433119D01*
X47978Y433117D01*
X47976Y433116D01*
X47943Y433031D01*
X47943Y429221D01*
X47944Y429219D01*
X47943Y429217D01*
X47963Y429174D01*
X47982Y429130D01*
X47984Y429130D01*
X47985Y429128D01*
X48070Y429095D01*
X50610Y429095D01*
X50612Y429096D01*
G37*
G36*
X22348Y385828D02*
X22348Y385828D01*
X22350Y385827D01*
X22393Y385847D01*
X22436Y385865D01*
X22437Y385867D01*
X22439Y385868D01*
X22472Y385953D01*
X22472Y388493D01*
X22471Y388495D01*
X22472Y388497D01*
X22452Y388540D01*
X22433Y388584D01*
X22431Y388584D01*
X22430Y388586D01*
X22346Y388619D01*
X18536Y388619D01*
X18534Y388618D01*
X18531Y388619D01*
X18488Y388599D01*
X18445Y388581D01*
X18444Y388579D01*
X18442Y388578D01*
X18409Y388493D01*
X18409Y385953D01*
X18410Y385951D01*
X18409Y385949D01*
X18429Y385906D01*
X18448Y385862D01*
X18450Y385862D01*
X18451Y385860D01*
X18536Y385827D01*
X22346Y385827D01*
X22348Y385828D01*
G37*
D10*
X133121Y413383D02*
X131526Y414500D01*
X127803Y409183D01*
X130993Y406949D01*
X131076Y406894D01*
X131160Y406842D01*
X131247Y406793D01*
X131335Y406747D01*
X131425Y406705D01*
X131517Y406666D01*
X131610Y406631D01*
X131704Y406599D01*
X131799Y406571D01*
X131896Y406547D01*
X131993Y406526D01*
X132091Y406510D01*
X132190Y406496D01*
X132289Y406487D01*
X132388Y406482D01*
X132488Y406480D01*
X132587Y406482D01*
X132686Y406488D01*
X132785Y406498D01*
X132884Y406511D01*
X132982Y406529D01*
X133079Y406550D01*
X133175Y406574D01*
X133271Y406603D01*
X133365Y406635D01*
X133458Y406670D01*
X133549Y406709D01*
X133639Y406752D01*
X133727Y406798D01*
X133813Y406847D01*
X133898Y406900D01*
X133980Y406956D01*
X134060Y407015D01*
X134138Y407077D01*
X134213Y407142D01*
X134286Y407209D01*
X134356Y407280D01*
X134424Y407353D01*
X134488Y407429D01*
X134550Y407507D01*
X134609Y407587D01*
X138332Y412904D01*
X138387Y412987D01*
X138439Y413071D01*
X138488Y413158D01*
X138534Y413246D01*
X138576Y413336D01*
X138615Y413428D01*
X138650Y413521D01*
X138682Y413615D01*
X138710Y413710D01*
X138734Y413807D01*
X138755Y413904D01*
X138771Y414002D01*
X138785Y414101D01*
X138794Y414200D01*
X138799Y414299D01*
X138801Y414399D01*
X138799Y414498D01*
X138793Y414597D01*
X138783Y414696D01*
X138770Y414795D01*
X138752Y414893D01*
X138731Y414990D01*
X138707Y415086D01*
X138678Y415182D01*
X138646Y415276D01*
X138611Y415369D01*
X138572Y415460D01*
X138529Y415550D01*
X138483Y415638D01*
X138434Y415724D01*
X138381Y415809D01*
X138325Y415891D01*
X138266Y415971D01*
X138204Y416049D01*
X138139Y416124D01*
X138072Y416197D01*
X138001Y416267D01*
X137928Y416335D01*
X137852Y416399D01*
X137774Y416461D01*
X137694Y416520D01*
X137695Y416520D02*
X134504Y418754D01*
X129835Y422024D02*
X123133Y412453D01*
X117816Y416176D02*
X129835Y422024D01*
X124517Y425747D02*
X117816Y416176D01*
X113146Y419446D02*
X119847Y429017D01*
X117189Y430878D01*
X117189Y430879D02*
X117095Y430942D01*
X116999Y431002D01*
X116901Y431059D01*
X116801Y431112D01*
X116699Y431162D01*
X116595Y431208D01*
X116490Y431250D01*
X116384Y431289D01*
X116276Y431324D01*
X116167Y431355D01*
X116057Y431383D01*
X115946Y431406D01*
X115835Y431426D01*
X115723Y431442D01*
X115610Y431454D01*
X115497Y431462D01*
X115384Y431466D01*
X115270Y431466D01*
X115157Y431462D01*
X115044Y431454D01*
X114931Y431442D01*
X114819Y431426D01*
X114708Y431406D01*
X114597Y431383D01*
X114487Y431355D01*
X114378Y431324D01*
X114270Y431289D01*
X114164Y431250D01*
X114059Y431208D01*
X113955Y431162D01*
X113853Y431112D01*
X113753Y431059D01*
X113655Y431002D01*
X113559Y430942D01*
X113465Y430879D01*
X113374Y430812D01*
X113284Y430743D01*
X113197Y430670D01*
X113113Y430594D01*
X113032Y430515D01*
X112953Y430434D01*
X112877Y430350D01*
X112804Y430263D01*
X112735Y430174D01*
X112668Y430082D01*
X112669Y430081D02*
X109690Y425828D01*
X109627Y425734D01*
X109567Y425638D01*
X109510Y425540D01*
X109457Y425440D01*
X109407Y425338D01*
X109361Y425234D01*
X109319Y425129D01*
X109280Y425023D01*
X109245Y424915D01*
X109214Y424806D01*
X109186Y424696D01*
X109163Y424585D01*
X109143Y424474D01*
X109127Y424362D01*
X109115Y424249D01*
X109107Y424136D01*
X109103Y424023D01*
X109103Y423909D01*
X109107Y423796D01*
X109115Y423683D01*
X109127Y423570D01*
X109143Y423458D01*
X109163Y423347D01*
X109186Y423236D01*
X109214Y423126D01*
X109245Y423017D01*
X109280Y422909D01*
X109319Y422803D01*
X109361Y422698D01*
X109407Y422594D01*
X109457Y422492D01*
X109510Y422392D01*
X109567Y422294D01*
X109627Y422198D01*
X109690Y422104D01*
X109757Y422012D01*
X109826Y421923D01*
X109899Y421836D01*
X109975Y421752D01*
X110054Y421671D01*
X110135Y421592D01*
X110219Y421516D01*
X110306Y421443D01*
X110396Y421374D01*
X110487Y421307D01*
X113146Y419446D01*
X12481Y492774D02*
X10534Y492774D01*
X10534Y486283D01*
X14429Y486283D01*
X14528Y486285D01*
X14628Y486291D01*
X14727Y486300D01*
X14825Y486313D01*
X14923Y486330D01*
X15021Y486351D01*
X15117Y486376D01*
X15212Y486404D01*
X15306Y486436D01*
X15399Y486471D01*
X15491Y486510D01*
X15581Y486553D01*
X15669Y486598D01*
X15756Y486648D01*
X15840Y486700D01*
X15923Y486756D01*
X16003Y486814D01*
X16081Y486876D01*
X16156Y486941D01*
X16229Y487009D01*
X16299Y487079D01*
X16367Y487152D01*
X16432Y487227D01*
X16494Y487305D01*
X16552Y487385D01*
X16608Y487468D01*
X16660Y487552D01*
X16710Y487639D01*
X16755Y487727D01*
X16798Y487817D01*
X16837Y487909D01*
X16872Y488002D01*
X16904Y488096D01*
X16932Y488191D01*
X16957Y488287D01*
X16978Y488385D01*
X16995Y488483D01*
X17008Y488581D01*
X17017Y488680D01*
X17023Y488780D01*
X17025Y488879D01*
X17025Y495371D01*
X17023Y495470D01*
X17017Y495570D01*
X17008Y495669D01*
X16995Y495767D01*
X16978Y495865D01*
X16957Y495963D01*
X16932Y496059D01*
X16904Y496154D01*
X16872Y496248D01*
X16837Y496341D01*
X16798Y496433D01*
X16755Y496523D01*
X16710Y496611D01*
X16660Y496698D01*
X16608Y496782D01*
X16552Y496865D01*
X16494Y496945D01*
X16432Y497023D01*
X16367Y497098D01*
X16299Y497171D01*
X16229Y497241D01*
X16156Y497309D01*
X16081Y497374D01*
X16003Y497436D01*
X15923Y497494D01*
X15840Y497550D01*
X15756Y497602D01*
X15669Y497652D01*
X15581Y497697D01*
X15491Y497740D01*
X15399Y497779D01*
X15306Y497814D01*
X15212Y497846D01*
X15117Y497874D01*
X15021Y497899D01*
X14923Y497920D01*
X14825Y497937D01*
X14727Y497950D01*
X14628Y497959D01*
X14528Y497965D01*
X14429Y497967D01*
X10534Y497967D01*
X4833Y497967D02*
X4833Y486283D01*
X-1658Y486283D02*
X4833Y497967D01*
X-1658Y497967D02*
X-1658Y486283D01*
X-7359Y486283D02*
X-7359Y497967D01*
X-10604Y497967D01*
X-10717Y497965D01*
X-10830Y497959D01*
X-10943Y497949D01*
X-11056Y497935D01*
X-11168Y497918D01*
X-11279Y497896D01*
X-11389Y497871D01*
X-11499Y497841D01*
X-11607Y497808D01*
X-11714Y497771D01*
X-11820Y497731D01*
X-11924Y497686D01*
X-12027Y497638D01*
X-12128Y497587D01*
X-12227Y497532D01*
X-12324Y497474D01*
X-12419Y497412D01*
X-12512Y497347D01*
X-12602Y497279D01*
X-12690Y497208D01*
X-12776Y497133D01*
X-12859Y497056D01*
X-12939Y496976D01*
X-13016Y496893D01*
X-13091Y496807D01*
X-13162Y496719D01*
X-13230Y496629D01*
X-13295Y496536D01*
X-13357Y496441D01*
X-13415Y496344D01*
X-13470Y496245D01*
X-13521Y496144D01*
X-13569Y496041D01*
X-13614Y495937D01*
X-13654Y495831D01*
X-13691Y495724D01*
X-13724Y495616D01*
X-13754Y495506D01*
X-13779Y495396D01*
X-13801Y495285D01*
X-13818Y495173D01*
X-13832Y495060D01*
X-13842Y494947D01*
X-13848Y494834D01*
X-13850Y494721D01*
X-13850Y489529D01*
X-13848Y489416D01*
X-13842Y489303D01*
X-13832Y489190D01*
X-13818Y489077D01*
X-13801Y488965D01*
X-13779Y488854D01*
X-13754Y488744D01*
X-13724Y488634D01*
X-13691Y488526D01*
X-13654Y488419D01*
X-13614Y488313D01*
X-13569Y488209D01*
X-13521Y488106D01*
X-13470Y488005D01*
X-13415Y487906D01*
X-13357Y487809D01*
X-13295Y487714D01*
X-13230Y487621D01*
X-13162Y487531D01*
X-13091Y487443D01*
X-13016Y487357D01*
X-12939Y487274D01*
X-12859Y487194D01*
X-12776Y487117D01*
X-12690Y487042D01*
X-12602Y486971D01*
X-12512Y486903D01*
X-12419Y486838D01*
X-12324Y486776D01*
X-12227Y486718D01*
X-12128Y486663D01*
X-12027Y486612D01*
X-11924Y486564D01*
X-11820Y486519D01*
X-11714Y486479D01*
X-11607Y486442D01*
X-11499Y486409D01*
X-11389Y486379D01*
X-11279Y486354D01*
X-11168Y486332D01*
X-11056Y486315D01*
X-10943Y486301D01*
X-10830Y486291D01*
X-10717Y486285D01*
X-10604Y486283D01*
X-7359Y486283D01*
X-120660Y421837D02*
X-122151Y420585D01*
X-117979Y415613D01*
X-114996Y418116D01*
X-114921Y418182D01*
X-114849Y418250D01*
X-114779Y418321D01*
X-114712Y418394D01*
X-114648Y418470D01*
X-114587Y418549D01*
X-114529Y418630D01*
X-114474Y418712D01*
X-114422Y418797D01*
X-114374Y418884D01*
X-114329Y418973D01*
X-114287Y419063D01*
X-114249Y419155D01*
X-114214Y419248D01*
X-114183Y419343D01*
X-114156Y419438D01*
X-114132Y419535D01*
X-114112Y419632D01*
X-114096Y419731D01*
X-114084Y419829D01*
X-114075Y419928D01*
X-114070Y420028D01*
X-114069Y420127D01*
X-114072Y420227D01*
X-114078Y420326D01*
X-114089Y420425D01*
X-114103Y420523D01*
X-114121Y420621D01*
X-114142Y420718D01*
X-114168Y420814D01*
X-114197Y420909D01*
X-114229Y421003D01*
X-114266Y421096D01*
X-114305Y421187D01*
X-114348Y421277D01*
X-114395Y421365D01*
X-114445Y421451D01*
X-114498Y421535D01*
X-114554Y421617D01*
X-114614Y421696D01*
X-114676Y421774D01*
X-118848Y426747D01*
X-118914Y426822D01*
X-118982Y426894D01*
X-119053Y426964D01*
X-119126Y427031D01*
X-119202Y427095D01*
X-119281Y427156D01*
X-119362Y427214D01*
X-119444Y427269D01*
X-119529Y427321D01*
X-119616Y427369D01*
X-119705Y427414D01*
X-119795Y427456D01*
X-119887Y427494D01*
X-119980Y427529D01*
X-120075Y427560D01*
X-120170Y427587D01*
X-120267Y427611D01*
X-120364Y427631D01*
X-120463Y427647D01*
X-120561Y427659D01*
X-120660Y427668D01*
X-120760Y427673D01*
X-120859Y427674D01*
X-120959Y427671D01*
X-121058Y427665D01*
X-121157Y427654D01*
X-121255Y427640D01*
X-121353Y427622D01*
X-121450Y427601D01*
X-121546Y427575D01*
X-121641Y427546D01*
X-121735Y427514D01*
X-121828Y427477D01*
X-121919Y427438D01*
X-122009Y427395D01*
X-122097Y427348D01*
X-122183Y427298D01*
X-122267Y427245D01*
X-122349Y427189D01*
X-122428Y427129D01*
X-122506Y427067D01*
X-125489Y424563D01*
X-129857Y420899D02*
X-122346Y411948D01*
X-127319Y407776D02*
X-129857Y420899D01*
X-134829Y416726D02*
X-127319Y407776D01*
X-131686Y404112D02*
X-139196Y413062D01*
X-141682Y410976D01*
X-141682Y410977D02*
X-141768Y410902D01*
X-141851Y410825D01*
X-141931Y410745D01*
X-142008Y410662D01*
X-142083Y410576D01*
X-142154Y410488D01*
X-142222Y410398D01*
X-142287Y410305D01*
X-142349Y410210D01*
X-142407Y410113D01*
X-142462Y410014D01*
X-142513Y409913D01*
X-142561Y409810D01*
X-142606Y409706D01*
X-142646Y409600D01*
X-142683Y409493D01*
X-142716Y409385D01*
X-142746Y409275D01*
X-142771Y409165D01*
X-142793Y409054D01*
X-142810Y408942D01*
X-142824Y408829D01*
X-142834Y408716D01*
X-142840Y408603D01*
X-142842Y408490D01*
X-142840Y408377D01*
X-142834Y408264D01*
X-142824Y408151D01*
X-142810Y408038D01*
X-142793Y407926D01*
X-142771Y407815D01*
X-142746Y407705D01*
X-142716Y407595D01*
X-142683Y407487D01*
X-142646Y407380D01*
X-142606Y407274D01*
X-142561Y407170D01*
X-142513Y407067D01*
X-142462Y406966D01*
X-142407Y406867D01*
X-142349Y406770D01*
X-142287Y406675D01*
X-142222Y406582D01*
X-142154Y406492D01*
X-142083Y406403D01*
X-142082Y406403D02*
X-138744Y402425D01*
X-138745Y402426D02*
X-138670Y402340D01*
X-138593Y402257D01*
X-138513Y402177D01*
X-138430Y402100D01*
X-138344Y402025D01*
X-138256Y401954D01*
X-138166Y401886D01*
X-138073Y401821D01*
X-137978Y401759D01*
X-137881Y401701D01*
X-137782Y401646D01*
X-137681Y401595D01*
X-137578Y401547D01*
X-137474Y401502D01*
X-137368Y401462D01*
X-137261Y401425D01*
X-137153Y401392D01*
X-137043Y401362D01*
X-136933Y401337D01*
X-136822Y401315D01*
X-136710Y401298D01*
X-136597Y401284D01*
X-136484Y401274D01*
X-136371Y401268D01*
X-136258Y401266D01*
X-136145Y401268D01*
X-136032Y401274D01*
X-135919Y401284D01*
X-135806Y401298D01*
X-135694Y401315D01*
X-135583Y401337D01*
X-135473Y401362D01*
X-135363Y401392D01*
X-135255Y401425D01*
X-135148Y401462D01*
X-135042Y401502D01*
X-134938Y401547D01*
X-134835Y401595D01*
X-134734Y401646D01*
X-134635Y401701D01*
X-134538Y401759D01*
X-134443Y401821D01*
X-134350Y401886D01*
X-134260Y401954D01*
X-134171Y402025D01*
X-134172Y402025D02*
X-131686Y404112D01*
D11*
X-128778Y337285D02*
X-112522Y337285D01*
X-112522Y341800D01*
X-112524Y341933D01*
X-112530Y342065D01*
X-112540Y342197D01*
X-112553Y342329D01*
X-112571Y342461D01*
X-112592Y342591D01*
X-112617Y342722D01*
X-112646Y342851D01*
X-112679Y342979D01*
X-112715Y343107D01*
X-112755Y343233D01*
X-112799Y343358D01*
X-112847Y343482D01*
X-112898Y343604D01*
X-112953Y343725D01*
X-113011Y343844D01*
X-113073Y343962D01*
X-113138Y344077D01*
X-113207Y344191D01*
X-113278Y344302D01*
X-113354Y344411D01*
X-113432Y344518D01*
X-113513Y344623D01*
X-113598Y344725D01*
X-113685Y344825D01*
X-113775Y344922D01*
X-113868Y345017D01*
X-113964Y345108D01*
X-114062Y345197D01*
X-114163Y345283D01*
X-114267Y345366D01*
X-114373Y345446D01*
X-114481Y345522D01*
X-114591Y345596D01*
X-114704Y345666D01*
X-114818Y345733D01*
X-114935Y345796D01*
X-115053Y345856D01*
X-115173Y345913D01*
X-115295Y345966D01*
X-115418Y346015D01*
X-115542Y346061D01*
X-115668Y346103D01*
X-115795Y346141D01*
X-115923Y346176D01*
X-116052Y346207D01*
X-116181Y346234D01*
X-116312Y346257D01*
X-116443Y346277D01*
X-116575Y346292D01*
X-116707Y346304D01*
X-116839Y346312D01*
X-116972Y346316D01*
X-117104Y346316D01*
X-117237Y346312D01*
X-117369Y346304D01*
X-117501Y346292D01*
X-117633Y346277D01*
X-117764Y346257D01*
X-117895Y346234D01*
X-118024Y346207D01*
X-118153Y346176D01*
X-118281Y346141D01*
X-118408Y346103D01*
X-118534Y346061D01*
X-118658Y346015D01*
X-118781Y345966D01*
X-118903Y345913D01*
X-119023Y345856D01*
X-119141Y345796D01*
X-119258Y345733D01*
X-119372Y345666D01*
X-119485Y345596D01*
X-119595Y345522D01*
X-119703Y345446D01*
X-119809Y345366D01*
X-119913Y345283D01*
X-120014Y345197D01*
X-120112Y345108D01*
X-120208Y345017D01*
X-120301Y344922D01*
X-120391Y344825D01*
X-120478Y344725D01*
X-120563Y344623D01*
X-120644Y344518D01*
X-120722Y344411D01*
X-120798Y344302D01*
X-120869Y344191D01*
X-120938Y344077D01*
X-121003Y343962D01*
X-121065Y343844D01*
X-121123Y343725D01*
X-121178Y343604D01*
X-121229Y343482D01*
X-121277Y343358D01*
X-121321Y343233D01*
X-121361Y343107D01*
X-121397Y342979D01*
X-121430Y342851D01*
X-121459Y342722D01*
X-121484Y342591D01*
X-121505Y342461D01*
X-121523Y342329D01*
X-121536Y342197D01*
X-121546Y342065D01*
X-121552Y341933D01*
X-121554Y341800D01*
X-121553Y341800D02*
X-121553Y337285D01*
X-116134Y352184D02*
X-112522Y356700D01*
X-128778Y356700D01*
X-128778Y361215D02*
X-128778Y352184D01*
X-24309Y475989D02*
X-33633Y489305D01*
X-37332Y486715D01*
X-37441Y486637D01*
X-37547Y486555D01*
X-37651Y486471D01*
X-37752Y486383D01*
X-37850Y486292D01*
X-37946Y486199D01*
X-38039Y486102D01*
X-38129Y486003D01*
X-38216Y485902D01*
X-38300Y485797D01*
X-38381Y485691D01*
X-38458Y485582D01*
X-38533Y485471D01*
X-38604Y485357D01*
X-38671Y485242D01*
X-38736Y485124D01*
X-38796Y485005D01*
X-38854Y484884D01*
X-38907Y484761D01*
X-38957Y484637D01*
X-39003Y484512D01*
X-39046Y484385D01*
X-39084Y484256D01*
X-39119Y484127D01*
X-39150Y483997D01*
X-39177Y483866D01*
X-39201Y483734D01*
X-39220Y483602D01*
X-39235Y483469D01*
X-39247Y483335D01*
X-39254Y483202D01*
X-39258Y483068D01*
X-39257Y482934D01*
X-39253Y482800D01*
X-39244Y482667D01*
X-39232Y482534D01*
X-39216Y482401D01*
X-39196Y482268D01*
X-39172Y482137D01*
X-39144Y482006D01*
X-39112Y481876D01*
X-39076Y481747D01*
X-39037Y481619D01*
X-38993Y481492D01*
X-38946Y481367D01*
X-38896Y481243D01*
X-38841Y481121D01*
X-38783Y481000D01*
X-38722Y480881D01*
X-38657Y480764D01*
X-38588Y480649D01*
X-38516Y480536D01*
X-38441Y480426D01*
X-38363Y480317D01*
X-38281Y480211D01*
X-38197Y480107D01*
X-38109Y480006D01*
X-38018Y479908D01*
X-37925Y479812D01*
X-37828Y479719D01*
X-37729Y479629D01*
X-37628Y479542D01*
X-37524Y479458D01*
X-37417Y479377D01*
X-37308Y479300D01*
X-37197Y479225D01*
X-37083Y479154D01*
X-36968Y479087D01*
X-36850Y479022D01*
X-36731Y478962D01*
X-36610Y478904D01*
X-36487Y478851D01*
X-36363Y478801D01*
X-36238Y478755D01*
X-36111Y478712D01*
X-35983Y478674D01*
X-35853Y478639D01*
X-35723Y478608D01*
X-35592Y478581D01*
X-35460Y478557D01*
X-35328Y478538D01*
X-35195Y478523D01*
X-35061Y478511D01*
X-34928Y478504D01*
X-34794Y478500D01*
X-34660Y478501D01*
X-34526Y478505D01*
X-34393Y478514D01*
X-34260Y478526D01*
X-34127Y478542D01*
X-33994Y478562D01*
X-33863Y478586D01*
X-33732Y478614D01*
X-33602Y478646D01*
X-33473Y478682D01*
X-33345Y478721D01*
X-33218Y478765D01*
X-33093Y478812D01*
X-32969Y478862D01*
X-32847Y478917D01*
X-32726Y478975D01*
X-32607Y479036D01*
X-32490Y479101D01*
X-32375Y479170D01*
X-32263Y479242D01*
X-32152Y479317D01*
X-28453Y481907D01*
X-49906Y477910D02*
X-50007Y477837D01*
X-50106Y477760D01*
X-50203Y477681D01*
X-50297Y477598D01*
X-50389Y477513D01*
X-50478Y477425D01*
X-50564Y477334D01*
X-50648Y477241D01*
X-50728Y477145D01*
X-50806Y477047D01*
X-50880Y476946D01*
X-50951Y476843D01*
X-51019Y476738D01*
X-51084Y476631D01*
X-51146Y476522D01*
X-51204Y476411D01*
X-51258Y476299D01*
X-51309Y476184D01*
X-51357Y476069D01*
X-51401Y475951D01*
X-51441Y475833D01*
X-51478Y475713D01*
X-51511Y475592D01*
X-51540Y475471D01*
X-51566Y475348D01*
X-51588Y475225D01*
X-51606Y475101D01*
X-51620Y474977D01*
X-51630Y474852D01*
X-51636Y474727D01*
X-51639Y474602D01*
X-51638Y474477D01*
X-51633Y474352D01*
X-51624Y474227D01*
X-51611Y474102D01*
X-51594Y473978D01*
X-51574Y473855D01*
X-51549Y473732D01*
X-51521Y473610D01*
X-51490Y473489D01*
X-51454Y473369D01*
X-51415Y473250D01*
X-51372Y473132D01*
X-51326Y473016D01*
X-51276Y472901D01*
X-51222Y472788D01*
X-51165Y472677D01*
X-51105Y472567D01*
X-51041Y472459D01*
X-50974Y472354D01*
X-50904Y472250D01*
X-49907Y477910D02*
X-49789Y477990D01*
X-49668Y478067D01*
X-49546Y478141D01*
X-49422Y478211D01*
X-49296Y478278D01*
X-49168Y478341D01*
X-49038Y478401D01*
X-48907Y478458D01*
X-48775Y478510D01*
X-48641Y478560D01*
X-48505Y478605D01*
X-48369Y478647D01*
X-48231Y478685D01*
X-48093Y478719D01*
X-47953Y478749D01*
X-47813Y478776D01*
X-47672Y478798D01*
X-47531Y478817D01*
X-47389Y478832D01*
X-47246Y478843D01*
X-47104Y478850D01*
X-46961Y478854D01*
X-46818Y478853D01*
X-46676Y478849D01*
X-46533Y478840D01*
X-46391Y478828D01*
X-46249Y478812D01*
X-46108Y478792D01*
X-45967Y478768D01*
X-45827Y478740D01*
X-45688Y478708D01*
X-45550Y478673D01*
X-45412Y478634D01*
X-45276Y478591D01*
X-45141Y478545D01*
X-45008Y478494D01*
X-44876Y478440D01*
X-44745Y478383D01*
X-44616Y478322D01*
X-44489Y478257D01*
X-44363Y478190D01*
X-44239Y478118D01*
X-44118Y478043D01*
X-43998Y477965D01*
X-43881Y477884D01*
X-43766Y477800D01*
X-47982Y470438D02*
X-48111Y470460D01*
X-48240Y470485D01*
X-48367Y470514D01*
X-48494Y470547D01*
X-48619Y470584D01*
X-48744Y470625D01*
X-48867Y470669D01*
X-48989Y470717D01*
X-49109Y470769D01*
X-49228Y470824D01*
X-49345Y470882D01*
X-49460Y470945D01*
X-49573Y471010D01*
X-49685Y471079D01*
X-49794Y471151D01*
X-49901Y471227D01*
X-50005Y471306D01*
X-50108Y471388D01*
X-50207Y471472D01*
X-50304Y471560D01*
X-50399Y471651D01*
X-50490Y471744D01*
X-50579Y471840D01*
X-50665Y471939D01*
X-50748Y472041D01*
X-50828Y472144D01*
X-50905Y472250D01*
X-47982Y470438D02*
X-36514Y467443D01*
X-43911Y462263D01*
X-57070Y460767D02*
X-60178Y465206D01*
X-57070Y460767D02*
X-57328Y455625D01*
X-57070Y460767D02*
X-52149Y459251D01*
X-57070Y460767D02*
X-62175Y459398D01*
X-57070Y460767D02*
X-54037Y465096D01*
X83338Y432090D02*
X91466Y446168D01*
X87555Y448426D01*
X87556Y448426D02*
X87439Y448491D01*
X87320Y448553D01*
X87200Y448611D01*
X87078Y448666D01*
X86954Y448716D01*
X86829Y448764D01*
X86702Y448807D01*
X86574Y448847D01*
X86445Y448883D01*
X86315Y448915D01*
X86184Y448943D01*
X86053Y448967D01*
X85921Y448988D01*
X85788Y449004D01*
X85655Y449017D01*
X85521Y449025D01*
X85387Y449030D01*
X85253Y449031D01*
X85120Y449027D01*
X84986Y449020D01*
X84853Y449009D01*
X84720Y448994D01*
X84587Y448975D01*
X84455Y448952D01*
X84324Y448925D01*
X84194Y448894D01*
X84065Y448859D01*
X83936Y448821D01*
X83809Y448779D01*
X83684Y448733D01*
X83560Y448683D01*
X83437Y448630D01*
X83316Y448573D01*
X83196Y448512D01*
X83079Y448448D01*
X82963Y448381D01*
X82850Y448310D01*
X82738Y448235D01*
X82629Y448158D01*
X82522Y448077D01*
X82418Y447994D01*
X82316Y447907D01*
X82217Y447817D01*
X82121Y447724D01*
X82027Y447628D01*
X81936Y447530D01*
X81848Y447429D01*
X81763Y447326D01*
X81682Y447220D01*
X81603Y447111D01*
X81528Y447001D01*
X81456Y446888D01*
X81387Y446773D01*
X81322Y446656D01*
X81260Y446537D01*
X81202Y446417D01*
X81147Y446295D01*
X81097Y446171D01*
X81049Y446046D01*
X81006Y445919D01*
X80966Y445791D01*
X80930Y445662D01*
X80898Y445532D01*
X80870Y445402D01*
X80846Y445270D01*
X80825Y445138D01*
X80809Y445005D01*
X80796Y444872D01*
X80788Y444738D01*
X80783Y444604D01*
X80782Y444470D01*
X80786Y444337D01*
X80793Y444203D01*
X80804Y444070D01*
X80819Y443937D01*
X80838Y443804D01*
X80861Y443672D01*
X80888Y443541D01*
X80919Y443411D01*
X80954Y443282D01*
X80992Y443153D01*
X81034Y443026D01*
X81080Y442901D01*
X81130Y442777D01*
X81183Y442654D01*
X81240Y442533D01*
X81301Y442413D01*
X81365Y442296D01*
X81432Y442180D01*
X81503Y442067D01*
X81578Y441955D01*
X81655Y441846D01*
X81736Y441739D01*
X81819Y441635D01*
X81906Y441533D01*
X81996Y441434D01*
X82089Y441338D01*
X82185Y441244D01*
X82283Y441153D01*
X82384Y441065D01*
X82487Y440980D01*
X82593Y440899D01*
X82702Y440820D01*
X82812Y440745D01*
X82925Y440673D01*
X83040Y440604D01*
X83040Y440605D02*
X86950Y438347D01*
X70435Y439539D02*
X66524Y441797D01*
X66410Y441865D01*
X66298Y441936D01*
X66189Y442011D01*
X66081Y442089D01*
X65976Y442169D01*
X65874Y442253D01*
X65773Y442340D01*
X65676Y442430D01*
X65581Y442523D01*
X65489Y442618D01*
X65399Y442716D01*
X65313Y442816D01*
X65230Y442920D01*
X65149Y443025D01*
X65072Y443133D01*
X64998Y443243D01*
X64927Y443355D01*
X64860Y443469D01*
X64796Y443585D01*
X64735Y443703D01*
X64678Y443823D01*
X64625Y443944D01*
X64575Y444067D01*
X64528Y444191D01*
X64486Y444317D01*
X64447Y444443D01*
X64411Y444571D01*
X64380Y444700D01*
X64352Y444830D01*
X64328Y444960D01*
X64308Y445091D01*
X64292Y445223D01*
X64280Y445355D01*
X64271Y445487D01*
X64267Y445620D01*
X64266Y445752D01*
X64269Y445885D01*
X64277Y446017D01*
X64288Y446149D01*
X64303Y446281D01*
X64321Y446412D01*
X64344Y446543D01*
X64370Y446673D01*
X64401Y446802D01*
X64435Y446930D01*
X64472Y447057D01*
X64514Y447183D01*
X64559Y447308D01*
X64608Y447431D01*
X64660Y447553D01*
X64716Y447673D01*
X64775Y447792D01*
X64838Y447908D01*
X64905Y448023D01*
X64974Y448136D01*
X65047Y448247D01*
X65123Y448355D01*
X65203Y448462D01*
X65285Y448565D01*
X65370Y448667D01*
X65459Y448766D01*
X65550Y448862D01*
X65644Y448956D01*
X65741Y449046D01*
X65840Y449134D01*
X65942Y449219D01*
X66046Y449301D01*
X66153Y449380D01*
X66262Y449455D01*
X66373Y449528D01*
X66486Y449597D01*
X66601Y449662D01*
X66718Y449725D01*
X66837Y449784D01*
X66957Y449839D01*
X67079Y449891D01*
X67203Y449939D01*
X67328Y449983D01*
X67454Y450024D01*
X67581Y450061D01*
X67710Y450095D01*
X67839Y450124D01*
X67969Y450150D01*
X68100Y450172D01*
X68231Y450190D01*
X68363Y450204D01*
X68495Y450215D01*
X68627Y450221D01*
X68760Y450224D01*
X68893Y450223D01*
X69025Y450217D01*
X69157Y450208D01*
X69289Y450195D01*
X69421Y450179D01*
X69552Y450158D01*
X69682Y450133D01*
X69812Y450105D01*
X69940Y450073D01*
X70068Y450037D01*
X70194Y449997D01*
X70320Y449954D01*
X70444Y449907D01*
X70566Y449857D01*
X70687Y449802D01*
X70807Y449745D01*
X70924Y449684D01*
X71040Y449619D01*
X73870Y456327D02*
X78563Y453618D01*
X73870Y456326D02*
X73766Y456384D01*
X73659Y456439D01*
X73551Y456490D01*
X73442Y456537D01*
X73330Y456581D01*
X73218Y456621D01*
X73104Y456657D01*
X72989Y456689D01*
X72873Y456718D01*
X72756Y456743D01*
X72639Y456764D01*
X72521Y456781D01*
X72402Y456794D01*
X72283Y456803D01*
X72164Y456809D01*
X72044Y456810D01*
X71925Y456807D01*
X71805Y456801D01*
X71686Y456790D01*
X71568Y456776D01*
X71450Y456757D01*
X71333Y456735D01*
X71216Y456709D01*
X71100Y456679D01*
X70986Y456645D01*
X70872Y456608D01*
X70760Y456567D01*
X70650Y456522D01*
X70541Y456473D01*
X70433Y456421D01*
X70327Y456365D01*
X70224Y456306D01*
X70122Y456243D01*
X70022Y456178D01*
X69925Y456108D01*
X69830Y456036D01*
X69737Y455961D01*
X69647Y455882D01*
X69560Y455801D01*
X69475Y455717D01*
X69393Y455630D01*
X69314Y455540D01*
X69238Y455448D01*
X69165Y455353D01*
X69096Y455256D01*
X69029Y455157D01*
X68966Y455055D01*
X68906Y454952D01*
X68850Y454847D01*
X68797Y454740D01*
X68748Y454631D01*
X68703Y454520D01*
X68661Y454408D01*
X68623Y454295D01*
X68588Y454181D01*
X68558Y454065D01*
X68531Y453949D01*
X68508Y453832D01*
X68489Y453714D01*
X68474Y453595D01*
X68463Y453476D01*
X68456Y453357D01*
X68452Y453238D01*
X68453Y453118D01*
X68457Y452999D01*
X68466Y452880D01*
X68479Y452761D01*
X68495Y452643D01*
X68515Y452525D01*
X68539Y452408D01*
X68567Y452292D01*
X68599Y452177D01*
X68635Y452063D01*
X68674Y451950D01*
X68718Y451839D01*
X68764Y451729D01*
X68815Y451621D01*
X68869Y451514D01*
X68926Y451409D01*
X68987Y451306D01*
X69051Y451206D01*
X69119Y451107D01*
X69189Y451011D01*
X69263Y450917D01*
X69340Y450826D01*
X69420Y450737D01*
X69503Y450651D01*
X69589Y450568D01*
X69677Y450487D01*
X69768Y450410D01*
X69861Y450335D01*
X69957Y450264D01*
X70055Y450196D01*
X70156Y450131D01*
X70258Y450070D01*
X73386Y448264D01*
X55697Y455348D02*
X58406Y460041D01*
X55697Y455348D02*
X50927Y453409D01*
X55697Y455348D02*
X56402Y450248D01*
X55697Y455348D02*
X52298Y459396D01*
X55697Y455348D02*
X60902Y454429D01*
X116355Y334767D02*
X132611Y334767D01*
X132611Y339283D01*
X132609Y339416D01*
X132603Y339548D01*
X132593Y339680D01*
X132580Y339812D01*
X132562Y339944D01*
X132541Y340074D01*
X132516Y340205D01*
X132487Y340334D01*
X132454Y340462D01*
X132418Y340590D01*
X132378Y340716D01*
X132334Y340841D01*
X132286Y340965D01*
X132235Y341087D01*
X132180Y341208D01*
X132122Y341327D01*
X132060Y341445D01*
X131995Y341560D01*
X131926Y341674D01*
X131855Y341785D01*
X131779Y341894D01*
X131701Y342001D01*
X131620Y342106D01*
X131535Y342208D01*
X131448Y342308D01*
X131358Y342405D01*
X131265Y342500D01*
X131169Y342591D01*
X131071Y342680D01*
X130970Y342766D01*
X130866Y342849D01*
X130760Y342929D01*
X130652Y343005D01*
X130542Y343079D01*
X130429Y343149D01*
X130315Y343216D01*
X130198Y343279D01*
X130080Y343339D01*
X129960Y343396D01*
X129838Y343449D01*
X129715Y343498D01*
X129591Y343544D01*
X129465Y343586D01*
X129338Y343624D01*
X129210Y343659D01*
X129081Y343690D01*
X128952Y343717D01*
X128821Y343740D01*
X128690Y343760D01*
X128558Y343775D01*
X128426Y343787D01*
X128294Y343795D01*
X128161Y343799D01*
X128029Y343799D01*
X127896Y343795D01*
X127764Y343787D01*
X127632Y343775D01*
X127500Y343760D01*
X127369Y343740D01*
X127238Y343717D01*
X127109Y343690D01*
X126980Y343659D01*
X126852Y343624D01*
X126725Y343586D01*
X126599Y343544D01*
X126475Y343498D01*
X126352Y343449D01*
X126230Y343396D01*
X126110Y343339D01*
X125992Y343279D01*
X125875Y343216D01*
X125761Y343149D01*
X125648Y343079D01*
X125538Y343005D01*
X125430Y342929D01*
X125324Y342849D01*
X125220Y342766D01*
X125119Y342680D01*
X125021Y342591D01*
X124925Y342500D01*
X124832Y342405D01*
X124742Y342308D01*
X124655Y342208D01*
X124570Y342106D01*
X124489Y342001D01*
X124411Y341894D01*
X124335Y341785D01*
X124264Y341674D01*
X124195Y341560D01*
X124130Y341445D01*
X124068Y341327D01*
X124010Y341208D01*
X123955Y341087D01*
X123904Y340965D01*
X123856Y340841D01*
X123812Y340716D01*
X123772Y340590D01*
X123736Y340462D01*
X123703Y340334D01*
X123674Y340205D01*
X123649Y340074D01*
X123628Y339944D01*
X123610Y339812D01*
X123597Y339680D01*
X123587Y339548D01*
X123581Y339416D01*
X123579Y339283D01*
X123579Y334767D01*
X119967Y349667D02*
X132611Y353279D01*
X119967Y349667D02*
X119967Y358698D01*
X123579Y355988D02*
X116355Y355988D01*
X130394Y64453D02*
X130394Y46673D01*
X130394Y56550D02*
X120516Y56550D01*
X120516Y64453D02*
X120516Y46673D01*
X113085Y55563D02*
X113081Y55913D01*
X113068Y56262D01*
X113047Y56611D01*
X113018Y56960D01*
X112981Y57308D01*
X112935Y57655D01*
X112881Y58000D01*
X112819Y58344D01*
X112748Y58687D01*
X112669Y59028D01*
X112583Y59367D01*
X112488Y59703D01*
X112385Y60038D01*
X112274Y60369D01*
X112156Y60699D01*
X112029Y61025D01*
X111895Y61348D01*
X111753Y61667D01*
X111603Y61984D01*
X111603Y61983D02*
X111563Y62096D01*
X111519Y62206D01*
X111471Y62316D01*
X111420Y62423D01*
X111365Y62529D01*
X111307Y62634D01*
X111245Y62736D01*
X111180Y62836D01*
X111112Y62934D01*
X111041Y63030D01*
X110966Y63123D01*
X110889Y63214D01*
X110809Y63302D01*
X110726Y63387D01*
X110640Y63470D01*
X110551Y63550D01*
X110460Y63627D01*
X110366Y63701D01*
X110270Y63772D01*
X110172Y63840D01*
X110072Y63904D01*
X109969Y63966D01*
X109865Y64023D01*
X109759Y64078D01*
X109651Y64129D01*
X109541Y64176D01*
X109430Y64220D01*
X109318Y64260D01*
X109204Y64296D01*
X109090Y64329D01*
X108974Y64358D01*
X108857Y64383D01*
X108740Y64404D01*
X108622Y64422D01*
X108503Y64435D01*
X108384Y64445D01*
X108265Y64451D01*
X108146Y64453D01*
X108027Y64451D01*
X107908Y64445D01*
X107789Y64435D01*
X107670Y64422D01*
X107552Y64404D01*
X107435Y64383D01*
X107318Y64358D01*
X107202Y64329D01*
X107088Y64296D01*
X106974Y64260D01*
X106862Y64220D01*
X106751Y64176D01*
X106641Y64129D01*
X106533Y64078D01*
X106427Y64023D01*
X106323Y63966D01*
X106220Y63904D01*
X106120Y63840D01*
X106022Y63772D01*
X105926Y63701D01*
X105832Y63627D01*
X105741Y63550D01*
X105652Y63470D01*
X105567Y63387D01*
X105483Y63302D01*
X105403Y63214D01*
X105326Y63123D01*
X105251Y63030D01*
X105180Y62934D01*
X105112Y62836D01*
X105047Y62736D01*
X104985Y62634D01*
X104927Y62529D01*
X104872Y62424D01*
X104821Y62316D01*
X104773Y62206D01*
X104729Y62096D01*
X104689Y61983D01*
X104690Y61984D02*
X104540Y61667D01*
X104398Y61348D01*
X104264Y61025D01*
X104137Y60699D01*
X104019Y60369D01*
X103908Y60038D01*
X103805Y59703D01*
X103710Y59367D01*
X103624Y59028D01*
X103545Y58687D01*
X103474Y58344D01*
X103412Y58000D01*
X103358Y57655D01*
X103312Y57308D01*
X103275Y56960D01*
X103246Y56611D01*
X103225Y56262D01*
X103212Y55913D01*
X103208Y55563D01*
X113085Y55563D02*
X113081Y55213D01*
X113068Y54864D01*
X113047Y54515D01*
X113018Y54166D01*
X112981Y53818D01*
X112935Y53471D01*
X112881Y53126D01*
X112819Y52782D01*
X112748Y52439D01*
X112669Y52098D01*
X112583Y51759D01*
X112488Y51423D01*
X112385Y51088D01*
X112274Y50757D01*
X112156Y50428D01*
X112029Y50101D01*
X111895Y49778D01*
X111753Y49459D01*
X111603Y49143D01*
X111603Y49142D02*
X111563Y49029D01*
X111519Y48919D01*
X111471Y48809D01*
X111420Y48702D01*
X111365Y48596D01*
X111307Y48491D01*
X111245Y48389D01*
X111180Y48289D01*
X111112Y48191D01*
X111041Y48095D01*
X110966Y48002D01*
X110889Y47911D01*
X110809Y47823D01*
X110726Y47738D01*
X110640Y47655D01*
X110551Y47575D01*
X110460Y47498D01*
X110366Y47424D01*
X110270Y47353D01*
X110172Y47285D01*
X110072Y47221D01*
X109969Y47159D01*
X109865Y47102D01*
X109759Y47047D01*
X109651Y46996D01*
X109541Y46949D01*
X109430Y46905D01*
X109318Y46865D01*
X109204Y46829D01*
X109090Y46796D01*
X108974Y46767D01*
X108857Y46742D01*
X108740Y46721D01*
X108622Y46703D01*
X108503Y46690D01*
X108384Y46680D01*
X108265Y46674D01*
X108146Y46672D01*
X104690Y49143D02*
X104540Y49459D01*
X104398Y49778D01*
X104264Y50101D01*
X104137Y50428D01*
X104019Y50757D01*
X103908Y51088D01*
X103805Y51423D01*
X103710Y51759D01*
X103624Y52098D01*
X103545Y52439D01*
X103474Y52782D01*
X103412Y53126D01*
X103358Y53471D01*
X103312Y53818D01*
X103275Y54166D01*
X103246Y54515D01*
X103225Y54864D01*
X103212Y55213D01*
X103208Y55563D01*
X104689Y49142D02*
X104729Y49029D01*
X104773Y48919D01*
X104821Y48809D01*
X104872Y48701D01*
X104927Y48595D01*
X104985Y48491D01*
X105047Y48389D01*
X105112Y48289D01*
X105180Y48191D01*
X105251Y48095D01*
X105326Y48002D01*
X105403Y47911D01*
X105483Y47823D01*
X105567Y47738D01*
X105652Y47655D01*
X105741Y47575D01*
X105832Y47498D01*
X105926Y47424D01*
X106022Y47353D01*
X106120Y47285D01*
X106220Y47221D01*
X106323Y47159D01*
X106427Y47101D01*
X106533Y47047D01*
X106641Y46996D01*
X106751Y46949D01*
X106862Y46905D01*
X106974Y46865D01*
X107088Y46829D01*
X107202Y46796D01*
X107318Y46767D01*
X107435Y46742D01*
X107552Y46721D01*
X107670Y46703D01*
X107789Y46690D01*
X107908Y46680D01*
X108027Y46674D01*
X108146Y46672D01*
X112098Y50624D02*
X104195Y60501D01*
X95748Y64453D02*
X95748Y46673D01*
X95748Y64453D02*
X87846Y64453D01*
X87846Y56550D02*
X95748Y56550D01*
X81174Y64453D02*
X81174Y46673D01*
X81174Y64453D02*
X76235Y64453D01*
X76095Y64451D01*
X75956Y64445D01*
X75816Y64435D01*
X75677Y64421D01*
X75538Y64404D01*
X75400Y64382D01*
X75263Y64356D01*
X75126Y64327D01*
X74990Y64294D01*
X74856Y64257D01*
X74722Y64216D01*
X74590Y64171D01*
X74458Y64122D01*
X74329Y64070D01*
X74201Y64015D01*
X74074Y63955D01*
X73949Y63892D01*
X73826Y63826D01*
X73705Y63756D01*
X73586Y63683D01*
X73469Y63606D01*
X73355Y63526D01*
X73242Y63443D01*
X73132Y63357D01*
X73025Y63267D01*
X72920Y63175D01*
X72818Y63080D01*
X72718Y62982D01*
X72621Y62881D01*
X72527Y62777D01*
X72437Y62671D01*
X72349Y62562D01*
X72264Y62451D01*
X72183Y62337D01*
X72104Y62222D01*
X72029Y62104D01*
X71958Y61983D01*
X71890Y61861D01*
X71825Y61738D01*
X71764Y61612D01*
X71706Y61484D01*
X71652Y61356D01*
X71602Y61225D01*
X71555Y61093D01*
X71512Y60960D01*
X71473Y60826D01*
X71438Y60691D01*
X71407Y60555D01*
X71379Y60417D01*
X71356Y60280D01*
X71336Y60141D01*
X71320Y60002D01*
X71308Y59863D01*
X71300Y59724D01*
X71296Y59584D01*
X71296Y59444D01*
X71300Y59304D01*
X71308Y59165D01*
X71320Y59026D01*
X71336Y58887D01*
X71356Y58748D01*
X71379Y58611D01*
X71407Y58473D01*
X71438Y58337D01*
X71473Y58202D01*
X71512Y58068D01*
X71555Y57935D01*
X71602Y57803D01*
X71652Y57672D01*
X71706Y57544D01*
X71764Y57416D01*
X71825Y57290D01*
X71890Y57167D01*
X71958Y57044D01*
X72029Y56924D01*
X72104Y56806D01*
X72183Y56691D01*
X72264Y56577D01*
X72349Y56466D01*
X72437Y56357D01*
X72527Y56251D01*
X72621Y56147D01*
X72718Y56046D01*
X72818Y55948D01*
X72920Y55853D01*
X73025Y55761D01*
X73132Y55671D01*
X73242Y55585D01*
X73355Y55502D01*
X73469Y55422D01*
X73586Y55345D01*
X73705Y55272D01*
X73826Y55202D01*
X73949Y55136D01*
X74074Y55073D01*
X74201Y55013D01*
X74329Y54958D01*
X74458Y54906D01*
X74590Y54857D01*
X74722Y54812D01*
X74856Y54771D01*
X74990Y54734D01*
X75126Y54701D01*
X75263Y54672D01*
X75400Y54646D01*
X75538Y54624D01*
X75677Y54607D01*
X75816Y54593D01*
X75956Y54583D01*
X76095Y54577D01*
X76235Y54575D01*
X81174Y54575D01*
X75247Y54575D02*
X71296Y46673D01*
X64509Y51611D02*
X64507Y51751D01*
X64501Y51890D01*
X64491Y52030D01*
X64477Y52169D01*
X64460Y52308D01*
X64438Y52446D01*
X64412Y52583D01*
X64383Y52720D01*
X64350Y52856D01*
X64313Y52990D01*
X64272Y53124D01*
X64227Y53256D01*
X64178Y53388D01*
X64126Y53517D01*
X64071Y53645D01*
X64011Y53772D01*
X63948Y53897D01*
X63882Y54020D01*
X63812Y54141D01*
X63739Y54260D01*
X63662Y54377D01*
X63582Y54491D01*
X63499Y54604D01*
X63413Y54714D01*
X63323Y54821D01*
X63231Y54926D01*
X63136Y55028D01*
X63038Y55128D01*
X62937Y55225D01*
X62833Y55319D01*
X62727Y55409D01*
X62618Y55497D01*
X62507Y55582D01*
X62393Y55663D01*
X62278Y55742D01*
X62160Y55817D01*
X62040Y55888D01*
X61917Y55956D01*
X61794Y56021D01*
X61668Y56082D01*
X61540Y56140D01*
X61412Y56194D01*
X61281Y56244D01*
X61149Y56291D01*
X61016Y56334D01*
X60882Y56373D01*
X60747Y56408D01*
X60611Y56439D01*
X60473Y56467D01*
X60336Y56490D01*
X60197Y56510D01*
X60058Y56526D01*
X59919Y56538D01*
X59780Y56546D01*
X59640Y56550D01*
X59500Y56550D01*
X59360Y56546D01*
X59221Y56538D01*
X59082Y56526D01*
X58943Y56510D01*
X58804Y56490D01*
X58667Y56467D01*
X58529Y56439D01*
X58393Y56408D01*
X58258Y56373D01*
X58124Y56334D01*
X57991Y56291D01*
X57859Y56244D01*
X57728Y56194D01*
X57600Y56140D01*
X57472Y56082D01*
X57346Y56021D01*
X57223Y55956D01*
X57100Y55888D01*
X56980Y55817D01*
X56862Y55742D01*
X56747Y55663D01*
X56633Y55582D01*
X56522Y55497D01*
X56413Y55409D01*
X56307Y55319D01*
X56203Y55225D01*
X56102Y55128D01*
X56004Y55028D01*
X55909Y54926D01*
X55817Y54821D01*
X55727Y54714D01*
X55641Y54604D01*
X55558Y54491D01*
X55478Y54377D01*
X55401Y54260D01*
X55328Y54141D01*
X55258Y54020D01*
X55192Y53897D01*
X55129Y53772D01*
X55069Y53645D01*
X55014Y53517D01*
X54962Y53388D01*
X54913Y53256D01*
X54868Y53124D01*
X54827Y52990D01*
X54790Y52856D01*
X54757Y52720D01*
X54728Y52583D01*
X54702Y52446D01*
X54680Y52308D01*
X54663Y52169D01*
X54649Y52030D01*
X54639Y51890D01*
X54633Y51751D01*
X54631Y51611D01*
X54633Y51471D01*
X54639Y51332D01*
X54649Y51192D01*
X54663Y51053D01*
X54680Y50914D01*
X54702Y50776D01*
X54728Y50639D01*
X54757Y50502D01*
X54790Y50366D01*
X54827Y50232D01*
X54868Y50098D01*
X54913Y49966D01*
X54962Y49834D01*
X55014Y49705D01*
X55069Y49577D01*
X55129Y49450D01*
X55192Y49325D01*
X55258Y49202D01*
X55328Y49081D01*
X55401Y48962D01*
X55478Y48845D01*
X55558Y48731D01*
X55641Y48618D01*
X55727Y48508D01*
X55817Y48401D01*
X55909Y48296D01*
X56004Y48194D01*
X56102Y48094D01*
X56203Y47997D01*
X56307Y47903D01*
X56413Y47813D01*
X56522Y47725D01*
X56633Y47640D01*
X56747Y47559D01*
X56862Y47480D01*
X56980Y47405D01*
X57101Y47334D01*
X57223Y47266D01*
X57346Y47201D01*
X57472Y47140D01*
X57600Y47082D01*
X57728Y47028D01*
X57859Y46978D01*
X57991Y46931D01*
X58124Y46888D01*
X58258Y46849D01*
X58393Y46814D01*
X58529Y46783D01*
X58667Y46755D01*
X58804Y46732D01*
X58943Y46712D01*
X59082Y46696D01*
X59221Y46684D01*
X59360Y46676D01*
X59500Y46672D01*
X59640Y46672D01*
X59780Y46676D01*
X59919Y46684D01*
X60058Y46696D01*
X60197Y46712D01*
X60336Y46732D01*
X60473Y46755D01*
X60611Y46783D01*
X60747Y46814D01*
X60882Y46849D01*
X61016Y46888D01*
X61149Y46931D01*
X61281Y46978D01*
X61412Y47028D01*
X61540Y47082D01*
X61668Y47140D01*
X61794Y47201D01*
X61917Y47266D01*
X62040Y47334D01*
X62160Y47405D01*
X62278Y47480D01*
X62393Y47559D01*
X62507Y47640D01*
X62618Y47725D01*
X62727Y47813D01*
X62833Y47903D01*
X62937Y47997D01*
X63038Y48094D01*
X63136Y48194D01*
X63231Y48296D01*
X63323Y48401D01*
X63413Y48508D01*
X63499Y48618D01*
X63582Y48731D01*
X63662Y48845D01*
X63739Y48962D01*
X63812Y49081D01*
X63882Y49202D01*
X63948Y49325D01*
X64011Y49450D01*
X64071Y49577D01*
X64126Y49705D01*
X64178Y49834D01*
X64227Y49966D01*
X64272Y50098D01*
X64313Y50232D01*
X64350Y50366D01*
X64383Y50502D01*
X64412Y50639D01*
X64438Y50776D01*
X64460Y50914D01*
X64477Y51053D01*
X64491Y51192D01*
X64501Y51332D01*
X64507Y51471D01*
X64509Y51611D01*
X63521Y60501D02*
X63519Y60625D01*
X63513Y60749D01*
X63503Y60873D01*
X63490Y60996D01*
X63472Y61119D01*
X63451Y61241D01*
X63426Y61363D01*
X63397Y61484D01*
X63364Y61603D01*
X63328Y61722D01*
X63287Y61839D01*
X63244Y61955D01*
X63196Y62070D01*
X63145Y62183D01*
X63090Y62295D01*
X63032Y62404D01*
X62971Y62512D01*
X62906Y62618D01*
X62838Y62722D01*
X62766Y62823D01*
X62692Y62923D01*
X62614Y63019D01*
X62534Y63114D01*
X62450Y63206D01*
X62364Y63295D01*
X62275Y63381D01*
X62183Y63465D01*
X62088Y63545D01*
X61992Y63623D01*
X61892Y63697D01*
X61791Y63769D01*
X61687Y63837D01*
X61581Y63902D01*
X61473Y63963D01*
X61364Y64021D01*
X61252Y64076D01*
X61139Y64127D01*
X61024Y64175D01*
X60908Y64218D01*
X60791Y64259D01*
X60672Y64295D01*
X60553Y64328D01*
X60432Y64357D01*
X60310Y64382D01*
X60188Y64403D01*
X60065Y64421D01*
X59942Y64434D01*
X59818Y64444D01*
X59694Y64450D01*
X59570Y64452D01*
X59446Y64450D01*
X59322Y64444D01*
X59198Y64434D01*
X59075Y64421D01*
X58952Y64403D01*
X58830Y64382D01*
X58708Y64357D01*
X58587Y64328D01*
X58468Y64295D01*
X58349Y64259D01*
X58232Y64218D01*
X58116Y64175D01*
X58001Y64127D01*
X57888Y64076D01*
X57776Y64021D01*
X57667Y63963D01*
X57559Y63902D01*
X57453Y63837D01*
X57349Y63769D01*
X57248Y63697D01*
X57148Y63623D01*
X57052Y63545D01*
X56957Y63465D01*
X56865Y63381D01*
X56776Y63295D01*
X56690Y63206D01*
X56606Y63114D01*
X56526Y63019D01*
X56448Y62923D01*
X56374Y62823D01*
X56302Y62722D01*
X56234Y62618D01*
X56169Y62512D01*
X56108Y62404D01*
X56050Y62295D01*
X55995Y62183D01*
X55944Y62070D01*
X55896Y61955D01*
X55853Y61839D01*
X55812Y61722D01*
X55776Y61603D01*
X55743Y61484D01*
X55714Y61363D01*
X55689Y61241D01*
X55668Y61119D01*
X55650Y60996D01*
X55637Y60873D01*
X55627Y60749D01*
X55621Y60625D01*
X55619Y60501D01*
X55621Y60377D01*
X55627Y60253D01*
X55637Y60129D01*
X55650Y60006D01*
X55668Y59883D01*
X55689Y59761D01*
X55714Y59639D01*
X55743Y59518D01*
X55776Y59399D01*
X55812Y59280D01*
X55853Y59163D01*
X55896Y59047D01*
X55944Y58932D01*
X55995Y58819D01*
X56050Y58707D01*
X56108Y58598D01*
X56169Y58490D01*
X56234Y58384D01*
X56302Y58280D01*
X56374Y58179D01*
X56448Y58079D01*
X56526Y57983D01*
X56606Y57888D01*
X56690Y57796D01*
X56776Y57707D01*
X56865Y57621D01*
X56957Y57537D01*
X57052Y57457D01*
X57148Y57379D01*
X57248Y57305D01*
X57349Y57233D01*
X57453Y57165D01*
X57559Y57100D01*
X57667Y57039D01*
X57776Y56981D01*
X57888Y56926D01*
X58001Y56875D01*
X58116Y56827D01*
X58232Y56784D01*
X58349Y56743D01*
X58468Y56707D01*
X58587Y56674D01*
X58708Y56645D01*
X58830Y56620D01*
X58952Y56599D01*
X59075Y56581D01*
X59198Y56568D01*
X59322Y56558D01*
X59446Y56552D01*
X59570Y56550D01*
X59694Y56552D01*
X59818Y56558D01*
X59942Y56568D01*
X60065Y56581D01*
X60188Y56599D01*
X60310Y56620D01*
X60432Y56645D01*
X60553Y56674D01*
X60672Y56707D01*
X60791Y56743D01*
X60908Y56784D01*
X61024Y56827D01*
X61139Y56875D01*
X61252Y56926D01*
X61364Y56981D01*
X61473Y57039D01*
X61581Y57100D01*
X61687Y57165D01*
X61791Y57233D01*
X61892Y57305D01*
X61992Y57379D01*
X62088Y57457D01*
X62183Y57537D01*
X62275Y57621D01*
X62364Y57707D01*
X62450Y57796D01*
X62534Y57888D01*
X62614Y57983D01*
X62692Y58079D01*
X62766Y58179D01*
X62838Y58280D01*
X62906Y58384D01*
X62971Y58490D01*
X63032Y58598D01*
X63090Y58707D01*
X63145Y58819D01*
X63196Y58932D01*
X63244Y59047D01*
X63287Y59163D01*
X63328Y59280D01*
X63364Y59399D01*
X63397Y59518D01*
X63426Y59639D01*
X63451Y59761D01*
X63472Y59883D01*
X63490Y60006D01*
X63503Y60129D01*
X63513Y60253D01*
X63519Y60377D01*
X63521Y60501D01*
X47759Y55563D02*
X47755Y55913D01*
X47742Y56262D01*
X47721Y56611D01*
X47692Y56960D01*
X47655Y57308D01*
X47609Y57655D01*
X47555Y58000D01*
X47493Y58344D01*
X47422Y58687D01*
X47343Y59028D01*
X47257Y59367D01*
X47162Y59703D01*
X47059Y60038D01*
X46948Y60369D01*
X46830Y60699D01*
X46703Y61025D01*
X46569Y61348D01*
X46427Y61667D01*
X46277Y61984D01*
X46277Y61983D02*
X46237Y62096D01*
X46193Y62206D01*
X46145Y62316D01*
X46094Y62423D01*
X46039Y62529D01*
X45981Y62634D01*
X45919Y62736D01*
X45854Y62836D01*
X45786Y62934D01*
X45715Y63030D01*
X45640Y63123D01*
X45563Y63214D01*
X45483Y63302D01*
X45400Y63387D01*
X45314Y63470D01*
X45225Y63550D01*
X45134Y63627D01*
X45040Y63701D01*
X44944Y63772D01*
X44846Y63840D01*
X44746Y63904D01*
X44643Y63966D01*
X44539Y64023D01*
X44433Y64078D01*
X44325Y64129D01*
X44215Y64176D01*
X44104Y64220D01*
X43992Y64260D01*
X43878Y64296D01*
X43764Y64329D01*
X43648Y64358D01*
X43531Y64383D01*
X43414Y64404D01*
X43296Y64422D01*
X43177Y64435D01*
X43058Y64445D01*
X42939Y64451D01*
X42820Y64453D01*
X42701Y64451D01*
X42582Y64445D01*
X42463Y64435D01*
X42344Y64422D01*
X42226Y64404D01*
X42109Y64383D01*
X41992Y64358D01*
X41876Y64329D01*
X41762Y64296D01*
X41648Y64260D01*
X41536Y64220D01*
X41425Y64176D01*
X41315Y64129D01*
X41207Y64078D01*
X41101Y64023D01*
X40997Y63966D01*
X40894Y63904D01*
X40794Y63840D01*
X40696Y63772D01*
X40600Y63701D01*
X40506Y63627D01*
X40415Y63550D01*
X40326Y63470D01*
X40241Y63387D01*
X40157Y63302D01*
X40077Y63214D01*
X40000Y63123D01*
X39925Y63030D01*
X39854Y62934D01*
X39786Y62836D01*
X39721Y62736D01*
X39659Y62634D01*
X39601Y62529D01*
X39546Y62424D01*
X39495Y62316D01*
X39447Y62206D01*
X39403Y62096D01*
X39363Y61983D01*
X39363Y61984D02*
X39213Y61667D01*
X39071Y61348D01*
X38937Y61025D01*
X38810Y60699D01*
X38692Y60369D01*
X38581Y60038D01*
X38478Y59703D01*
X38383Y59367D01*
X38297Y59028D01*
X38218Y58687D01*
X38147Y58344D01*
X38085Y58000D01*
X38031Y57655D01*
X37985Y57308D01*
X37948Y56960D01*
X37919Y56611D01*
X37898Y56262D01*
X37885Y55913D01*
X37881Y55563D01*
X47758Y55563D02*
X47754Y55213D01*
X47741Y54864D01*
X47720Y54515D01*
X47691Y54166D01*
X47654Y53818D01*
X47608Y53471D01*
X47554Y53126D01*
X47492Y52782D01*
X47421Y52439D01*
X47342Y52098D01*
X47256Y51759D01*
X47161Y51423D01*
X47058Y51088D01*
X46947Y50757D01*
X46829Y50428D01*
X46702Y50101D01*
X46568Y49778D01*
X46426Y49459D01*
X46276Y49143D01*
X46277Y49142D02*
X46237Y49029D01*
X46193Y48919D01*
X46145Y48809D01*
X46094Y48702D01*
X46039Y48596D01*
X45981Y48491D01*
X45919Y48389D01*
X45854Y48289D01*
X45786Y48191D01*
X45715Y48095D01*
X45640Y48002D01*
X45563Y47911D01*
X45483Y47823D01*
X45400Y47738D01*
X45314Y47655D01*
X45225Y47575D01*
X45134Y47498D01*
X45040Y47424D01*
X44944Y47353D01*
X44846Y47285D01*
X44746Y47221D01*
X44643Y47159D01*
X44539Y47102D01*
X44433Y47047D01*
X44325Y46996D01*
X44215Y46949D01*
X44104Y46905D01*
X43992Y46865D01*
X43878Y46829D01*
X43764Y46796D01*
X43648Y46767D01*
X43531Y46742D01*
X43414Y46721D01*
X43296Y46703D01*
X43177Y46690D01*
X43058Y46680D01*
X42939Y46674D01*
X42820Y46672D01*
X39363Y49143D02*
X39213Y49459D01*
X39071Y49778D01*
X38937Y50101D01*
X38810Y50428D01*
X38692Y50757D01*
X38581Y51088D01*
X38478Y51423D01*
X38383Y51759D01*
X38297Y52098D01*
X38218Y52439D01*
X38147Y52782D01*
X38085Y53126D01*
X38031Y53471D01*
X37985Y53818D01*
X37948Y54166D01*
X37919Y54515D01*
X37898Y54864D01*
X37885Y55213D01*
X37881Y55563D01*
X39363Y49142D02*
X39403Y49029D01*
X39447Y48919D01*
X39495Y48809D01*
X39546Y48701D01*
X39601Y48595D01*
X39659Y48491D01*
X39721Y48389D01*
X39786Y48289D01*
X39854Y48191D01*
X39925Y48095D01*
X40000Y48002D01*
X40077Y47911D01*
X40157Y47823D01*
X40241Y47738D01*
X40326Y47655D01*
X40415Y47575D01*
X40506Y47498D01*
X40600Y47424D01*
X40696Y47353D01*
X40794Y47285D01*
X40894Y47221D01*
X40997Y47159D01*
X41101Y47101D01*
X41207Y47047D01*
X41315Y46996D01*
X41425Y46949D01*
X41536Y46905D01*
X41648Y46865D01*
X41762Y46829D01*
X41876Y46796D01*
X41992Y46767D01*
X42109Y46742D01*
X42226Y46721D01*
X42344Y46703D01*
X42463Y46690D01*
X42582Y46680D01*
X42701Y46674D01*
X42820Y46672D01*
X46771Y50624D02*
X38869Y60501D01*
D12*
X92456Y-19812D03*
D13*
X92456Y-19685D03*
D14*
X92456Y-19558D03*
D15*
X92456Y-19431D03*
D16*
X92456Y-19304D03*
X92456Y-19177D03*
D17*
X92520Y-19050D03*
D18*
X92456Y-18923D03*
X92456Y-18796D03*
X92456Y-18669D03*
D17*
X92520Y-18542D03*
D16*
X92456Y-18415D03*
X92456Y-18288D03*
D15*
X92456Y-18161D03*
D19*
X92520Y-18034D03*
D14*
X92456Y-17907D03*
D13*
X92456Y-17780D03*
X92456Y-17653D03*
D20*
X92456Y-17526D03*
D21*
X92520Y-17399D03*
D12*
X92456Y-17272D03*
D22*
X92520Y-17145D03*
D23*
X109157Y-17018D03*
X75756Y-17018D03*
D24*
X109093Y-16891D03*
D23*
X75883Y-16891D03*
X109030Y-16764D03*
X75883Y-16764D03*
D24*
X108966Y-16637D03*
D23*
X76010Y-16637D03*
X108903Y-16510D03*
D25*
X76073Y-16510D03*
D23*
X108776Y-16383D03*
X76137Y-16383D03*
D24*
X108712Y-16256D03*
D23*
X76264Y-16256D03*
X108649Y-16129D03*
X76264Y-16129D03*
D24*
X108585Y-16002D03*
D23*
X76391Y-16002D03*
X108522Y-15875D03*
X76391Y-15875D03*
D24*
X108458Y-15748D03*
D23*
X76518Y-15748D03*
X108395Y-15621D03*
X76518Y-15621D03*
D24*
X108331Y-15494D03*
D26*
X92202Y-15494D03*
D23*
X76645Y-15494D03*
X108268Y-15367D03*
D27*
X92202Y-15367D03*
D23*
X76772Y-15367D03*
D24*
X108204Y-15240D03*
D27*
X92202Y-15240D03*
D23*
X76772Y-15240D03*
D24*
X108077Y-15113D03*
D28*
X92202Y-15113D03*
D23*
X76899Y-15113D03*
X108014Y-14986D03*
D29*
X92139Y-14986D03*
D23*
X76899Y-14986D03*
D24*
X107950Y-14859D03*
D29*
X92139Y-14859D03*
D23*
X77026Y-14859D03*
X107887Y-14732D03*
D30*
X92139Y-14732D03*
D24*
X77089Y-14732D03*
X107823Y-14605D03*
D30*
X92139Y-14605D03*
D23*
X77153Y-14605D03*
X107760Y-14478D03*
D31*
X92075Y-14478D03*
D23*
X77280Y-14478D03*
X107633Y-14351D03*
D32*
X92075Y-14351D03*
D23*
X77280Y-14351D03*
D24*
X107569Y-14224D03*
D32*
X92075Y-14224D03*
D24*
X77343Y-14224D03*
D23*
X107506Y-14097D03*
D33*
X92075Y-14097D03*
D24*
X77470Y-14097D03*
X107442Y-13970D03*
D34*
X92012Y-13970D03*
D23*
X77534Y-13970D03*
X107379Y-13843D03*
D34*
X92012Y-13843D03*
D23*
X77661Y-13843D03*
X107252Y-13716D03*
D35*
X91948Y-13716D03*
D23*
X77661Y-13716D03*
D24*
X107188Y-13589D03*
D36*
X91948Y-13589D03*
D24*
X77724Y-13589D03*
D23*
X107125Y-13462D03*
D36*
X91948Y-13462D03*
D23*
X77788Y-13462D03*
D24*
X107061Y-13335D03*
D37*
X91948Y-13335D03*
D23*
X77915Y-13335D03*
X106998Y-13208D03*
D38*
X91885Y-13208D03*
D24*
X77978Y-13208D03*
X106934Y-13081D03*
X91821Y-13081D03*
D23*
X78042Y-13081D03*
X106871Y-12954D03*
D24*
X91821Y-12954D03*
X78105Y-12954D03*
D23*
X106744Y-12827D03*
D25*
X91821Y-12827D03*
D23*
X78169Y-12827D03*
D24*
X106680Y-12700D03*
D25*
X91821Y-12700D03*
D23*
X78296Y-12700D03*
X106617Y-12573D03*
D39*
X92266Y-12573D03*
D24*
X78359Y-12573D03*
X106553Y-12446D03*
D40*
X91758Y-12446D03*
D23*
X78423Y-12446D03*
X106490Y-12319D03*
D32*
X91694Y-12319D03*
D24*
X78486Y-12319D03*
X106426Y-12192D03*
D32*
X91694Y-12192D03*
D23*
X78550Y-12192D03*
D24*
X106299Y-12065D03*
D40*
X91631Y-12065D03*
D24*
X78613Y-12065D03*
X106299Y-11938D03*
D32*
X91567Y-11938D03*
D23*
X78677Y-11938D03*
D24*
X106172Y-11811D03*
D32*
X91567Y-11811D03*
D23*
X78804Y-11811D03*
X106109Y-11684D03*
D32*
X91567Y-11684D03*
D24*
X78867Y-11684D03*
X106045Y-11557D03*
D32*
X91567Y-11557D03*
D23*
X78931Y-11557D03*
D24*
X105918Y-11430D03*
D32*
X91440Y-11430D03*
D24*
X78994Y-11430D03*
X105918Y-11303D03*
D32*
X91440Y-11303D03*
D23*
X79058Y-11303D03*
D24*
X105791Y-11176D03*
D32*
X91440Y-11176D03*
D24*
X79121Y-11176D03*
D23*
X105728Y-11049D03*
D32*
X91313Y-11049D03*
D24*
X79248Y-11049D03*
X105664Y-10922D03*
D32*
X91313Y-10922D03*
D24*
X79248Y-10922D03*
D23*
X105601Y-10795D03*
D32*
X91313Y-10795D03*
D24*
X79375Y-10795D03*
X105537Y-10668D03*
D32*
X91186Y-10668D03*
D23*
X79439Y-10668D03*
D24*
X105410Y-10541D03*
D32*
X91186Y-10541D03*
D24*
X79502Y-10541D03*
X105410Y-10414D03*
D32*
X91186Y-10414D03*
D24*
X79629Y-10414D03*
X105283Y-10287D03*
D32*
X91186Y-10287D03*
D24*
X79629Y-10287D03*
D23*
X105220Y-10160D03*
D32*
X91059Y-10160D03*
D24*
X79756Y-10160D03*
X105156Y-10033D03*
D32*
X91059Y-10033D03*
D23*
X79820Y-10033D03*
D24*
X105029Y-9906D03*
D32*
X91059Y-9906D03*
D24*
X79883Y-9906D03*
X105029Y-9779D03*
D41*
X90996Y-9779D03*
D23*
X79947Y-9779D03*
D24*
X104902Y-9652D03*
D32*
X90932Y-9652D03*
D24*
X80010Y-9652D03*
D23*
X104839Y-9525D03*
D32*
X90932Y-9525D03*
D24*
X80137Y-9525D03*
X104775Y-9398D03*
D32*
X90932Y-9398D03*
D24*
X80137Y-9398D03*
D23*
X104712Y-9271D03*
D41*
X90869Y-9271D03*
D24*
X80264Y-9271D03*
X104648Y-9144D03*
D32*
X90805Y-9144D03*
D23*
X80328Y-9144D03*
D24*
X104521Y-9017D03*
D32*
X90805Y-9017D03*
D24*
X80391Y-9017D03*
X104521Y-8890D03*
D32*
X90805Y-8890D03*
D24*
X80518Y-8890D03*
X104394Y-8763D03*
D32*
X90678Y-8763D03*
D24*
X80518Y-8763D03*
X104394Y-8636D03*
D27*
X95123Y-8636D03*
D32*
X90678Y-8636D03*
D24*
X80645Y-8636D03*
X104267Y-8509D03*
D28*
X94996Y-8509D03*
D32*
X90678Y-8509D03*
D24*
X80645Y-8509D03*
X104140Y-8382D03*
D30*
X94806Y-8382D03*
D40*
X90615Y-8382D03*
D24*
X80772Y-8382D03*
X104140Y-8255D03*
D41*
X94679Y-8255D03*
D32*
X90551Y-8255D03*
D24*
X80772Y-8255D03*
X104013Y-8128D03*
D32*
X94488Y-8128D03*
X90551Y-8128D03*
D24*
X80899Y-8128D03*
X104013Y-8001D03*
D34*
X94298Y-8001D03*
D32*
X90551Y-8001D03*
D24*
X81026Y-8001D03*
X103886Y-7874D03*
D42*
X94171Y-7874D03*
D41*
X90488Y-7874D03*
D24*
X81026Y-7874D03*
D38*
X103823Y-7747D03*
D37*
X93980Y-7747D03*
D32*
X90424Y-7747D03*
D24*
X81153Y-7747D03*
X103759Y-7620D03*
D38*
X93790Y-7620D03*
D32*
X90424Y-7620D03*
D24*
X81153Y-7620D03*
X103632Y-7493D03*
D23*
X93663Y-7493D03*
D41*
X90361Y-7493D03*
D24*
X81280Y-7493D03*
X103632Y-7366D03*
D43*
X93472Y-7366D03*
D32*
X90297Y-7366D03*
D23*
X81344Y-7366D03*
D24*
X103505Y-7239D03*
D44*
X93282Y-7239D03*
D32*
X90297Y-7239D03*
D24*
X81407Y-7239D03*
X103505Y-7112D03*
D45*
X93028Y-7112D03*
D32*
X90297Y-7112D03*
D23*
X81471Y-7112D03*
D24*
X103378Y-6985D03*
D46*
X92266Y-6985D03*
D24*
X81534Y-6985D03*
X103251Y-6858D03*
D47*
X92202Y-6858D03*
D24*
X81661Y-6858D03*
X103251Y-6731D03*
D46*
X92139Y-6731D03*
D24*
X81661Y-6731D03*
D38*
X103188Y-6604D03*
D46*
X92139Y-6604D03*
D24*
X81788Y-6604D03*
X103124Y-6477D03*
D46*
X92139Y-6477D03*
D23*
X81852Y-6477D03*
D24*
X102997Y-6350D03*
D46*
X92012Y-6350D03*
D24*
X81915Y-6350D03*
X102870Y-6223D03*
D46*
X92012Y-6223D03*
D24*
X82042Y-6223D03*
X102870Y-6096D03*
D46*
X92012Y-6096D03*
D24*
X82042Y-6096D03*
D38*
X102807Y-5969D03*
D46*
X92012Y-5969D03*
D24*
X82169Y-5969D03*
X102743Y-5842D03*
D46*
X91885Y-5842D03*
D23*
X82233Y-5842D03*
D24*
X102616Y-5715D03*
D41*
X93917Y-5715D03*
D48*
X91059Y-5715D03*
D24*
X82296Y-5715D03*
X102616Y-5588D03*
D41*
X93917Y-5588D03*
D49*
X90869Y-5588D03*
D23*
X82360Y-5588D03*
D24*
X102489Y-5461D03*
D31*
X93853Y-5461D03*
D50*
X90615Y-5461D03*
D24*
X82423Y-5461D03*
X102489Y-5334D03*
D41*
X93790Y-5334D03*
D23*
X90488Y-5334D03*
D24*
X82550Y-5334D03*
X102362Y-5207D03*
D41*
X93790Y-5207D03*
D38*
X90361Y-5207D03*
D24*
X82550Y-5207D03*
D38*
X102299Y-5080D03*
D32*
X93726Y-5080D03*
D36*
X90170Y-5080D03*
D24*
X82677Y-5080D03*
X102235Y-4953D03*
D41*
X93663Y-4953D03*
D42*
X89980Y-4953D03*
D24*
X82677Y-4953D03*
X102108Y-4826D03*
D32*
X93599Y-4826D03*
D33*
X89789Y-4826D03*
D24*
X82804Y-4826D03*
X102108Y-4699D03*
D32*
X93599Y-4699D03*
X89662Y-4699D03*
D24*
X82931Y-4699D03*
X101981Y-4572D03*
D40*
X93536Y-4572D03*
D30*
X89472Y-4572D03*
D24*
X82931Y-4572D03*
X101981Y-4445D03*
D32*
X93472Y-4445D03*
D29*
X89218Y-4445D03*
D24*
X83058Y-4445D03*
X101854Y-4318D03*
D40*
X93409Y-4318D03*
D51*
X89091Y-4318D03*
D24*
X83058Y-4318D03*
X101727Y-4191D03*
D32*
X93345Y-4191D03*
D26*
X88900Y-4191D03*
D24*
X83185Y-4191D03*
X101727Y-4064D03*
D32*
X93345Y-4064D03*
D38*
X83249Y-4064D03*
D24*
X101600Y-3937D03*
D40*
X93282Y-3937D03*
D24*
X83312Y-3937D03*
X101600Y-3810D03*
D40*
X93282Y-3810D03*
D24*
X83439Y-3810D03*
X101473Y-3683D03*
D33*
X93218Y-3683D03*
D24*
X83439Y-3683D03*
D38*
X101410Y-3556D03*
D40*
X93155Y-3556D03*
D24*
X83566Y-3556D03*
X101346Y-3429D03*
D40*
X93155Y-3429D03*
D24*
X83566Y-3429D03*
D38*
X101283Y-3302D03*
D33*
X93091Y-3302D03*
D24*
X83693Y-3302D03*
X101219Y-3175D03*
D40*
X93028Y-3175D03*
D24*
X83820Y-3175D03*
X101092Y-3048D03*
D33*
X92964Y-3048D03*
D24*
X83820Y-3048D03*
X101092Y-2921D03*
D33*
X92964Y-2921D03*
D38*
X83884Y-2921D03*
D24*
X100965Y-2794D03*
D34*
X92901Y-2794D03*
D24*
X83947Y-2794D03*
D38*
X100902Y-2667D03*
D33*
X92837Y-2667D03*
D24*
X84074Y-2667D03*
X100838Y-2540D03*
D34*
X92774Y-2540D03*
D24*
X84201Y-2540D03*
X100711Y-2413D03*
D34*
X92774Y-2413D03*
D24*
X84201Y-2413D03*
X100711Y-2286D03*
D33*
X92710Y-2286D03*
D38*
X84265Y-2286D03*
D24*
X100584Y-2159D03*
D34*
X92647Y-2159D03*
D24*
X84328Y-2159D03*
D38*
X100521Y-2032D03*
D34*
X92647Y-2032D03*
D24*
X84455Y-2032D03*
X100457Y-1905D03*
D34*
X92520Y-1905D03*
D24*
X84455Y-1905D03*
D38*
X100394Y-1778D03*
D34*
X92520Y-1778D03*
D24*
X84582Y-1778D03*
X100330Y-1651D03*
D35*
X92456Y-1651D03*
D38*
X84646Y-1651D03*
D24*
X100203Y-1524D03*
D35*
X92456Y-1524D03*
D24*
X84709Y-1524D03*
D38*
X100140Y-1397D03*
D34*
X92393Y-1397D03*
D38*
X84773Y-1397D03*
D24*
X100076Y-1270D03*
D35*
X92329Y-1270D03*
D24*
X84836Y-1270D03*
D38*
X100013Y-1143D03*
D35*
X92329Y-1143D03*
D24*
X84963Y-1143D03*
X99949Y-1016D03*
D35*
X92202Y-1016D03*
D38*
X85027Y-1016D03*
D24*
X99822Y-889D03*
D35*
X92202Y-889D03*
D24*
X85090Y-889D03*
X99822Y-762D03*
D42*
X92139Y-762D03*
D38*
X85154Y-762D03*
D24*
X99695Y-635D03*
D42*
X92139Y-635D03*
D24*
X85217Y-635D03*
D38*
X99632Y-508D03*
D42*
X92012Y-508D03*
D24*
X85344Y-508D03*
X99568Y-381D03*
D42*
X92012Y-381D03*
D24*
X85344Y-381D03*
D38*
X99505Y-254D03*
D36*
X91948Y-254D03*
D24*
X85471Y-254D03*
X99441Y-127D03*
D42*
X91885Y-127D03*
D38*
X85535Y-127D03*
X99378Y0D03*
D42*
X91885Y0D03*
D24*
X85598Y0D03*
D38*
X99251Y127D03*
D36*
X91821Y127D03*
D38*
X85662Y127D03*
D24*
X99187Y254D03*
D36*
X91821Y254D03*
D24*
X85725Y254D03*
D38*
X99124Y381D03*
D36*
X91694Y381D03*
D38*
X85789Y381D03*
D24*
X99060Y508D03*
D36*
X91694Y508D03*
D38*
X85916Y508D03*
X98997Y635D03*
D39*
X91631Y635D03*
D24*
X85979Y635D03*
X98933Y762D03*
D39*
X91631Y762D03*
D38*
X86043Y762D03*
X98870Y889D03*
D36*
X91567Y889D03*
D24*
X86106Y889D03*
D38*
X98743Y1016D03*
D39*
X91504Y1016D03*
D38*
X86170Y1016D03*
D24*
X98679Y1143D03*
D39*
X91504Y1143D03*
D38*
X86297Y1143D03*
X98616Y1270D03*
D39*
X91377Y1270D03*
D24*
X86360Y1270D03*
X98552Y1397D03*
D39*
X91377Y1397D03*
D38*
X86424Y1397D03*
X98489Y1524D03*
D27*
X92329Y1524D03*
D24*
X86487Y1524D03*
D38*
X98362Y1651D03*
X86551Y1651D03*
D24*
X98298Y1778D03*
X86614Y1778D03*
D38*
X98235Y1905D03*
X86678Y1905D03*
D24*
X98171Y2032D03*
D38*
X86805Y2032D03*
X98108Y2159D03*
D24*
X86868Y2159D03*
D38*
X97981Y2286D03*
X86932Y2286D03*
X97981Y2413D03*
D24*
X86995Y2413D03*
D38*
X97854Y2540D03*
X87059Y2540D03*
D24*
X97790Y2667D03*
D38*
X87186Y2667D03*
X97727Y2794D03*
D24*
X87249Y2794D03*
X97663Y2921D03*
D38*
X87313Y2921D03*
X97600Y3048D03*
D24*
X87376Y3048D03*
D38*
X97473Y3175D03*
X87440Y3175D03*
X97473Y3302D03*
D24*
X87503Y3302D03*
D38*
X97346Y3429D03*
X87567Y3429D03*
X97346Y3556D03*
X87694Y3556D03*
X97219Y3683D03*
X87694Y3683D03*
X97092Y3810D03*
X87821Y3810D03*
X97092Y3937D03*
D24*
X87884Y3937D03*
D38*
X96965Y4064D03*
X87948Y4064D03*
X96965Y4191D03*
X88075Y4191D03*
X96838Y4318D03*
X88075Y4318D03*
D24*
X96774Y4445D03*
D38*
X88202Y4445D03*
X96711Y4572D03*
X88202Y4572D03*
X96584Y4699D03*
X88329Y4699D03*
X96584Y4826D03*
X88456Y4826D03*
X96457Y4953D03*
X88456Y4953D03*
X96457Y5080D03*
X88583Y5080D03*
X96330Y5207D03*
X88583Y5207D03*
D37*
X96266Y5334D03*
D38*
X88710Y5334D03*
X96203Y5461D03*
D24*
X88773Y5461D03*
D38*
X96076Y5588D03*
X88837Y5588D03*
X96076Y5715D03*
X88964Y5715D03*
X95949Y5842D03*
X88964Y5842D03*
D24*
X95885Y5969D03*
D38*
X89091Y5969D03*
X95822Y6096D03*
X89091Y6096D03*
D37*
X95758Y6223D03*
D38*
X89218Y6223D03*
X95695Y6350D03*
D37*
X89281Y6350D03*
D38*
X95568Y6477D03*
X89345Y6477D03*
X95568Y6604D03*
X89472Y6604D03*
X95441Y6731D03*
X89472Y6731D03*
D37*
X95377Y6858D03*
D38*
X89599Y6858D03*
X95314Y6985D03*
X89599Y6985D03*
X95187Y7112D03*
X89726Y7112D03*
X95187Y7239D03*
D37*
X89789Y7239D03*
D38*
X95060Y7366D03*
X89853Y7366D03*
D37*
X94996Y7493D03*
D38*
X89980Y7493D03*
X94933Y7620D03*
X89980Y7620D03*
X94806Y7747D03*
X90107Y7747D03*
X94806Y7874D03*
D37*
X90170Y7874D03*
D38*
X94679Y8001D03*
X90234Y8001D03*
X94679Y8128D03*
X90361Y8128D03*
X94552Y8255D03*
X90361Y8255D03*
D37*
X94488Y8382D03*
X90424Y8382D03*
D38*
X94425Y8509D03*
D37*
X90551Y8509D03*
D38*
X94298Y8636D03*
X90615Y8636D03*
X94298Y8763D03*
D37*
X90678Y8763D03*
D38*
X94171Y8890D03*
X90742Y8890D03*
X94171Y9017D03*
D37*
X90805Y9017D03*
D38*
X94044Y9144D03*
X90869Y9144D03*
D37*
X93980Y9271D03*
D38*
X90996Y9271D03*
X93917Y9398D03*
D37*
X91059Y9398D03*
X93853Y9525D03*
D38*
X91123Y9525D03*
D52*
X92520Y9652D03*
D53*
X92456Y9779D03*
D54*
X92456Y9906D03*
D55*
X92520Y10033D03*
D56*
X92456Y10160D03*
D57*
X92520Y10287D03*
D58*
X92456Y10414D03*
D59*
X92520Y10541D03*
D60*
X92456Y10668D03*
D48*
X92456Y10795D03*
D44*
X92520Y10922D03*
D61*
X92456Y11049D03*
D49*
X92520Y11176D03*
D43*
X92456Y11303D03*
D25*
X92456Y11430D03*
D23*
X92520Y11557D03*
D24*
X92456Y11684D03*
D38*
X92520Y11811D03*
D37*
X92456Y11938D03*
D36*
X92456Y12065D03*
D42*
X92520Y12192D03*
D35*
X92456Y12319D03*
D34*
X92520Y12446D03*
D33*
X92456Y12573D03*
D32*
X92456Y12700D03*
D31*
X92456Y12827D03*
D28*
X92456Y12954D03*
D12*
X-85344Y-18225D03*
D13*
X-85344Y-18098D03*
D14*
X-85344Y-17971D03*
D15*
X-85344Y-17844D03*
D16*
X-85344Y-17717D03*
X-85344Y-17590D03*
D17*
X-85281Y-17463D03*
D18*
X-85344Y-17336D03*
X-85344Y-17209D03*
X-85344Y-17082D03*
D17*
X-85281Y-16955D03*
D16*
X-85344Y-16828D03*
X-85344Y-16701D03*
D15*
X-85344Y-16574D03*
D19*
X-85281Y-16447D03*
D14*
X-85344Y-16320D03*
D13*
X-85344Y-16193D03*
X-85344Y-16066D03*
D20*
X-85344Y-15939D03*
D21*
X-85281Y-15812D03*
D12*
X-85344Y-15685D03*
D22*
X-85281Y-15558D03*
D23*
X-68644Y-15431D03*
X-102045Y-15431D03*
D24*
X-68707Y-15304D03*
D23*
X-101918Y-15304D03*
X-68771Y-15177D03*
X-101918Y-15177D03*
D24*
X-68834Y-15050D03*
D23*
X-101791Y-15050D03*
X-68898Y-14923D03*
D25*
X-101727Y-14923D03*
D23*
X-69025Y-14796D03*
X-101664Y-14796D03*
D24*
X-69088Y-14669D03*
D23*
X-101537Y-14669D03*
X-69152Y-14542D03*
X-101537Y-14542D03*
D24*
X-69215Y-14415D03*
D23*
X-101410Y-14415D03*
X-69279Y-14288D03*
X-101410Y-14288D03*
D24*
X-69342Y-14161D03*
D23*
X-101283Y-14161D03*
X-69406Y-14034D03*
X-101283Y-14034D03*
D24*
X-69469Y-13907D03*
D26*
X-85598Y-13907D03*
D23*
X-101156Y-13907D03*
X-69533Y-13780D03*
D27*
X-85598Y-13780D03*
D23*
X-101029Y-13780D03*
D24*
X-69596Y-13653D03*
D27*
X-85598Y-13653D03*
D23*
X-101029Y-13653D03*
D24*
X-69723Y-13526D03*
D28*
X-85598Y-13526D03*
D23*
X-100902Y-13526D03*
X-69787Y-13399D03*
D29*
X-85662Y-13399D03*
D23*
X-100902Y-13399D03*
D24*
X-69850Y-13272D03*
D29*
X-85662Y-13272D03*
D23*
X-100775Y-13272D03*
X-69914Y-13145D03*
D30*
X-85662Y-13145D03*
D24*
X-100711Y-13145D03*
X-69977Y-13018D03*
D30*
X-85662Y-13018D03*
D23*
X-100648Y-13018D03*
X-70041Y-12891D03*
D31*
X-85725Y-12891D03*
D23*
X-100521Y-12891D03*
X-70168Y-12764D03*
D32*
X-85725Y-12764D03*
D23*
X-100521Y-12764D03*
D24*
X-70231Y-12637D03*
D32*
X-85725Y-12637D03*
D24*
X-100457Y-12637D03*
D23*
X-70295Y-12510D03*
D33*
X-85725Y-12510D03*
D24*
X-100330Y-12510D03*
X-70358Y-12383D03*
D34*
X-85789Y-12383D03*
D23*
X-100267Y-12383D03*
X-70422Y-12256D03*
D34*
X-85789Y-12256D03*
D23*
X-100140Y-12256D03*
X-70549Y-12129D03*
D35*
X-85852Y-12129D03*
D23*
X-100140Y-12129D03*
D24*
X-70612Y-12002D03*
D36*
X-85852Y-12002D03*
D24*
X-100076Y-12002D03*
D23*
X-70676Y-11875D03*
D36*
X-85852Y-11875D03*
D23*
X-100013Y-11875D03*
D24*
X-70739Y-11748D03*
D37*
X-85852Y-11748D03*
D23*
X-99886Y-11748D03*
X-70803Y-11621D03*
D38*
X-85916Y-11621D03*
D24*
X-99822Y-11621D03*
X-70866Y-11494D03*
X-85979Y-11494D03*
D23*
X-99759Y-11494D03*
X-70930Y-11367D03*
D24*
X-85979Y-11367D03*
X-99695Y-11367D03*
D23*
X-71057Y-11240D03*
D25*
X-85979Y-11240D03*
D23*
X-99632Y-11240D03*
D24*
X-71120Y-11113D03*
D25*
X-85979Y-11113D03*
D23*
X-99505Y-11113D03*
X-71184Y-10986D03*
D39*
X-85535Y-10986D03*
D24*
X-99441Y-10986D03*
X-71247Y-10859D03*
D40*
X-86043Y-10859D03*
D23*
X-99378Y-10859D03*
X-71311Y-10732D03*
D32*
X-86106Y-10732D03*
D24*
X-99314Y-10732D03*
X-71374Y-10605D03*
D32*
X-86106Y-10605D03*
D23*
X-99251Y-10605D03*
D24*
X-71501Y-10478D03*
D40*
X-86170Y-10478D03*
D24*
X-99187Y-10478D03*
X-71501Y-10351D03*
D32*
X-86233Y-10351D03*
D23*
X-99124Y-10351D03*
D24*
X-71628Y-10224D03*
D32*
X-86233Y-10224D03*
D23*
X-98997Y-10224D03*
X-71692Y-10097D03*
D32*
X-86233Y-10097D03*
D24*
X-98933Y-10097D03*
X-71755Y-9970D03*
D32*
X-86233Y-9970D03*
D23*
X-98870Y-9970D03*
D24*
X-71882Y-9843D03*
D32*
X-86360Y-9843D03*
D24*
X-98806Y-9843D03*
X-71882Y-9716D03*
D32*
X-86360Y-9716D03*
D23*
X-98743Y-9716D03*
D24*
X-72009Y-9589D03*
D32*
X-86360Y-9589D03*
D24*
X-98679Y-9589D03*
D23*
X-72073Y-9462D03*
D32*
X-86487Y-9462D03*
D24*
X-98552Y-9462D03*
X-72136Y-9335D03*
D32*
X-86487Y-9335D03*
D24*
X-98552Y-9335D03*
D23*
X-72200Y-9208D03*
D32*
X-86487Y-9208D03*
D24*
X-98425Y-9208D03*
X-72263Y-9081D03*
D32*
X-86614Y-9081D03*
D23*
X-98362Y-9081D03*
D24*
X-72390Y-8954D03*
D32*
X-86614Y-8954D03*
D24*
X-98298Y-8954D03*
X-72390Y-8827D03*
D32*
X-86614Y-8827D03*
D24*
X-98171Y-8827D03*
X-72517Y-8700D03*
D32*
X-86614Y-8700D03*
D24*
X-98171Y-8700D03*
D23*
X-72581Y-8573D03*
D32*
X-86741Y-8573D03*
D24*
X-98044Y-8573D03*
X-72644Y-8446D03*
D32*
X-86741Y-8446D03*
D23*
X-97981Y-8446D03*
D24*
X-72771Y-8319D03*
D32*
X-86741Y-8319D03*
D24*
X-97917Y-8319D03*
X-72771Y-8192D03*
D41*
X-86805Y-8192D03*
D23*
X-97854Y-8192D03*
D24*
X-72898Y-8065D03*
D32*
X-86868Y-8065D03*
D24*
X-97790Y-8065D03*
D23*
X-72962Y-7938D03*
D32*
X-86868Y-7938D03*
D24*
X-97663Y-7938D03*
X-73025Y-7811D03*
D32*
X-86868Y-7811D03*
D24*
X-97663Y-7811D03*
D23*
X-73089Y-7684D03*
D41*
X-86932Y-7684D03*
D24*
X-97536Y-7684D03*
X-73152Y-7557D03*
D32*
X-86995Y-7557D03*
D23*
X-97473Y-7557D03*
D24*
X-73279Y-7430D03*
D32*
X-86995Y-7430D03*
D24*
X-97409Y-7430D03*
X-73279Y-7303D03*
D32*
X-86995Y-7303D03*
D24*
X-97282Y-7303D03*
X-73406Y-7176D03*
D32*
X-87122Y-7176D03*
D24*
X-97282Y-7176D03*
X-73406Y-7049D03*
D27*
X-82677Y-7049D03*
D32*
X-87122Y-7049D03*
D24*
X-97155Y-7049D03*
X-73533Y-6922D03*
D28*
X-82804Y-6922D03*
D32*
X-87122Y-6922D03*
D24*
X-97155Y-6922D03*
X-73660Y-6795D03*
D30*
X-82995Y-6795D03*
D40*
X-87186Y-6795D03*
D24*
X-97028Y-6795D03*
X-73660Y-6668D03*
D41*
X-83122Y-6668D03*
D32*
X-87249Y-6668D03*
D24*
X-97028Y-6668D03*
X-73787Y-6541D03*
D32*
X-83312Y-6541D03*
X-87249Y-6541D03*
D24*
X-96901Y-6541D03*
X-73787Y-6414D03*
D34*
X-83503Y-6414D03*
D32*
X-87249Y-6414D03*
D24*
X-96774Y-6414D03*
X-73914Y-6287D03*
D42*
X-83630Y-6287D03*
D41*
X-87313Y-6287D03*
D24*
X-96774Y-6287D03*
D38*
X-73978Y-6160D03*
D37*
X-83820Y-6160D03*
D32*
X-87376Y-6160D03*
D24*
X-96647Y-6160D03*
X-74041Y-6033D03*
D38*
X-84011Y-6033D03*
D32*
X-87376Y-6033D03*
D24*
X-96647Y-6033D03*
X-74168Y-5906D03*
D23*
X-84138Y-5906D03*
D41*
X-87440Y-5906D03*
D24*
X-96520Y-5906D03*
X-74168Y-5779D03*
D43*
X-84328Y-5779D03*
D32*
X-87503Y-5779D03*
D23*
X-96457Y-5779D03*
D24*
X-74295Y-5652D03*
D44*
X-84519Y-5652D03*
D32*
X-87503Y-5652D03*
D24*
X-96393Y-5652D03*
X-74295Y-5525D03*
D45*
X-84773Y-5525D03*
D32*
X-87503Y-5525D03*
D23*
X-96330Y-5525D03*
D24*
X-74422Y-5398D03*
D46*
X-85535Y-5398D03*
D24*
X-96266Y-5398D03*
X-74549Y-5271D03*
D47*
X-85598Y-5271D03*
D24*
X-96139Y-5271D03*
X-74549Y-5144D03*
D46*
X-85662Y-5144D03*
D24*
X-96139Y-5144D03*
D38*
X-74613Y-5017D03*
D46*
X-85662Y-5017D03*
D24*
X-96012Y-5017D03*
X-74676Y-4890D03*
D46*
X-85662Y-4890D03*
D23*
X-95949Y-4890D03*
D24*
X-74803Y-4763D03*
D46*
X-85789Y-4763D03*
D24*
X-95885Y-4763D03*
X-74930Y-4636D03*
D46*
X-85789Y-4636D03*
D24*
X-95758Y-4636D03*
X-74930Y-4509D03*
D46*
X-85789Y-4509D03*
D24*
X-95758Y-4509D03*
D38*
X-74994Y-4382D03*
D46*
X-85789Y-4382D03*
D24*
X-95631Y-4382D03*
X-75057Y-4255D03*
D46*
X-85916Y-4255D03*
D23*
X-95568Y-4255D03*
D24*
X-75184Y-4128D03*
D41*
X-83884Y-4128D03*
D48*
X-86741Y-4128D03*
D24*
X-95504Y-4128D03*
X-75184Y-4001D03*
D41*
X-83884Y-4001D03*
D49*
X-86932Y-4001D03*
D23*
X-95441Y-4001D03*
D24*
X-75311Y-3874D03*
D31*
X-83947Y-3874D03*
D50*
X-87186Y-3874D03*
D24*
X-95377Y-3874D03*
X-75311Y-3747D03*
D41*
X-84011Y-3747D03*
D23*
X-87313Y-3747D03*
D24*
X-95250Y-3747D03*
X-75438Y-3620D03*
D41*
X-84011Y-3620D03*
D38*
X-87440Y-3620D03*
D24*
X-95250Y-3620D03*
D38*
X-75502Y-3493D03*
D32*
X-84074Y-3493D03*
D36*
X-87630Y-3493D03*
D24*
X-95123Y-3493D03*
X-75565Y-3366D03*
D41*
X-84138Y-3366D03*
D42*
X-87821Y-3366D03*
D24*
X-95123Y-3366D03*
X-75692Y-3239D03*
D32*
X-84201Y-3239D03*
D33*
X-88011Y-3239D03*
D24*
X-94996Y-3239D03*
X-75692Y-3112D03*
D32*
X-84201Y-3112D03*
X-88138Y-3112D03*
D24*
X-94869Y-3112D03*
X-75819Y-2985D03*
D40*
X-84265Y-2985D03*
D30*
X-88329Y-2985D03*
D24*
X-94869Y-2985D03*
X-75819Y-2858D03*
D32*
X-84328Y-2858D03*
D29*
X-88583Y-2858D03*
D24*
X-94742Y-2858D03*
X-75946Y-2731D03*
D40*
X-84392Y-2731D03*
D51*
X-88710Y-2731D03*
D24*
X-94742Y-2731D03*
X-76073Y-2604D03*
D32*
X-84455Y-2604D03*
D26*
X-88900Y-2604D03*
D24*
X-94615Y-2604D03*
X-76073Y-2477D03*
D32*
X-84455Y-2477D03*
D38*
X-94552Y-2477D03*
D24*
X-76200Y-2350D03*
D40*
X-84519Y-2350D03*
D24*
X-94488Y-2350D03*
X-76200Y-2223D03*
D40*
X-84519Y-2223D03*
D24*
X-94361Y-2223D03*
X-76327Y-2096D03*
D33*
X-84582Y-2096D03*
D24*
X-94361Y-2096D03*
D38*
X-76391Y-1969D03*
D40*
X-84646Y-1969D03*
D24*
X-94234Y-1969D03*
X-76454Y-1842D03*
D40*
X-84646Y-1842D03*
D24*
X-94234Y-1842D03*
D38*
X-76518Y-1715D03*
D33*
X-84709Y-1715D03*
D24*
X-94107Y-1715D03*
X-76581Y-1588D03*
D40*
X-84773Y-1588D03*
D24*
X-93980Y-1588D03*
X-76708Y-1461D03*
D33*
X-84836Y-1461D03*
D24*
X-93980Y-1461D03*
X-76708Y-1334D03*
D33*
X-84836Y-1334D03*
D38*
X-93917Y-1334D03*
D24*
X-76835Y-1207D03*
D34*
X-84900Y-1207D03*
D24*
X-93853Y-1207D03*
D38*
X-76899Y-1080D03*
D33*
X-84963Y-1080D03*
D24*
X-93726Y-1080D03*
X-76962Y-953D03*
D34*
X-85027Y-953D03*
D24*
X-93599Y-953D03*
X-77089Y-826D03*
D34*
X-85027Y-826D03*
D24*
X-93599Y-826D03*
X-77089Y-699D03*
D33*
X-85090Y-699D03*
D38*
X-93536Y-699D03*
D24*
X-77216Y-572D03*
D34*
X-85154Y-572D03*
D24*
X-93472Y-572D03*
D38*
X-77280Y-445D03*
D34*
X-85154Y-445D03*
D24*
X-93345Y-445D03*
X-77343Y-318D03*
D34*
X-85281Y-318D03*
D24*
X-93345Y-318D03*
D38*
X-77407Y-191D03*
D34*
X-85281Y-191D03*
D24*
X-93218Y-191D03*
X-77470Y-64D03*
D35*
X-85344Y-64D03*
D38*
X-93155Y-64D03*
D24*
X-77597Y64D03*
D35*
X-85344Y64D03*
D24*
X-93091Y64D03*
D38*
X-77661Y191D03*
D34*
X-85408Y191D03*
D38*
X-93028Y191D03*
D24*
X-77724Y318D03*
D35*
X-85471Y318D03*
D24*
X-92964Y318D03*
D38*
X-77788Y445D03*
D35*
X-85471Y445D03*
D24*
X-92837Y445D03*
X-77851Y572D03*
D35*
X-85598Y572D03*
D38*
X-92774Y572D03*
D24*
X-77978Y699D03*
D35*
X-85598Y699D03*
D24*
X-92710Y699D03*
X-77978Y826D03*
D42*
X-85662Y826D03*
D38*
X-92647Y826D03*
D24*
X-78105Y953D03*
D42*
X-85662Y953D03*
D24*
X-92583Y953D03*
D38*
X-78169Y1080D03*
D42*
X-85789Y1080D03*
D24*
X-92456Y1080D03*
X-78232Y1207D03*
D42*
X-85789Y1207D03*
D24*
X-92456Y1207D03*
D38*
X-78296Y1334D03*
D36*
X-85852Y1334D03*
D24*
X-92329Y1334D03*
X-78359Y1461D03*
D42*
X-85916Y1461D03*
D38*
X-92266Y1461D03*
X-78423Y1588D03*
D42*
X-85916Y1588D03*
D24*
X-92202Y1588D03*
D38*
X-78550Y1715D03*
D36*
X-85979Y1715D03*
D38*
X-92139Y1715D03*
D24*
X-78613Y1842D03*
D36*
X-85979Y1842D03*
D24*
X-92075Y1842D03*
D38*
X-78677Y1969D03*
D36*
X-86106Y1969D03*
D38*
X-92012Y1969D03*
D24*
X-78740Y2096D03*
D36*
X-86106Y2096D03*
D38*
X-91885Y2096D03*
X-78804Y2223D03*
D39*
X-86170Y2223D03*
D24*
X-91821Y2223D03*
X-78867Y2350D03*
D39*
X-86170Y2350D03*
D38*
X-91758Y2350D03*
X-78931Y2477D03*
D36*
X-86233Y2477D03*
D24*
X-91694Y2477D03*
D38*
X-79058Y2604D03*
D39*
X-86297Y2604D03*
D38*
X-91631Y2604D03*
D24*
X-79121Y2731D03*
D39*
X-86297Y2731D03*
D38*
X-91504Y2731D03*
X-79185Y2858D03*
D39*
X-86424Y2858D03*
D24*
X-91440Y2858D03*
X-79248Y2985D03*
D39*
X-86424Y2985D03*
D38*
X-91377Y2985D03*
X-79312Y3112D03*
D27*
X-85471Y3112D03*
D24*
X-91313Y3112D03*
D38*
X-79439Y3239D03*
X-91250Y3239D03*
D24*
X-79502Y3366D03*
X-91186Y3366D03*
D38*
X-79566Y3493D03*
X-91123Y3493D03*
D24*
X-79629Y3620D03*
D38*
X-90996Y3620D03*
X-79693Y3747D03*
D24*
X-90932Y3747D03*
D38*
X-79820Y3874D03*
X-90869Y3874D03*
X-79820Y4001D03*
D24*
X-90805Y4001D03*
D38*
X-79947Y4128D03*
X-90742Y4128D03*
D24*
X-80010Y4255D03*
D38*
X-90615Y4255D03*
X-80074Y4382D03*
D24*
X-90551Y4382D03*
X-80137Y4509D03*
D38*
X-90488Y4509D03*
X-80201Y4636D03*
D24*
X-90424Y4636D03*
D38*
X-80328Y4763D03*
X-90361Y4763D03*
X-80328Y4890D03*
D24*
X-90297Y4890D03*
D38*
X-80455Y5017D03*
X-90234Y5017D03*
X-80455Y5144D03*
X-90107Y5144D03*
X-80582Y5271D03*
X-90107Y5271D03*
X-80709Y5398D03*
X-89980Y5398D03*
X-80709Y5525D03*
D24*
X-89916Y5525D03*
D38*
X-80836Y5652D03*
X-89853Y5652D03*
X-80836Y5779D03*
X-89726Y5779D03*
X-80963Y5906D03*
X-89726Y5906D03*
D24*
X-81026Y6033D03*
D38*
X-89599Y6033D03*
X-81090Y6160D03*
X-89599Y6160D03*
X-81217Y6287D03*
X-89472Y6287D03*
X-81217Y6414D03*
X-89345Y6414D03*
X-81344Y6541D03*
X-89345Y6541D03*
X-81344Y6668D03*
X-89218Y6668D03*
X-81471Y6795D03*
X-89218Y6795D03*
D37*
X-81534Y6922D03*
D38*
X-89091Y6922D03*
X-81598Y7049D03*
D24*
X-89027Y7049D03*
D38*
X-81725Y7176D03*
X-88964Y7176D03*
X-81725Y7303D03*
X-88837Y7303D03*
X-81852Y7430D03*
X-88837Y7430D03*
D24*
X-81915Y7557D03*
D38*
X-88710Y7557D03*
X-81979Y7684D03*
X-88710Y7684D03*
D37*
X-82042Y7811D03*
D38*
X-88583Y7811D03*
X-82106Y7938D03*
D37*
X-88519Y7938D03*
D38*
X-82233Y8065D03*
X-88456Y8065D03*
X-82233Y8192D03*
X-88329Y8192D03*
X-82360Y8319D03*
X-88329Y8319D03*
D37*
X-82423Y8446D03*
D38*
X-88202Y8446D03*
X-82487Y8573D03*
X-88202Y8573D03*
X-82614Y8700D03*
X-88075Y8700D03*
X-82614Y8827D03*
D37*
X-88011Y8827D03*
D38*
X-82741Y8954D03*
X-87948Y8954D03*
D37*
X-82804Y9081D03*
D38*
X-87821Y9081D03*
X-82868Y9208D03*
X-87821Y9208D03*
X-82995Y9335D03*
X-87694Y9335D03*
X-82995Y9462D03*
D37*
X-87630Y9462D03*
D38*
X-83122Y9589D03*
X-87567Y9589D03*
X-83122Y9716D03*
X-87440Y9716D03*
X-83249Y9843D03*
X-87440Y9843D03*
D37*
X-83312Y9970D03*
X-87376Y9970D03*
D38*
X-83376Y10097D03*
D37*
X-87249Y10097D03*
D38*
X-83503Y10224D03*
X-87186Y10224D03*
X-83503Y10351D03*
D37*
X-87122Y10351D03*
D38*
X-83630Y10478D03*
X-87059Y10478D03*
X-83630Y10605D03*
D37*
X-86995Y10605D03*
D38*
X-83757Y10732D03*
X-86932Y10732D03*
D37*
X-83820Y10859D03*
D38*
X-86805Y10859D03*
X-83884Y10986D03*
D37*
X-86741Y10986D03*
X-83947Y11113D03*
D38*
X-86678Y11113D03*
D52*
X-85281Y11240D03*
D53*
X-85344Y11367D03*
D54*
X-85344Y11494D03*
D55*
X-85281Y11621D03*
D56*
X-85344Y11748D03*
D57*
X-85281Y11875D03*
D58*
X-85344Y12002D03*
D59*
X-85281Y12129D03*
D60*
X-85344Y12256D03*
D48*
X-85344Y12383D03*
D44*
X-85281Y12510D03*
D61*
X-85344Y12637D03*
D49*
X-85281Y12764D03*
D43*
X-85344Y12891D03*
D25*
X-85344Y13018D03*
D23*
X-85281Y13145D03*
D24*
X-85344Y13272D03*
D38*
X-85281Y13399D03*
D37*
X-85344Y13526D03*
D36*
X-85344Y13653D03*
D42*
X-85281Y13780D03*
D35*
X-85344Y13907D03*
D34*
X-85281Y14034D03*
D33*
X-85344Y14161D03*
D32*
X-85344Y14288D03*
D31*
X-85344Y14415D03*
D28*
X-85344Y14542D03*
D62*
X-64897Y433255D02*
X-57531Y438166D01*
X-57531Y433255D02*
X-64897Y438166D01*
X-59168Y440979D02*
X-57531Y443025D01*
X-64897Y443025D01*
X-64897Y440979D02*
X-64897Y445072D01*
D63*
X55563Y390652D02*
X55563Y384302D01*
D62*
X58357Y358150D02*
X50991Y358150D01*
X58357Y358150D02*
X58357Y360196D01*
X58356Y360196D02*
X58354Y360285D01*
X58348Y360374D01*
X58338Y360463D01*
X58325Y360551D01*
X58308Y360639D01*
X58286Y360726D01*
X58261Y360811D01*
X58233Y360896D01*
X58200Y360979D01*
X58164Y361061D01*
X58125Y361141D01*
X58082Y361219D01*
X58036Y361295D01*
X57986Y361370D01*
X57933Y361442D01*
X57877Y361511D01*
X57818Y361578D01*
X57757Y361643D01*
X57692Y361704D01*
X57625Y361763D01*
X57556Y361819D01*
X57484Y361872D01*
X57409Y361922D01*
X57333Y361968D01*
X57255Y362011D01*
X57175Y362050D01*
X57093Y362086D01*
X57010Y362119D01*
X56925Y362147D01*
X56840Y362172D01*
X56753Y362194D01*
X56665Y362211D01*
X56577Y362224D01*
X56488Y362234D01*
X56399Y362240D01*
X56310Y362242D01*
X56221Y362240D01*
X56132Y362234D01*
X56043Y362224D01*
X55955Y362211D01*
X55867Y362194D01*
X55780Y362172D01*
X55695Y362147D01*
X55610Y362119D01*
X55527Y362086D01*
X55445Y362050D01*
X55365Y362011D01*
X55287Y361968D01*
X55211Y361922D01*
X55136Y361872D01*
X55064Y361819D01*
X54995Y361763D01*
X54928Y361704D01*
X54863Y361643D01*
X54802Y361578D01*
X54743Y361511D01*
X54687Y361442D01*
X54634Y361370D01*
X54584Y361295D01*
X54538Y361219D01*
X54495Y361141D01*
X54456Y361061D01*
X54420Y360979D01*
X54387Y360896D01*
X54359Y360811D01*
X54334Y360726D01*
X54312Y360639D01*
X54295Y360551D01*
X54282Y360463D01*
X54272Y360374D01*
X54266Y360285D01*
X54264Y360196D01*
X54264Y358150D01*
X54264Y360606D02*
X50991Y362242D01*
X56515Y369507D02*
X56600Y369505D01*
X56685Y369499D01*
X56769Y369489D01*
X56853Y369476D01*
X56937Y369458D01*
X57019Y369437D01*
X57100Y369412D01*
X57180Y369383D01*
X57259Y369350D01*
X57336Y369314D01*
X57411Y369274D01*
X57485Y369231D01*
X57556Y369185D01*
X57625Y369135D01*
X57692Y369082D01*
X57756Y369026D01*
X57817Y368967D01*
X57876Y368906D01*
X57932Y368842D01*
X57985Y368775D01*
X58035Y368706D01*
X58081Y368635D01*
X58124Y368561D01*
X58164Y368486D01*
X58200Y368409D01*
X58233Y368330D01*
X58262Y368250D01*
X58287Y368169D01*
X58308Y368087D01*
X58326Y368003D01*
X58339Y367919D01*
X58349Y367835D01*
X58355Y367750D01*
X58357Y367665D01*
X58355Y367569D01*
X58349Y367473D01*
X58339Y367378D01*
X58326Y367283D01*
X58308Y367188D01*
X58287Y367095D01*
X58262Y367002D01*
X58233Y366911D01*
X58201Y366820D01*
X58165Y366731D01*
X58125Y366644D01*
X58082Y366558D01*
X58036Y366474D01*
X57986Y366392D01*
X57932Y366312D01*
X57876Y366235D01*
X57816Y366160D01*
X57754Y366087D01*
X57688Y366017D01*
X57620Y365949D01*
X57549Y365884D01*
X57476Y365823D01*
X57400Y365764D01*
X57321Y365708D01*
X57241Y365656D01*
X57158Y365607D01*
X57074Y365561D01*
X56988Y365519D01*
X56900Y365481D01*
X56811Y365446D01*
X56720Y365414D01*
X55083Y368893D02*
X55142Y368953D01*
X55204Y369010D01*
X55268Y369065D01*
X55335Y369116D01*
X55404Y369165D01*
X55474Y369211D01*
X55547Y369254D01*
X55621Y369294D01*
X55697Y369330D01*
X55775Y369363D01*
X55854Y369393D01*
X55934Y369420D01*
X56015Y369443D01*
X56097Y369462D01*
X56179Y369478D01*
X56263Y369491D01*
X56347Y369500D01*
X56431Y369505D01*
X56515Y369507D01*
X55083Y368893D02*
X50991Y365414D01*
X50991Y369507D01*
D63*
X68390Y415925D02*
X74740Y415925D01*
D62*
X99050Y418719D02*
X99050Y411353D01*
X99050Y418719D02*
X97004Y418719D01*
X96915Y418717D01*
X96826Y418711D01*
X96737Y418701D01*
X96649Y418688D01*
X96561Y418671D01*
X96474Y418649D01*
X96389Y418624D01*
X96304Y418596D01*
X96221Y418563D01*
X96139Y418527D01*
X96059Y418488D01*
X95981Y418445D01*
X95905Y418399D01*
X95830Y418349D01*
X95758Y418296D01*
X95689Y418240D01*
X95622Y418181D01*
X95557Y418120D01*
X95496Y418055D01*
X95437Y417988D01*
X95381Y417919D01*
X95328Y417847D01*
X95278Y417772D01*
X95232Y417696D01*
X95189Y417618D01*
X95150Y417538D01*
X95114Y417456D01*
X95081Y417373D01*
X95053Y417288D01*
X95028Y417203D01*
X95006Y417116D01*
X94989Y417028D01*
X94976Y416940D01*
X94966Y416851D01*
X94960Y416762D01*
X94958Y416673D01*
X94960Y416584D01*
X94966Y416495D01*
X94976Y416406D01*
X94989Y416318D01*
X95006Y416230D01*
X95028Y416143D01*
X95053Y416058D01*
X95081Y415973D01*
X95114Y415890D01*
X95150Y415808D01*
X95189Y415728D01*
X95232Y415650D01*
X95278Y415574D01*
X95328Y415499D01*
X95381Y415427D01*
X95437Y415358D01*
X95496Y415291D01*
X95557Y415226D01*
X95622Y415165D01*
X95689Y415106D01*
X95758Y415050D01*
X95830Y414997D01*
X95905Y414947D01*
X95981Y414901D01*
X96059Y414858D01*
X96139Y414819D01*
X96221Y414783D01*
X96304Y414750D01*
X96389Y414722D01*
X96474Y414697D01*
X96561Y414675D01*
X96649Y414658D01*
X96737Y414645D01*
X96826Y414635D01*
X96915Y414629D01*
X97004Y414627D01*
X99050Y414627D01*
X96594Y414627D02*
X94958Y411353D01*
X91786Y417082D02*
X89740Y418719D01*
X89740Y411353D01*
X91786Y411353D02*
X87694Y411353D01*
D63*
X-57150Y355727D02*
X-57150Y349377D01*
D62*
X-65469Y345450D02*
X-72835Y345450D01*
X-65469Y345450D02*
X-65469Y347496D01*
X-65471Y347585D01*
X-65477Y347674D01*
X-65487Y347763D01*
X-65500Y347851D01*
X-65517Y347939D01*
X-65539Y348026D01*
X-65564Y348111D01*
X-65592Y348196D01*
X-65625Y348279D01*
X-65661Y348361D01*
X-65700Y348441D01*
X-65743Y348519D01*
X-65789Y348595D01*
X-65839Y348670D01*
X-65892Y348742D01*
X-65948Y348811D01*
X-66007Y348878D01*
X-66068Y348943D01*
X-66133Y349004D01*
X-66200Y349063D01*
X-66269Y349119D01*
X-66341Y349172D01*
X-66416Y349222D01*
X-66492Y349268D01*
X-66570Y349311D01*
X-66650Y349350D01*
X-66732Y349386D01*
X-66815Y349419D01*
X-66900Y349447D01*
X-66985Y349472D01*
X-67072Y349494D01*
X-67160Y349511D01*
X-67248Y349524D01*
X-67337Y349534D01*
X-67426Y349540D01*
X-67515Y349542D01*
X-67604Y349540D01*
X-67693Y349534D01*
X-67782Y349524D01*
X-67870Y349511D01*
X-67958Y349494D01*
X-68045Y349472D01*
X-68130Y349447D01*
X-68215Y349419D01*
X-68298Y349386D01*
X-68380Y349350D01*
X-68460Y349311D01*
X-68538Y349268D01*
X-68614Y349222D01*
X-68689Y349172D01*
X-68761Y349119D01*
X-68830Y349063D01*
X-68897Y349004D01*
X-68962Y348943D01*
X-69023Y348878D01*
X-69082Y348811D01*
X-69138Y348742D01*
X-69191Y348670D01*
X-69241Y348595D01*
X-69287Y348519D01*
X-69330Y348441D01*
X-69369Y348361D01*
X-69405Y348279D01*
X-69438Y348196D01*
X-69466Y348111D01*
X-69491Y348026D01*
X-69513Y347939D01*
X-69530Y347851D01*
X-69543Y347763D01*
X-69553Y347674D01*
X-69559Y347585D01*
X-69561Y347496D01*
X-69561Y345450D01*
X-69561Y347906D02*
X-72835Y349542D01*
X-72835Y352714D02*
X-72835Y354760D01*
X-72834Y354760D02*
X-72832Y354849D01*
X-72826Y354938D01*
X-72816Y355027D01*
X-72803Y355115D01*
X-72786Y355203D01*
X-72764Y355290D01*
X-72739Y355375D01*
X-72711Y355460D01*
X-72678Y355543D01*
X-72642Y355625D01*
X-72603Y355705D01*
X-72560Y355783D01*
X-72514Y355859D01*
X-72464Y355934D01*
X-72411Y356006D01*
X-72355Y356075D01*
X-72296Y356142D01*
X-72235Y356207D01*
X-72170Y356268D01*
X-72103Y356327D01*
X-72034Y356383D01*
X-71962Y356436D01*
X-71887Y356486D01*
X-71811Y356532D01*
X-71733Y356575D01*
X-71653Y356614D01*
X-71571Y356650D01*
X-71488Y356683D01*
X-71403Y356711D01*
X-71318Y356736D01*
X-71231Y356758D01*
X-71143Y356775D01*
X-71055Y356788D01*
X-70966Y356798D01*
X-70877Y356804D01*
X-70788Y356806D01*
X-70699Y356804D01*
X-70610Y356798D01*
X-70521Y356788D01*
X-70433Y356775D01*
X-70345Y356758D01*
X-70258Y356736D01*
X-70173Y356711D01*
X-70088Y356683D01*
X-70005Y356650D01*
X-69923Y356614D01*
X-69843Y356575D01*
X-69765Y356532D01*
X-69689Y356486D01*
X-69614Y356436D01*
X-69542Y356383D01*
X-69473Y356327D01*
X-69406Y356268D01*
X-69341Y356207D01*
X-69280Y356142D01*
X-69221Y356075D01*
X-69165Y356006D01*
X-69112Y355934D01*
X-69062Y355859D01*
X-69016Y355783D01*
X-68973Y355705D01*
X-68934Y355625D01*
X-68898Y355543D01*
X-68865Y355460D01*
X-68837Y355375D01*
X-68812Y355290D01*
X-68790Y355203D01*
X-68773Y355115D01*
X-68760Y355027D01*
X-68750Y354938D01*
X-68744Y354849D01*
X-68742Y354760D01*
X-65469Y355170D02*
X-65469Y352714D01*
X-65468Y355170D02*
X-65470Y355249D01*
X-65476Y355328D01*
X-65485Y355407D01*
X-65498Y355485D01*
X-65516Y355562D01*
X-65536Y355638D01*
X-65561Y355713D01*
X-65589Y355787D01*
X-65620Y355860D01*
X-65656Y355931D01*
X-65694Y356000D01*
X-65736Y356067D01*
X-65781Y356132D01*
X-65829Y356195D01*
X-65880Y356256D01*
X-65934Y356313D01*
X-65990Y356369D01*
X-66049Y356421D01*
X-66111Y356471D01*
X-66175Y356517D01*
X-66241Y356561D01*
X-66309Y356601D01*
X-66379Y356637D01*
X-66451Y356671D01*
X-66525Y356701D01*
X-66599Y356727D01*
X-66675Y356750D01*
X-66752Y356768D01*
X-66829Y356784D01*
X-66908Y356795D01*
X-66986Y356803D01*
X-67065Y356807D01*
X-67145Y356807D01*
X-67224Y356803D01*
X-67302Y356795D01*
X-67381Y356784D01*
X-67458Y356768D01*
X-67535Y356750D01*
X-67611Y356727D01*
X-67685Y356701D01*
X-67759Y356671D01*
X-67831Y356637D01*
X-67901Y356601D01*
X-67969Y356561D01*
X-68035Y356517D01*
X-68099Y356471D01*
X-68161Y356421D01*
X-68220Y356369D01*
X-68276Y356313D01*
X-68330Y356256D01*
X-68381Y356195D01*
X-68429Y356132D01*
X-68474Y356067D01*
X-68516Y356000D01*
X-68554Y355931D01*
X-68590Y355860D01*
X-68621Y355787D01*
X-68649Y355713D01*
X-68674Y355638D01*
X-68694Y355562D01*
X-68712Y355485D01*
X-68725Y355407D01*
X-68734Y355328D01*
X-68740Y355249D01*
X-68742Y355170D01*
X-68742Y353533D01*
D63*
X-52515Y409575D02*
X-45911Y409575D01*
D62*
X-68693Y409956D02*
X-70330Y409956D01*
X-68693Y409956D02*
X-68615Y409958D01*
X-68537Y409963D01*
X-68460Y409973D01*
X-68383Y409986D01*
X-68307Y410002D01*
X-68232Y410022D01*
X-68158Y410046D01*
X-68085Y410073D01*
X-68013Y410104D01*
X-67943Y410138D01*
X-67875Y410175D01*
X-67808Y410216D01*
X-67743Y410260D01*
X-67681Y410306D01*
X-67621Y410356D01*
X-67563Y410408D01*
X-67508Y410463D01*
X-67456Y410521D01*
X-67406Y410581D01*
X-67360Y410643D01*
X-67316Y410708D01*
X-67275Y410775D01*
X-67238Y410843D01*
X-67204Y410913D01*
X-67173Y410985D01*
X-67146Y411058D01*
X-67122Y411132D01*
X-67102Y411207D01*
X-67086Y411283D01*
X-67073Y411360D01*
X-67063Y411437D01*
X-67058Y411515D01*
X-67056Y411593D01*
X-67056Y415685D01*
X-67058Y415765D01*
X-67064Y415845D01*
X-67074Y415925D01*
X-67087Y416004D01*
X-67105Y416083D01*
X-67126Y416160D01*
X-67152Y416236D01*
X-67181Y416311D01*
X-67213Y416385D01*
X-67249Y416457D01*
X-67289Y416527D01*
X-67332Y416594D01*
X-67378Y416660D01*
X-67428Y416723D01*
X-67480Y416784D01*
X-67535Y416843D01*
X-67594Y416898D01*
X-67654Y416950D01*
X-67718Y417000D01*
X-67784Y417046D01*
X-67851Y417089D01*
X-67921Y417129D01*
X-67993Y417165D01*
X-68067Y417197D01*
X-68141Y417226D01*
X-68218Y417252D01*
X-68295Y417273D01*
X-68374Y417291D01*
X-68453Y417304D01*
X-68533Y417314D01*
X-68613Y417320D01*
X-68693Y417322D01*
X-70330Y417322D01*
X-73175Y417322D02*
X-73175Y416504D01*
X-73175Y417322D02*
X-77267Y417322D01*
X-75221Y409956D01*
D63*
X-52515Y400050D02*
X-45911Y400050D01*
D62*
X-70280Y397256D02*
X-71917Y397256D01*
X-70280Y397256D02*
X-70202Y397258D01*
X-70124Y397263D01*
X-70047Y397273D01*
X-69970Y397286D01*
X-69894Y397302D01*
X-69819Y397322D01*
X-69745Y397346D01*
X-69672Y397373D01*
X-69600Y397404D01*
X-69530Y397438D01*
X-69462Y397475D01*
X-69395Y397516D01*
X-69330Y397560D01*
X-69268Y397606D01*
X-69208Y397656D01*
X-69150Y397708D01*
X-69095Y397763D01*
X-69043Y397821D01*
X-68993Y397881D01*
X-68947Y397943D01*
X-68903Y398008D01*
X-68862Y398075D01*
X-68825Y398143D01*
X-68791Y398213D01*
X-68760Y398285D01*
X-68733Y398358D01*
X-68709Y398432D01*
X-68689Y398507D01*
X-68673Y398583D01*
X-68660Y398660D01*
X-68650Y398737D01*
X-68645Y398815D01*
X-68643Y398893D01*
X-68644Y398893D02*
X-68644Y402985D01*
X-68643Y402985D02*
X-68645Y403065D01*
X-68651Y403145D01*
X-68661Y403225D01*
X-68674Y403304D01*
X-68692Y403383D01*
X-68713Y403460D01*
X-68739Y403536D01*
X-68768Y403611D01*
X-68800Y403685D01*
X-68836Y403757D01*
X-68876Y403827D01*
X-68919Y403894D01*
X-68965Y403960D01*
X-69015Y404023D01*
X-69067Y404084D01*
X-69122Y404143D01*
X-69181Y404198D01*
X-69241Y404250D01*
X-69305Y404300D01*
X-69371Y404346D01*
X-69438Y404389D01*
X-69508Y404429D01*
X-69580Y404465D01*
X-69654Y404497D01*
X-69728Y404526D01*
X-69805Y404552D01*
X-69882Y404573D01*
X-69961Y404591D01*
X-70040Y404604D01*
X-70120Y404614D01*
X-70200Y404620D01*
X-70280Y404622D01*
X-71917Y404622D01*
X-74763Y399302D02*
X-74765Y399391D01*
X-74771Y399480D01*
X-74781Y399569D01*
X-74794Y399657D01*
X-74811Y399745D01*
X-74833Y399832D01*
X-74858Y399917D01*
X-74886Y400002D01*
X-74919Y400085D01*
X-74955Y400167D01*
X-74994Y400247D01*
X-75037Y400325D01*
X-75083Y400401D01*
X-75133Y400476D01*
X-75186Y400548D01*
X-75242Y400617D01*
X-75301Y400684D01*
X-75362Y400749D01*
X-75427Y400810D01*
X-75494Y400869D01*
X-75563Y400925D01*
X-75635Y400978D01*
X-75710Y401028D01*
X-75786Y401074D01*
X-75864Y401117D01*
X-75944Y401156D01*
X-76026Y401192D01*
X-76109Y401225D01*
X-76194Y401253D01*
X-76279Y401278D01*
X-76366Y401300D01*
X-76454Y401317D01*
X-76542Y401330D01*
X-76631Y401340D01*
X-76720Y401346D01*
X-76809Y401348D01*
X-76898Y401346D01*
X-76987Y401340D01*
X-77076Y401330D01*
X-77164Y401317D01*
X-77252Y401300D01*
X-77339Y401278D01*
X-77424Y401253D01*
X-77509Y401225D01*
X-77592Y401192D01*
X-77674Y401156D01*
X-77754Y401117D01*
X-77832Y401074D01*
X-77908Y401028D01*
X-77983Y400978D01*
X-78055Y400925D01*
X-78124Y400869D01*
X-78191Y400810D01*
X-78256Y400749D01*
X-78317Y400684D01*
X-78376Y400617D01*
X-78432Y400548D01*
X-78485Y400476D01*
X-78535Y400401D01*
X-78581Y400325D01*
X-78624Y400247D01*
X-78663Y400167D01*
X-78699Y400085D01*
X-78732Y400002D01*
X-78760Y399917D01*
X-78785Y399832D01*
X-78807Y399745D01*
X-78824Y399657D01*
X-78837Y399569D01*
X-78847Y399480D01*
X-78853Y399391D01*
X-78855Y399302D01*
X-78853Y399213D01*
X-78847Y399124D01*
X-78837Y399035D01*
X-78824Y398947D01*
X-78807Y398859D01*
X-78785Y398772D01*
X-78760Y398687D01*
X-78732Y398602D01*
X-78699Y398519D01*
X-78663Y398437D01*
X-78624Y398357D01*
X-78581Y398279D01*
X-78535Y398203D01*
X-78485Y398128D01*
X-78432Y398056D01*
X-78376Y397987D01*
X-78317Y397920D01*
X-78256Y397855D01*
X-78191Y397794D01*
X-78124Y397735D01*
X-78055Y397679D01*
X-77983Y397626D01*
X-77908Y397576D01*
X-77832Y397530D01*
X-77754Y397487D01*
X-77674Y397448D01*
X-77592Y397412D01*
X-77509Y397379D01*
X-77424Y397351D01*
X-77339Y397326D01*
X-77252Y397304D01*
X-77164Y397287D01*
X-77076Y397274D01*
X-76987Y397264D01*
X-76898Y397258D01*
X-76809Y397256D01*
X-76720Y397258D01*
X-76631Y397264D01*
X-76542Y397274D01*
X-76454Y397287D01*
X-76366Y397304D01*
X-76279Y397326D01*
X-76194Y397351D01*
X-76109Y397379D01*
X-76026Y397412D01*
X-75944Y397448D01*
X-75864Y397487D01*
X-75786Y397530D01*
X-75710Y397576D01*
X-75635Y397626D01*
X-75563Y397679D01*
X-75494Y397735D01*
X-75427Y397794D01*
X-75362Y397855D01*
X-75301Y397920D01*
X-75242Y397987D01*
X-75186Y398056D01*
X-75133Y398128D01*
X-75083Y398203D01*
X-75037Y398279D01*
X-74994Y398357D01*
X-74955Y398437D01*
X-74919Y398519D01*
X-74886Y398602D01*
X-74858Y398687D01*
X-74833Y398772D01*
X-74811Y398859D01*
X-74794Y398947D01*
X-74781Y399035D01*
X-74771Y399124D01*
X-74765Y399213D01*
X-74763Y399302D01*
X-75172Y402985D02*
X-75174Y403064D01*
X-75180Y403143D01*
X-75189Y403222D01*
X-75202Y403300D01*
X-75220Y403377D01*
X-75240Y403453D01*
X-75265Y403528D01*
X-75293Y403602D01*
X-75324Y403675D01*
X-75360Y403746D01*
X-75398Y403815D01*
X-75440Y403882D01*
X-75485Y403947D01*
X-75533Y404010D01*
X-75584Y404071D01*
X-75638Y404128D01*
X-75694Y404184D01*
X-75753Y404236D01*
X-75815Y404286D01*
X-75879Y404332D01*
X-75945Y404376D01*
X-76013Y404416D01*
X-76083Y404452D01*
X-76155Y404486D01*
X-76229Y404516D01*
X-76303Y404542D01*
X-76379Y404565D01*
X-76456Y404583D01*
X-76533Y404599D01*
X-76612Y404610D01*
X-76690Y404618D01*
X-76769Y404622D01*
X-76849Y404622D01*
X-76928Y404618D01*
X-77006Y404610D01*
X-77085Y404599D01*
X-77162Y404583D01*
X-77239Y404565D01*
X-77315Y404542D01*
X-77389Y404516D01*
X-77463Y404486D01*
X-77535Y404452D01*
X-77605Y404416D01*
X-77673Y404376D01*
X-77739Y404332D01*
X-77803Y404286D01*
X-77865Y404236D01*
X-77924Y404184D01*
X-77980Y404128D01*
X-78034Y404071D01*
X-78085Y404010D01*
X-78133Y403947D01*
X-78178Y403882D01*
X-78220Y403815D01*
X-78258Y403746D01*
X-78294Y403675D01*
X-78325Y403602D01*
X-78353Y403528D01*
X-78378Y403453D01*
X-78398Y403377D01*
X-78416Y403300D01*
X-78429Y403222D01*
X-78438Y403143D01*
X-78444Y403064D01*
X-78446Y402985D01*
X-78444Y402906D01*
X-78438Y402827D01*
X-78429Y402748D01*
X-78416Y402670D01*
X-78398Y402593D01*
X-78378Y402517D01*
X-78353Y402442D01*
X-78325Y402368D01*
X-78294Y402295D01*
X-78258Y402224D01*
X-78220Y402155D01*
X-78178Y402088D01*
X-78133Y402023D01*
X-78085Y401960D01*
X-78034Y401899D01*
X-77980Y401842D01*
X-77924Y401786D01*
X-77865Y401734D01*
X-77803Y401684D01*
X-77739Y401638D01*
X-77673Y401594D01*
X-77605Y401554D01*
X-77535Y401518D01*
X-77463Y401484D01*
X-77389Y401454D01*
X-77315Y401428D01*
X-77239Y401405D01*
X-77162Y401387D01*
X-77085Y401371D01*
X-77006Y401360D01*
X-76928Y401352D01*
X-76849Y401348D01*
X-76769Y401348D01*
X-76690Y401352D01*
X-76612Y401360D01*
X-76533Y401371D01*
X-76456Y401387D01*
X-76379Y401405D01*
X-76303Y401428D01*
X-76229Y401454D01*
X-76155Y401484D01*
X-76083Y401518D01*
X-76013Y401554D01*
X-75945Y401594D01*
X-75879Y401638D01*
X-75815Y401684D01*
X-75753Y401734D01*
X-75694Y401786D01*
X-75638Y401842D01*
X-75584Y401899D01*
X-75533Y401960D01*
X-75485Y402023D01*
X-75440Y402088D01*
X-75398Y402155D01*
X-75360Y402224D01*
X-75324Y402295D01*
X-75293Y402368D01*
X-75265Y402442D01*
X-75240Y402517D01*
X-75220Y402593D01*
X-75202Y402670D01*
X-75189Y402748D01*
X-75180Y402827D01*
X-75174Y402906D01*
X-75172Y402985D01*
D63*
X-39942Y355473D02*
X-39942Y348615D01*
D62*
X-29972Y342494D02*
X-22606Y342494D01*
X-22606Y345768D01*
X-25880Y345768D02*
X-25880Y342494D01*
X-25880Y348936D02*
X-25880Y350982D01*
X-25882Y351071D01*
X-25888Y351160D01*
X-25898Y351249D01*
X-25911Y351337D01*
X-25928Y351425D01*
X-25950Y351512D01*
X-25975Y351597D01*
X-26003Y351682D01*
X-26036Y351765D01*
X-26072Y351847D01*
X-26111Y351927D01*
X-26154Y352005D01*
X-26200Y352081D01*
X-26250Y352156D01*
X-26303Y352228D01*
X-26359Y352297D01*
X-26418Y352364D01*
X-26479Y352429D01*
X-26544Y352490D01*
X-26611Y352549D01*
X-26680Y352605D01*
X-26752Y352658D01*
X-26827Y352708D01*
X-26903Y352754D01*
X-26981Y352797D01*
X-27061Y352836D01*
X-27143Y352872D01*
X-27226Y352905D01*
X-27311Y352933D01*
X-27396Y352958D01*
X-27483Y352980D01*
X-27571Y352997D01*
X-27659Y353010D01*
X-27748Y353020D01*
X-27837Y353026D01*
X-27926Y353028D01*
X-28015Y353026D01*
X-28104Y353020D01*
X-28193Y353010D01*
X-28281Y352997D01*
X-28369Y352980D01*
X-28456Y352958D01*
X-28541Y352933D01*
X-28626Y352905D01*
X-28709Y352872D01*
X-28791Y352836D01*
X-28871Y352797D01*
X-28949Y352754D01*
X-29025Y352708D01*
X-29100Y352658D01*
X-29172Y352605D01*
X-29241Y352549D01*
X-29308Y352490D01*
X-29373Y352429D01*
X-29434Y352364D01*
X-29493Y352297D01*
X-29549Y352228D01*
X-29602Y352156D01*
X-29652Y352081D01*
X-29698Y352005D01*
X-29741Y351927D01*
X-29780Y351847D01*
X-29816Y351765D01*
X-29849Y351682D01*
X-29877Y351597D01*
X-29902Y351512D01*
X-29924Y351425D01*
X-29941Y351337D01*
X-29954Y351249D01*
X-29964Y351160D01*
X-29970Y351071D01*
X-29972Y350982D01*
X-29972Y348936D01*
X-22606Y348936D01*
X-22606Y350982D01*
X-22608Y351061D01*
X-22614Y351140D01*
X-22623Y351219D01*
X-22636Y351297D01*
X-22654Y351374D01*
X-22674Y351450D01*
X-22699Y351525D01*
X-22727Y351599D01*
X-22758Y351672D01*
X-22794Y351743D01*
X-22832Y351812D01*
X-22874Y351879D01*
X-22919Y351944D01*
X-22967Y352007D01*
X-23018Y352068D01*
X-23072Y352125D01*
X-23128Y352181D01*
X-23187Y352233D01*
X-23249Y352283D01*
X-23313Y352329D01*
X-23379Y352373D01*
X-23447Y352413D01*
X-23517Y352449D01*
X-23589Y352483D01*
X-23663Y352513D01*
X-23737Y352539D01*
X-23813Y352562D01*
X-23890Y352580D01*
X-23967Y352596D01*
X-24046Y352607D01*
X-24124Y352615D01*
X-24203Y352619D01*
X-24283Y352619D01*
X-24362Y352615D01*
X-24440Y352607D01*
X-24519Y352596D01*
X-24596Y352580D01*
X-24673Y352562D01*
X-24749Y352539D01*
X-24823Y352513D01*
X-24897Y352483D01*
X-24969Y352449D01*
X-25039Y352413D01*
X-25107Y352373D01*
X-25173Y352329D01*
X-25237Y352283D01*
X-25299Y352233D01*
X-25358Y352181D01*
X-25414Y352125D01*
X-25468Y352068D01*
X-25519Y352007D01*
X-25567Y351944D01*
X-25612Y351879D01*
X-25654Y351812D01*
X-25692Y351743D01*
X-25728Y351672D01*
X-25759Y351599D01*
X-25787Y351525D01*
X-25812Y351450D01*
X-25832Y351374D01*
X-25850Y351297D01*
X-25863Y351219D01*
X-25872Y351140D01*
X-25878Y351061D01*
X-25880Y350982D01*
X-24243Y355889D02*
X-22606Y357935D01*
X-29972Y357935D01*
X-29972Y355889D02*
X-29972Y359982D01*
X-26055Y396529D02*
X-26055Y400508D01*
X-26055Y396529D02*
X-28376Y393544D01*
X-26055Y396529D02*
X-23734Y393544D01*
X-26055Y396529D02*
X-29703Y397855D01*
X-26055Y396529D02*
X-22407Y397855D01*
D64*
X38199Y388874D02*
X38199Y383371D01*
X38197Y383280D01*
X38191Y383189D01*
X38181Y383098D01*
X38168Y383008D01*
X38150Y382919D01*
X38129Y382830D01*
X38104Y382743D01*
X38075Y382656D01*
X38042Y382571D01*
X38006Y382488D01*
X37966Y382406D01*
X37923Y382326D01*
X37876Y382247D01*
X37826Y382171D01*
X37773Y382097D01*
X37717Y382026D01*
X37657Y381957D01*
X37595Y381890D01*
X37530Y381827D01*
X37462Y381766D01*
X37392Y381708D01*
X37319Y381653D01*
X37244Y381601D01*
X37167Y381553D01*
X37087Y381508D01*
X37006Y381466D01*
X36924Y381428D01*
X36839Y381394D01*
X36753Y381363D01*
X36666Y381336D01*
X36578Y381313D01*
X36489Y381294D01*
X36400Y381278D01*
X36309Y381266D01*
X36219Y381258D01*
X36128Y381254D01*
X36036Y381254D01*
X35945Y381258D01*
X35855Y381266D01*
X35764Y381278D01*
X35675Y381294D01*
X35586Y381313D01*
X35498Y381336D01*
X35411Y381363D01*
X35325Y381394D01*
X35240Y381428D01*
X35158Y381466D01*
X35077Y381508D01*
X34997Y381553D01*
X34920Y381601D01*
X34845Y381653D01*
X34772Y381708D01*
X34702Y381766D01*
X34634Y381827D01*
X34569Y381890D01*
X34507Y381957D01*
X34447Y382026D01*
X34391Y382097D01*
X34338Y382171D01*
X34288Y382247D01*
X34241Y382326D01*
X34198Y382406D01*
X34158Y382488D01*
X34122Y382571D01*
X34089Y382656D01*
X34060Y382743D01*
X34035Y382830D01*
X34014Y382919D01*
X33996Y383008D01*
X33983Y383098D01*
X33973Y383189D01*
X33967Y383280D01*
X33965Y383371D01*
X33966Y383371D02*
X33966Y388874D01*
X30640Y387181D02*
X28523Y388874D01*
X28523Y381254D01*
X26407Y381254D02*
X30640Y381254D01*
D65*
X-40463Y336700D02*
X-57963Y336700D01*
X-57963Y323700D02*
X-40463Y323700D01*
D62*
X-18168Y325653D02*
X-18168Y333019D01*
X-20214Y333019D01*
X-20303Y333017D01*
X-20392Y333011D01*
X-20481Y333001D01*
X-20569Y332988D01*
X-20657Y332971D01*
X-20744Y332949D01*
X-20829Y332924D01*
X-20914Y332896D01*
X-20997Y332863D01*
X-21079Y332827D01*
X-21159Y332788D01*
X-21237Y332745D01*
X-21313Y332699D01*
X-21388Y332649D01*
X-21460Y332596D01*
X-21529Y332540D01*
X-21596Y332481D01*
X-21661Y332420D01*
X-21722Y332355D01*
X-21781Y332288D01*
X-21837Y332219D01*
X-21890Y332147D01*
X-21940Y332072D01*
X-21986Y331996D01*
X-22029Y331918D01*
X-22068Y331838D01*
X-22104Y331756D01*
X-22137Y331673D01*
X-22165Y331588D01*
X-22190Y331503D01*
X-22212Y331416D01*
X-22229Y331328D01*
X-22242Y331240D01*
X-22252Y331151D01*
X-22258Y331062D01*
X-22260Y330973D01*
X-22260Y327699D01*
X-22258Y327610D01*
X-22252Y327521D01*
X-22242Y327432D01*
X-22229Y327344D01*
X-22212Y327256D01*
X-22190Y327169D01*
X-22165Y327084D01*
X-22137Y326999D01*
X-22104Y326916D01*
X-22068Y326834D01*
X-22029Y326754D01*
X-21986Y326676D01*
X-21940Y326600D01*
X-21890Y326525D01*
X-21837Y326453D01*
X-21781Y326384D01*
X-21722Y326317D01*
X-21661Y326252D01*
X-21596Y326191D01*
X-21529Y326132D01*
X-21460Y326076D01*
X-21388Y326023D01*
X-21313Y325973D01*
X-21237Y325927D01*
X-21159Y325884D01*
X-21079Y325845D01*
X-20997Y325809D01*
X-20914Y325776D01*
X-20829Y325748D01*
X-20744Y325723D01*
X-20657Y325701D01*
X-20569Y325684D01*
X-20481Y325671D01*
X-20392Y325661D01*
X-20303Y325655D01*
X-20214Y325653D01*
X-18168Y325653D01*
X-27978Y333020D02*
X-28063Y333018D01*
X-28148Y333012D01*
X-28232Y333002D01*
X-28316Y332989D01*
X-28400Y332971D01*
X-28482Y332950D01*
X-28563Y332925D01*
X-28643Y332896D01*
X-28722Y332863D01*
X-28799Y332827D01*
X-28874Y332787D01*
X-28948Y332744D01*
X-29019Y332698D01*
X-29088Y332648D01*
X-29155Y332595D01*
X-29219Y332539D01*
X-29280Y332480D01*
X-29339Y332419D01*
X-29395Y332355D01*
X-29448Y332288D01*
X-29498Y332219D01*
X-29544Y332148D01*
X-29587Y332074D01*
X-29627Y331999D01*
X-29663Y331922D01*
X-29696Y331843D01*
X-29725Y331763D01*
X-29750Y331682D01*
X-29771Y331600D01*
X-29789Y331516D01*
X-29802Y331432D01*
X-29812Y331348D01*
X-29818Y331263D01*
X-29820Y331178D01*
X-27978Y333019D02*
X-27882Y333017D01*
X-27786Y333011D01*
X-27691Y333001D01*
X-27596Y332988D01*
X-27501Y332970D01*
X-27408Y332949D01*
X-27315Y332924D01*
X-27224Y332895D01*
X-27133Y332863D01*
X-27044Y332827D01*
X-26957Y332787D01*
X-26871Y332744D01*
X-26787Y332698D01*
X-26705Y332648D01*
X-26625Y332594D01*
X-26548Y332538D01*
X-26473Y332478D01*
X-26400Y332416D01*
X-26330Y332350D01*
X-26262Y332282D01*
X-26197Y332211D01*
X-26136Y332138D01*
X-26077Y332062D01*
X-26021Y331983D01*
X-25969Y331903D01*
X-25920Y331820D01*
X-25874Y331736D01*
X-25832Y331650D01*
X-25794Y331562D01*
X-25759Y331473D01*
X-25727Y331382D01*
X-29205Y329746D02*
X-29265Y329805D01*
X-29322Y329867D01*
X-29377Y329931D01*
X-29428Y329998D01*
X-29477Y330067D01*
X-29523Y330137D01*
X-29566Y330210D01*
X-29606Y330284D01*
X-29642Y330360D01*
X-29675Y330438D01*
X-29705Y330517D01*
X-29732Y330597D01*
X-29755Y330678D01*
X-29774Y330760D01*
X-29790Y330842D01*
X-29803Y330926D01*
X-29812Y331010D01*
X-29817Y331094D01*
X-29819Y331178D01*
X-29205Y329745D02*
X-25727Y325653D01*
X-29819Y325653D01*
D66*
X-25146Y109284D02*
X-25146Y95568D01*
D62*
X-44260Y94854D02*
X-44260Y96491D01*
X-44260Y94854D02*
X-44258Y94776D01*
X-44253Y94698D01*
X-44243Y94621D01*
X-44230Y94544D01*
X-44214Y94468D01*
X-44194Y94393D01*
X-44170Y94319D01*
X-44143Y94246D01*
X-44112Y94174D01*
X-44078Y94104D01*
X-44041Y94036D01*
X-44000Y93969D01*
X-43956Y93904D01*
X-43910Y93842D01*
X-43860Y93782D01*
X-43808Y93724D01*
X-43753Y93669D01*
X-43695Y93617D01*
X-43635Y93567D01*
X-43573Y93521D01*
X-43508Y93477D01*
X-43442Y93436D01*
X-43373Y93399D01*
X-43303Y93365D01*
X-43231Y93334D01*
X-43158Y93307D01*
X-43084Y93283D01*
X-43009Y93263D01*
X-42933Y93247D01*
X-42856Y93234D01*
X-42779Y93224D01*
X-42701Y93219D01*
X-42623Y93217D01*
X-42623Y93218D02*
X-38530Y93218D01*
X-38530Y93217D02*
X-38450Y93219D01*
X-38370Y93225D01*
X-38290Y93235D01*
X-38211Y93248D01*
X-38132Y93266D01*
X-38055Y93287D01*
X-37979Y93313D01*
X-37904Y93342D01*
X-37830Y93374D01*
X-37758Y93410D01*
X-37688Y93450D01*
X-37621Y93493D01*
X-37555Y93539D01*
X-37492Y93589D01*
X-37431Y93641D01*
X-37372Y93696D01*
X-37317Y93755D01*
X-37265Y93815D01*
X-37215Y93879D01*
X-37169Y93944D01*
X-37126Y94012D01*
X-37086Y94082D01*
X-37050Y94154D01*
X-37018Y94228D01*
X-36989Y94302D01*
X-36964Y94379D01*
X-36942Y94456D01*
X-36924Y94535D01*
X-36911Y94614D01*
X-36901Y94693D01*
X-36895Y94774D01*
X-36893Y94854D01*
X-36894Y94854D02*
X-36894Y96491D01*
X-38530Y99337D02*
X-36894Y101383D01*
X-44260Y101383D01*
X-44260Y99337D02*
X-44260Y103429D01*
X-40577Y106652D02*
X-40424Y106654D01*
X-40271Y106660D01*
X-40119Y106669D01*
X-39966Y106683D01*
X-39814Y106700D01*
X-39663Y106721D01*
X-39512Y106746D01*
X-39362Y106775D01*
X-39212Y106807D01*
X-39064Y106844D01*
X-38916Y106884D01*
X-38769Y106927D01*
X-38624Y106975D01*
X-38480Y107026D01*
X-38337Y107080D01*
X-38195Y107139D01*
X-38056Y107200D01*
X-37917Y107266D01*
X-37847Y107292D01*
X-37777Y107322D01*
X-37710Y107355D01*
X-37644Y107391D01*
X-37580Y107430D01*
X-37518Y107473D01*
X-37459Y107519D01*
X-37401Y107567D01*
X-37347Y107618D01*
X-37294Y107672D01*
X-37245Y107729D01*
X-37198Y107788D01*
X-37155Y107849D01*
X-37114Y107912D01*
X-37077Y107977D01*
X-37042Y108044D01*
X-37012Y108113D01*
X-36984Y108183D01*
X-36961Y108254D01*
X-36940Y108326D01*
X-36924Y108399D01*
X-36911Y108473D01*
X-36901Y108548D01*
X-36896Y108623D01*
X-36894Y108698D01*
X-36896Y108773D01*
X-36901Y108848D01*
X-36911Y108923D01*
X-36924Y108997D01*
X-36940Y109070D01*
X-36961Y109142D01*
X-36984Y109213D01*
X-37012Y109283D01*
X-37042Y109352D01*
X-37077Y109419D01*
X-37114Y109484D01*
X-37155Y109547D01*
X-37198Y109608D01*
X-37245Y109667D01*
X-37294Y109724D01*
X-37347Y109778D01*
X-37401Y109829D01*
X-37459Y109878D01*
X-37518Y109923D01*
X-37580Y109966D01*
X-37644Y110005D01*
X-37710Y110042D01*
X-37778Y110074D01*
X-37847Y110104D01*
X-37917Y110130D01*
X-38055Y110195D01*
X-38195Y110257D01*
X-38337Y110315D01*
X-38480Y110370D01*
X-38624Y110421D01*
X-38769Y110469D01*
X-38916Y110512D01*
X-39063Y110552D01*
X-39212Y110589D01*
X-39362Y110621D01*
X-39512Y110650D01*
X-39663Y110675D01*
X-39814Y110696D01*
X-39966Y110713D01*
X-40119Y110727D01*
X-40271Y110736D01*
X-40424Y110742D01*
X-40577Y110744D01*
X-40577Y106652D02*
X-40730Y106654D01*
X-40883Y106660D01*
X-41035Y106669D01*
X-41188Y106683D01*
X-41340Y106700D01*
X-41491Y106721D01*
X-41642Y106746D01*
X-41792Y106775D01*
X-41942Y106807D01*
X-42090Y106844D01*
X-42238Y106884D01*
X-42385Y106927D01*
X-42530Y106975D01*
X-42674Y107026D01*
X-42817Y107080D01*
X-42959Y107139D01*
X-43098Y107200D01*
X-43237Y107266D01*
X-43236Y107266D02*
X-43307Y107292D01*
X-43376Y107322D01*
X-43443Y107355D01*
X-43509Y107391D01*
X-43573Y107430D01*
X-43635Y107473D01*
X-43694Y107519D01*
X-43752Y107567D01*
X-43806Y107618D01*
X-43859Y107672D01*
X-43908Y107729D01*
X-43955Y107788D01*
X-43998Y107849D01*
X-44039Y107912D01*
X-44076Y107977D01*
X-44111Y108044D01*
X-44141Y108113D01*
X-44169Y108183D01*
X-44192Y108254D01*
X-44213Y108326D01*
X-44229Y108399D01*
X-44242Y108473D01*
X-44252Y108548D01*
X-44257Y108623D01*
X-44259Y108698D01*
X-43237Y110130D02*
X-43099Y110195D01*
X-42959Y110257D01*
X-42817Y110315D01*
X-42674Y110370D01*
X-42530Y110421D01*
X-42385Y110469D01*
X-42238Y110512D01*
X-42091Y110552D01*
X-41942Y110589D01*
X-41792Y110621D01*
X-41642Y110650D01*
X-41491Y110675D01*
X-41340Y110696D01*
X-41188Y110713D01*
X-41035Y110727D01*
X-40883Y110736D01*
X-40730Y110742D01*
X-40577Y110744D01*
X-43236Y110130D02*
X-43306Y110104D01*
X-43376Y110074D01*
X-43443Y110041D01*
X-43509Y110005D01*
X-43573Y109966D01*
X-43635Y109923D01*
X-43694Y109877D01*
X-43752Y109829D01*
X-43806Y109778D01*
X-43859Y109724D01*
X-43908Y109667D01*
X-43955Y109608D01*
X-43998Y109547D01*
X-44039Y109484D01*
X-44076Y109419D01*
X-44111Y109352D01*
X-44141Y109283D01*
X-44169Y109213D01*
X-44192Y109142D01*
X-44213Y109070D01*
X-44229Y108997D01*
X-44242Y108923D01*
X-44252Y108848D01*
X-44257Y108773D01*
X-44259Y108698D01*
X-42623Y107061D02*
X-38530Y110335D01*
D63*
X-25879Y127039D02*
X-25879Y142533D01*
D62*
X-36928Y128944D02*
X-44294Y128944D01*
X-36928Y128944D02*
X-36928Y130990D01*
X-36930Y131079D01*
X-36936Y131168D01*
X-36946Y131257D01*
X-36959Y131345D01*
X-36976Y131433D01*
X-36998Y131520D01*
X-37023Y131605D01*
X-37051Y131690D01*
X-37084Y131773D01*
X-37120Y131855D01*
X-37159Y131935D01*
X-37202Y132013D01*
X-37248Y132089D01*
X-37298Y132164D01*
X-37351Y132236D01*
X-37407Y132305D01*
X-37466Y132372D01*
X-37527Y132437D01*
X-37592Y132498D01*
X-37659Y132557D01*
X-37728Y132613D01*
X-37800Y132666D01*
X-37875Y132716D01*
X-37951Y132762D01*
X-38029Y132805D01*
X-38109Y132844D01*
X-38191Y132880D01*
X-38274Y132913D01*
X-38359Y132941D01*
X-38444Y132966D01*
X-38531Y132988D01*
X-38619Y133005D01*
X-38707Y133018D01*
X-38796Y133028D01*
X-38885Y133034D01*
X-38974Y133036D01*
X-39063Y133034D01*
X-39152Y133028D01*
X-39241Y133018D01*
X-39329Y133005D01*
X-39417Y132988D01*
X-39504Y132966D01*
X-39589Y132941D01*
X-39674Y132913D01*
X-39757Y132880D01*
X-39839Y132844D01*
X-39919Y132805D01*
X-39997Y132762D01*
X-40073Y132716D01*
X-40148Y132666D01*
X-40220Y132613D01*
X-40289Y132557D01*
X-40356Y132498D01*
X-40421Y132437D01*
X-40482Y132372D01*
X-40541Y132305D01*
X-40597Y132236D01*
X-40650Y132164D01*
X-40700Y132089D01*
X-40746Y132013D01*
X-40789Y131935D01*
X-40828Y131855D01*
X-40864Y131773D01*
X-40897Y131690D01*
X-40925Y131605D01*
X-40950Y131520D01*
X-40972Y131433D01*
X-40989Y131345D01*
X-41002Y131257D01*
X-41012Y131168D01*
X-41018Y131079D01*
X-41020Y130990D01*
X-41021Y130990D02*
X-41021Y128944D01*
X-41021Y131399D02*
X-44294Y133036D01*
X-38565Y136208D02*
X-36928Y138254D01*
X-44294Y138254D01*
X-44294Y136208D02*
X-44294Y140300D01*
X-38770Y147615D02*
X-38685Y147613D01*
X-38600Y147607D01*
X-38516Y147597D01*
X-38432Y147584D01*
X-38348Y147566D01*
X-38266Y147545D01*
X-38185Y147520D01*
X-38105Y147491D01*
X-38026Y147458D01*
X-37949Y147422D01*
X-37874Y147382D01*
X-37800Y147339D01*
X-37729Y147293D01*
X-37660Y147243D01*
X-37593Y147190D01*
X-37529Y147134D01*
X-37468Y147075D01*
X-37409Y147014D01*
X-37353Y146950D01*
X-37300Y146883D01*
X-37250Y146814D01*
X-37204Y146743D01*
X-37161Y146669D01*
X-37121Y146594D01*
X-37085Y146517D01*
X-37052Y146438D01*
X-37023Y146358D01*
X-36998Y146277D01*
X-36977Y146195D01*
X-36959Y146111D01*
X-36946Y146027D01*
X-36936Y145943D01*
X-36930Y145858D01*
X-36928Y145773D01*
X-36930Y145677D01*
X-36936Y145581D01*
X-36946Y145486D01*
X-36959Y145391D01*
X-36977Y145296D01*
X-36998Y145203D01*
X-37023Y145110D01*
X-37052Y145019D01*
X-37084Y144928D01*
X-37120Y144839D01*
X-37160Y144752D01*
X-37203Y144666D01*
X-37249Y144582D01*
X-37299Y144500D01*
X-37353Y144420D01*
X-37409Y144343D01*
X-37469Y144268D01*
X-37531Y144195D01*
X-37597Y144125D01*
X-37665Y144057D01*
X-37736Y143992D01*
X-37809Y143931D01*
X-37885Y143872D01*
X-37964Y143816D01*
X-38044Y143764D01*
X-38127Y143715D01*
X-38211Y143669D01*
X-38297Y143627D01*
X-38385Y143589D01*
X-38474Y143554D01*
X-38565Y143522D01*
X-40202Y147001D02*
X-40143Y147061D01*
X-40081Y147118D01*
X-40017Y147173D01*
X-39950Y147224D01*
X-39881Y147273D01*
X-39811Y147319D01*
X-39738Y147362D01*
X-39664Y147402D01*
X-39588Y147438D01*
X-39510Y147471D01*
X-39431Y147501D01*
X-39351Y147528D01*
X-39270Y147551D01*
X-39188Y147570D01*
X-39106Y147586D01*
X-39022Y147599D01*
X-38938Y147608D01*
X-38854Y147613D01*
X-38770Y147615D01*
X-40202Y147001D02*
X-44294Y143523D01*
X-44294Y147615D01*
D63*
X9818Y117446D02*
X25312Y117446D01*
D62*
X48275Y120044D02*
X48275Y112678D01*
X48275Y120044D02*
X46229Y120044D01*
X46140Y120042D01*
X46051Y120036D01*
X45962Y120026D01*
X45874Y120013D01*
X45786Y119996D01*
X45699Y119974D01*
X45614Y119949D01*
X45529Y119921D01*
X45446Y119888D01*
X45364Y119852D01*
X45284Y119813D01*
X45206Y119770D01*
X45130Y119724D01*
X45055Y119674D01*
X44983Y119621D01*
X44914Y119565D01*
X44847Y119506D01*
X44782Y119445D01*
X44721Y119380D01*
X44662Y119313D01*
X44606Y119244D01*
X44553Y119172D01*
X44503Y119097D01*
X44457Y119021D01*
X44414Y118943D01*
X44375Y118863D01*
X44339Y118781D01*
X44306Y118698D01*
X44278Y118613D01*
X44253Y118528D01*
X44231Y118441D01*
X44214Y118353D01*
X44201Y118265D01*
X44191Y118176D01*
X44185Y118087D01*
X44183Y117998D01*
X44185Y117909D01*
X44191Y117820D01*
X44201Y117731D01*
X44214Y117643D01*
X44231Y117555D01*
X44253Y117468D01*
X44278Y117383D01*
X44306Y117298D01*
X44339Y117215D01*
X44375Y117133D01*
X44414Y117053D01*
X44457Y116975D01*
X44503Y116899D01*
X44553Y116824D01*
X44606Y116752D01*
X44662Y116683D01*
X44721Y116616D01*
X44782Y116551D01*
X44847Y116490D01*
X44914Y116431D01*
X44983Y116375D01*
X45055Y116322D01*
X45130Y116272D01*
X45206Y116226D01*
X45284Y116183D01*
X45364Y116144D01*
X45446Y116108D01*
X45529Y116075D01*
X45614Y116047D01*
X45699Y116022D01*
X45786Y116000D01*
X45874Y115983D01*
X45962Y115970D01*
X46051Y115960D01*
X46140Y115954D01*
X46229Y115952D01*
X46229Y115951D02*
X48275Y115951D01*
X45819Y115951D02*
X44183Y112678D01*
X41011Y116770D02*
X38555Y116770D01*
X38475Y116768D01*
X38395Y116762D01*
X38315Y116752D01*
X38236Y116739D01*
X38157Y116721D01*
X38080Y116700D01*
X38004Y116674D01*
X37929Y116645D01*
X37855Y116613D01*
X37783Y116577D01*
X37713Y116537D01*
X37646Y116494D01*
X37580Y116448D01*
X37517Y116398D01*
X37456Y116346D01*
X37397Y116291D01*
X37342Y116232D01*
X37290Y116172D01*
X37240Y116108D01*
X37194Y116042D01*
X37151Y115975D01*
X37111Y115905D01*
X37075Y115833D01*
X37043Y115759D01*
X37014Y115685D01*
X36988Y115608D01*
X36967Y115531D01*
X36949Y115452D01*
X36936Y115373D01*
X36926Y115293D01*
X36920Y115213D01*
X36918Y115133D01*
X36919Y115133D02*
X36919Y114724D01*
X36921Y114635D01*
X36927Y114546D01*
X36937Y114457D01*
X36950Y114369D01*
X36967Y114281D01*
X36989Y114194D01*
X37014Y114109D01*
X37042Y114024D01*
X37075Y113941D01*
X37111Y113859D01*
X37150Y113779D01*
X37193Y113701D01*
X37239Y113625D01*
X37289Y113550D01*
X37342Y113478D01*
X37398Y113409D01*
X37457Y113342D01*
X37518Y113277D01*
X37583Y113216D01*
X37650Y113157D01*
X37719Y113101D01*
X37791Y113048D01*
X37866Y112998D01*
X37942Y112952D01*
X38020Y112909D01*
X38100Y112870D01*
X38182Y112834D01*
X38265Y112801D01*
X38350Y112773D01*
X38435Y112748D01*
X38522Y112726D01*
X38610Y112709D01*
X38698Y112696D01*
X38787Y112686D01*
X38876Y112680D01*
X38965Y112678D01*
X39054Y112680D01*
X39143Y112686D01*
X39232Y112696D01*
X39320Y112709D01*
X39408Y112726D01*
X39495Y112748D01*
X39580Y112773D01*
X39665Y112801D01*
X39748Y112834D01*
X39830Y112870D01*
X39910Y112909D01*
X39988Y112952D01*
X40064Y112998D01*
X40139Y113048D01*
X40211Y113101D01*
X40280Y113157D01*
X40347Y113216D01*
X40412Y113277D01*
X40473Y113342D01*
X40532Y113409D01*
X40588Y113478D01*
X40641Y113550D01*
X40691Y113625D01*
X40737Y113701D01*
X40780Y113779D01*
X40819Y113859D01*
X40855Y113941D01*
X40888Y114024D01*
X40916Y114109D01*
X40941Y114194D01*
X40963Y114281D01*
X40980Y114369D01*
X40993Y114457D01*
X41003Y114546D01*
X41009Y114635D01*
X41011Y114724D01*
X41011Y116770D01*
X41009Y116882D01*
X41003Y116993D01*
X40994Y117105D01*
X40981Y117216D01*
X40963Y117326D01*
X40943Y117436D01*
X40918Y117545D01*
X40890Y117653D01*
X40858Y117760D01*
X40822Y117866D01*
X40783Y117971D01*
X40740Y118074D01*
X40694Y118176D01*
X40644Y118276D01*
X40591Y118375D01*
X40534Y118471D01*
X40475Y118566D01*
X40412Y118658D01*
X40346Y118748D01*
X40277Y118836D01*
X40205Y118922D01*
X40130Y119005D01*
X40052Y119085D01*
X39972Y119163D01*
X39889Y119238D01*
X39803Y119310D01*
X39715Y119379D01*
X39625Y119445D01*
X39533Y119508D01*
X39438Y119567D01*
X39342Y119624D01*
X39243Y119677D01*
X39143Y119727D01*
X39041Y119773D01*
X38938Y119816D01*
X38833Y119855D01*
X38727Y119891D01*
X38620Y119923D01*
X38512Y119951D01*
X38403Y119976D01*
X38293Y119996D01*
X38183Y120014D01*
X38072Y120027D01*
X37960Y120036D01*
X37849Y120042D01*
X37737Y120044D01*
D66*
X-4509Y109284D02*
X-4509Y95568D01*
D62*
X-7557Y70330D02*
X-7557Y68693D01*
X-7555Y68615D01*
X-7550Y68537D01*
X-7540Y68460D01*
X-7527Y68383D01*
X-7511Y68307D01*
X-7491Y68232D01*
X-7467Y68158D01*
X-7440Y68085D01*
X-7409Y68013D01*
X-7375Y67943D01*
X-7338Y67875D01*
X-7297Y67808D01*
X-7253Y67743D01*
X-7207Y67681D01*
X-7157Y67621D01*
X-7105Y67563D01*
X-7050Y67508D01*
X-6992Y67456D01*
X-6932Y67406D01*
X-6870Y67360D01*
X-6805Y67316D01*
X-6739Y67275D01*
X-6670Y67238D01*
X-6600Y67204D01*
X-6528Y67173D01*
X-6455Y67146D01*
X-6381Y67122D01*
X-6306Y67102D01*
X-6230Y67086D01*
X-6153Y67073D01*
X-6076Y67063D01*
X-5998Y67058D01*
X-5920Y67056D01*
X-1827Y67056D01*
X-1747Y67058D01*
X-1667Y67064D01*
X-1587Y67074D01*
X-1508Y67087D01*
X-1429Y67105D01*
X-1352Y67126D01*
X-1276Y67152D01*
X-1201Y67181D01*
X-1127Y67213D01*
X-1055Y67249D01*
X-985Y67289D01*
X-918Y67332D01*
X-852Y67378D01*
X-789Y67428D01*
X-728Y67480D01*
X-669Y67535D01*
X-614Y67594D01*
X-562Y67654D01*
X-512Y67718D01*
X-466Y67783D01*
X-423Y67851D01*
X-383Y67921D01*
X-347Y67993D01*
X-315Y68067D01*
X-286Y68141D01*
X-261Y68218D01*
X-239Y68295D01*
X-221Y68374D01*
X-208Y68453D01*
X-198Y68532D01*
X-192Y68613D01*
X-190Y68693D01*
X-191Y68693D02*
X-191Y70330D01*
X-1827Y73175D02*
X-191Y75221D01*
X-7557Y75221D01*
X-7557Y73175D02*
X-7557Y77267D01*
X-1827Y80490D02*
X-191Y82536D01*
X-7557Y82536D01*
X-7557Y80490D02*
X-7557Y84583D01*
D63*
X-5242Y127039D02*
X-5242Y142533D01*
D62*
X6766Y130198D02*
X14132Y130198D01*
X14132Y132244D01*
X14130Y132333D01*
X14124Y132422D01*
X14114Y132511D01*
X14101Y132599D01*
X14084Y132687D01*
X14062Y132774D01*
X14037Y132859D01*
X14009Y132944D01*
X13976Y133027D01*
X13940Y133109D01*
X13901Y133189D01*
X13858Y133267D01*
X13812Y133343D01*
X13762Y133418D01*
X13709Y133490D01*
X13653Y133559D01*
X13594Y133626D01*
X13533Y133691D01*
X13468Y133752D01*
X13401Y133811D01*
X13332Y133867D01*
X13260Y133920D01*
X13185Y133970D01*
X13109Y134016D01*
X13031Y134059D01*
X12951Y134098D01*
X12869Y134134D01*
X12786Y134167D01*
X12701Y134195D01*
X12616Y134220D01*
X12529Y134242D01*
X12441Y134259D01*
X12353Y134272D01*
X12264Y134282D01*
X12175Y134288D01*
X12086Y134290D01*
X11997Y134288D01*
X11908Y134282D01*
X11819Y134272D01*
X11731Y134259D01*
X11643Y134242D01*
X11556Y134220D01*
X11471Y134195D01*
X11386Y134167D01*
X11303Y134134D01*
X11221Y134098D01*
X11141Y134059D01*
X11063Y134016D01*
X10987Y133970D01*
X10912Y133920D01*
X10840Y133867D01*
X10771Y133811D01*
X10704Y133752D01*
X10639Y133691D01*
X10578Y133626D01*
X10519Y133559D01*
X10463Y133490D01*
X10410Y133418D01*
X10360Y133343D01*
X10314Y133267D01*
X10271Y133189D01*
X10232Y133109D01*
X10196Y133027D01*
X10163Y132944D01*
X10135Y132859D01*
X10110Y132774D01*
X10088Y132687D01*
X10071Y132599D01*
X10058Y132511D01*
X10048Y132422D01*
X10042Y132333D01*
X10040Y132244D01*
X10040Y130198D01*
X10040Y132653D02*
X6766Y134290D01*
X12495Y137462D02*
X14132Y139508D01*
X6766Y139508D01*
X6766Y137462D02*
X6766Y141554D01*
X6766Y144777D02*
X6766Y146823D01*
X6768Y146912D01*
X6774Y147001D01*
X6784Y147090D01*
X6797Y147178D01*
X6814Y147266D01*
X6836Y147353D01*
X6861Y147438D01*
X6889Y147523D01*
X6922Y147606D01*
X6958Y147688D01*
X6997Y147768D01*
X7040Y147846D01*
X7086Y147922D01*
X7136Y147997D01*
X7189Y148069D01*
X7245Y148138D01*
X7304Y148205D01*
X7365Y148270D01*
X7430Y148331D01*
X7497Y148390D01*
X7566Y148446D01*
X7638Y148499D01*
X7713Y148549D01*
X7789Y148595D01*
X7867Y148638D01*
X7947Y148677D01*
X8029Y148713D01*
X8112Y148746D01*
X8197Y148774D01*
X8282Y148799D01*
X8369Y148821D01*
X8457Y148838D01*
X8545Y148851D01*
X8634Y148861D01*
X8723Y148867D01*
X8812Y148869D01*
X8901Y148867D01*
X8990Y148861D01*
X9079Y148851D01*
X9167Y148838D01*
X9255Y148821D01*
X9342Y148799D01*
X9427Y148774D01*
X9512Y148746D01*
X9595Y148713D01*
X9677Y148677D01*
X9757Y148638D01*
X9835Y148595D01*
X9911Y148549D01*
X9986Y148499D01*
X10058Y148446D01*
X10127Y148390D01*
X10194Y148331D01*
X10259Y148270D01*
X10320Y148205D01*
X10379Y148138D01*
X10435Y148069D01*
X10488Y147997D01*
X10538Y147922D01*
X10584Y147846D01*
X10627Y147768D01*
X10666Y147688D01*
X10702Y147606D01*
X10735Y147523D01*
X10763Y147438D01*
X10788Y147353D01*
X10810Y147266D01*
X10827Y147178D01*
X10840Y147090D01*
X10850Y147001D01*
X10856Y146912D01*
X10858Y146823D01*
X14132Y147232D02*
X14132Y144777D01*
X14132Y147232D02*
X14130Y147311D01*
X14124Y147390D01*
X14115Y147469D01*
X14102Y147547D01*
X14084Y147624D01*
X14064Y147700D01*
X14039Y147775D01*
X14011Y147849D01*
X13980Y147922D01*
X13944Y147993D01*
X13906Y148062D01*
X13864Y148129D01*
X13819Y148194D01*
X13771Y148257D01*
X13720Y148318D01*
X13666Y148375D01*
X13610Y148431D01*
X13551Y148483D01*
X13489Y148533D01*
X13425Y148579D01*
X13359Y148623D01*
X13291Y148663D01*
X13221Y148699D01*
X13149Y148733D01*
X13075Y148763D01*
X13001Y148789D01*
X12925Y148812D01*
X12848Y148830D01*
X12771Y148846D01*
X12692Y148857D01*
X12614Y148865D01*
X12535Y148869D01*
X12455Y148869D01*
X12376Y148865D01*
X12298Y148857D01*
X12219Y148846D01*
X12142Y148830D01*
X12065Y148812D01*
X11989Y148789D01*
X11915Y148763D01*
X11841Y148733D01*
X11769Y148699D01*
X11699Y148663D01*
X11631Y148623D01*
X11565Y148579D01*
X11501Y148533D01*
X11439Y148483D01*
X11380Y148431D01*
X11324Y148375D01*
X11270Y148318D01*
X11219Y148257D01*
X11171Y148194D01*
X11126Y148129D01*
X11084Y148062D01*
X11046Y147993D01*
X11010Y147922D01*
X10979Y147849D01*
X10951Y147775D01*
X10926Y147700D01*
X10906Y147624D01*
X10888Y147547D01*
X10875Y147469D01*
X10866Y147390D01*
X10860Y147311D01*
X10858Y147232D01*
X10858Y145595D01*
D63*
X-120689Y286858D02*
X-136183Y286858D01*
D62*
X-119419Y297018D02*
X-119419Y304384D01*
X-121465Y304384D01*
X-121554Y304382D01*
X-121643Y304376D01*
X-121732Y304366D01*
X-121820Y304353D01*
X-121908Y304336D01*
X-121995Y304314D01*
X-122080Y304289D01*
X-122165Y304261D01*
X-122248Y304228D01*
X-122330Y304192D01*
X-122410Y304153D01*
X-122488Y304110D01*
X-122564Y304064D01*
X-122639Y304014D01*
X-122711Y303961D01*
X-122780Y303905D01*
X-122847Y303846D01*
X-122912Y303785D01*
X-122973Y303720D01*
X-123032Y303653D01*
X-123088Y303584D01*
X-123141Y303512D01*
X-123191Y303437D01*
X-123237Y303361D01*
X-123280Y303283D01*
X-123319Y303203D01*
X-123355Y303121D01*
X-123388Y303038D01*
X-123416Y302953D01*
X-123441Y302868D01*
X-123463Y302781D01*
X-123480Y302693D01*
X-123493Y302605D01*
X-123503Y302516D01*
X-123509Y302427D01*
X-123511Y302338D01*
X-123509Y302249D01*
X-123503Y302160D01*
X-123493Y302071D01*
X-123480Y301983D01*
X-123463Y301895D01*
X-123441Y301808D01*
X-123416Y301723D01*
X-123388Y301638D01*
X-123355Y301555D01*
X-123319Y301473D01*
X-123280Y301393D01*
X-123237Y301315D01*
X-123191Y301239D01*
X-123141Y301164D01*
X-123088Y301092D01*
X-123032Y301023D01*
X-122973Y300956D01*
X-122912Y300891D01*
X-122847Y300830D01*
X-122780Y300771D01*
X-122711Y300715D01*
X-122639Y300662D01*
X-122564Y300612D01*
X-122488Y300566D01*
X-122410Y300523D01*
X-122330Y300484D01*
X-122248Y300448D01*
X-122165Y300415D01*
X-122080Y300387D01*
X-121995Y300362D01*
X-121908Y300340D01*
X-121820Y300323D01*
X-121732Y300310D01*
X-121643Y300300D01*
X-121554Y300294D01*
X-121465Y300292D01*
X-119419Y300292D01*
X-121874Y300292D02*
X-123511Y297018D01*
X-126683Y302747D02*
X-128729Y304384D01*
X-128729Y297018D01*
X-126683Y297018D02*
X-130775Y297018D01*
X-133998Y300701D02*
X-134000Y300854D01*
X-134006Y301007D01*
X-134015Y301159D01*
X-134029Y301312D01*
X-134046Y301464D01*
X-134067Y301615D01*
X-134092Y301766D01*
X-134121Y301916D01*
X-134153Y302066D01*
X-134190Y302214D01*
X-134230Y302362D01*
X-134273Y302509D01*
X-134321Y302654D01*
X-134372Y302798D01*
X-134426Y302941D01*
X-134485Y303083D01*
X-134546Y303222D01*
X-134612Y303361D01*
X-134638Y303431D01*
X-134668Y303501D01*
X-134701Y303568D01*
X-134737Y303634D01*
X-134776Y303698D01*
X-134819Y303760D01*
X-134865Y303819D01*
X-134913Y303877D01*
X-134964Y303931D01*
X-135018Y303984D01*
X-135075Y304033D01*
X-135134Y304080D01*
X-135195Y304123D01*
X-135258Y304164D01*
X-135323Y304201D01*
X-135390Y304236D01*
X-135459Y304266D01*
X-135529Y304294D01*
X-135600Y304317D01*
X-135672Y304338D01*
X-135745Y304354D01*
X-135819Y304367D01*
X-135894Y304377D01*
X-135969Y304382D01*
X-136044Y304384D01*
X-136119Y304382D01*
X-136194Y304377D01*
X-136269Y304367D01*
X-136343Y304354D01*
X-136416Y304338D01*
X-136488Y304317D01*
X-136559Y304294D01*
X-136629Y304266D01*
X-136698Y304236D01*
X-136765Y304201D01*
X-136830Y304164D01*
X-136893Y304123D01*
X-136954Y304080D01*
X-137013Y304033D01*
X-137070Y303984D01*
X-137124Y303931D01*
X-137175Y303877D01*
X-137224Y303819D01*
X-137269Y303760D01*
X-137312Y303698D01*
X-137351Y303634D01*
X-137388Y303568D01*
X-137420Y303500D01*
X-137450Y303431D01*
X-137476Y303361D01*
X-137541Y303223D01*
X-137603Y303083D01*
X-137661Y302941D01*
X-137716Y302798D01*
X-137767Y302654D01*
X-137815Y302509D01*
X-137858Y302362D01*
X-137898Y302215D01*
X-137935Y302066D01*
X-137967Y301916D01*
X-137996Y301766D01*
X-138021Y301615D01*
X-138042Y301464D01*
X-138059Y301312D01*
X-138073Y301159D01*
X-138082Y301007D01*
X-138088Y300854D01*
X-138090Y300701D01*
X-133997Y300701D02*
X-133999Y300548D01*
X-134005Y300395D01*
X-134014Y300242D01*
X-134028Y300090D01*
X-134045Y299938D01*
X-134066Y299787D01*
X-134091Y299636D01*
X-134120Y299485D01*
X-134152Y299336D01*
X-134189Y299187D01*
X-134229Y299040D01*
X-134272Y298893D01*
X-134320Y298748D01*
X-134371Y298603D01*
X-134426Y298461D01*
X-134484Y298319D01*
X-134546Y298179D01*
X-134611Y298041D01*
X-134612Y298041D02*
X-134638Y297970D01*
X-134668Y297901D01*
X-134701Y297834D01*
X-134737Y297768D01*
X-134776Y297704D01*
X-134819Y297642D01*
X-134865Y297583D01*
X-134913Y297525D01*
X-134964Y297471D01*
X-135018Y297418D01*
X-135075Y297369D01*
X-135134Y297322D01*
X-135195Y297279D01*
X-135258Y297238D01*
X-135323Y297201D01*
X-135390Y297166D01*
X-135459Y297136D01*
X-135529Y297108D01*
X-135600Y297085D01*
X-135672Y297064D01*
X-135745Y297048D01*
X-135819Y297035D01*
X-135894Y297025D01*
X-135969Y297020D01*
X-136044Y297018D01*
X-137476Y298041D02*
X-137541Y298179D01*
X-137603Y298319D01*
X-137661Y298461D01*
X-137716Y298604D01*
X-137767Y298748D01*
X-137815Y298893D01*
X-137858Y299040D01*
X-137898Y299188D01*
X-137935Y299336D01*
X-137967Y299486D01*
X-137996Y299636D01*
X-138021Y299787D01*
X-138042Y299938D01*
X-138059Y300090D01*
X-138073Y300243D01*
X-138082Y300395D01*
X-138088Y300548D01*
X-138090Y300701D01*
X-137476Y298041D02*
X-137450Y297971D01*
X-137420Y297901D01*
X-137388Y297834D01*
X-137351Y297768D01*
X-137312Y297704D01*
X-137269Y297642D01*
X-137223Y297583D01*
X-137175Y297525D01*
X-137124Y297471D01*
X-137070Y297418D01*
X-137013Y297369D01*
X-136954Y297322D01*
X-136893Y297279D01*
X-136830Y297238D01*
X-136765Y297201D01*
X-136698Y297166D01*
X-136629Y297136D01*
X-136559Y297108D01*
X-136488Y297085D01*
X-136416Y297064D01*
X-136343Y297048D01*
X-136269Y297035D01*
X-136194Y297025D01*
X-136119Y297020D01*
X-136044Y297018D01*
X-134407Y298655D02*
X-137681Y302747D01*
D63*
X-93320Y286858D02*
X-77826Y286858D01*
D62*
X-76223Y297278D02*
X-76223Y304644D01*
X-78269Y304644D01*
X-78358Y304642D01*
X-78447Y304636D01*
X-78536Y304626D01*
X-78624Y304613D01*
X-78712Y304596D01*
X-78799Y304574D01*
X-78884Y304549D01*
X-78969Y304521D01*
X-79052Y304488D01*
X-79134Y304452D01*
X-79214Y304413D01*
X-79292Y304370D01*
X-79368Y304324D01*
X-79443Y304274D01*
X-79515Y304221D01*
X-79584Y304165D01*
X-79651Y304106D01*
X-79716Y304045D01*
X-79777Y303980D01*
X-79836Y303913D01*
X-79892Y303844D01*
X-79945Y303772D01*
X-79995Y303697D01*
X-80041Y303621D01*
X-80084Y303543D01*
X-80123Y303463D01*
X-80159Y303381D01*
X-80192Y303298D01*
X-80220Y303213D01*
X-80245Y303128D01*
X-80267Y303041D01*
X-80284Y302953D01*
X-80297Y302865D01*
X-80307Y302776D01*
X-80313Y302687D01*
X-80315Y302598D01*
X-80313Y302509D01*
X-80307Y302420D01*
X-80297Y302331D01*
X-80284Y302243D01*
X-80267Y302155D01*
X-80245Y302068D01*
X-80220Y301983D01*
X-80192Y301898D01*
X-80159Y301815D01*
X-80123Y301733D01*
X-80084Y301653D01*
X-80041Y301575D01*
X-79995Y301499D01*
X-79945Y301424D01*
X-79892Y301352D01*
X-79836Y301283D01*
X-79777Y301216D01*
X-79716Y301151D01*
X-79651Y301090D01*
X-79584Y301031D01*
X-79515Y300975D01*
X-79443Y300922D01*
X-79368Y300872D01*
X-79292Y300826D01*
X-79214Y300783D01*
X-79134Y300744D01*
X-79052Y300708D01*
X-78969Y300675D01*
X-78884Y300647D01*
X-78799Y300622D01*
X-78712Y300600D01*
X-78624Y300583D01*
X-78536Y300570D01*
X-78447Y300560D01*
X-78358Y300554D01*
X-78269Y300552D01*
X-76223Y300552D01*
X-78678Y300552D02*
X-80315Y297278D01*
X-83487Y303007D02*
X-85533Y304644D01*
X-85533Y297278D01*
X-83487Y297278D02*
X-87579Y297278D01*
X-90802Y303007D02*
X-92848Y304644D01*
X-92848Y297278D01*
X-90802Y297278D02*
X-94894Y297278D01*
D11*
X-28495Y363115D02*
X-28495Y383245D01*
D63*
X-45348Y373288D02*
X-51952Y373288D01*
D62*
X-69718Y368906D02*
X-71355Y368906D01*
X-69718Y368906D02*
X-69640Y368908D01*
X-69562Y368913D01*
X-69485Y368923D01*
X-69408Y368936D01*
X-69332Y368952D01*
X-69257Y368972D01*
X-69183Y368996D01*
X-69110Y369023D01*
X-69038Y369054D01*
X-68968Y369088D01*
X-68900Y369125D01*
X-68833Y369166D01*
X-68768Y369210D01*
X-68706Y369256D01*
X-68646Y369306D01*
X-68588Y369358D01*
X-68533Y369413D01*
X-68481Y369471D01*
X-68431Y369531D01*
X-68385Y369593D01*
X-68341Y369658D01*
X-68300Y369725D01*
X-68263Y369793D01*
X-68229Y369863D01*
X-68198Y369935D01*
X-68171Y370008D01*
X-68147Y370082D01*
X-68127Y370157D01*
X-68111Y370233D01*
X-68098Y370310D01*
X-68088Y370387D01*
X-68083Y370465D01*
X-68081Y370543D01*
X-68081Y374635D01*
X-68083Y374715D01*
X-68089Y374795D01*
X-68099Y374875D01*
X-68112Y374954D01*
X-68130Y375033D01*
X-68151Y375110D01*
X-68177Y375186D01*
X-68206Y375261D01*
X-68238Y375335D01*
X-68274Y375407D01*
X-68314Y375477D01*
X-68357Y375544D01*
X-68403Y375610D01*
X-68453Y375673D01*
X-68505Y375734D01*
X-68560Y375793D01*
X-68619Y375848D01*
X-68679Y375900D01*
X-68743Y375950D01*
X-68809Y375996D01*
X-68876Y376039D01*
X-68946Y376079D01*
X-69018Y376115D01*
X-69092Y376147D01*
X-69166Y376176D01*
X-69243Y376202D01*
X-69320Y376223D01*
X-69399Y376241D01*
X-69478Y376254D01*
X-69558Y376264D01*
X-69638Y376270D01*
X-69718Y376272D01*
X-71355Y376272D01*
X-74200Y368906D02*
X-76246Y368906D01*
X-76335Y368908D01*
X-76424Y368914D01*
X-76513Y368924D01*
X-76601Y368937D01*
X-76689Y368954D01*
X-76776Y368976D01*
X-76861Y369001D01*
X-76946Y369029D01*
X-77029Y369062D01*
X-77111Y369098D01*
X-77191Y369137D01*
X-77269Y369180D01*
X-77345Y369226D01*
X-77420Y369276D01*
X-77492Y369329D01*
X-77561Y369385D01*
X-77628Y369444D01*
X-77693Y369505D01*
X-77754Y369570D01*
X-77813Y369637D01*
X-77869Y369706D01*
X-77922Y369778D01*
X-77972Y369853D01*
X-78018Y369929D01*
X-78061Y370007D01*
X-78100Y370087D01*
X-78136Y370169D01*
X-78169Y370252D01*
X-78197Y370337D01*
X-78222Y370422D01*
X-78244Y370509D01*
X-78261Y370597D01*
X-78274Y370685D01*
X-78284Y370774D01*
X-78290Y370863D01*
X-78292Y370952D01*
X-78290Y371041D01*
X-78284Y371130D01*
X-78274Y371219D01*
X-78261Y371307D01*
X-78244Y371395D01*
X-78222Y371482D01*
X-78197Y371567D01*
X-78169Y371652D01*
X-78136Y371735D01*
X-78100Y371817D01*
X-78061Y371897D01*
X-78018Y371975D01*
X-77972Y372051D01*
X-77922Y372126D01*
X-77869Y372198D01*
X-77813Y372267D01*
X-77754Y372334D01*
X-77693Y372399D01*
X-77628Y372460D01*
X-77561Y372519D01*
X-77492Y372575D01*
X-77420Y372628D01*
X-77345Y372678D01*
X-77269Y372724D01*
X-77191Y372767D01*
X-77111Y372806D01*
X-77029Y372842D01*
X-76946Y372875D01*
X-76861Y372903D01*
X-76776Y372928D01*
X-76689Y372950D01*
X-76601Y372967D01*
X-76513Y372980D01*
X-76424Y372990D01*
X-76335Y372996D01*
X-76246Y372998D01*
X-76655Y376272D02*
X-74200Y376272D01*
X-76655Y376272D02*
X-76734Y376270D01*
X-76813Y376264D01*
X-76892Y376255D01*
X-76970Y376242D01*
X-77047Y376224D01*
X-77123Y376204D01*
X-77198Y376179D01*
X-77272Y376151D01*
X-77345Y376120D01*
X-77416Y376084D01*
X-77485Y376046D01*
X-77552Y376004D01*
X-77617Y375959D01*
X-77680Y375911D01*
X-77741Y375860D01*
X-77798Y375806D01*
X-77854Y375750D01*
X-77906Y375691D01*
X-77956Y375629D01*
X-78002Y375565D01*
X-78046Y375499D01*
X-78086Y375431D01*
X-78122Y375361D01*
X-78156Y375289D01*
X-78186Y375215D01*
X-78212Y375141D01*
X-78235Y375065D01*
X-78253Y374988D01*
X-78269Y374911D01*
X-78280Y374832D01*
X-78288Y374754D01*
X-78292Y374675D01*
X-78292Y374595D01*
X-78288Y374516D01*
X-78280Y374438D01*
X-78269Y374359D01*
X-78253Y374282D01*
X-78235Y374205D01*
X-78212Y374129D01*
X-78186Y374055D01*
X-78156Y373981D01*
X-78122Y373909D01*
X-78086Y373839D01*
X-78046Y373771D01*
X-78002Y373705D01*
X-77956Y373641D01*
X-77906Y373579D01*
X-77854Y373520D01*
X-77798Y373464D01*
X-77741Y373410D01*
X-77680Y373359D01*
X-77617Y373311D01*
X-77552Y373266D01*
X-77485Y373224D01*
X-77416Y373186D01*
X-77345Y373150D01*
X-77272Y373119D01*
X-77198Y373091D01*
X-77123Y373066D01*
X-77047Y373046D01*
X-76970Y373028D01*
X-76892Y373015D01*
X-76813Y373006D01*
X-76734Y373000D01*
X-76655Y372998D01*
X-76655Y372999D02*
X-75019Y372999D01*
D11*
X-28495Y377403D02*
X-28495Y397532D01*
D63*
X-45348Y387575D02*
X-51952Y387575D01*
D62*
X-69718Y384781D02*
X-71355Y384781D01*
X-69718Y384781D02*
X-69640Y384783D01*
X-69562Y384788D01*
X-69485Y384798D01*
X-69408Y384811D01*
X-69332Y384827D01*
X-69257Y384847D01*
X-69183Y384871D01*
X-69110Y384898D01*
X-69038Y384929D01*
X-68968Y384963D01*
X-68900Y385000D01*
X-68833Y385041D01*
X-68768Y385085D01*
X-68706Y385131D01*
X-68646Y385181D01*
X-68588Y385233D01*
X-68533Y385288D01*
X-68481Y385346D01*
X-68431Y385406D01*
X-68385Y385468D01*
X-68341Y385533D01*
X-68300Y385600D01*
X-68263Y385668D01*
X-68229Y385738D01*
X-68198Y385810D01*
X-68171Y385883D01*
X-68147Y385957D01*
X-68127Y386032D01*
X-68111Y386108D01*
X-68098Y386185D01*
X-68088Y386262D01*
X-68083Y386340D01*
X-68081Y386418D01*
X-68081Y390510D01*
X-68083Y390590D01*
X-68089Y390670D01*
X-68099Y390750D01*
X-68112Y390829D01*
X-68130Y390908D01*
X-68151Y390985D01*
X-68177Y391061D01*
X-68206Y391136D01*
X-68238Y391210D01*
X-68274Y391282D01*
X-68314Y391352D01*
X-68357Y391419D01*
X-68403Y391485D01*
X-68453Y391548D01*
X-68505Y391609D01*
X-68560Y391668D01*
X-68619Y391723D01*
X-68679Y391775D01*
X-68743Y391825D01*
X-68809Y391871D01*
X-68876Y391914D01*
X-68946Y391954D01*
X-69018Y391990D01*
X-69092Y392022D01*
X-69166Y392051D01*
X-69243Y392077D01*
X-69320Y392098D01*
X-69399Y392116D01*
X-69478Y392129D01*
X-69558Y392139D01*
X-69638Y392145D01*
X-69718Y392147D01*
X-71355Y392147D01*
X-76451Y392148D02*
X-76536Y392146D01*
X-76621Y392140D01*
X-76705Y392130D01*
X-76789Y392117D01*
X-76873Y392099D01*
X-76955Y392078D01*
X-77036Y392053D01*
X-77116Y392024D01*
X-77195Y391991D01*
X-77272Y391955D01*
X-77347Y391915D01*
X-77421Y391872D01*
X-77492Y391826D01*
X-77561Y391776D01*
X-77628Y391723D01*
X-77692Y391667D01*
X-77753Y391608D01*
X-77812Y391547D01*
X-77868Y391483D01*
X-77921Y391416D01*
X-77971Y391347D01*
X-78017Y391276D01*
X-78060Y391202D01*
X-78100Y391127D01*
X-78136Y391050D01*
X-78169Y390971D01*
X-78198Y390891D01*
X-78223Y390810D01*
X-78244Y390728D01*
X-78262Y390644D01*
X-78275Y390560D01*
X-78285Y390476D01*
X-78291Y390391D01*
X-78293Y390306D01*
X-76451Y392147D02*
X-76355Y392145D01*
X-76259Y392139D01*
X-76164Y392129D01*
X-76069Y392116D01*
X-75974Y392098D01*
X-75881Y392077D01*
X-75788Y392052D01*
X-75697Y392023D01*
X-75606Y391991D01*
X-75517Y391955D01*
X-75430Y391915D01*
X-75344Y391872D01*
X-75260Y391826D01*
X-75178Y391776D01*
X-75098Y391722D01*
X-75021Y391666D01*
X-74946Y391606D01*
X-74873Y391544D01*
X-74803Y391478D01*
X-74735Y391410D01*
X-74670Y391339D01*
X-74609Y391266D01*
X-74550Y391190D01*
X-74494Y391111D01*
X-74442Y391031D01*
X-74393Y390948D01*
X-74347Y390864D01*
X-74305Y390778D01*
X-74267Y390690D01*
X-74232Y390601D01*
X-74200Y390510D01*
X-77678Y388874D02*
X-77738Y388933D01*
X-77795Y388995D01*
X-77850Y389059D01*
X-77901Y389126D01*
X-77950Y389195D01*
X-77996Y389265D01*
X-78039Y389338D01*
X-78079Y389412D01*
X-78115Y389488D01*
X-78148Y389566D01*
X-78178Y389645D01*
X-78205Y389725D01*
X-78228Y389806D01*
X-78247Y389888D01*
X-78263Y389970D01*
X-78276Y390054D01*
X-78285Y390138D01*
X-78290Y390222D01*
X-78292Y390306D01*
X-77678Y388874D02*
X-74200Y384781D01*
X-78292Y384781D01*
D67*
X-45975Y299200D02*
X-45975Y262500D01*
X-61975Y272300D02*
X-61975Y299200D01*
D62*
X-50292Y282673D02*
X-50292Y278581D01*
X-50292Y282673D02*
X-57658Y278581D01*
X-57658Y282673D01*
X-51929Y285652D02*
X-50292Y287698D01*
X-57658Y287698D01*
X-57658Y285652D02*
X-57658Y289744D01*
D67*
X-22163Y299200D02*
X-22163Y262500D01*
X-38163Y272300D02*
X-38163Y299200D01*
D62*
X-26480Y282673D02*
X-26480Y278581D01*
X-26480Y282673D02*
X-33846Y278581D01*
X-33846Y282673D01*
X-28321Y289745D02*
X-28236Y289743D01*
X-28151Y289737D01*
X-28067Y289727D01*
X-27983Y289714D01*
X-27899Y289696D01*
X-27817Y289675D01*
X-27736Y289650D01*
X-27656Y289621D01*
X-27577Y289588D01*
X-27500Y289552D01*
X-27425Y289512D01*
X-27351Y289469D01*
X-27280Y289423D01*
X-27211Y289373D01*
X-27144Y289320D01*
X-27080Y289264D01*
X-27019Y289205D01*
X-26960Y289144D01*
X-26904Y289080D01*
X-26851Y289013D01*
X-26801Y288944D01*
X-26755Y288873D01*
X-26712Y288799D01*
X-26672Y288724D01*
X-26636Y288647D01*
X-26603Y288568D01*
X-26574Y288488D01*
X-26549Y288407D01*
X-26528Y288325D01*
X-26510Y288241D01*
X-26497Y288157D01*
X-26487Y288073D01*
X-26481Y287988D01*
X-26479Y287903D01*
X-26481Y287807D01*
X-26487Y287711D01*
X-26497Y287616D01*
X-26510Y287521D01*
X-26528Y287426D01*
X-26549Y287333D01*
X-26574Y287240D01*
X-26603Y287149D01*
X-26635Y287058D01*
X-26671Y286969D01*
X-26711Y286882D01*
X-26754Y286796D01*
X-26800Y286712D01*
X-26850Y286630D01*
X-26904Y286550D01*
X-26960Y286473D01*
X-27020Y286398D01*
X-27082Y286325D01*
X-27148Y286255D01*
X-27216Y286187D01*
X-27287Y286122D01*
X-27360Y286061D01*
X-27436Y286002D01*
X-27515Y285946D01*
X-27595Y285894D01*
X-27678Y285845D01*
X-27762Y285799D01*
X-27848Y285757D01*
X-27936Y285719D01*
X-28025Y285684D01*
X-28116Y285652D01*
X-29753Y289130D02*
X-29694Y289190D01*
X-29632Y289247D01*
X-29568Y289302D01*
X-29501Y289353D01*
X-29432Y289402D01*
X-29362Y289448D01*
X-29289Y289491D01*
X-29215Y289531D01*
X-29139Y289567D01*
X-29061Y289600D01*
X-28982Y289630D01*
X-28902Y289657D01*
X-28821Y289680D01*
X-28739Y289699D01*
X-28657Y289715D01*
X-28573Y289728D01*
X-28489Y289737D01*
X-28405Y289742D01*
X-28321Y289744D01*
X-29753Y289130D02*
X-33846Y285652D01*
X-33846Y289744D01*
M02*
