G04 EAGLE Gerber RS-274X export*
G75*
%MOMM*%
%FSLAX34Y34*%
%LPD*%
%INSolderpaste Bottom*%
%IPPOS*%
%AMOC8*
5,1,8,0,0,1.08239X$1,22.5*%
G01*
%ADD10R,1.399997X0.400000*%
%ADD11R,1.100000X1.000000*%
%ADD12R,1.000000X1.100000*%
%ADD13R,0.550000X0.254000*%
%ADD14R,0.254000X0.550000*%
%ADD15R,0.800000X0.500000*%
%ADD16R,1.500000X1.300000*%
%ADD17R,1.300000X1.500000*%
%ADD18R,1.220000X0.910000*%

G36*
X-7285Y443724D02*
X-7285Y443724D01*
X-7282Y443723D01*
X-7239Y443743D01*
X-7196Y443761D01*
X-7195Y443763D01*
X-7193Y443764D01*
X-7160Y443849D01*
X-7160Y456073D01*
X-7161Y456075D01*
X-7160Y456077D01*
X-7180Y456120D01*
X-7199Y456164D01*
X-7201Y456164D01*
X-7202Y456166D01*
X-7287Y456199D01*
X-19511Y456199D01*
X-19513Y456198D01*
X-19515Y456199D01*
X-19558Y456179D01*
X-19601Y456161D01*
X-19602Y456159D01*
X-19604Y456158D01*
X-19637Y456073D01*
X-19637Y443849D01*
X-19636Y443847D01*
X-19637Y443845D01*
X-19617Y443802D01*
X-19598Y443758D01*
X-19596Y443758D01*
X-19595Y443756D01*
X-19511Y443723D01*
X-7287Y443723D01*
X-7285Y443724D01*
G37*
G36*
X6940Y443724D02*
X6940Y443724D01*
X6942Y443723D01*
X6985Y443743D01*
X7028Y443761D01*
X7029Y443763D01*
X7031Y443764D01*
X7064Y443849D01*
X7064Y456073D01*
X7063Y456075D01*
X7064Y456077D01*
X7044Y456120D01*
X7025Y456164D01*
X7023Y456164D01*
X7022Y456166D01*
X6938Y456199D01*
X-5287Y456199D01*
X-5289Y456198D01*
X-5291Y456199D01*
X-5334Y456179D01*
X-5377Y456161D01*
X-5378Y456159D01*
X-5380Y456158D01*
X-5413Y456073D01*
X-5413Y443849D01*
X-5412Y443847D01*
X-5413Y443845D01*
X-5393Y443802D01*
X-5374Y443758D01*
X-5372Y443758D01*
X-5371Y443756D01*
X-5287Y443723D01*
X6938Y443723D01*
X6940Y443724D01*
G37*
G36*
X35388Y443724D02*
X35388Y443724D01*
X35390Y443723D01*
X35433Y443743D01*
X35476Y443761D01*
X35477Y443763D01*
X35479Y443764D01*
X35512Y443849D01*
X35512Y456073D01*
X35511Y456075D01*
X35512Y456077D01*
X35492Y456120D01*
X35473Y456164D01*
X35471Y456164D01*
X35470Y456166D01*
X35386Y456199D01*
X23162Y456199D01*
X23160Y456198D01*
X23157Y456199D01*
X23114Y456179D01*
X23071Y456161D01*
X23070Y456159D01*
X23068Y456158D01*
X23035Y456073D01*
X23035Y443849D01*
X23036Y443847D01*
X23035Y443845D01*
X23055Y443802D01*
X23074Y443758D01*
X23076Y443758D01*
X23077Y443756D01*
X23162Y443723D01*
X35386Y443723D01*
X35388Y443724D01*
G37*
G36*
X21164Y443724D02*
X21164Y443724D01*
X21166Y443723D01*
X21209Y443743D01*
X21252Y443761D01*
X21253Y443763D01*
X21255Y443764D01*
X21288Y443849D01*
X21288Y456073D01*
X21287Y456075D01*
X21288Y456077D01*
X21268Y456120D01*
X21249Y456164D01*
X21247Y456164D01*
X21246Y456166D01*
X21162Y456199D01*
X8938Y456199D01*
X8936Y456198D01*
X8933Y456199D01*
X8890Y456179D01*
X8847Y456161D01*
X8846Y456159D01*
X8844Y456158D01*
X8811Y456073D01*
X8811Y443849D01*
X8812Y443847D01*
X8811Y443845D01*
X8831Y443802D01*
X8850Y443758D01*
X8852Y443758D01*
X8853Y443756D01*
X8938Y443723D01*
X21162Y443723D01*
X21164Y443724D01*
G37*
G36*
X35388Y429500D02*
X35388Y429500D01*
X35390Y429499D01*
X35433Y429519D01*
X35476Y429537D01*
X35477Y429539D01*
X35479Y429540D01*
X35512Y429625D01*
X35512Y441849D01*
X35511Y441851D01*
X35512Y441853D01*
X35492Y441896D01*
X35473Y441940D01*
X35471Y441940D01*
X35470Y441942D01*
X35386Y441975D01*
X23162Y441975D01*
X23160Y441974D01*
X23157Y441975D01*
X23114Y441955D01*
X23071Y441937D01*
X23070Y441935D01*
X23068Y441934D01*
X23035Y441849D01*
X23035Y429625D01*
X23036Y429623D01*
X23035Y429621D01*
X23055Y429578D01*
X23074Y429534D01*
X23076Y429534D01*
X23077Y429532D01*
X23162Y429499D01*
X35386Y429499D01*
X35388Y429500D01*
G37*
G36*
X6940Y429500D02*
X6940Y429500D01*
X6942Y429499D01*
X6985Y429519D01*
X7028Y429537D01*
X7029Y429539D01*
X7031Y429540D01*
X7064Y429625D01*
X7064Y441849D01*
X7063Y441851D01*
X7064Y441853D01*
X7044Y441896D01*
X7025Y441940D01*
X7023Y441940D01*
X7022Y441942D01*
X6938Y441975D01*
X-5287Y441975D01*
X-5289Y441974D01*
X-5291Y441975D01*
X-5334Y441955D01*
X-5377Y441937D01*
X-5378Y441935D01*
X-5380Y441934D01*
X-5413Y441849D01*
X-5413Y429625D01*
X-5412Y429623D01*
X-5413Y429621D01*
X-5393Y429578D01*
X-5374Y429534D01*
X-5372Y429534D01*
X-5371Y429532D01*
X-5287Y429499D01*
X6938Y429499D01*
X6940Y429500D01*
G37*
G36*
X-7285Y429500D02*
X-7285Y429500D01*
X-7282Y429499D01*
X-7239Y429519D01*
X-7196Y429537D01*
X-7195Y429539D01*
X-7193Y429540D01*
X-7160Y429625D01*
X-7160Y441849D01*
X-7161Y441851D01*
X-7160Y441853D01*
X-7180Y441896D01*
X-7199Y441940D01*
X-7201Y441940D01*
X-7202Y441942D01*
X-7287Y441975D01*
X-19511Y441975D01*
X-19513Y441974D01*
X-19515Y441975D01*
X-19558Y441955D01*
X-19601Y441937D01*
X-19602Y441935D01*
X-19604Y441934D01*
X-19637Y441849D01*
X-19637Y429625D01*
X-19636Y429623D01*
X-19637Y429621D01*
X-19617Y429578D01*
X-19598Y429534D01*
X-19596Y429534D01*
X-19595Y429532D01*
X-19511Y429499D01*
X-7287Y429499D01*
X-7285Y429500D01*
G37*
G36*
X21164Y429500D02*
X21164Y429500D01*
X21166Y429499D01*
X21209Y429519D01*
X21252Y429537D01*
X21253Y429539D01*
X21255Y429540D01*
X21288Y429625D01*
X21288Y441849D01*
X21287Y441851D01*
X21288Y441853D01*
X21268Y441896D01*
X21249Y441940D01*
X21247Y441940D01*
X21246Y441942D01*
X21162Y441975D01*
X8938Y441975D01*
X8936Y441974D01*
X8933Y441975D01*
X8890Y441955D01*
X8847Y441937D01*
X8846Y441935D01*
X8844Y441934D01*
X8811Y441849D01*
X8811Y429625D01*
X8812Y429623D01*
X8811Y429621D01*
X8831Y429578D01*
X8850Y429534D01*
X8852Y429534D01*
X8853Y429532D01*
X8938Y429499D01*
X21162Y429499D01*
X21164Y429500D01*
G37*
G36*
X21164Y415276D02*
X21164Y415276D01*
X21166Y415275D01*
X21209Y415295D01*
X21252Y415313D01*
X21253Y415315D01*
X21255Y415316D01*
X21288Y415401D01*
X21288Y427625D01*
X21287Y427627D01*
X21288Y427629D01*
X21268Y427672D01*
X21249Y427716D01*
X21247Y427716D01*
X21246Y427718D01*
X21162Y427751D01*
X8938Y427751D01*
X8936Y427750D01*
X8933Y427751D01*
X8890Y427731D01*
X8847Y427713D01*
X8846Y427711D01*
X8844Y427710D01*
X8811Y427625D01*
X8811Y415401D01*
X8812Y415399D01*
X8811Y415397D01*
X8831Y415354D01*
X8850Y415310D01*
X8852Y415310D01*
X8853Y415308D01*
X8938Y415275D01*
X21162Y415275D01*
X21164Y415276D01*
G37*
G36*
X6940Y415276D02*
X6940Y415276D01*
X6942Y415275D01*
X6985Y415295D01*
X7028Y415313D01*
X7029Y415315D01*
X7031Y415316D01*
X7064Y415401D01*
X7064Y427625D01*
X7063Y427627D01*
X7064Y427629D01*
X7044Y427672D01*
X7025Y427716D01*
X7023Y427716D01*
X7022Y427718D01*
X6938Y427751D01*
X-5287Y427751D01*
X-5289Y427750D01*
X-5291Y427751D01*
X-5334Y427731D01*
X-5377Y427713D01*
X-5378Y427711D01*
X-5380Y427710D01*
X-5413Y427625D01*
X-5413Y415401D01*
X-5412Y415399D01*
X-5413Y415397D01*
X-5393Y415354D01*
X-5374Y415310D01*
X-5372Y415310D01*
X-5371Y415308D01*
X-5287Y415275D01*
X6938Y415275D01*
X6940Y415276D01*
G37*
G36*
X35388Y415276D02*
X35388Y415276D01*
X35390Y415275D01*
X35433Y415295D01*
X35476Y415313D01*
X35477Y415315D01*
X35479Y415316D01*
X35512Y415401D01*
X35512Y427625D01*
X35511Y427627D01*
X35512Y427629D01*
X35492Y427672D01*
X35473Y427716D01*
X35471Y427716D01*
X35470Y427718D01*
X35386Y427751D01*
X23162Y427751D01*
X23160Y427750D01*
X23157Y427751D01*
X23114Y427731D01*
X23071Y427713D01*
X23070Y427711D01*
X23068Y427710D01*
X23035Y427625D01*
X23035Y415401D01*
X23036Y415399D01*
X23035Y415397D01*
X23055Y415354D01*
X23074Y415310D01*
X23076Y415310D01*
X23077Y415308D01*
X23162Y415275D01*
X35386Y415275D01*
X35388Y415276D01*
G37*
G36*
X-7285Y415276D02*
X-7285Y415276D01*
X-7282Y415275D01*
X-7239Y415295D01*
X-7196Y415313D01*
X-7195Y415315D01*
X-7193Y415316D01*
X-7160Y415401D01*
X-7160Y427625D01*
X-7161Y427627D01*
X-7160Y427629D01*
X-7180Y427672D01*
X-7199Y427716D01*
X-7201Y427716D01*
X-7202Y427718D01*
X-7287Y427751D01*
X-19511Y427751D01*
X-19513Y427750D01*
X-19515Y427751D01*
X-19558Y427731D01*
X-19601Y427713D01*
X-19602Y427711D01*
X-19604Y427710D01*
X-19637Y427625D01*
X-19637Y415401D01*
X-19636Y415399D01*
X-19637Y415397D01*
X-19617Y415354D01*
X-19598Y415310D01*
X-19596Y415310D01*
X-19595Y415308D01*
X-19511Y415275D01*
X-7287Y415275D01*
X-7285Y415276D01*
G37*
G36*
X35388Y401052D02*
X35388Y401052D01*
X35390Y401051D01*
X35433Y401071D01*
X35476Y401089D01*
X35477Y401091D01*
X35479Y401092D01*
X35512Y401177D01*
X35512Y413401D01*
X35511Y413403D01*
X35512Y413405D01*
X35492Y413448D01*
X35473Y413492D01*
X35471Y413492D01*
X35470Y413494D01*
X35386Y413527D01*
X23162Y413527D01*
X23160Y413526D01*
X23157Y413527D01*
X23114Y413507D01*
X23071Y413489D01*
X23070Y413487D01*
X23068Y413486D01*
X23035Y413401D01*
X23035Y401177D01*
X23036Y401175D01*
X23035Y401173D01*
X23055Y401130D01*
X23074Y401086D01*
X23076Y401086D01*
X23077Y401084D01*
X23162Y401051D01*
X35386Y401051D01*
X35388Y401052D01*
G37*
G36*
X21164Y401052D02*
X21164Y401052D01*
X21166Y401051D01*
X21209Y401071D01*
X21252Y401089D01*
X21253Y401091D01*
X21255Y401092D01*
X21288Y401177D01*
X21288Y413401D01*
X21287Y413403D01*
X21288Y413405D01*
X21268Y413448D01*
X21249Y413492D01*
X21247Y413492D01*
X21246Y413494D01*
X21162Y413527D01*
X8938Y413527D01*
X8936Y413526D01*
X8933Y413527D01*
X8890Y413507D01*
X8847Y413489D01*
X8846Y413487D01*
X8844Y413486D01*
X8811Y413401D01*
X8811Y401177D01*
X8812Y401175D01*
X8811Y401173D01*
X8831Y401130D01*
X8850Y401086D01*
X8852Y401086D01*
X8853Y401084D01*
X8938Y401051D01*
X21162Y401051D01*
X21164Y401052D01*
G37*
G36*
X6940Y401052D02*
X6940Y401052D01*
X6942Y401051D01*
X6985Y401071D01*
X7028Y401089D01*
X7029Y401091D01*
X7031Y401092D01*
X7064Y401177D01*
X7064Y413401D01*
X7063Y413403D01*
X7064Y413405D01*
X7044Y413448D01*
X7025Y413492D01*
X7023Y413492D01*
X7022Y413494D01*
X6938Y413527D01*
X-5287Y413527D01*
X-5289Y413526D01*
X-5291Y413527D01*
X-5334Y413507D01*
X-5377Y413489D01*
X-5378Y413487D01*
X-5380Y413486D01*
X-5413Y413401D01*
X-5413Y401177D01*
X-5412Y401175D01*
X-5413Y401173D01*
X-5393Y401130D01*
X-5374Y401086D01*
X-5372Y401086D01*
X-5371Y401084D01*
X-5287Y401051D01*
X6938Y401051D01*
X6940Y401052D01*
G37*
G36*
X-7285Y401052D02*
X-7285Y401052D01*
X-7282Y401051D01*
X-7239Y401071D01*
X-7196Y401089D01*
X-7195Y401091D01*
X-7193Y401092D01*
X-7160Y401177D01*
X-7160Y413401D01*
X-7161Y413403D01*
X-7160Y413405D01*
X-7180Y413448D01*
X-7199Y413492D01*
X-7201Y413492D01*
X-7202Y413494D01*
X-7287Y413527D01*
X-19511Y413527D01*
X-19513Y413526D01*
X-19515Y413527D01*
X-19558Y413507D01*
X-19601Y413489D01*
X-19602Y413487D01*
X-19604Y413486D01*
X-19637Y413401D01*
X-19637Y401177D01*
X-19636Y401175D01*
X-19637Y401173D01*
X-19617Y401130D01*
X-19598Y401086D01*
X-19596Y401086D01*
X-19595Y401084D01*
X-19511Y401051D01*
X-7287Y401051D01*
X-7285Y401052D01*
G37*
D10*
X-44450Y450150D03*
X-44450Y438150D03*
X-44450Y426150D03*
D11*
X55563Y378850D03*
X55563Y395850D03*
D12*
X62938Y415925D03*
X79938Y415925D03*
D11*
X-57150Y343925D03*
X-57150Y360925D03*
X-40713Y409575D03*
X-57713Y409575D03*
X-40713Y400050D03*
X-57713Y400050D03*
X-39688Y343925D03*
X-39688Y360925D03*
D13*
X-25863Y401118D03*
X-25863Y406119D03*
X-25863Y411121D03*
X-25863Y416122D03*
X-25863Y421123D03*
X-25863Y426124D03*
X-25863Y431126D03*
X-25863Y436127D03*
X-25863Y441128D03*
X-25863Y446129D03*
X-25863Y451131D03*
X-25863Y456132D03*
D14*
X-19570Y462425D03*
X-14569Y462425D03*
X-9567Y462425D03*
X-4566Y462425D03*
X436Y462425D03*
X5437Y462425D03*
X10439Y462425D03*
X15440Y462425D03*
X20441Y462425D03*
X25442Y462425D03*
X30444Y462425D03*
X35445Y462425D03*
D13*
X41738Y456132D03*
X41738Y451131D03*
X41738Y446129D03*
X41738Y441128D03*
X41738Y436127D03*
X41738Y431126D03*
X41738Y426124D03*
X41738Y421123D03*
X41738Y416122D03*
X41738Y411121D03*
X41738Y406119D03*
X41738Y401118D03*
D14*
X35445Y394825D03*
X30444Y394825D03*
X25442Y394825D03*
X20441Y394825D03*
X15440Y394825D03*
X10439Y394825D03*
X5437Y394825D03*
X436Y394825D03*
X-4566Y394825D03*
X-9567Y394825D03*
X-14569Y394825D03*
X-19570Y394825D03*
D15*
X-38213Y330200D03*
X-60213Y330200D03*
D16*
X-25400Y112688D03*
X-25400Y93688D03*
X-25625Y125413D03*
X-25625Y144413D03*
D17*
X26938Y117700D03*
X7938Y117700D03*
D16*
X-4763Y112688D03*
X-4763Y93688D03*
X-4988Y125413D03*
X-4988Y144413D03*
D17*
X-119063Y287112D03*
X-138063Y287112D03*
X-76200Y287112D03*
X-95200Y287112D03*
X-39150Y373288D03*
X-58150Y373288D03*
X-39150Y387575D03*
X-58150Y387575D03*
D18*
X-53975Y269400D03*
X-53975Y302100D03*
X-30163Y269400D03*
X-30163Y302100D03*
M02*
