G04 EAGLE Gerber RS-274X export*
G75*
%MOMM*%
%FSLAX34Y34*%
%LPD*%
%INSoldermask Bottom*%
%IPPOS*%
%AMOC8*
5,1,8,0,0,1.08239X$1,22.5*%
G01*
%ADD10R,1.501597X0.501600*%
%ADD11P,1.759533X8X22.500000*%
%ADD12R,1.201600X1.101600*%
%ADD13R,1.101600X1.201600*%
%ADD14C,1.625600*%
%ADD15R,0.651600X0.355600*%
%ADD16R,0.355600X0.651600*%
%ADD17R,5.701600X5.701600*%
%ADD18R,0.901600X0.601600*%
%ADD19R,1.601600X1.401600*%
%ADD20R,1.401600X1.601600*%
%ADD21C,1.101600*%
%ADD22C,1.549400*%
%ADD23R,2.601600X2.601600*%
%ADD24C,2.601600*%
%ADD25R,1.321600X1.011600*%

G36*
X150878Y328919D02*
X150878Y328919D01*
X150949Y328927D01*
X150974Y328942D01*
X151002Y328949D01*
X151059Y328991D01*
X151121Y329026D01*
X151139Y329049D01*
X151162Y329067D01*
X151198Y329128D01*
X151242Y329184D01*
X151249Y329213D01*
X151264Y329238D01*
X151280Y329336D01*
X151291Y329377D01*
X151289Y329388D01*
X151291Y329402D01*
X151269Y363363D01*
X151268Y363365D01*
X151269Y363367D01*
X151265Y363384D01*
X151263Y363391D01*
X151265Y363421D01*
X151243Y363488D01*
X151229Y363558D01*
X151213Y363582D01*
X151203Y363609D01*
X151157Y363663D01*
X151116Y363722D01*
X151092Y363737D01*
X151073Y363759D01*
X151009Y363790D01*
X150949Y363828D01*
X150920Y363833D01*
X150894Y363846D01*
X150795Y363854D01*
X150753Y363861D01*
X150742Y363859D01*
X150728Y363860D01*
X147933Y363627D01*
X147900Y363617D01*
X147852Y363613D01*
X145134Y362923D01*
X145102Y362908D01*
X145056Y362896D01*
X142488Y361768D01*
X142460Y361748D01*
X142416Y361728D01*
X140069Y360193D01*
X140044Y360168D01*
X140004Y360142D01*
X137942Y358241D01*
X137923Y358215D01*
X137909Y358206D01*
X137903Y358197D01*
X137886Y358181D01*
X136165Y355966D01*
X136149Y355935D01*
X136120Y355897D01*
X134787Y353430D01*
X134777Y353397D01*
X134754Y353354D01*
X133845Y350701D01*
X133840Y350667D01*
X133825Y350621D01*
X133365Y347855D01*
X133366Y347820D01*
X133358Y347773D01*
X133360Y344968D01*
X133367Y344934D01*
X133367Y344886D01*
X133830Y342120D01*
X133843Y342088D01*
X133850Y342040D01*
X134763Y339388D01*
X134780Y339358D01*
X134796Y339313D01*
X136132Y336847D01*
X136155Y336821D01*
X136178Y336778D01*
X137902Y334566D01*
X137928Y334544D01*
X137957Y334506D01*
X140022Y332607D01*
X140052Y332589D01*
X140087Y332557D01*
X142436Y331025D01*
X142468Y331012D01*
X142508Y330985D01*
X145078Y329860D01*
X145111Y329853D01*
X145156Y329834D01*
X147875Y329147D01*
X147909Y329145D01*
X147956Y329134D01*
X150751Y328904D01*
X150780Y328907D01*
X150809Y328902D01*
X150878Y328919D01*
G37*
G36*
X227147Y199482D02*
X227147Y199482D01*
X227195Y199481D01*
X229972Y199868D01*
X230005Y199879D01*
X230053Y199886D01*
X232729Y200725D01*
X232759Y200742D01*
X232805Y200756D01*
X235307Y202024D01*
X235334Y202045D01*
X235377Y202067D01*
X237636Y203730D01*
X237659Y203755D01*
X237698Y203784D01*
X238026Y204121D01*
X239481Y205619D01*
X239652Y205795D01*
X239671Y205824D01*
X239704Y205859D01*
X241301Y208165D01*
X241313Y208192D01*
X241331Y208214D01*
X241351Y208282D01*
X241379Y208347D01*
X241379Y208377D01*
X241388Y208405D01*
X241380Y208475D01*
X241380Y208546D01*
X241369Y208573D01*
X241366Y208602D01*
X241331Y208664D01*
X241303Y208730D01*
X241282Y208750D01*
X241268Y208775D01*
X241206Y208826D01*
X241202Y208833D01*
X241191Y208839D01*
X241161Y208868D01*
X241151Y208873D01*
X241140Y208881D01*
X211717Y225843D01*
X211690Y225852D01*
X211666Y225868D01*
X211596Y225883D01*
X211529Y225906D01*
X211500Y225903D01*
X211471Y225909D01*
X211401Y225896D01*
X211331Y225890D01*
X211305Y225877D01*
X211276Y225871D01*
X211217Y225831D01*
X211154Y225798D01*
X211136Y225776D01*
X211111Y225759D01*
X211055Y225678D01*
X211028Y225645D01*
X211024Y225634D01*
X211016Y225623D01*
X209821Y223086D01*
X209813Y223052D01*
X209792Y223009D01*
X209031Y220309D01*
X209028Y220275D01*
X209015Y220228D01*
X208709Y217441D01*
X208712Y217406D01*
X208706Y217358D01*
X208863Y214558D01*
X208872Y214525D01*
X208874Y214477D01*
X209489Y211740D01*
X209503Y211709D01*
X209514Y211662D01*
X210571Y209064D01*
X210590Y209035D01*
X210608Y208990D01*
X212078Y206602D01*
X212102Y206577D01*
X212127Y206536D01*
X213971Y204422D01*
X213998Y204401D01*
X214030Y204365D01*
X216196Y202583D01*
X216226Y202567D01*
X216263Y202536D01*
X218693Y201136D01*
X218726Y201125D01*
X218768Y201101D01*
X221395Y200119D01*
X221429Y200113D01*
X221474Y200096D01*
X224227Y199561D01*
X224262Y199561D01*
X224309Y199552D01*
X227112Y199476D01*
X227147Y199482D01*
G37*
G36*
X-221845Y199978D02*
X-221845Y199978D01*
X-221811Y199985D01*
X-221763Y199987D01*
X-219011Y200526D01*
X-218979Y200540D01*
X-218932Y200549D01*
X-216306Y201534D01*
X-216276Y201552D01*
X-216231Y201569D01*
X-213803Y202973D01*
X-213777Y202996D01*
X-213736Y203020D01*
X-211572Y204804D01*
X-211550Y204831D01*
X-211513Y204862D01*
X-209672Y206978D01*
X-209655Y207008D01*
X-209624Y207044D01*
X-208157Y209434D01*
X-208145Y209467D01*
X-208119Y209508D01*
X-207066Y212107D01*
X-207059Y212141D01*
X-207041Y212186D01*
X-206430Y214923D01*
X-206429Y214958D01*
X-206418Y215004D01*
X-206266Y217805D01*
X-206271Y217839D01*
X-206268Y217887D01*
X-206578Y220675D01*
X-206589Y220708D01*
X-206594Y220755D01*
X-207359Y223454D01*
X-207375Y223484D01*
X-207388Y223531D01*
X-208587Y226066D01*
X-208604Y226090D01*
X-208614Y226117D01*
X-208663Y226169D01*
X-208706Y226226D01*
X-208731Y226240D01*
X-208751Y226261D01*
X-208816Y226290D01*
X-208878Y226326D01*
X-208907Y226329D01*
X-208933Y226341D01*
X-209004Y226342D01*
X-209075Y226351D01*
X-209103Y226343D01*
X-209132Y226343D01*
X-209225Y226309D01*
X-209266Y226297D01*
X-209275Y226290D01*
X-209288Y226285D01*
X-238688Y209285D01*
X-238710Y209266D01*
X-238736Y209253D01*
X-238784Y209200D01*
X-238837Y209153D01*
X-238849Y209127D01*
X-238869Y209105D01*
X-238892Y209038D01*
X-238923Y208974D01*
X-238924Y208945D01*
X-238933Y208917D01*
X-238928Y208846D01*
X-238931Y208775D01*
X-238921Y208748D01*
X-238919Y208719D01*
X-238877Y208629D01*
X-238862Y208589D01*
X-238854Y208581D01*
X-238848Y208568D01*
X-237249Y206265D01*
X-237224Y206241D01*
X-237196Y206201D01*
X-235239Y204192D01*
X-235211Y204172D01*
X-235177Y204138D01*
X-232916Y202478D01*
X-232885Y202464D01*
X-232846Y202435D01*
X-230343Y201171D01*
X-230309Y201162D01*
X-230266Y201140D01*
X-227589Y200304D01*
X-227555Y200301D01*
X-227509Y200286D01*
X-224731Y199903D01*
X-224696Y199905D01*
X-224648Y199898D01*
X-221845Y199978D01*
G37*
G36*
X-71794Y459837D02*
X-71794Y459837D01*
X-71760Y459845D01*
X-71712Y459846D01*
X-68960Y460386D01*
X-68928Y460399D01*
X-68881Y460408D01*
X-66255Y461393D01*
X-66226Y461412D01*
X-66181Y461429D01*
X-63753Y462832D01*
X-63727Y462855D01*
X-63685Y462879D01*
X-61521Y464664D01*
X-61500Y464691D01*
X-61462Y464721D01*
X-59622Y466837D01*
X-59605Y466868D01*
X-59573Y466904D01*
X-58106Y469294D01*
X-58094Y469327D01*
X-58069Y469368D01*
X-57015Y471967D01*
X-57009Y472001D01*
X-56991Y472045D01*
X-56379Y474782D01*
X-56378Y474817D01*
X-56368Y474864D01*
X-56215Y477664D01*
X-56220Y477699D01*
X-56218Y477747D01*
X-56528Y480534D01*
X-56538Y480567D01*
X-56544Y480615D01*
X-57309Y483313D01*
X-57325Y483344D01*
X-57338Y483390D01*
X-58536Y485926D01*
X-58554Y485949D01*
X-58564Y485977D01*
X-58613Y486028D01*
X-58655Y486085D01*
X-58680Y486100D01*
X-58700Y486121D01*
X-58766Y486149D01*
X-58827Y486185D01*
X-58856Y486189D01*
X-58883Y486201D01*
X-58954Y486201D01*
X-59024Y486210D01*
X-59052Y486203D01*
X-59082Y486203D01*
X-59174Y486168D01*
X-59216Y486157D01*
X-59225Y486150D01*
X-59237Y486145D01*
X-88637Y469145D01*
X-88659Y469125D01*
X-88686Y469113D01*
X-88733Y469060D01*
X-88786Y469013D01*
X-88799Y468987D01*
X-88818Y468965D01*
X-88841Y468897D01*
X-88872Y468833D01*
X-88873Y468804D01*
X-88883Y468777D01*
X-88878Y468706D01*
X-88881Y468635D01*
X-88870Y468607D01*
X-88868Y468578D01*
X-88826Y468488D01*
X-88811Y468448D01*
X-88804Y468440D01*
X-88798Y468428D01*
X-87198Y466124D01*
X-87173Y466100D01*
X-87146Y466061D01*
X-85189Y464052D01*
X-85160Y464032D01*
X-85126Y463998D01*
X-82866Y462338D01*
X-82834Y462324D01*
X-82795Y462295D01*
X-80292Y461030D01*
X-80259Y461021D01*
X-80216Y460999D01*
X-77539Y460164D01*
X-77504Y460160D01*
X-77458Y460146D01*
X-74680Y459763D01*
X-74645Y459765D01*
X-74598Y459758D01*
X-71794Y459837D01*
G37*
G36*
X76757Y459364D02*
X76757Y459364D01*
X76805Y459363D01*
X79583Y459746D01*
X79616Y459757D01*
X79664Y459764D01*
X82341Y460599D01*
X82371Y460616D01*
X82417Y460630D01*
X84920Y461895D01*
X84948Y461916D01*
X84991Y461938D01*
X87251Y463598D01*
X87275Y463623D01*
X87314Y463652D01*
X89271Y465661D01*
X89289Y465690D01*
X89323Y465724D01*
X90923Y468028D01*
X90934Y468055D01*
X90953Y468077D01*
X90973Y468145D01*
X91001Y468210D01*
X91001Y468240D01*
X91010Y468268D01*
X91002Y468338D01*
X91002Y468409D01*
X90991Y468436D01*
X90988Y468465D01*
X90953Y468527D01*
X90926Y468593D01*
X90905Y468613D01*
X90891Y468639D01*
X90814Y468702D01*
X90784Y468732D01*
X90773Y468736D01*
X90762Y468745D01*
X61362Y485745D01*
X61335Y485754D01*
X61311Y485771D01*
X61241Y485785D01*
X61174Y485808D01*
X61145Y485806D01*
X61116Y485812D01*
X61046Y485798D01*
X60976Y485793D01*
X60950Y485779D01*
X60921Y485774D01*
X60862Y485734D01*
X60799Y485701D01*
X60780Y485679D01*
X60756Y485662D01*
X60699Y485581D01*
X60672Y485548D01*
X60669Y485537D01*
X60661Y485526D01*
X59463Y482990D01*
X59454Y482957D01*
X59434Y482913D01*
X58669Y480215D01*
X58666Y480181D01*
X58653Y480134D01*
X58343Y477347D01*
X58345Y477319D01*
X58344Y477314D01*
X58345Y477309D01*
X58340Y477264D01*
X58493Y474464D01*
X58502Y474431D01*
X58504Y474382D01*
X59116Y471645D01*
X59130Y471614D01*
X59140Y471567D01*
X60194Y468968D01*
X60213Y468939D01*
X60231Y468894D01*
X61698Y466504D01*
X61722Y466478D01*
X61747Y466437D01*
X63587Y464321D01*
X63615Y464300D01*
X63646Y464264D01*
X65810Y462479D01*
X65841Y462463D01*
X65878Y462432D01*
X68306Y461029D01*
X68338Y461018D01*
X68380Y460993D01*
X71006Y460008D01*
X71040Y460003D01*
X71085Y459986D01*
X73837Y459446D01*
X73872Y459447D01*
X73919Y459437D01*
X76723Y459358D01*
X76757Y459364D01*
G37*
G36*
X-148864Y329582D02*
X-148864Y329582D01*
X-148851Y329581D01*
X-146056Y329815D01*
X-146022Y329824D01*
X-145974Y329828D01*
X-143256Y330518D01*
X-143225Y330534D01*
X-143178Y330545D01*
X-140611Y331674D01*
X-140582Y331694D01*
X-140538Y331713D01*
X-138191Y333248D01*
X-138167Y333273D01*
X-138126Y333299D01*
X-136064Y335200D01*
X-136053Y335215D01*
X-136041Y335223D01*
X-136030Y335241D01*
X-136009Y335261D01*
X-134287Y337475D01*
X-134272Y337506D01*
X-134242Y337544D01*
X-132909Y340011D01*
X-132899Y340044D01*
X-132876Y340087D01*
X-131967Y342740D01*
X-131963Y342774D01*
X-131947Y342820D01*
X-131487Y345586D01*
X-131489Y345621D01*
X-131481Y345669D01*
X-131482Y348473D01*
X-131489Y348507D01*
X-131489Y348555D01*
X-131953Y351321D01*
X-131965Y351353D01*
X-131973Y351401D01*
X-132885Y354053D01*
X-132903Y354083D01*
X-132919Y354128D01*
X-134255Y356594D01*
X-134277Y356621D01*
X-134300Y356663D01*
X-136024Y358875D01*
X-136051Y358898D01*
X-136080Y358936D01*
X-138145Y360834D01*
X-138174Y360852D01*
X-138210Y360884D01*
X-140559Y362417D01*
X-140591Y362429D01*
X-140631Y362456D01*
X-143200Y363581D01*
X-143234Y363588D01*
X-143278Y363607D01*
X-145997Y364294D01*
X-146032Y364296D01*
X-146079Y364308D01*
X-148874Y364537D01*
X-148903Y364534D01*
X-148931Y364539D01*
X-149001Y364522D01*
X-149071Y364514D01*
X-149096Y364499D01*
X-149125Y364493D01*
X-149182Y364450D01*
X-149244Y364415D01*
X-149261Y364392D01*
X-149285Y364375D01*
X-149321Y364314D01*
X-149364Y364257D01*
X-149371Y364229D01*
X-149386Y364204D01*
X-149403Y364106D01*
X-149413Y364064D01*
X-149412Y364053D01*
X-149414Y364039D01*
X-149391Y330078D01*
X-149386Y330050D01*
X-149388Y330021D01*
X-149366Y329953D01*
X-149352Y329884D01*
X-149335Y329859D01*
X-149326Y329832D01*
X-149279Y329778D01*
X-149239Y329720D01*
X-149214Y329704D01*
X-149195Y329682D01*
X-149131Y329651D01*
X-149071Y329613D01*
X-149043Y329608D01*
X-149016Y329595D01*
X-148917Y329587D01*
X-148875Y329580D01*
X-148864Y329582D01*
G37*
G36*
X150949Y414165D02*
X150949Y414165D01*
X151020Y414174D01*
X151045Y414188D01*
X151073Y414195D01*
X151130Y414237D01*
X151192Y414273D01*
X151210Y414296D01*
X151233Y414313D01*
X151269Y414374D01*
X151312Y414431D01*
X151319Y414459D01*
X151334Y414484D01*
X151351Y414583D01*
X151361Y414624D01*
X151359Y414635D01*
X151362Y414648D01*
X151339Y433688D01*
X151323Y433763D01*
X151315Y433839D01*
X151304Y433860D01*
X151299Y433882D01*
X151255Y433946D01*
X151218Y434013D01*
X151198Y434029D01*
X151186Y434046D01*
X151149Y434070D01*
X151090Y434119D01*
X134613Y443658D01*
X134585Y443668D01*
X134561Y443684D01*
X134492Y443699D01*
X134424Y443722D01*
X134395Y443720D01*
X134367Y443726D01*
X134297Y443712D01*
X134226Y443707D01*
X134200Y443693D01*
X134172Y443688D01*
X134112Y443648D01*
X134049Y443615D01*
X134031Y443593D01*
X134007Y443577D01*
X133949Y443495D01*
X133922Y443462D01*
X133919Y443452D01*
X133911Y443440D01*
X132597Y440670D01*
X132589Y440637D01*
X132568Y440595D01*
X131715Y437650D01*
X131713Y437616D01*
X131699Y437571D01*
X131330Y434527D01*
X131332Y434494D01*
X131326Y434447D01*
X131450Y431383D01*
X131458Y431351D01*
X131460Y431304D01*
X132073Y428299D01*
X132086Y428268D01*
X132095Y428222D01*
X133183Y425355D01*
X133201Y425327D01*
X133217Y425283D01*
X134750Y422627D01*
X134773Y422602D01*
X134796Y422561D01*
X136735Y420186D01*
X136761Y420165D01*
X136791Y420128D01*
X139086Y418095D01*
X139115Y418078D01*
X139150Y418047D01*
X141741Y416408D01*
X141773Y416396D01*
X141813Y416371D01*
X144633Y415169D01*
X144667Y415162D01*
X144710Y415143D01*
X147687Y414410D01*
X147721Y414408D01*
X147766Y414397D01*
X150822Y414150D01*
X150851Y414153D01*
X150880Y414149D01*
X150949Y414165D01*
G37*
G36*
X284320Y-9327D02*
X284320Y-9327D01*
X284349Y-9327D01*
X284443Y-9292D01*
X284484Y-9281D01*
X284492Y-9274D01*
X284505Y-9269D01*
X300982Y270D01*
X301040Y321D01*
X301102Y367D01*
X301114Y387D01*
X301131Y402D01*
X301164Y472D01*
X301203Y538D01*
X301208Y563D01*
X301216Y582D01*
X301218Y626D01*
X301231Y702D01*
X301254Y19741D01*
X301248Y19769D01*
X301251Y19798D01*
X301229Y19866D01*
X301215Y19936D01*
X301198Y19960D01*
X301189Y19987D01*
X301143Y20041D01*
X301102Y20100D01*
X301078Y20116D01*
X301059Y20138D01*
X300995Y20169D01*
X300935Y20207D01*
X300906Y20212D01*
X300880Y20225D01*
X300781Y20234D01*
X300739Y20241D01*
X300728Y20238D01*
X300715Y20239D01*
X297658Y19993D01*
X297626Y19983D01*
X297579Y19980D01*
X294602Y19246D01*
X294571Y19231D01*
X294526Y19220D01*
X291705Y18019D01*
X291677Y17999D01*
X291634Y17981D01*
X289042Y16343D01*
X289018Y16319D01*
X288978Y16294D01*
X286683Y14261D01*
X286663Y14234D01*
X286627Y14203D01*
X284688Y11828D01*
X284672Y11798D01*
X284642Y11762D01*
X283109Y9106D01*
X283099Y9074D01*
X283075Y9034D01*
X281988Y6167D01*
X281982Y6133D01*
X281965Y6090D01*
X281352Y3086D01*
X281352Y3052D01*
X281342Y3006D01*
X281219Y-58D01*
X281224Y-91D01*
X281222Y-138D01*
X281592Y-3182D01*
X281602Y-3214D01*
X281608Y-3261D01*
X282461Y-6206D01*
X282477Y-6236D01*
X282489Y-6281D01*
X283804Y-9051D01*
X283821Y-9074D01*
X283831Y-9102D01*
X283880Y-9153D01*
X283923Y-9210D01*
X283948Y-9225D01*
X283968Y-9246D01*
X284033Y-9274D01*
X284095Y-9310D01*
X284124Y-9314D01*
X284150Y-9325D01*
X284221Y-9326D01*
X284292Y-9335D01*
X284320Y-9327D01*
G37*
G36*
X-299077Y154133D02*
X-299077Y154133D01*
X-299064Y154132D01*
X-296007Y154378D01*
X-295975Y154388D01*
X-295928Y154391D01*
X-292951Y155125D01*
X-292920Y155140D01*
X-292875Y155151D01*
X-290054Y156352D01*
X-290026Y156372D01*
X-289983Y156390D01*
X-287391Y158029D01*
X-287367Y158052D01*
X-287327Y158077D01*
X-285032Y160110D01*
X-285012Y160137D01*
X-284976Y160168D01*
X-283037Y162543D01*
X-283021Y162573D01*
X-282991Y162609D01*
X-281458Y165265D01*
X-281448Y165297D01*
X-281424Y165337D01*
X-280337Y168204D01*
X-280331Y168238D01*
X-280314Y168281D01*
X-279701Y171286D01*
X-279701Y171319D01*
X-279691Y171365D01*
X-279568Y174429D01*
X-279573Y174462D01*
X-279571Y174509D01*
X-279941Y177553D01*
X-279951Y177585D01*
X-279957Y177632D01*
X-280810Y180577D01*
X-280825Y180607D01*
X-280838Y180652D01*
X-282153Y183422D01*
X-282170Y183445D01*
X-282180Y183473D01*
X-282229Y183524D01*
X-282272Y183581D01*
X-282297Y183596D01*
X-282317Y183617D01*
X-282382Y183645D01*
X-282444Y183681D01*
X-282473Y183685D01*
X-282499Y183696D01*
X-282570Y183697D01*
X-282641Y183706D01*
X-282669Y183698D01*
X-282698Y183698D01*
X-282792Y183663D01*
X-282833Y183652D01*
X-282841Y183645D01*
X-282854Y183640D01*
X-299331Y174101D01*
X-299389Y174050D01*
X-299451Y174004D01*
X-299463Y173984D01*
X-299480Y173969D01*
X-299513Y173899D01*
X-299552Y173833D01*
X-299557Y173808D01*
X-299565Y173789D01*
X-299567Y173745D01*
X-299580Y173669D01*
X-299603Y154630D01*
X-299597Y154602D01*
X-299600Y154573D01*
X-299578Y154505D01*
X-299564Y154435D01*
X-299547Y154411D01*
X-299538Y154384D01*
X-299492Y154330D01*
X-299451Y154271D01*
X-299427Y154255D01*
X-299408Y154233D01*
X-299344Y154202D01*
X-299284Y154164D01*
X-299255Y154159D01*
X-299229Y154146D01*
X-299130Y154138D01*
X-299088Y154130D01*
X-299077Y154133D01*
G37*
G36*
X-149072Y414283D02*
X-149072Y414283D01*
X-149059Y414281D01*
X-146003Y414528D01*
X-145970Y414538D01*
X-145923Y414541D01*
X-142946Y415275D01*
X-142916Y415289D01*
X-142870Y415300D01*
X-140049Y416502D01*
X-140021Y416521D01*
X-139978Y416539D01*
X-137387Y418178D01*
X-137362Y418202D01*
X-137322Y418227D01*
X-135027Y420260D01*
X-135007Y420287D01*
X-134972Y420318D01*
X-133032Y422693D01*
X-133017Y422723D01*
X-132987Y422759D01*
X-131454Y425414D01*
X-131443Y425447D01*
X-131419Y425487D01*
X-131004Y426581D01*
X-131004Y426582D01*
X-130815Y427081D01*
X-130625Y427580D01*
X-130436Y428079D01*
X-130332Y428354D01*
X-130326Y428387D01*
X-130310Y428431D01*
X-129696Y431435D01*
X-129696Y431469D01*
X-129687Y431515D01*
X-129563Y434579D01*
X-129569Y434612D01*
X-129566Y434659D01*
X-129936Y437703D01*
X-129947Y437735D01*
X-129952Y437782D01*
X-130805Y440727D01*
X-130821Y440757D01*
X-130834Y440802D01*
X-132148Y443572D01*
X-132165Y443595D01*
X-132175Y443622D01*
X-132225Y443674D01*
X-132267Y443731D01*
X-132292Y443746D01*
X-132312Y443767D01*
X-132378Y443795D01*
X-132439Y443831D01*
X-132468Y443835D01*
X-132495Y443846D01*
X-132566Y443847D01*
X-132637Y443856D01*
X-132664Y443848D01*
X-132693Y443848D01*
X-132787Y443813D01*
X-132828Y443802D01*
X-132836Y443795D01*
X-132849Y443790D01*
X-149326Y434251D01*
X-149384Y434199D01*
X-149446Y434154D01*
X-149458Y434134D01*
X-149475Y434119D01*
X-149508Y434049D01*
X-149548Y433983D01*
X-149552Y433958D01*
X-149561Y433939D01*
X-149563Y433895D01*
X-149576Y433819D01*
X-149598Y414780D01*
X-149593Y414751D01*
X-149595Y414722D01*
X-149573Y414655D01*
X-149559Y414585D01*
X-149543Y414561D01*
X-149534Y414533D01*
X-149487Y414480D01*
X-149447Y414421D01*
X-149422Y414405D01*
X-149403Y414383D01*
X-149339Y414352D01*
X-149279Y414313D01*
X-149251Y414309D01*
X-149225Y414296D01*
X-149125Y414287D01*
X-149083Y414280D01*
X-149072Y414283D01*
G37*
G36*
X300880Y154235D02*
X300880Y154235D01*
X300950Y154243D01*
X300976Y154258D01*
X301004Y154265D01*
X301061Y154307D01*
X301123Y154342D01*
X301140Y154365D01*
X301164Y154383D01*
X301200Y154444D01*
X301243Y154501D01*
X301250Y154529D01*
X301265Y154554D01*
X301281Y154652D01*
X301292Y154694D01*
X301290Y154705D01*
X301292Y154718D01*
X301270Y173757D01*
X301254Y173833D01*
X301246Y173909D01*
X301234Y173929D01*
X301230Y173952D01*
X301186Y174016D01*
X301149Y174083D01*
X301129Y174099D01*
X301117Y174116D01*
X301080Y174140D01*
X301021Y174189D01*
X284543Y183728D01*
X284516Y183737D01*
X284492Y183754D01*
X284423Y183769D01*
X284355Y183792D01*
X284326Y183789D01*
X284298Y183795D01*
X284228Y183782D01*
X284157Y183776D01*
X284131Y183763D01*
X284102Y183758D01*
X284043Y183718D01*
X283980Y183685D01*
X283962Y183663D01*
X283937Y183646D01*
X283880Y183564D01*
X283853Y183532D01*
X283850Y183521D01*
X283842Y183510D01*
X282528Y180740D01*
X282520Y180707D01*
X282499Y180665D01*
X281646Y177720D01*
X281643Y177686D01*
X281630Y177641D01*
X281260Y174597D01*
X281263Y174563D01*
X281257Y174517D01*
X281381Y171453D01*
X281389Y171420D01*
X281390Y171373D01*
X282004Y168369D01*
X282017Y168338D01*
X282026Y168292D01*
X283113Y165425D01*
X283131Y165396D01*
X283148Y165353D01*
X284681Y162697D01*
X284703Y162672D01*
X284727Y162631D01*
X286666Y160256D01*
X286692Y160234D01*
X286721Y160198D01*
X289016Y158165D01*
X289046Y158148D01*
X289081Y158116D01*
X291672Y156478D01*
X291704Y156466D01*
X291743Y156440D01*
X294564Y155238D01*
X294597Y155232D01*
X294640Y155213D01*
X297617Y154479D01*
X297651Y154478D01*
X297697Y154466D01*
X300753Y154220D01*
X300782Y154223D01*
X300810Y154218D01*
X300880Y154235D01*
G37*
G36*
X-282577Y-9411D02*
X-282577Y-9411D01*
X-282506Y-9405D01*
X-282480Y-9392D01*
X-282451Y-9387D01*
X-282392Y-9347D01*
X-282329Y-9314D01*
X-282311Y-9292D01*
X-282286Y-9275D01*
X-282229Y-9193D01*
X-282202Y-9161D01*
X-282199Y-9150D01*
X-282191Y-9139D01*
X-280877Y-6369D01*
X-280869Y-6336D01*
X-280848Y-6294D01*
X-279995Y-3349D01*
X-279992Y-3315D01*
X-279979Y-3270D01*
X-279609Y-226D01*
X-279612Y-192D01*
X-279606Y-146D01*
X-279730Y2918D01*
X-279738Y2951D01*
X-279739Y2998D01*
X-280353Y6002D01*
X-280366Y6033D01*
X-280375Y6079D01*
X-281462Y8946D01*
X-281480Y8975D01*
X-281497Y9018D01*
X-283030Y11674D01*
X-283052Y11699D01*
X-283076Y11740D01*
X-285015Y14115D01*
X-285041Y14137D01*
X-285070Y14173D01*
X-287365Y16206D01*
X-287395Y16223D01*
X-287430Y16255D01*
X-290021Y17893D01*
X-290053Y17905D01*
X-290092Y17931D01*
X-292913Y19133D01*
X-292946Y19139D01*
X-292989Y19158D01*
X-295966Y19892D01*
X-296000Y19893D01*
X-296046Y19905D01*
X-299102Y20151D01*
X-299131Y20148D01*
X-299159Y20153D01*
X-299229Y20136D01*
X-299299Y20128D01*
X-299325Y20113D01*
X-299353Y20106D01*
X-299410Y20064D01*
X-299472Y20029D01*
X-299489Y20006D01*
X-299513Y19988D01*
X-299549Y19927D01*
X-299592Y19870D01*
X-299599Y19842D01*
X-299614Y19817D01*
X-299630Y19719D01*
X-299641Y19677D01*
X-299639Y19667D01*
X-299641Y19653D01*
X-299619Y614D01*
X-299603Y538D01*
X-299595Y462D01*
X-299583Y442D01*
X-299579Y419D01*
X-299535Y356D01*
X-299498Y288D01*
X-299478Y272D01*
X-299466Y255D01*
X-299429Y231D01*
X-299370Y182D01*
X-282892Y-9357D01*
X-282865Y-9366D01*
X-282841Y-9383D01*
X-282772Y-9398D01*
X-282704Y-9421D01*
X-282675Y-9418D01*
X-282647Y-9424D01*
X-282577Y-9411D01*
G37*
G36*
X2379Y500856D02*
X2379Y500856D01*
X2426Y500855D01*
X5452Y501347D01*
X5484Y501359D01*
X5530Y501366D01*
X8439Y502337D01*
X8468Y502354D01*
X8512Y502369D01*
X11227Y503794D01*
X11254Y503815D01*
X11295Y503837D01*
X13747Y505679D01*
X13769Y505704D01*
X13807Y505732D01*
X15931Y507943D01*
X15949Y507972D01*
X15982Y508005D01*
X17723Y510529D01*
X17735Y510556D01*
X17753Y510578D01*
X17774Y510646D01*
X17801Y510712D01*
X17802Y510741D01*
X17810Y510768D01*
X17802Y510840D01*
X17802Y510911D01*
X17791Y510937D01*
X17788Y510966D01*
X17753Y511028D01*
X17725Y511094D01*
X17704Y511114D01*
X17690Y511139D01*
X17613Y511203D01*
X17582Y511233D01*
X17572Y511237D01*
X17562Y511245D01*
X1062Y520745D01*
X989Y520769D01*
X918Y520800D01*
X895Y520801D01*
X873Y520808D01*
X796Y520802D01*
X719Y520803D01*
X695Y520794D01*
X675Y520792D01*
X635Y520772D01*
X563Y520745D01*
X-15937Y511245D01*
X-15958Y511226D01*
X-15985Y511214D01*
X-16032Y511161D01*
X-16086Y511114D01*
X-16098Y511088D01*
X-16118Y511066D01*
X-16141Y510999D01*
X-16172Y510934D01*
X-16173Y510905D01*
X-16182Y510878D01*
X-16178Y510807D01*
X-16181Y510736D01*
X-16171Y510709D01*
X-16169Y510680D01*
X-16126Y510589D01*
X-16112Y510549D01*
X-16104Y510541D01*
X-16098Y510529D01*
X-14357Y508005D01*
X-14332Y507982D01*
X-14306Y507943D01*
X-12182Y505732D01*
X-12154Y505713D01*
X-12122Y505679D01*
X-9670Y503837D01*
X-9640Y503822D01*
X-9602Y503794D01*
X-6887Y502369D01*
X-6855Y502359D01*
X-6814Y502337D01*
X-3905Y501366D01*
X-3871Y501362D01*
X-3827Y501347D01*
X-801Y500855D01*
X-767Y500857D01*
X-721Y500849D01*
X2346Y500849D01*
X2379Y500856D01*
G37*
D10*
X-44450Y450150D03*
X-44450Y438150D03*
X-44450Y426150D03*
D11*
X-90488Y411163D03*
D12*
X55563Y378850D03*
X55563Y395850D03*
D13*
X62938Y415925D03*
X79938Y415925D03*
D12*
X-57150Y343925D03*
X-57150Y360925D03*
X-40713Y409575D03*
X-57713Y409575D03*
X-40713Y400050D03*
X-57713Y400050D03*
X-39688Y343925D03*
X-39688Y360925D03*
D14*
X96838Y334963D03*
X96838Y360363D03*
X96838Y385763D03*
D15*
X-25863Y401118D03*
X-25863Y406119D03*
X-25863Y411121D03*
X-25863Y416122D03*
X-25863Y421123D03*
X-25863Y426124D03*
X-25863Y431126D03*
X-25863Y436127D03*
X-25863Y441128D03*
X-25863Y446129D03*
X-25863Y451131D03*
X-25863Y456132D03*
D16*
X-19570Y462425D03*
X-14569Y462425D03*
X-9567Y462425D03*
X-4566Y462425D03*
X436Y462425D03*
X5437Y462425D03*
X10439Y462425D03*
X15440Y462425D03*
X20441Y462425D03*
X25442Y462425D03*
X30444Y462425D03*
X35445Y462425D03*
D15*
X41738Y456132D03*
X41738Y451131D03*
X41738Y446129D03*
X41738Y441128D03*
X41738Y436127D03*
X41738Y431126D03*
X41738Y426124D03*
X41738Y421123D03*
X41738Y416122D03*
X41738Y411121D03*
X41738Y406119D03*
X41738Y401118D03*
D16*
X35445Y394825D03*
X30444Y394825D03*
X25442Y394825D03*
X20441Y394825D03*
X15440Y394825D03*
X10439Y394825D03*
X5437Y394825D03*
X436Y394825D03*
X-4566Y394825D03*
X-9567Y394825D03*
X-14569Y394825D03*
X-19570Y394825D03*
D17*
X7938Y428625D03*
D18*
X-38213Y330200D03*
X-60213Y330200D03*
D19*
X-25400Y112688D03*
X-25400Y93688D03*
X-25625Y125413D03*
X-25625Y144413D03*
D20*
X26938Y117700D03*
X7938Y117700D03*
D19*
X-4763Y112688D03*
X-4763Y93688D03*
X-4988Y125413D03*
X-4988Y144413D03*
D20*
X-119063Y287112D03*
X-138063Y287112D03*
X-76200Y287112D03*
X-95200Y287112D03*
X-39150Y373288D03*
X-58150Y373288D03*
X-39150Y387575D03*
X-58150Y387575D03*
D21*
X813Y512313D03*
X143911Y429687D03*
X-70188Y471213D03*
X72313Y470813D03*
X143835Y346351D03*
X-142148Y429819D03*
X-141957Y347090D03*
X-292153Y169669D03*
X-292191Y4614D03*
X-220238Y211353D03*
X293804Y4702D03*
X293842Y169757D03*
X222733Y210898D03*
D22*
X-105283Y90742D03*
X-155067Y115634D03*
D23*
X112713Y-46038D03*
D24*
X61913Y-46038D03*
D23*
X-63713Y-46038D03*
D24*
X-114513Y-46038D03*
D25*
X-53975Y269400D03*
X-53975Y302100D03*
X-30163Y269400D03*
X-30163Y302100D03*
M02*
