G04 EAGLE Gerber RS-274X export*
G75*
%MOMM*%
%FSLAX34Y34*%
%LPD*%
%INSolderpaste Top*%
%IPPOS*%
%AMOC8*
5,1,8,0,0,1.08239X$1,22.5*%
G01*
%ADD10R,0.800000X0.800000*%
%ADD11R,1.000000X1.100000*%
%ADD12C,0.112000*%
%ADD13C,0.200000*%
%ADD14R,1.100000X1.000000*%
%ADD15R,1.400000X1.000000*%
%ADD16R,2.250000X13.500000*%
%ADD17R,1.300000X3.700000*%
%ADD18R,10.300000X8.900000*%


D10*
X80525Y415925D03*
X65525Y415925D03*
D11*
X-25400Y456638D03*
X-25400Y473638D03*
X-10088Y87313D03*
X6913Y87313D03*
D12*
X-50760Y276635D02*
X-50760Y287515D01*
X-50760Y276635D02*
X-57640Y276635D01*
X-57640Y287515D01*
X-50760Y287515D01*
X-50760Y277699D02*
X-57640Y277699D01*
X-57640Y278763D02*
X-50760Y278763D01*
X-50760Y279827D02*
X-57640Y279827D01*
X-57640Y280891D02*
X-50760Y280891D01*
X-50760Y281955D02*
X-57640Y281955D01*
X-57640Y283019D02*
X-50760Y283019D01*
X-50760Y284083D02*
X-57640Y284083D01*
X-57640Y285147D02*
X-50760Y285147D01*
X-50760Y286211D02*
X-57640Y286211D01*
X-57640Y287275D02*
X-50760Y287275D01*
X-25360Y287515D02*
X-25360Y276635D01*
X-32240Y276635D01*
X-32240Y287515D01*
X-25360Y287515D01*
X-25360Y277699D02*
X-32240Y277699D01*
X-32240Y278763D02*
X-25360Y278763D01*
X-25360Y279827D02*
X-32240Y279827D01*
X-32240Y280891D02*
X-25360Y280891D01*
X-25360Y281955D02*
X-32240Y281955D01*
X-32240Y283019D02*
X-25360Y283019D01*
X-25360Y284083D02*
X-32240Y284083D01*
X-32240Y285147D02*
X-25360Y285147D01*
X-25360Y286211D02*
X-32240Y286211D01*
X-32240Y287275D02*
X-25360Y287275D01*
X-25360Y339635D02*
X-25360Y350515D01*
X-25360Y339635D02*
X-32240Y339635D01*
X-32240Y350515D01*
X-25360Y350515D01*
X-25360Y340699D02*
X-32240Y340699D01*
X-32240Y341763D02*
X-25360Y341763D01*
X-25360Y342827D02*
X-32240Y342827D01*
X-32240Y343891D02*
X-25360Y343891D01*
X-25360Y344955D02*
X-32240Y344955D01*
X-32240Y346019D02*
X-25360Y346019D01*
X-25360Y347083D02*
X-32240Y347083D01*
X-32240Y348147D02*
X-25360Y348147D01*
X-25360Y349211D02*
X-32240Y349211D01*
X-32240Y350275D02*
X-25360Y350275D01*
X-50760Y350515D02*
X-50760Y339635D01*
X-57640Y339635D01*
X-57640Y350515D01*
X-50760Y350515D01*
X-50760Y340699D02*
X-57640Y340699D01*
X-57640Y341763D02*
X-50760Y341763D01*
X-50760Y342827D02*
X-57640Y342827D01*
X-57640Y343891D02*
X-50760Y343891D01*
X-50760Y344955D02*
X-57640Y344955D01*
X-57640Y346019D02*
X-50760Y346019D01*
X-50760Y347083D02*
X-57640Y347083D01*
X-57640Y348147D02*
X-50760Y348147D01*
X-50760Y349211D02*
X-57640Y349211D01*
X-57640Y350275D02*
X-50760Y350275D01*
D13*
X43038Y351825D02*
X43038Y339825D01*
X43038Y351825D02*
X49038Y351825D01*
X49038Y339825D01*
X43038Y339825D01*
X43038Y341725D02*
X49038Y341725D01*
X49038Y343625D02*
X43038Y343625D01*
X43038Y345525D02*
X49038Y345525D01*
X49038Y347425D02*
X43038Y347425D01*
X43038Y349325D02*
X49038Y349325D01*
X49038Y351225D02*
X43038Y351225D01*
X17638Y351825D02*
X17638Y339825D01*
X17638Y351825D02*
X23638Y351825D01*
X23638Y339825D01*
X17638Y339825D01*
X17638Y341725D02*
X23638Y341725D01*
X23638Y343625D02*
X17638Y343625D01*
X17638Y345525D02*
X23638Y345525D01*
X23638Y347425D02*
X17638Y347425D01*
X17638Y349325D02*
X23638Y349325D01*
X23638Y351225D02*
X17638Y351225D01*
X17638Y288825D02*
X17638Y276825D01*
X17638Y288825D02*
X23638Y288825D01*
X23638Y276825D01*
X17638Y276825D01*
X17638Y278725D02*
X23638Y278725D01*
X23638Y280625D02*
X17638Y280625D01*
X17638Y282525D02*
X23638Y282525D01*
X23638Y284425D02*
X17638Y284425D01*
X17638Y286325D02*
X23638Y286325D01*
X23638Y288225D02*
X17638Y288225D01*
X43038Y288825D02*
X43038Y276825D01*
X43038Y288825D02*
X49038Y288825D01*
X49038Y276825D01*
X43038Y276825D01*
X43038Y278725D02*
X49038Y278725D01*
X49038Y280625D02*
X43038Y280625D01*
X43038Y282525D02*
X49038Y282525D01*
X49038Y284425D02*
X43038Y284425D01*
X43038Y286325D02*
X49038Y286325D01*
X49038Y288225D02*
X43038Y288225D01*
D14*
X6913Y96838D03*
X-10088Y96838D03*
D11*
X-12700Y412188D03*
X-12700Y429188D03*
D15*
X20525Y393700D03*
X-1475Y384200D03*
X-1475Y403200D03*
D14*
X33338Y383150D03*
X33338Y366150D03*
X3175Y412188D03*
X3175Y429188D03*
D11*
X23813Y366150D03*
X23813Y383150D03*
X-72000Y358775D03*
X-55000Y358775D03*
D14*
X-45013Y358775D03*
X-28013Y358775D03*
X49213Y366150D03*
X49213Y383150D03*
D11*
X-13263Y439738D03*
X3738Y439738D03*
D16*
X-76200Y198438D03*
X76300Y198438D03*
D14*
X-12700Y402200D03*
X-12700Y385200D03*
D17*
X-25400Y97513D03*
D18*
X0Y203513D03*
D17*
X25400Y97513D03*
M02*
